<svg width="209" height="128" viewBox="0 0 209 128" fill="none" xmlns="http://www.w3.org/2000/svg">
<path d="M17.8425 111.469C17.8425 111.469 17.786 109.967 17.6793 107.147C17.5955 104.326 17.4741 100.192 17.3213 94.9275C17.2565 92.2964 17.1874 89.3828 17.1099 86.2117C17.0513 83.0385 16.9864 79.6079 16.9174 75.9428C16.7834 68.6127 16.7039 60.3407 16.6181 51.3193C16.5741 42.2958 16.5008 32.5209 16.5741 22.183C16.6013 19.6 16.6285 16.9794 16.6557 14.3275C16.6662 13.6639 16.6767 12.9983 16.6892 12.3327L16.7081 11.3301L16.7185 10.8277L16.7541 10.2605C16.7688 10.0868 16.7688 9.94027 16.7981 9.74351L16.8943 9.14069C16.9488 8.72625 17.0681 8.37251 17.1665 7.99994C17.382 7.26316 17.7002 6.55986 18.0686 5.88587C19.5945 3.22132 22.3553 1.25588 25.4364 0.839347C25.8173 0.778646 26.2004 0.736784 26.5876 0.736784C26.9874 0.717946 27.3391 0.722135 27.6802 0.7326C28.3752 0.745159 29.0743 0.759812 29.7713 0.774464C31.1695 0.801675 32.574 0.828879 33.9826 0.858183C45.2625 1.11354 56.9149 1.25588 68.7578 1.23914C74.6793 1.23286 80.6468 1.19099 86.6394 1.1282C92.63 1.03192 98.6456 0.937722 104.661 0.843531C110.675 0.732595 116.69 0.623759 122.683 0.512823C128.674 0.441657 134.641 0.370489 140.563 0.29723C152.405 0.211411 164.06 0.125589 175.338 0.0439566C176.746 0.0355841 178.151 0.0251175 179.549 0.016745C180.248 0.0104656 180.945 0.00627938 181.64 0.00209313L181.902 1.14865e-06H182.032L182.249 0.00837704L182.77 0.0355887C183.074 0.0334956 183.583 0.121406 184.001 0.182107C187.298 0.734692 190.126 2.84247 191.729 5.62842C192.537 7.02035 193.027 8.5881 193.159 10.1726C193.178 10.5556 193.209 10.9931 193.209 11.3301L193.211 12.3327C193.209 12.9983 193.209 13.6639 193.209 14.3275C193.192 16.9794 193.178 19.6 193.163 22.183C193.131 32.5209 193.002 42.2958 192.887 51.3193C192.774 60.3407 192.692 68.6127 192.518 75.9428C192.359 83.273 192.265 89.6654 192.112 94.9275C191.966 100.192 191.85 104.326 191.771 107.147C191.675 109.967 191.624 111.469 191.624 111.469H191.298C191.298 111.469 191.246 109.967 191.149 107.147C191.072 104.326 190.957 100.192 190.808 94.9275C190.655 89.6654 190.561 83.273 190.404 75.9428C190.228 68.6127 190.147 60.3407 190.034 51.3193C189.919 42.2958 189.789 32.5209 189.757 22.183C189.743 19.6 189.728 16.9794 189.713 14.3275C189.711 13.6639 189.711 12.9983 189.711 12.3327V11.3301C189.711 10.9973 189.684 10.767 189.678 10.4803C189.59 9.38977 189.255 8.31809 188.7 7.36153C187.614 5.44842 185.619 3.97276 183.426 3.60856C183.158 3.57925 182.986 3.50808 182.595 3.5039L182.073 3.47668C182.069 3.47668 181.9 3.47041 182.032 3.4725H181.902H181.64C180.945 3.46831 180.248 3.46413 179.549 3.45785C178.151 3.44948 176.746 3.43901 175.338 3.42854C164.06 3.34691 152.405 3.2611 140.563 3.17528C134.641 3.10411 128.674 3.03295 122.683 2.95969C116.69 2.85084 110.675 2.742 104.661 2.63106C98.6456 2.53687 92.63 2.44059 86.6394 2.3464C80.6468 2.28361 74.6793 2.23965 68.7578 2.23546C56.9149 2.21872 45.2625 2.36105 33.9826 2.61641C32.574 2.64362 31.1695 2.67293 29.7713 2.70014C28.3856 2.75247 26.9204 2.68549 25.7755 2.89899C23.3496 3.31971 21.2669 4.96072 20.1743 7.04129C19.9168 7.56875 19.6929 8.11296 19.5526 8.67811C19.4919 8.96068 19.404 9.25162 19.3852 9.50908L19.3307 9.90259C19.3119 10.0386 19.3161 10.2291 19.3077 10.3903L19.2952 10.8277L19.3035 11.3301L19.3224 12.3327C19.3349 12.9983 19.3454 13.6639 19.3559 14.3275C19.3831 16.9794 19.4103 19.6 19.4375 22.183C19.5108 32.5209 19.4375 42.2958 19.3935 51.3193C19.3077 60.3407 19.2282 68.6127 19.0942 75.9428C19.0252 79.6079 18.9603 83.0385 18.9017 86.2117C18.8242 89.3828 18.7551 92.2964 18.6903 94.9275C18.5375 100.192 18.4161 104.326 18.3323 107.147C18.2256 109.967 18.1691 111.469 18.1691 111.469H17.8425Z" fill="#231F20"/>
<path d="M201.123 125.969C201.123 125.969 201.225 125.962 201.426 125.952C201.629 125.944 201.928 125.927 202.32 125.854C203.088 125.709 204.271 125.397 205.48 124.439C206.671 123.518 207.894 121.866 208.147 119.67C208.292 118.553 208.122 117.355 207.643 116.19C207.151 115.036 206.309 113.935 205.152 113.146C204.572 112.757 203.927 112.43 203.226 112.219C202.517 112.016 201.803 111.926 201.001 111.932C199.371 111.974 197.665 112.016 195.886 112.06C192.327 112.16 188.48 112.269 184.369 112.384C176.147 112.619 166.873 112.949 156.752 113.19C146.634 113.452 135.673 113.533 124.077 113.598C121.178 113.617 118.241 113.636 115.267 113.655C112.292 113.653 109.28 113.651 106.237 113.651C100.15 113.644 93.9314 113.651 87.606 113.586C74.9572 113.485 61.8877 113.381 48.6069 113.276C35.326 113.173 21.8337 112.862 8.34137 112.587C6.90758 112.569 5.47168 113.037 4.32465 113.937C3.18808 114.84 2.36758 116.15 2.05151 117.577L1.96151 118.08C1.93849 118.272 1.93012 118.496 1.91338 118.701C1.90919 119.017 1.9029 119.428 1.9636 119.781C2.05779 120.514 2.2713 121.234 2.61248 121.898C3.29693 123.218 4.44605 124.307 5.82752 124.912L6.35498 125.113L6.8992 125.261C7.26968 125.334 7.56691 125.406 8.01903 125.42C8.78302 125.462 9.67678 125.445 10.4973 125.462C12.1739 125.479 13.8484 125.496 15.5187 125.512C18.8635 125.525 22.1958 125.538 25.5155 125.55C38.7984 125.571 51.8679 125.393 64.5167 125.073C70.84 124.937 77.0608 124.803 83.1476 124.671C86.191 124.608 89.201 124.545 92.1753 124.485C95.1496 124.451 98.0884 124.416 100.987 124.382C112.581 124.311 123.543 124.332 133.663 124.552C143.781 124.755 153.058 125.073 161.28 125.297C165.391 125.412 169.238 125.517 172.794 125.617C176.352 125.713 179.62 125.778 182.571 125.814C188.474 125.929 193.112 125.933 196.275 125.948C199.435 125.96 201.123 125.969 201.123 125.969ZM201.123 126.377C201.123 126.377 199.435 126.385 196.275 126.4C193.112 126.412 188.474 126.417 182.571 126.532C179.62 126.567 176.352 126.632 172.794 126.731C169.238 126.829 165.391 126.934 161.28 127.049C153.058 127.273 143.781 127.593 133.663 127.794C123.543 128.014 112.581 128.035 100.987 127.963C98.0884 127.93 95.1496 127.896 92.1753 127.861C89.201 127.8 86.191 127.737 83.1476 127.675C77.0608 127.543 70.84 127.409 64.5167 127.273C51.8679 126.952 38.7984 126.775 25.5155 126.795C22.1958 126.808 18.8635 126.821 15.5187 126.833C13.8484 126.85 12.1739 126.867 10.4973 126.883C9.64329 126.883 8.85837 126.919 7.94576 126.89C7.55644 126.89 7.02479 126.812 6.57267 126.722L5.90078 126.553L5.24563 126.318C3.52089 125.63 2.03896 124.34 1.11798 122.701C0.657492 121.881 0.349798 120.977 0.194907 120.045C0.104903 119.57 0.0860775 119.133 0.0839844 118.609C0.0923569 118.396 0.0923431 118.197 0.109088 117.969L0.207475 117.224C0.550748 115.344 1.55545 113.6 3.01855 112.349C4.48374 111.103 6.40104 110.39 8.34137 110.352C21.8337 110.078 35.326 109.764 48.6069 109.663C61.8877 109.559 74.9572 109.454 87.606 109.353C93.9314 109.289 100.15 109.295 106.237 109.289C109.28 109.289 112.292 109.286 115.267 109.284C118.241 109.303 121.178 109.322 124.077 109.341C135.673 109.406 146.634 109.487 156.752 109.749C166.873 109.99 176.147 110.318 184.369 110.555C188.48 110.67 192.327 110.779 195.886 110.879C197.665 110.923 199.371 110.965 201.001 111.007C201.828 111.024 202.705 111.156 203.482 111.413C204.262 111.675 204.972 112.064 205.6 112.516C206.856 113.437 207.737 114.676 208.231 115.951C208.708 117.232 208.844 118.557 208.689 119.712C208.382 122.119 207.05 123.834 205.767 124.811C204.467 125.814 203.205 126.13 202.389 126.27C201.974 126.343 201.656 126.358 201.443 126.362C201.231 126.373 201.123 126.377 201.123 126.377Z" fill="#231F20"/>
<path d="M19.8488 99.9106C19.8488 99.9106 20.2569 99.8834 20.8702 99.8458C21.4835 99.8039 22.2998 99.7516 23.1161 99.716C24.7509 99.6364 26.3835 99.5569 26.3835 99.5569C26.6472 99.5443 26.8712 99.7474 26.8838 100.009C26.8963 100.273 26.6933 100.497 26.4295 100.509C26.4149 100.509 26.3981 100.509 26.3835 100.509C26.3835 100.509 24.7509 100.43 23.1161 100.35C22.2998 100.315 21.4835 100.262 20.8702 100.22C20.2569 100.183 19.8488 100.156 19.8488 100.156C19.7818 100.151 19.7294 100.093 19.7336 100.026C19.7378 99.963 19.7881 99.9148 19.8488 99.9106Z" fill="#231F20"/>
<path d="M32.9186 99.2919L39.4534 99.1119C39.962 99.0993 40.3848 99.4991 40.3995 100.008C40.4141 100.516 40.0122 100.939 39.5036 100.954C39.489 100.954 39.4701 100.954 39.4534 100.954L32.9186 100.774C32.5084 100.763 32.186 100.422 32.1986 100.012C32.2091 99.6184 32.5293 99.3045 32.9186 99.2919Z" fill="#231F20"/>
<path d="M45.9877 98.996L52.5225 98.9416C53.1253 98.9353 53.6193 99.421 53.6235 100.024C53.6298 100.627 53.1441 101.121 52.5413 101.125H52.5225L45.9877 101.07C45.4142 101.066 44.9537 100.597 44.96 100.024C44.9642 99.4586 45.4226 99.0002 45.9877 98.996Z" fill="#231F20"/>
<path d="M59.0579 98.9552C59.0579 98.9552 60.6926 98.9845 62.3253 99.0138C63.96 99.0473 65.5926 99.1101 65.5926 99.1101C66.1034 99.129 66.5011 99.5581 66.4801 100.069C66.4613 100.552 66.0699 100.937 65.5926 100.956C65.5926 100.956 63.96 101.019 62.3253 101.053C60.6926 101.082 59.0579 101.111 59.0579 101.111C58.4635 101.122 57.9716 100.646 57.9611 100.052C57.9506 99.4576 58.4237 98.9657 59.0202 98.9552C59.0307 98.9552 59.0474 98.9552 59.0579 98.9552Z" fill="#231F20"/>
<path d="M72.1286 99.3237L78.6633 99.5434C78.9334 99.5518 79.1469 99.78 79.1364 100.05C79.128 100.31 78.9187 100.515 78.6633 100.523L72.1286 100.743C71.7372 100.755 71.4086 100.45 71.396 100.056C71.3814 99.6648 71.689 99.3362 72.0805 99.3237C72.0972 99.3237 72.114 99.3237 72.1286 99.3237" fill="#231F20"/>
<path d="M85.1988 99.6476C85.1988 99.6476 86.8335 99.6538 88.4661 99.6622C90.1009 99.6538 91.7335 99.6455 91.7335 99.6455C91.947 99.6434 92.1228 99.8171 92.1228 100.031C92.1249 100.246 91.9512 100.42 91.7377 100.42H91.7335C91.7335 100.42 90.1009 100.412 88.4661 100.403C86.8335 100.412 85.1988 100.42 85.1988 100.42C84.9853 100.42 84.8115 100.248 84.8115 100.035C84.8094 99.8213 84.9832 99.6476 85.1946 99.6476H85.1988Z" fill="#231F20"/>
<path d="M98.2667 99.539L104.801 99.3631C105.172 99.3527 105.48 99.6457 105.49 100.016C105.501 100.385 105.208 100.694 104.837 100.705C104.827 100.705 104.814 100.705 104.801 100.705L98.2667 100.527C97.9946 100.521 97.779 100.292 97.7853 100.02C97.7937 99.7566 98.0072 99.5473 98.2667 99.539Z" fill="#231F20"/>
<path d="M111.337 99.1586C111.337 99.1586 112.972 99.1041 114.605 99.0769L117.872 99.01C118.437 98.9995 118.904 99.4474 118.917 100.013C118.927 100.576 118.479 101.044 117.914 101.055C117.901 101.055 117.885 101.055 117.872 101.055L114.605 100.988C112.972 100.961 111.337 100.906 111.337 100.906C110.854 100.892 110.475 100.488 110.492 100.004C110.506 99.5416 110.881 99.1753 111.337 99.1586Z" fill="#231F20"/>
<path d="M124.408 98.8996L130.943 98.8222C131.61 98.8159 132.159 99.3517 132.167 100.019C132.176 100.687 131.64 101.236 130.972 101.244H130.943L124.408 101.166C123.782 101.158 123.28 100.645 123.288 100.019C123.294 99.404 123.795 98.908 124.408 98.8996Z" fill="#231F20"/>
<path d="M137.476 98.7466C137.476 98.7466 139.111 98.7382 140.744 98.7277L144.011 98.7235C144.735 98.7235 145.321 99.3075 145.321 100.032C145.323 100.754 144.737 101.342 144.015 101.342H144.011L140.744 101.338C139.111 101.329 137.476 101.319 137.476 101.319C136.767 101.317 136.193 100.737 136.197 100.025C136.201 99.3201 136.773 98.7508 137.476 98.7466Z" fill="#231F20"/>
<path d="M150.547 98.7575L157.082 98.8307C157.746 98.8391 158.277 99.3833 158.271 100.047C158.263 100.7 157.733 101.227 157.082 101.236L150.547 101.309C149.842 101.317 149.266 100.752 149.258 100.047C149.25 99.3435 149.815 98.7658 150.518 98.7575H150.547Z" fill="#231F20"/>
<path d="M163.617 98.9478L170.151 99.1089C170.662 99.1215 171.066 99.5443 171.054 100.055C171.041 100.551 170.641 100.945 170.151 100.957L163.617 101.118C163.018 101.133 162.52 100.66 162.505 100.059C162.491 99.4606 162.964 98.9624 163.562 98.9478C163.579 98.9478 163.6 98.9478 163.617 98.9478" fill="#231F20"/>
<path d="M176.688 99.3295C176.688 99.3295 178.322 99.386 179.955 99.4404C181.59 99.4907 183.222 99.5807 183.222 99.5807C183.474 99.5953 183.664 99.8088 183.649 100.058C183.637 100.29 183.451 100.472 183.222 100.485C183.222 100.485 181.59 100.575 179.955 100.625C178.322 100.682 176.688 100.736 176.688 100.736C176.298 100.751 175.974 100.445 175.959 100.058C175.947 99.6686 176.25 99.342 176.64 99.3295C176.654 99.3295 176.673 99.3295 176.688 99.3295Z" fill="#231F20"/>
<path d="M48.3019 8.80005C48.3019 8.80005 48.3563 8.97587 48.4421 9.30658C48.5028 9.64776 48.6745 10.0957 48.6849 10.7634C48.71 11.092 48.7205 11.4646 48.7163 11.8707C48.6891 12.2621 48.6535 12.6891 48.5949 13.1475C48.5279 13.6038 48.3961 14.0747 48.2663 14.5792C48.1303 15.0815 47.9 15.5797 47.6928 16.1155C47.1842 17.1349 46.5562 18.238 45.6059 19.1568C44.6996 20.1155 43.4458 20.7999 42.1774 21.3714C40.8922 21.9365 39.5526 22.3384 38.2214 22.8052C36.8671 23.2175 35.4689 23.565 33.9933 23.8308C33.1874 23.8894 32.6181 24.0255 31.7787 23.9836C31.3936 23.9606 30.975 23.9731 30.6108 23.9103L29.491 23.7157C28.03 23.3515 26.6066 22.8219 25.357 22.0642C24.1116 21.3128 22.9981 20.4002 22.1713 19.3431C21.7255 18.845 21.3906 18.2798 21.0494 17.7586C20.7312 17.2186 20.4738 16.6681 20.2352 16.1469C20.0447 15.5985 19.8416 15.0899 19.7098 14.5834C19.5863 14.0768 19.4774 13.5975 19.4146 13.1412C19.3602 12.6828 19.3267 12.2537 19.3037 11.8623C19.3037 11.4667 19.3184 11.1046 19.3414 10.7822C19.3498 10.1376 19.5088 9.6352 19.5633 9.3003C19.6428 8.96959 19.6847 8.79167 19.6847 8.79167H20.0112C20.0112 8.79167 20.0719 8.96122 20.1849 9.27937C20.3063 9.59334 20.3984 10.0538 20.6412 10.6064C20.748 10.8806 20.8631 11.182 20.9908 11.5127C21.1498 11.8288 21.3131 12.1679 21.4701 12.53C21.6355 12.8879 21.8824 13.2396 22.0687 13.6268C22.276 14.0077 22.5606 14.374 22.8055 14.7717C23.3665 15.5274 23.9714 16.3269 24.7312 17.0574C25.4512 17.8235 26.3094 18.5122 27.2115 19.2196C28.1325 19.9083 29.1895 20.4713 30.3261 20.9486C30.9059 21.1474 31.492 21.3986 32.0676 21.5535C32.5888 21.7858 33.4156 21.8884 33.9933 22.0433C35.2931 22.2421 36.6662 22.2337 37.9367 21.8591C39.201 21.4844 40.3438 20.7937 41.2292 19.9145C42.1083 19.025 42.8263 18.1082 43.4647 17.2437C43.8184 16.8377 44.0905 16.3939 44.417 16.0088C44.7101 15.6006 44.978 15.1925 45.2438 14.8031C45.4699 14.395 45.7273 14.014 45.9283 13.631C46.1104 13.2396 46.3344 12.8816 46.4955 12.5216C46.6483 12.1616 46.8074 11.8225 46.9644 11.5044C47.0879 11.1904 47.1863 10.8953 47.3077 10.6253C47.5505 10.0978 47.6593 9.57869 47.787 9.27309C47.9021 8.95284 47.9754 8.7833 47.9754 8.7833L48.3019 8.80005Z" fill="#231F20"/>
<path d="M76.5919 8.80005C76.5919 8.80005 76.6464 8.97587 76.7322 9.30658C76.7929 9.64776 76.9645 10.0957 76.975 10.7634C77.0001 11.092 77.0106 11.4646 77.0064 11.8707C76.9792 12.2621 76.9436 12.6891 76.885 13.1475C76.818 13.6038 76.6861 14.0747 76.5563 14.5792C76.4203 15.0815 76.19 15.5797 75.9828 16.1155C75.4742 17.1349 74.8463 18.238 73.896 19.1568C72.9897 20.1155 71.7359 20.7999 70.4674 21.3714C69.1823 21.9365 67.8427 22.3384 66.5114 22.8052C65.1572 23.2175 63.759 23.565 62.2833 23.8308C61.4775 23.8894 60.9081 24.0255 60.0688 23.9836C59.6837 23.9606 59.265 23.9731 58.9008 23.9103L57.781 23.7157C56.32 23.3515 54.8967 22.8219 53.6471 22.0642C52.4017 21.3128 51.286 20.4002 50.4613 19.3431C50.0155 18.845 49.6806 18.2798 49.3394 17.7586C49.0213 17.2186 48.7638 16.6681 48.5231 16.1469C48.3347 15.5985 48.1317 15.0899 47.9998 14.5834C47.8763 14.0768 47.7675 13.5975 47.7047 13.1412C47.6503 12.6828 47.6168 12.2537 47.5938 11.8623C47.5938 11.4667 47.6084 11.1046 47.6314 10.7822C47.6398 10.1376 47.7968 9.6352 47.8533 9.3003C47.9328 8.96959 47.9747 8.79167 47.9747 8.79167H48.3012C48.3012 8.79167 48.3619 8.96122 48.475 9.27937C48.5964 9.59334 48.6885 10.0538 48.9313 10.6064C49.038 10.8806 49.1531 11.182 49.2808 11.5127C49.4399 11.8288 49.6032 12.1679 49.7601 12.53C49.9255 12.8879 50.1725 13.2396 50.3588 13.6268C50.566 14.0077 50.8507 14.374 51.0956 14.7717C51.6565 15.5274 52.2614 16.3269 53.0212 17.0574C53.7413 17.8235 54.5994 18.5122 55.5016 19.2196C56.4226 19.9083 57.4796 20.4713 58.6162 20.9486C59.196 21.1474 59.782 21.3986 60.3576 21.5535C60.8767 21.7858 61.7056 21.8884 62.2833 22.0433C63.5831 22.2421 64.9562 22.2337 66.2268 21.8591C67.491 21.4844 68.6339 20.7937 69.5193 19.9145C70.3984 19.025 71.1163 18.1082 71.7547 17.2437C72.1085 16.8377 72.3806 16.3939 72.7071 16.0088C73.0001 15.6006 73.268 15.1925 73.5339 14.8031C73.7599 14.395 74.0174 14.014 74.2183 13.631C74.4004 13.2396 74.6244 12.8816 74.7856 12.5216C74.9384 12.1616 75.0974 11.8225 75.2544 11.5044C75.3758 11.1904 75.4763 10.8953 75.5977 10.6253C75.8405 10.0978 75.9493 9.57869 76.077 9.27309C76.1921 8.95284 76.2654 8.7833 76.2654 8.7833L76.5919 8.80005Z" fill="#231F20"/>
<path d="M104.882 8.80005C104.882 8.80005 104.936 8.97587 105.022 9.30658C105.083 9.64776 105.255 10.0957 105.265 10.7634C105.29 11.092 105.301 11.4646 105.296 11.8707C105.269 12.2621 105.234 12.6891 105.175 13.1475C105.108 13.6038 104.976 14.0747 104.846 14.5792C104.71 15.0815 104.48 15.5797 104.273 16.1155C103.764 17.1349 103.136 18.238 102.186 19.1568C101.28 20.1155 100.026 20.7999 98.7575 21.3714C97.4723 21.9365 96.1327 22.3384 94.8015 22.8052C93.4472 23.2175 92.049 23.565 90.5734 23.8308C89.7675 23.8894 89.1982 24.0255 88.3588 23.9836C87.9737 23.9606 87.5551 23.9731 87.1909 23.9103L86.071 23.7157C84.61 23.3515 83.1867 22.8219 81.9371 22.0642C80.6917 21.3128 79.5782 20.4002 78.7514 19.3431C78.3055 18.845 77.9706 18.2798 77.6295 17.7586C77.3113 17.2186 77.0538 16.6681 76.8152 16.1469C76.6248 15.5985 76.4217 15.0899 76.2899 14.5834C76.1664 14.0768 76.0575 13.5975 75.9947 13.1412C75.9403 12.6828 75.9068 12.2537 75.8838 11.8623C75.8838 11.4667 75.8984 11.1046 75.9215 10.7822C75.9298 10.1376 76.0889 9.6352 76.1433 9.3003C76.2229 8.96959 76.2647 8.79167 76.2647 8.79167H76.5913C76.5913 8.79167 76.652 8.96122 76.765 9.27937C76.8864 9.59334 76.9785 10.0538 77.2213 10.6064C77.328 10.8806 77.4453 11.182 77.5708 11.5127C77.7299 11.8288 77.8932 12.1679 78.0502 12.53C78.2155 12.8879 78.4625 13.2396 78.6488 13.6268C78.856 14.0077 79.1407 14.374 79.3856 14.7717C79.9465 15.5274 80.5515 16.3269 81.3113 17.0574C82.0313 17.8235 82.8895 18.5122 83.7916 19.2196C84.7126 19.9083 85.7696 20.4713 86.9062 20.9486C87.486 21.1474 88.0721 21.3986 88.6477 21.5535C89.1689 21.7858 89.9957 21.8884 90.5734 22.0433C91.8732 22.2421 93.2463 22.2337 94.5168 21.8591C95.7811 21.4844 96.9239 20.7937 97.8093 19.9145C98.6884 19.025 99.4064 18.1082 100.045 17.2437C100.398 16.8377 100.671 16.3939 100.997 16.0088C101.29 15.6006 101.558 15.1925 101.824 14.8031C102.05 14.395 102.307 14.014 102.508 13.631C102.69 13.2396 102.914 12.8816 103.076 12.5216C103.228 12.1616 103.387 11.8225 103.544 11.5044C103.668 11.1904 103.766 10.8953 103.888 10.6253C104.131 10.0978 104.239 9.57869 104.367 9.27309C104.482 8.95284 104.555 8.7833 104.555 8.7833L104.882 8.80005Z" fill="#231F20"/>
<path d="M133.173 8.80005C133.173 8.80005 133.227 8.97587 133.313 9.30658C133.374 9.64776 133.546 10.0957 133.556 10.7634C133.581 11.092 133.592 11.4646 133.587 11.8707C133.56 12.2621 133.525 12.6891 133.466 13.1475C133.399 13.6038 133.267 14.0747 133.137 14.5792C133.001 15.0815 132.771 15.5797 132.564 16.1155C132.055 17.1349 131.427 18.238 130.477 19.1568C129.571 20.1155 128.317 20.7999 127.048 21.3714C125.763 21.9365 124.422 22.3384 123.092 22.8052C121.738 23.2175 120.34 23.565 118.864 23.8308C118.059 23.8894 117.489 24.0255 116.65 23.9836C116.265 23.9606 115.846 23.9731 115.482 23.9103L114.362 23.7157C112.901 23.3515 111.478 22.8219 110.228 22.0642C108.983 21.3128 107.867 20.4002 107.042 19.3431C106.597 18.845 106.262 18.2798 105.92 17.7586C105.602 17.2186 105.345 16.6681 105.104 16.1469C104.916 15.5985 104.713 15.0899 104.581 14.5834C104.457 14.0768 104.349 13.5975 104.286 13.1412C104.231 12.6828 104.198 12.2537 104.175 11.8623C104.175 11.4667 104.189 11.1046 104.212 10.7822C104.221 10.1376 104.378 9.6352 104.434 9.3003C104.514 8.96959 104.556 8.79167 104.556 8.79167H104.882C104.882 8.79167 104.943 8.96122 105.056 9.27937C105.177 9.59334 105.27 10.0538 105.512 10.6064C105.619 10.8806 105.734 11.182 105.862 11.5127C106.021 11.8288 106.184 12.1679 106.341 12.53C106.504 12.8879 106.754 13.2396 106.94 13.6268C107.147 14.0077 107.43 14.374 107.677 14.7717C108.238 15.5274 108.842 16.3269 109.602 17.0574C110.322 17.8235 111.18 18.5122 112.083 19.2196C113.004 19.9083 114.061 20.4713 115.197 20.9486C115.777 21.1474 116.363 21.3986 116.939 21.5535C117.458 21.7858 118.287 21.8884 118.864 22.0433C120.164 22.2421 121.537 22.2337 122.808 21.8591C124.072 21.4844 125.215 20.7937 126.1 19.9145C126.979 19.025 127.697 18.1082 128.336 17.2437C128.69 16.8377 128.962 16.3939 129.288 16.0088C129.581 15.6006 129.849 15.1925 130.115 14.8031C130.341 14.395 130.598 14.014 130.799 13.631C130.981 13.2396 131.205 12.8816 131.367 12.5216C131.519 12.1616 131.678 11.8225 131.835 11.5044C131.957 11.1904 132.057 10.8953 132.179 10.6253C132.422 10.0978 132.53 9.57869 132.656 9.27309C132.773 8.95284 132.846 8.7833 132.846 8.7833L133.173 8.80005Z" fill="#231F20"/>
<path d="M161.463 8.80005C161.463 8.80005 161.517 8.97587 161.603 9.30658C161.664 9.64776 161.836 10.0957 161.846 10.7634C161.871 11.092 161.882 11.4646 161.877 11.8707C161.85 12.2621 161.815 12.6891 161.756 13.1475C161.689 13.6038 161.557 14.0747 161.427 14.5792C161.291 15.0815 161.061 15.5797 160.854 16.1155C160.345 17.1349 159.717 18.238 158.767 19.1568C157.861 20.1155 156.607 20.7999 155.339 21.3714C154.053 21.9365 152.712 22.3384 151.383 22.8052C150.028 23.2175 148.63 23.565 147.154 23.8308C146.349 23.8894 145.779 24.0255 144.94 23.9836C144.555 23.9606 144.136 23.9731 143.772 23.9103L142.652 23.7157C141.191 23.3515 139.768 22.8219 138.518 22.0642C137.273 21.3128 136.157 20.4002 135.332 19.3431C134.887 18.845 134.552 18.2798 134.211 17.7586C133.892 17.2186 133.635 16.6681 133.396 16.1469C133.206 15.5985 133.003 15.0899 132.871 14.5834C132.747 14.0768 132.639 13.5975 132.576 13.1412C132.521 12.6828 132.488 12.2537 132.465 11.8623C132.465 11.4667 132.479 11.1046 132.503 10.7822C132.511 10.1376 132.668 9.6352 132.724 9.3003C132.804 8.96959 132.846 8.79167 132.846 8.79167H133.172C133.172 8.79167 133.233 8.96122 133.346 9.27937C133.467 9.59334 133.56 10.0538 133.802 10.6064C133.909 10.8806 134.024 11.182 134.152 11.5127C134.311 11.8288 134.474 12.1679 134.631 12.53C134.797 12.8879 135.044 13.2396 135.23 13.6268C135.437 14.0077 135.722 14.374 135.967 14.7717C136.528 15.5274 137.133 16.3269 137.892 17.0574C138.612 17.8235 139.471 18.5122 140.373 19.2196C141.294 19.9083 142.351 20.4713 143.487 20.9486C144.067 21.1474 144.653 21.3986 145.229 21.5535C145.75 21.7858 146.577 21.8884 147.154 22.0433C148.454 22.2421 149.827 22.2337 151.098 21.8591C152.362 21.4844 153.505 20.7937 154.39 19.9145C155.269 19.025 155.987 18.1082 156.626 17.2437C156.98 16.8377 157.252 16.3939 157.578 16.0088C157.871 15.6006 158.139 15.1925 158.405 14.8031C158.631 14.395 158.888 14.014 159.089 13.631C159.272 13.2396 159.495 12.8816 159.657 12.5216C159.809 12.1616 159.969 11.8225 160.126 11.5044C160.249 11.1904 160.347 10.8953 160.469 10.6253C160.712 10.0978 160.82 9.57869 160.948 9.27309C161.063 8.95284 161.136 8.7833 161.136 8.7833L161.463 8.80005Z" fill="#231F20"/>
<path d="M189.754 8.80005C189.754 8.80005 189.808 8.97587 189.894 9.30658C189.955 9.64776 190.127 10.0957 190.137 10.7634C190.162 11.092 190.173 11.4646 190.168 11.8707C190.141 12.2621 190.106 12.6891 190.047 13.1475C189.98 13.6038 189.848 14.0747 189.718 14.5792C189.582 15.0815 189.352 15.5797 189.145 16.1155C188.636 17.1349 188.008 18.238 187.058 19.1568C186.152 20.1155 184.898 20.7999 183.63 21.3714C182.344 21.9365 181.005 22.3384 179.674 22.8052C178.319 23.2175 176.921 23.565 175.445 23.8308C174.64 23.8894 174.07 24.0255 173.231 23.9836C172.846 23.9606 172.427 23.9731 172.063 23.9103L170.943 23.7157C169.482 23.3515 168.059 22.8219 166.809 22.0642C165.564 21.3128 164.448 20.4002 163.623 19.3431C163.178 18.845 162.843 18.2798 162.502 17.7586C162.183 17.2186 161.926 16.6681 161.687 16.1469C161.497 15.5985 161.294 15.0899 161.162 14.5834C161.038 14.0768 160.93 13.5975 160.867 13.1412C160.812 12.6828 160.779 12.2537 160.756 11.8623C160.756 11.4667 160.771 11.1046 160.794 10.7822C160.802 10.1376 160.959 9.6352 161.015 9.3003C161.095 8.96959 161.137 8.79167 161.137 8.79167H161.463C161.463 8.79167 161.524 8.96122 161.637 9.27937C161.758 9.59334 161.851 10.0538 162.093 10.6064C162.2 10.8806 162.315 11.182 162.443 11.5127C162.602 11.8288 162.765 12.1679 162.922 12.53C163.088 12.8879 163.335 13.2396 163.521 13.6268C163.728 14.0077 164.013 14.374 164.258 14.7717C164.819 15.5274 165.424 16.3269 166.183 17.0574C166.903 17.8235 167.762 18.5122 168.664 19.2196C169.585 19.9083 170.642 20.4713 171.778 20.9486C172.358 21.1474 172.944 21.3986 173.52 21.5535C174.041 21.7858 174.868 21.8884 175.445 22.0433C176.745 22.2421 178.118 22.2337 179.389 21.8591C180.653 21.4844 181.796 20.7937 182.681 19.9145C183.56 19.025 184.278 18.1082 184.917 17.2437C185.271 16.8377 185.543 16.3939 185.869 16.0088C186.162 15.6006 186.43 15.1925 186.696 14.8031C186.922 14.395 187.18 14.014 187.38 13.631C187.563 13.2396 187.787 12.8816 187.948 12.5216C188.1 12.1616 188.26 11.8225 188.417 11.5044C188.538 11.1904 188.638 10.8953 188.76 10.6253C189.003 10.0978 189.111 9.57869 189.239 9.27309C189.354 8.95284 189.428 8.7833 189.428 8.7833L189.754 8.80005Z" fill="#231F20"/>
<path d="M119.009 99.3493L118.986 100.034L118.982 100.151L118.865 100.155C116.686 100.237 114.507 100.316 112.33 100.371C112.144 100.375 111.989 100.226 111.984 100.04C111.98 99.8559 112.127 99.701 112.313 99.6968H112.33C114.507 99.7491 116.686 99.8307 118.865 99.9103L118.741 100.034L118.72 99.3493C118.716 99.2698 118.779 99.2028 118.86 99.2007C118.94 99.1965 119.007 99.2593 119.009 99.3409C119.009 99.343 119.009 99.3472 119.009 99.3493Z" fill="#231F20"/>
<path d="M105.794 100.55C105.794 100.55 104.16 100.59 102.527 100.632L99.2596 100.689C98.8975 100.695 98.5982 100.408 98.5919 100.044C98.5856 99.6818 98.8745 99.3825 99.2366 99.3762C99.2429 99.3762 99.2533 99.3762 99.2596 99.3762L102.527 99.4348C104.16 99.4746 105.794 99.5165 105.794 99.5165C106.079 99.5227 106.305 99.7593 106.299 100.046C106.293 100.322 106.069 100.544 105.794 100.55Z" fill="#231F20"/>
<path d="M92.7251 100.805L86.1904 100.92C85.7006 100.928 85.2966 100.539 85.2882 100.049C85.2798 99.5595 85.6692 99.1555 86.159 99.1451H86.1904L92.7251 99.2623C93.1521 99.2686 93.4912 99.6202 93.4828 100.047C93.4765 100.464 93.1374 100.797 92.7251 100.805Z" fill="#231F20"/>
<path d="M79.6553 100.999L73.1205 101.063C72.5512 101.07 72.0844 100.613 72.0782 100.044C72.074 99.4747 72.5303 99.008 73.0996 99.0017H73.1205L79.6553 99.0687C80.189 99.0728 80.616 99.5103 80.6097 100.042C80.6056 100.569 80.1786 100.992 79.6553 100.999Z" fill="#231F20"/>
<path d="M66.584 101.098L60.0493 101.13C59.4443 101.132 58.9504 100.644 58.9483 100.037C58.9441 99.4324 59.4339 98.9405 60.0388 98.9363H60.0493L66.584 98.9677C67.1722 98.9698 67.6473 99.4491 67.6452 100.037C67.641 100.623 67.168 101.094 66.584 101.098Z" fill="#231F20"/>
<path d="M53.5148 101.125C53.5148 101.125 51.8801 101.121 50.2475 101.119C48.6127 101.102 46.9801 101.088 46.9801 101.088C46.3982 101.082 45.9293 100.604 45.9356 100.022C45.9419 99.4489 46.4066 98.9842 46.9801 98.9779C46.9801 98.9779 48.6127 98.9633 50.2475 98.9465C51.8801 98.9444 53.5148 98.9403 53.5148 98.9403C54.1176 98.9403 54.6074 99.428 54.6095 100.031C54.6116 100.634 54.1218 101.123 53.519 101.125H53.5148Z" fill="#231F20"/>
<path d="M40.4444 101.006L33.9097 100.886C33.4387 100.878 33.064 100.489 33.0724 100.018C33.0808 99.5572 33.4534 99.1888 33.9097 99.1804L40.4444 99.0611C40.9823 99.0506 41.424 99.4776 41.4344 100.016C41.4449 100.554 41.0179 100.995 40.48 101.006C40.4695 101.006 40.4549 101.006 40.4444 101.006Z" fill="#231F20"/>
<path d="M31.2021 95.4736L31.3256 88.9389C31.3319 88.6019 31.6103 88.334 31.9473 88.3402C32.2738 88.3486 32.5376 88.6144 32.5438 88.9389L32.6673 95.4736C32.6757 95.8776 32.3534 96.2125 31.9494 96.2209C31.5433 96.2271 31.2105 95.9069 31.2021 95.5008C31.2021 95.4924 31.2021 95.482 31.2021 95.4736Z" fill="#231F20"/>
<path d="M31.4473 82.4038L31.5226 75.8691C31.5247 75.6409 31.711 75.4588 31.9392 75.463C32.1631 75.4651 32.3431 75.6451 32.3452 75.8691L32.4206 82.4038C32.4227 82.6717 32.2092 82.8936 31.9392 82.8957C31.6712 82.8999 31.4494 82.6843 31.4473 82.4143C31.4473 82.4122 31.4473 82.4059 31.4473 82.4038Z" fill="#231F20"/>
<path d="M31.5553 69.3339C31.5553 69.3339 31.5595 67.6992 31.5636 66.0665C31.5553 64.4318 31.5469 62.7992 31.5469 62.7992C31.5448 62.5857 31.7185 62.4098 31.932 62.4077C32.1455 62.4077 32.3213 62.5794 32.3213 62.795V62.7992C32.3213 62.7992 32.313 64.4318 32.3046 66.0665C32.3088 67.6992 32.313 69.3339 32.313 69.3339C32.313 69.5432 32.1455 69.7128 31.9362 69.7148C31.7269 69.7148 31.5553 69.5453 31.5553 69.336V69.3339Z" fill="#231F20"/>
<path d="M31.5106 56.2642L31.4688 49.7295C31.4667 49.472 31.6739 49.2606 31.9313 49.2606C32.1909 49.2585 32.4002 49.4657 32.4023 49.7232V49.7295L32.3604 56.2642C32.3583 56.4986 32.1679 56.687 31.9334 56.687C31.699 56.6849 31.5127 56.4965 31.5106 56.2642Z" fill="#231F20"/>
<path d="M31.3681 43.1942L31.2676 36.6594C31.2634 36.291 31.5565 35.9896 31.9249 35.9833C32.2912 35.977 32.5947 36.2722 32.5989 36.6385C32.5989 36.6448 32.5989 36.6531 32.5989 36.6594L32.5005 43.1942C32.4963 43.506 32.2388 43.7551 31.9249 43.7509C31.6193 43.7467 31.3723 43.4977 31.3681 43.1942Z" fill="#231F20"/>
<path d="M38.1276 35.5377L44.6623 35.4225C45.1563 35.4142 45.5644 35.8077 45.5728 36.3016C45.5812 36.7956 45.1877 37.2038 44.6937 37.2122C44.6853 37.2122 44.6707 37.2122 44.6623 37.2122L38.1276 37.097C37.6964 37.0887 37.3531 36.7349 37.3615 36.3037C37.3699 35.883 37.711 35.546 38.1276 35.5377Z" fill="#231F20"/>
<path d="M51.1984 35.3403L57.7331 35.2649C58.315 35.2586 58.7923 35.7233 58.7985 36.3052C58.8048 36.8871 58.3381 37.3643 57.7583 37.3706H57.7331L51.1984 37.2953C50.6584 37.289 50.2272 36.8452 50.2335 36.3073C50.2397 35.7756 50.6688 35.3465 51.1984 35.3403Z" fill="#231F20"/>
<path d="M64.2676 35.2002L70.8023 35.1563C71.4428 35.1521 71.9661 35.6691 71.9703 36.3096C71.9745 36.9501 71.4596 37.4734 70.817 37.4775H70.8023L64.2676 37.4357C63.6501 37.4315 63.154 36.927 63.1582 36.3096C63.1624 35.6984 63.6585 35.2044 64.2676 35.2002Z" fill="#231F20"/>
<path d="M77.3368 35.1139L83.8715 35.0699C84.5602 35.0657 85.1232 35.6204 85.1274 36.3091C85.1316 36.9977 84.5769 37.5608 83.8883 37.5649H83.8715L77.3368 37.521C76.6712 37.5168 76.1374 36.9747 76.1416 36.3091C76.1458 35.6497 76.6796 35.1181 77.3368 35.1139Z" fill="#231F20"/>
<path d="M90.4074 35.0276L96.9421 35.0129C97.6643 35.0108 98.2503 35.5927 98.2503 36.3148C98.2524 37.0349 97.6705 37.621 96.9484 37.623H96.9421L90.4074 37.6084C89.6957 37.6063 89.118 37.0265 89.1201 36.3148C89.1222 35.6011 89.6957 35.0255 90.4074 35.0276Z" fill="#231F20"/>
<path d="M103.477 35.0065L110.011 35.0253C110.725 35.0274 111.303 35.6072 111.301 36.3209C111.299 37.0326 110.721 37.6082 110.011 37.6103L103.477 37.6291C102.752 37.6312 102.164 37.0452 102.162 36.3209C102.16 35.5967 102.746 35.0085 103.468 35.0065H103.477Z" fill="#231F20"/>
<path d="M116.547 35.061L118.865 35.0736L120.116 35.0798L120.108 36.3169L120.081 40.5345C120.076 41.2064 119.528 41.7485 118.856 41.7444C118.191 41.7402 117.653 41.1981 117.648 40.5345L117.621 36.3169L118.865 37.5623L116.547 37.5749C115.853 37.5769 115.287 37.0181 115.283 36.3253C115.281 35.6303 115.84 35.0652 116.533 35.061H116.547Z" fill="#231F20"/>
<path d="M120.003 47.0698L119.926 53.6046C119.919 54.1906 119.438 54.6616 118.852 54.6532C118.274 54.6469 117.809 54.1781 117.803 53.6046L117.726 47.0698C117.717 46.4398 118.222 45.9249 118.85 45.9165C119.48 45.9102 119.995 46.4147 120.003 47.0426C120.003 47.051 120.003 47.0635 120.003 47.0698Z" fill="#231F20"/>
<path d="M119.849 60.1396L119.765 66.6743C119.759 67.1725 119.35 67.5702 118.852 67.5639C118.365 67.5576 117.971 67.1599 117.965 66.6743L117.879 60.1396C117.873 59.5954 118.308 59.1495 118.852 59.1432C119.394 59.1349 119.842 59.5702 119.849 60.1144C119.849 60.1207 119.849 60.1333 119.849 60.1396Z" fill="#231F20"/>
<path d="M119.638 73.2095L119.512 79.7442C119.504 80.1021 119.209 80.3868 118.851 80.3805C118.501 80.3742 118.223 80.0917 118.217 79.7442L118.089 73.2095C118.083 72.7825 118.422 72.4287 118.849 72.4204C119.276 72.412 119.629 72.7532 119.638 73.1802C119.638 73.1885 119.638 73.2011 119.638 73.2095Z" fill="#231F20"/>
<path d="M119.374 86.2796L119.202 92.8144C119.196 93.0006 119.041 93.1472 118.855 93.143C118.675 93.1388 118.533 92.9923 118.526 92.8144L118.355 86.2796C118.346 85.997 118.568 85.7647 118.851 85.7563C119.131 85.7501 119.366 85.9719 119.374 86.2524C119.374 86.2608 119.374 86.2712 119.374 86.2796Z" fill="#231F20"/>
<path d="M135.146 100.039C135.146 100.039 134.992 98.4131 134.883 96.7847L134.653 93.5277L134.65 93.5005C134.634 93.2389 134.83 93.0128 135.09 92.994C135.352 92.9752 135.58 93.1719 135.597 93.4336C135.599 93.4482 135.599 93.465 135.599 93.4796C135.599 93.4796 135.555 95.1164 135.513 96.7533C135.475 98.388 135.391 100.027 135.391 100.027V100.033C135.387 100.102 135.331 100.155 135.262 100.15C135.201 100.146 135.153 100.098 135.146 100.039Z" fill="#231F20"/>
<path d="M134.358 86.9712L134.171 80.4364C134.157 79.9299 134.554 79.5092 135.061 79.4945C135.567 79.4799 135.99 79.8776 136.005 80.3841C136.005 80.4008 136.005 80.4197 136.005 80.4343L135.829 86.9691C135.819 87.3751 135.482 87.6975 135.073 87.687C134.682 87.6765 134.37 87.3584 134.358 86.9712Z" fill="#231F20"/>
<path d="M134.061 73.8991L134.02 67.3665C134.017 66.7657 134.501 66.2738 135.102 66.2697C135.705 66.2676 136.194 66.7511 136.198 67.3539C136.198 67.3581 136.198 67.3665 136.198 67.3727L136.125 73.9033C136.119 74.4747 135.652 74.931 135.083 74.9247C134.518 74.9185 134.066 74.4601 134.061 73.8991Z" fill="#231F20"/>
<path d="M134.047 60.8293C134.047 60.8293 134.082 59.1945 134.118 57.5619C134.145 55.9292 134.221 54.2945 134.221 54.2945C134.244 53.7775 134.683 53.3756 135.202 53.3987C135.692 53.4217 136.077 53.8215 136.098 54.3029C136.098 54.3029 136.159 55.9376 136.173 57.5703C136.194 59.205 136.217 60.8376 136.217 60.8376C136.226 61.4384 135.746 61.9302 135.146 61.9386C134.547 61.947 134.055 61.4677 134.047 60.8669C134.047 60.8565 134.047 60.8397 134.047 60.8293Z" fill="#231F20"/>
<path d="M134.462 47.7592L134.715 41.2244C134.726 40.9418 134.962 40.7221 135.245 40.7346C135.515 40.7451 135.728 40.9649 135.737 41.2307L135.917 47.7675C135.929 48.1694 135.611 48.5043 135.209 48.5148C134.807 48.5273 134.472 48.2092 134.462 47.8073C134.462 47.7926 134.462 47.7738 134.462 47.7592Z" fill="#231F20"/>
<path d="M134.875 34.6872L134.881 34.2727L134.885 33.8834L135.269 33.8876C137.309 33.9106 139.348 33.9085 141.389 33.8918C141.6 33.8897 141.774 34.0592 141.776 34.2727C141.778 34.4841 141.606 34.6579 141.395 34.6579H141.389C139.348 34.6411 137.309 34.6411 135.269 34.662L135.656 34.2769V34.6913C135.656 34.909 135.482 35.0828 135.266 35.0828C135.051 35.0828 134.875 34.909 134.875 34.6913C134.875 34.6913 134.875 34.6893 134.875 34.6872Z" fill="#231F20"/>
<path d="M147.924 33.8028L154.459 33.6291C154.817 33.6186 155.114 33.9012 155.123 34.257C155.133 34.6149 154.851 34.9121 154.495 34.9226C154.482 34.9226 154.47 34.9226 154.459 34.9226L147.924 34.7468C147.663 34.7405 147.458 34.5228 147.466 34.2633C147.472 34.01 147.675 33.8091 147.924 33.8028Z" fill="#231F20"/>
<path d="M160.994 33.4307C160.994 33.4307 162.629 33.3847 164.261 33.3407C165.896 33.3072 167.529 33.2737 167.529 33.2737C168.081 33.2633 168.54 33.7028 168.55 34.2554C168.563 34.808 168.123 35.2664 167.57 35.2769H167.529C167.529 35.2769 165.896 35.2434 164.261 35.2099C162.629 35.1659 160.994 35.1199 160.994 35.1199C160.527 35.1073 160.159 34.718 160.173 34.2512C160.186 33.8012 160.55 33.4433 160.994 33.4307Z" fill="#231F20"/>
<path d="M174.062 33.1543L175.444 33.1376L176.568 33.125L176.58 34.2741L176.641 39.4295C176.647 40.0889 176.118 40.631 175.459 40.6393C174.797 40.6456 174.255 40.1182 174.247 39.4567C174.247 39.4484 174.247 39.4358 174.247 39.4295L174.307 34.2741L175.444 35.4128L174.062 35.3961C173.443 35.3877 172.947 34.8812 172.955 34.2616C172.961 33.6525 173.455 33.1627 174.062 33.1543Z" fill="#231F20"/>
<path d="M176.717 45.9637C176.717 45.9637 176.732 47.5984 176.749 49.2311L176.753 52.4984C176.753 53.2206 176.169 53.8066 175.447 53.8066C174.725 53.8087 174.139 53.2247 174.139 52.5026V52.4984C174.139 52.4984 174.141 50.8658 174.143 49.2311C174.158 47.5984 174.172 45.9637 174.172 45.9637C174.181 45.2604 174.754 44.6973 175.457 44.7036C176.152 44.7099 176.711 45.273 176.717 45.9637Z" fill="#231F20"/>
<path d="M176.734 59.0337L176.671 65.5684C176.665 66.2466 176.11 66.7887 175.434 66.7824C174.764 66.7761 174.226 66.234 174.218 65.5684L174.157 59.0337C174.151 58.322 174.722 57.7401 175.434 57.7317C176.146 57.7255 176.728 58.2969 176.734 59.0085C176.734 59.0148 176.734 59.0274 176.734 59.0337Z" fill="#231F20"/>
<path d="M176.557 72.1034L176.409 78.6381C176.396 79.1698 175.955 79.5926 175.423 79.58C174.906 79.5675 174.494 79.1489 174.481 78.6381L174.332 72.1034C174.318 71.488 174.805 70.9794 175.419 70.9647C176.034 70.9522 176.543 71.4378 176.557 72.0532C176.557 72.0678 176.557 72.0887 176.557 72.1034Z" fill="#231F20"/>
<path d="M176.205 85.1735L175.977 91.7083C175.968 92.0034 175.721 92.2315 175.426 92.2232C175.146 92.2127 174.924 91.9845 174.913 91.7083L174.685 85.1735C174.67 84.7549 174.999 84.4011 175.42 84.3865C175.838 84.3739 176.19 84.7005 176.205 85.1212C176.205 85.1379 176.205 85.1568 176.205 85.1735Z" fill="#231F20"/>
<path d="M175.67 98.2437L175.567 100.033C175.563 100.1 175.507 100.153 175.438 100.148C175.375 100.146 175.327 100.094 175.323 100.033L175.22 98.2437C175.214 98.1202 175.308 98.0135 175.434 98.0051C175.557 97.9988 175.664 98.093 175.67 98.2186C175.67 98.227 175.67 98.2353 175.67 98.2437Z" fill="#231F20"/>
<path d="M76.437 91.5609C76.2047 91.6383 76.37 91.5797 76.3177 91.5943L76.3135 91.5881L76.3072 91.5734L76.2947 91.5462L76.2675 91.4918L76.213 91.385L76.1021 91.1673L75.8844 90.7341L75.47 89.8591L74.6453 88.1072C74.1136 86.9329 73.5924 85.7545 73.0922 84.5698C72.5815 83.3872 72.1042 82.1941 71.6144 81.0052C71.1477 79.8079 70.6621 78.619 70.2141 77.4155L69.5422 75.6091C69.3225 75.0063 69.0818 74.4098 68.8808 73.8007C68.4706 72.5846 68.0289 71.3789 67.6459 70.1524C66.8589 67.7076 66.0844 65.2607 65.3309 62.8034L66.9886 63.2827C66.2874 63.8269 65.5674 64.3481 64.8495 64.8777C64.1273 65.401 63.445 65.9661 62.7375 66.5103C62.0405 67.0629 61.3916 67.6636 60.7176 68.2476C60.1106 68.886 59.4387 69.4846 58.9154 70.1921C58.6391 70.5333 58.344 70.8682 58.1284 71.2491C57.9024 71.6196 57.6365 71.9776 57.4691 72.3732L57.1991 72.9613L57.017 73.5704C56.9416 73.7714 56.9207 73.9744 56.8977 74.1774C56.86 74.3826 56.8537 74.5856 56.883 74.7803L56.9081 75.0733L56.9877 75.3475C57.0233 75.538 57.1321 75.6929 57.2074 75.8603C57.4189 76.1743 57.6721 76.3899 58.0573 76.6892L60.1755 78.3825C60.8851 78.9414 61.58 79.517 62.277 80.0905C62.9552 80.6829 63.6543 81.2564 64.3052 81.876C64.9709 82.483 65.6239 83.1004 66.2602 83.7367C66.9007 84.3689 67.5559 84.9842 68.1817 85.6331L70.0655 87.5693L71.8803 89.5117C73.0064 90.6608 74.6285 91.3871 76.4245 91.4394L76.437 91.5609ZM76.4496 91.6823C75.5663 91.9334 74.5804 91.9795 73.6322 91.7869C72.6778 91.6069 71.7547 91.1946 70.9488 90.6001C70.1618 89.9931 69.5339 89.4384 68.8201 88.8565L66.773 87.0899C66.0886 86.5039 65.4334 85.8864 64.7636 85.2857C64.0896 84.687 63.4324 84.0716 62.7877 83.4458C62.1305 82.8325 61.5172 82.1711 60.8851 81.5285C60.2718 80.8692 59.6585 80.2119 59.0578 79.5379L57.2451 77.5285C56.9563 77.2334 56.567 76.8022 56.3472 76.3208C56.2509 76.0738 56.1337 75.8331 56.1023 75.5715L56.0332 75.1884V74.8075C56.0772 73.807 56.3535 72.865 56.8056 72.0508C57.2033 71.2052 57.7203 70.437 58.2498 69.6898C58.5073 69.3067 58.7815 68.9383 59.0745 68.5888L59.9264 67.5066C60.5334 66.8285 61.1132 66.1126 61.7412 65.4491C62.3775 64.796 62.9949 64.1137 63.6543 63.4816C64.322 62.8641 64.9855 62.2341 65.67 61.6312L66.7647 60.6663L67.3277 62.1106C68.2592 64.5051 69.1697 66.9059 70.0655 69.313C70.526 70.5124 70.9258 71.7327 71.3591 72.9404C71.5789 73.5432 71.7589 74.1607 71.9619 74.7698L72.5543 76.6034C72.9457 77.8258 73.3015 79.0607 73.6783 80.2873C74.032 81.5243 74.3962 82.7572 74.729 84.0005C75.0702 85.2417 75.3904 86.4892 75.7023 87.7388L76.1398 89.6268L76.3575 90.5687L76.4558 91.0459L76.504 91.2825L76.5291 91.4018L76.5396 91.4604L76.5459 91.4918L76.55 91.5064L76.5521 91.5127C76.4998 91.5336 76.6673 91.4792 76.437 91.5609L76.4496 91.6823Z" fill="#231F20"/>
<path d="M76.6592 91.5609C76.6927 91.3181 76.6739 91.4939 76.6843 91.4395L76.6948 91.4374H76.7178H76.7597L76.8434 91.4332L77.0109 91.427L77.3437 91.3956C77.5634 91.3663 77.7811 91.337 77.9946 91.2951C78.4237 91.2093 78.8382 91.0795 79.2296 90.9079C80.0061 90.5646 80.7094 90.079 81.262 89.495L83.0893 87.5065L84.9647 85.5223L86.8695 83.5673C87.4995 82.9121 88.1484 82.2737 88.7973 81.6395C90.0824 80.3501 91.4053 79.1047 92.7386 77.8677L94.7522 76.0446C95.1771 75.6594 95.3697 75.1864 95.3676 74.5145C95.3613 73.851 95.1311 73.0891 94.7878 72.3502C94.4529 71.603 93.9987 70.8746 93.5256 70.1482C92.5481 68.7124 91.4241 67.31 90.1955 65.9955C88.9731 64.6726 87.6481 63.4335 86.2457 62.2885L86.8465 62.1106C86.6351 62.7239 86.4174 63.3351 86.2311 63.9568C86.0406 64.5784 85.8292 65.1917 85.6617 65.8197C85.3017 67.0692 84.9773 68.3293 84.6717 69.5957C84.0626 72.1304 83.4451 74.661 82.6142 77.1204C82.2123 78.3554 81.7581 79.5736 81.3311 80.8002C80.8727 82.0142 80.4289 83.2366 79.9412 84.4422C79.4661 85.652 78.9616 86.8535 78.4446 88.0508C77.9109 89.2396 77.3834 90.4327 76.7764 91.5986L76.6592 91.5609ZM76.542 91.5233C76.7534 90.2234 77.0443 88.9529 77.329 87.6782C77.6304 86.4118 77.9465 85.1476 78.2898 83.8938C78.6205 82.6358 78.9972 81.3925 79.3572 80.1429C79.7487 78.9059 80.1129 77.6584 80.5294 76.4297C81.3373 73.9598 82.3567 71.5632 83.3844 69.1687C83.8972 67.9714 84.3933 66.7678 84.8517 65.5517C85.0924 64.9468 85.2913 64.3293 85.511 63.7182C85.7329 63.107 85.9255 62.4874 86.1222 61.8699L86.2897 61.3487L86.723 61.692C88.1568 62.8223 89.6094 63.9358 91.0348 65.1059C92.4539 66.2822 93.8501 67.5193 95.0808 68.974C95.6983 69.7024 96.2572 70.4936 96.7407 71.3706C97.2158 72.2497 97.6177 73.2356 97.714 74.3952C97.7579 74.9708 97.7056 75.5966 97.5068 76.2057C97.31 76.8107 96.9332 77.3905 96.5041 77.8195L94.5513 79.741C93.2368 80.999 91.9118 82.2444 90.5492 83.4501C89.8752 84.0613 89.1991 84.6683 88.5063 85.2606L86.4383 87.0461L84.341 88.8022C83.6209 89.3841 82.9595 89.9429 82.1872 90.5416C81.3687 91.1507 80.4478 91.5672 79.4849 91.7514C79.0056 91.8456 78.5221 91.8875 78.0449 91.8791C77.8062 91.877 77.5697 91.8582 77.3353 91.8226L76.9857 91.7619L76.8141 91.7221L76.7283 91.7012L76.6864 91.6928L76.6655 91.6865L76.655 91.6844C76.6571 91.63 76.632 91.8037 76.6592 91.5609L76.542 91.5233Z" fill="#231F20"/>
<path d="M58.433 47.5236C58.5209 47.2494 58.701 47.0066 58.9396 46.8433C59.1991 46.6696 59.4294 46.611 59.6701 46.4959C60.1452 46.2866 60.6162 46.0668 61.085 45.8386C62.0165 45.3698 62.9395 44.8758 63.8563 44.3672L64.1996 44.1767C64.275 44.139 64.275 44.1244 64.411 44.07C64.5345 44.0176 64.6747 43.9883 64.815 43.9737C65.3843 43.9234 65.9683 44.2458 66.2404 44.7942C66.2718 44.8674 66.3011 44.9219 66.3283 45.0181C66.3555 45.106 66.3806 45.2358 66.3806 45.2358L66.3911 45.284L66.3953 45.3426L66.3974 45.3489L66.3995 45.3593L66.4037 45.3844L66.4225 45.4807L66.4979 45.8679L66.6255 46.6424C66.8014 47.6722 66.8767 48.7083 66.9625 49.7444C67.0337 50.7805 67.0986 51.8166 67.1174 52.8548C67.1384 53.893 67.1404 54.9312 67.1404 55.9715C67.1342 57.0097 67.1384 58.05 67.1132 59.0881C67.0944 60.1284 67.0232 61.1708 66.9479 62.2132L66.9186 62.6255L66.7093 62.793C65.5518 63.7223 64.3943 64.6517 63.2598 65.602C62.1253 66.5564 61.0181 67.5402 59.9275 68.5407L59.624 68.8191L59.3645 68.4633C59.2347 68.2833 59.0442 68.0404 58.8705 67.8374C58.6884 67.6281 58.5084 67.4146 58.3116 67.2158C57.9286 66.8097 57.5414 66.4015 57.129 66.0206C56.725 65.6292 56.3064 65.2545 55.8878 64.8735C55.6785 64.681 55.442 64.4298 55.241 64.187C55.038 63.9358 54.8496 63.67 54.6884 63.3874C54.3703 62.8202 54.1191 62.209 53.981 61.579C53.8365 60.9489 53.7696 60.3084 53.7842 59.6784C53.8009 59.0484 53.8826 58.4288 54.0228 57.8281C54.0919 57.5267 54.1819 57.2315 54.2782 56.9385C54.3849 56.6371 54.4896 56.3754 54.6424 56.0447L54.6173 56.1117C55.241 54.6779 55.9611 53.2734 56.6518 51.8606C57.3341 50.4456 57.9453 49.0055 58.433 47.5236ZM58.6654 47.6011C58.1567 49.0767 57.7695 50.5921 57.4555 52.1327C57.1479 53.6732 56.8695 55.2263 56.4969 56.7459L56.4697 56.815C56.4153 57.0055 56.3462 57.2776 56.296 57.5183C56.2373 57.7632 56.1913 58.0144 56.1494 58.2635C56.0657 58.7616 56.0071 59.2598 55.9862 59.7517C55.9631 60.2435 55.9694 60.7292 56.0218 61.2064C56.0887 61.6773 56.1746 62.1483 56.3378 62.5962C56.4215 62.8181 56.5115 63.04 56.6225 63.2556C56.7376 63.4774 56.8527 63.6637 57.0097 63.8981L57.9705 65.3005C58.2865 65.7715 58.6256 66.2215 58.9584 66.6799L59.465 67.3623C59.6387 67.5988 59.8019 67.7935 59.9903 68.076L59.4294 67.9986C60.5115 66.9918 61.5811 65.9662 62.6214 64.9112C63.6596 63.8542 64.6768 62.7741 65.6941 61.6941L65.4534 62.276C65.2943 61.2441 65.1352 60.2101 65.0306 59.1761C64.9196 58.142 64.8359 57.106 64.7438 56.0719C64.658 55.0358 64.5722 53.9997 64.5052 52.9637C64.4382 51.9276 64.4173 50.8894 64.4005 49.8512C64.4026 48.813 64.3901 47.7727 64.4801 46.7303L64.5408 45.9496L64.5847 45.5582L64.5952 45.4598L64.5973 45.4347L64.5994 45.4242V45.4179C64.6015 45.4389 64.5973 45.3614 64.6036 45.4619L64.6057 45.4137C64.6057 45.353 64.6099 45.4158 64.6224 45.441C64.6371 45.4744 64.6371 45.4682 64.6496 45.4807C64.7166 45.5477 64.7941 45.5414 64.8401 45.5037C64.8506 45.4954 64.8589 45.4807 64.8631 45.4723C64.8736 45.4577 64.7543 45.4933 64.7082 45.5017L64.3252 45.5896C63.3017 45.824 62.2865 46.0731 61.2797 46.3473C60.7794 46.4896 60.2813 46.6403 59.7873 46.8036C59.5529 46.8936 59.2661 46.9564 59.0903 47.0673C58.8956 47.1908 58.7428 47.3834 58.6654 47.6011Z" fill="#231F20"/>
<path d="M94.1919 47.6023C94.1144 47.3825 93.9616 47.192 93.767 47.0685C93.5911 46.9555 93.3044 46.8927 93.07 46.8048C92.576 46.6415 92.0778 46.4908 91.5776 46.3485C90.5708 46.0722 89.5556 45.8231 88.5321 45.5908L88.149 45.5029C88.1009 45.4945 87.9837 45.4568 87.9941 45.4736C87.9983 45.4819 88.0067 45.4966 88.0171 45.5029C88.0632 45.5406 88.1406 45.5489 88.2076 45.4799C88.2202 45.4694 88.2202 45.4736 88.2348 45.4422C88.2474 45.4171 88.2516 45.3522 88.2516 45.415V45.4631C88.2599 45.3626 88.2558 45.438 88.2558 45.4171L88.2579 45.4233V45.4359L88.262 45.461L88.2725 45.5594L88.3144 45.9508L88.3772 46.7315C88.4651 47.7739 88.4546 48.8121 88.4567 49.8524C88.44 50.8906 88.419 51.9288 88.352 52.9649C88.2851 54.001 88.1992 55.0371 88.1134 56.0711C88.0213 57.1072 87.9376 58.1412 87.8267 59.1773C87.722 60.2113 87.5629 61.2432 87.4039 62.2751L87.1631 61.6953C88.1804 62.7754 89.1977 63.8554 90.2359 64.9124C91.2761 65.9674 92.3457 66.9909 93.4279 67.9998L92.8669 68.0773C93.0553 67.7926 93.2165 67.5979 93.3923 67.3614L93.8988 66.6811C94.2295 66.2227 94.5707 65.7706 94.8868 65.3018L95.8475 63.8973C96.0045 63.6649 96.1196 63.4787 96.2348 63.2568C96.3457 63.0412 96.4357 62.8193 96.5194 62.5974C96.6827 62.1474 96.7685 61.6786 96.8355 61.2076C96.8878 60.7304 96.8941 60.2448 96.8711 59.7529C96.8501 59.2589 96.7915 58.7607 96.7078 58.2626C96.6659 58.0135 96.6199 57.7644 96.5613 57.5174C96.5111 57.2788 96.442 57.0046 96.3876 56.8162L96.3604 56.7472C95.9878 55.2275 95.7094 53.6744 95.4017 52.1318C95.0877 50.5913 94.7005 49.0758 94.1919 47.6023ZM94.4242 47.5248C94.9119 49.0047 95.5231 50.4448 96.2055 51.8618C96.8962 53.2747 97.6162 54.6771 98.24 56.1129L98.2149 56.046C98.3677 56.3767 98.4723 56.6383 98.577 56.9376C98.6733 57.2307 98.7654 57.5258 98.8344 57.8272C98.9747 58.43 99.0563 59.0496 99.073 59.6796C99.0877 60.3097 99.0207 60.9502 98.8763 61.5781C98.7381 62.2102 98.487 62.8214 98.1667 63.3866C98.0076 63.6712 97.8193 63.937 97.6162 64.1861C97.4153 64.431 97.1788 64.6822 96.9695 64.8727C96.5508 65.2536 96.1322 65.6283 95.7282 66.0197C95.3159 66.4028 94.9287 66.8088 94.5435 67.2149C94.3489 67.4158 94.1688 67.6293 93.9867 67.8386C93.813 68.0417 93.6225 68.2845 93.4928 68.4645L93.2332 68.8203L92.9297 68.5398C91.8392 67.5393 90.7319 66.5555 89.5975 65.6032C88.463 64.6508 87.3055 63.7235 86.148 62.7942L85.9387 62.6247L85.9094 62.2144C85.834 61.172 85.7628 60.1296 85.744 59.0894C85.7189 58.0491 85.7231 57.0109 85.7168 55.9706C85.7168 54.9324 85.7189 53.8942 85.7377 52.856C85.7587 51.8178 85.8215 50.7817 85.8947 49.7456C85.9805 48.7096 86.0559 47.6735 86.2317 46.6415L86.3594 45.8671L86.4347 45.4819L86.4536 45.3857L86.4578 45.3605L86.4599 45.348L86.4619 45.3438L86.4661 45.2852L86.4766 45.2371C86.4766 45.2371 86.5017 45.1073 86.5289 45.0173C86.5561 44.9231 86.5854 44.8687 86.6168 44.7954C86.8889 44.247 87.4729 43.9247 88.0423 43.9749C88.1825 43.9875 88.3206 44.0168 88.4462 44.0691C88.5802 44.1235 88.5823 44.1403 88.6576 44.1758L89.0009 44.3663C89.9177 44.877 90.8408 45.371 91.7722 45.8378C92.2411 46.068 92.712 46.2878 93.1872 46.4971C93.4279 46.6101 93.6581 46.6708 93.9177 46.8425C94.1563 47.0078 94.3363 47.2506 94.4242 47.5248" fill="#231F20"/>
</svg>
