<svg width="128" height="128" viewBox="0 0 128 128" fill="none" xmlns="http://www.w3.org/2000/svg">
<path d="M3.72852 5.59559C5.78314 5.46635 7.83777 5.35865 9.8924 5.25923L16.0563 5.01068C16.5849 4.99908 17.0505 4.95932 17.6304 4.97423C18.1192 4.96098 18.7124 5.02062 19.2758 5.09022C20.3727 5.24928 21.448 5.57902 22.4555 6.05954C24.4786 7.00566 26.2267 8.56155 27.4064 10.4952C27.9914 11.4629 28.4536 12.5134 28.7353 13.6136L29.4992 16.611C30.0112 18.6027 30.5016 20.5977 30.9855 22.5943L32.4469 28.5826L33.847 34.5841L35.166 40.6054L36.412 46.6451L38.8627 58.7326C39.262 60.7491 39.721 62.7523 40.1468 64.7622L41.5138 70.772C42.4533 74.7736 43.4325 78.7635 44.4433 82.7469L44.4284 82.6955C45.2221 84.891 46.9768 86.7501 49.1242 87.2853C49.6693 87.4195 50.1747 87.4526 50.7712 87.4377L52.632 87.3863L56.3535 87.2803L63.7982 87.0765C66.2803 87.0152 68.7625 86.9688 71.2446 86.9356L86.134 86.7633L93.5787 86.6821C96.0608 86.6473 98.5413 86.6672 101.023 86.6573L104.747 86.6523L108.387 86.6738L108.851 86.6523C109 86.644 109.182 86.6457 109.275 86.6192C109.505 86.5695 109.714 86.5661 109.964 86.4982C110.465 86.3822 110.957 86.2198 111.431 86.0044C112.38 85.5736 113.257 84.944 114.016 84.1785C115.547 82.6491 116.597 80.5878 117.073 78.3874C117.197 77.8621 117.298 77.2192 117.406 76.6145L117.727 74.7802L118.39 71.1167C119.268 66.2303 120.178 61.3489 121.119 56.4725C121.585 54.0351 122.067 51.5977 122.567 49.1653C123.059 46.7296 123.545 44.2938 124.073 41.8664L124.362 41.9111C124.116 44.385 123.83 46.8522 123.55 49.3194C123.276 51.7883 122.985 54.2555 122.678 56.7194C122.073 61.6488 121.437 66.5733 120.769 71.4911L120.274 75.1828L120.014 77.0254C119.924 77.6451 119.855 78.2333 119.721 78.9209C119.228 81.5754 118.067 84.1834 116.118 86.2182C115.151 87.2306 113.999 88.0988 112.698 88.7185C112.049 89.0284 111.363 89.272 110.657 89.4476C110.309 89.5437 109.896 89.5901 109.517 89.6547C109.305 89.6928 109.174 89.6895 109.015 89.7028L108.549 89.7309L108.433 89.7392L108.236 89.7442L108.003 89.7458L107.537 89.7492L106.607 89.7574L104.747 89.769L101.023 89.7641C98.5413 89.7525 96.0608 89.7724 93.5787 89.7376L86.134 89.6564L71.2446 89.484C68.7625 89.4509 66.2803 89.4062 63.7982 89.3432L56.3535 89.1411L52.632 89.0334L50.7712 88.9836C50.1267 88.972 49.386 88.8875 48.7348 88.6854C47.4043 88.2761 46.2394 87.4775 45.3447 86.4816C44.8989 85.9796 44.5129 85.4328 44.1865 84.8578C43.8683 84.2779 43.6131 83.6698 43.4027 83.0484L43.3928 83.0169L43.3878 82.9954C42.5113 78.9806 41.6033 74.9741 40.6538 70.9758L39.1907 64.9876C38.6738 62.9992 38.1883 61.0026 37.6448 59.0209L34.4319 47.1123L32.8462 41.1539L31.3351 35.1773L29.9035 29.1824L28.5348 23.1726C28.0759 21.1693 27.6218 19.1661 27.1894 17.1562L26.5283 14.1587C26.3327 13.259 25.9815 12.3991 25.5357 11.5921C24.6576 9.96664 23.279 8.59966 21.622 7.71815C20.7935 7.28072 19.9087 6.93275 18.9808 6.73392C18.5285 6.65107 18.1026 6.56326 17.5625 6.5384C17.1167 6.492 16.555 6.49697 16.0563 6.47212L9.8924 6.22192C7.83777 6.12416 5.78314 6.01646 3.72852 5.88721V5.59559Z" fill="#0C172F"/>
<path d="M38.4243 97.2202C38.4243 97.2202 39.7184 97.1274 41.0108 97.0329L43.5973 96.8755C43.7879 96.8639 43.9519 97.0081 43.9635 97.1986C43.9751 97.3892 43.831 97.5532 43.6388 97.5648C43.6255 97.5665 43.6106 97.5665 43.5973 97.5648L41.0108 97.4074C39.7184 97.3146 38.4243 97.2202 38.4243 97.2202Z" fill="#0C172F"/>
<path d="M48.7712 96.6072L51.3578 96.4995C52.6518 96.4498 53.9443 96.3984 53.9443 96.3984C54.3983 96.3802 54.781 96.7348 54.7976 97.1888C54.8158 97.6411 54.4629 98.0239 54.0089 98.0421C53.9874 98.0421 53.9642 98.0421 53.9443 98.0421C53.9443 98.0421 52.6518 97.9907 51.3578 97.941C50.0653 97.8864 48.7712 97.8333 48.7712 97.8333C48.4332 97.8184 48.1698 97.5334 48.1847 97.1938C48.1979 96.874 48.4564 96.6221 48.7712 96.6072Z" fill="#0C172F"/>
<path d="M59.1181 96.2361L61.7047 96.1632C62.9987 96.1218 64.2912 96.1069 64.2912 96.1069C64.9059 96.0986 65.4113 96.5924 65.4179 97.2071C65.4262 97.8235 64.9324 98.3272 64.3177 98.3339H64.2912C64.2912 98.3339 62.9987 98.3189 61.7047 98.2775L59.1181 98.2046C58.5747 98.1897 58.1455 97.7357 58.1621 97.1922C58.177 96.6686 58.6012 96.2527 59.1181 96.2361Z" fill="#0C172F"/>
<path d="M69.4642 96.0184C69.4642 96.0184 70.7582 95.9985 72.0507 95.9803C73.3448 95.972 74.6372 95.9653 74.6372 95.9653C75.3298 95.962 75.8948 96.5204 75.8998 97.213C75.9031 97.9057 75.3447 98.4707 74.6521 98.4756H74.6372C74.6372 98.4756 73.3448 98.4674 72.0507 98.4607C70.7582 98.4409 69.4642 98.4226 69.4642 98.4226C68.7997 98.4127 68.2695 97.8659 68.2794 97.2031C68.2894 96.5503 68.8179 96.0283 69.4642 96.0184Z" fill="#0C172F"/>
<path d="M79.811 95.9364C79.811 95.9364 81.1051 95.9182 82.3975 95.9331C83.6916 95.9397 84.984 95.9463 84.984 95.9463C85.6882 95.9513 86.2549 96.5246 86.2499 97.2272C86.2466 97.9264 85.6799 98.4898 84.984 98.4931C84.984 98.4931 83.6916 98.5014 82.3975 98.508C81.1051 98.5212 79.811 98.5047 79.811 98.5047C79.1018 98.4947 78.5351 97.9115 78.5451 97.2023C78.555 96.5064 79.1184 95.9463 79.811 95.9364Z" fill="#0C172F"/>
<path d="M90.1564 95.9761C90.1564 95.9761 91.4505 95.9794 92.7429 96.0076C94.037 96.0291 95.3294 96.0523 95.3294 96.0523C95.9756 96.0623 96.4893 96.5941 96.4777 97.2403C96.4677 97.8716 95.9557 98.377 95.3294 98.3886L92.7429 98.4334C91.4505 98.4615 90.1564 98.4648 90.1564 98.4648C89.4687 98.4665 88.9104 97.9114 88.9087 97.2238C88.907 96.5361 89.4621 95.9777 90.1498 95.9761H90.1564Z" fill="#0C172F"/>
<path d="M100.503 96.1468L105.676 96.2926C106.188 96.3076 106.592 96.7334 106.577 97.2471C106.562 97.7392 106.163 98.1319 105.676 98.1468L100.503 98.2926C99.9097 98.3092 99.4159 97.8436 99.3994 97.2504C99.3828 96.6572 99.85 96.1634 100.442 96.1468C100.461 96.1468 100.485 96.1468 100.503 96.1468Z" fill="#0C172F"/>
<path d="M110.85 96.4789C110.85 96.4789 112.144 96.5303 113.436 96.5817C114.73 96.6463 116.023 96.7109 116.023 96.7109C116.304 96.7258 116.52 96.9644 116.507 97.2461C116.493 97.5079 116.28 97.715 116.023 97.7283C116.023 97.7283 114.73 97.7929 113.436 97.8575C112.144 97.9089 110.85 97.9619 110.85 97.9619C110.44 97.9768 110.096 97.6587 110.079 97.2494C110.063 96.8401 110.381 96.4955 110.79 96.4789C110.81 96.4789 110.831 96.4789 110.85 96.4789Z" fill="#0C172F"/>
<path d="M121.196 97.0032L124.217 97.2203L121.196 97.4373C121.077 97.4456 120.972 97.3561 120.964 97.2352C120.954 97.1159 121.045 97.0115 121.165 97.0032C121.175 97.0016 121.186 97.0032 121.196 97.0032Z" fill="#0C172F"/>
<path d="M78.4511 77.1086C78.1727 76.9347 78.3716 77.0556 78.3086 77.0142L78.3053 77.0076L78.297 76.9927L78.2821 76.9612L78.2523 76.8982L78.1909 76.7756L78.0683 76.5271L77.8248 76.0316L77.3542 75.0341L76.4379 73.0309C75.843 71.6904 75.2581 70.3466 74.6931 68.9945C74.1215 67.6474 73.5813 66.2871 73.0295 64.9317C72.501 63.568 71.9575 62.2093 71.4422 60.8406C70.4032 58.1067 69.424 55.3511 68.5259 52.5691C67.6245 49.7871 66.7364 47.0001 65.8731 44.2064L67.6212 44.7118C66.8242 45.3348 66.0057 45.933 65.1921 46.5394C64.3719 47.1392 63.5981 47.7871 62.7945 48.4118C62.0025 49.0448 61.2684 49.7357 60.5029 50.4051C59.8136 51.1342 59.0514 51.8202 58.4566 52.6271C58.1434 53.0181 57.8071 53.4009 57.5618 53.835C57.3017 54.2592 57.0018 54.6668 56.8096 55.1192L56.4964 55.7886L56.2843 56.4828C56.1998 56.7132 56.1766 56.9484 56.1518 57.1821L56.112 57.5317C56.107 57.6477 56.1286 57.7604 56.1352 57.873L56.1617 58.211L56.2528 58.5292C56.2926 58.7462 56.4152 58.9285 56.5047 59.1207C56.7449 59.4869 57.0382 59.7421 57.4723 60.0817L59.8716 62.022C61.4756 63.3112 63.0563 64.6235 64.5625 66.0137C65.3197 66.7046 66.0554 67.4171 66.7911 68.1296C67.5251 68.8454 68.2591 69.5595 68.9766 70.2919L71.1273 72.4874L73.2068 74.6911C73.8563 75.3473 74.6517 75.8759 75.5365 76.252C76.4263 76.6198 77.3956 76.8303 78.4229 76.8518L78.4511 77.1086ZM78.4478 77.1086C77.4403 77.3854 76.3236 77.4218 75.2515 77.1998C74.1728 76.9893 73.1323 76.5171 72.2242 75.8411L71.8813 75.576L71.5847 75.3307L70.9948 74.837L69.8134 73.8461L67.4903 71.8296C66.7149 71.1569 65.9576 70.4659 65.1987 69.7766C64.4432 69.084 63.6876 68.3914 62.9519 67.6789C61.4756 66.2572 60.0721 64.7627 58.6919 63.2416L56.6157 60.9682C56.2827 60.6319 55.8452 60.1497 55.5967 59.6095C55.4857 59.3295 55.3548 59.0594 55.3183 58.7645C55.2918 58.6203 55.2603 58.4762 55.2388 58.3337V57.9028C55.2421 57.7604 55.2321 57.6162 55.2487 57.477L55.3216 57.0661C55.363 56.791 55.4078 56.5193 55.5089 56.2674L55.7657 55.4986L56.1103 54.7795C56.3108 54.2824 56.6124 53.8516 56.8775 53.3976C57.136 52.9369 57.4607 52.5293 57.754 52.0969L58.2064 51.4556C58.3621 51.2468 58.5361 51.0546 58.6952 50.8475L59.6678 49.6214C60.3621 48.8542 61.0249 48.0423 61.744 47.2917C62.4714 46.5543 63.1773 45.7805 63.9295 45.0664C64.6934 44.3655 65.4506 43.6547 66.231 42.9687L67.3892 41.9513L67.9791 43.4741C69.0329 46.2031 70.0636 48.9404 71.0793 51.6826C72.1 54.4216 73.0395 57.1904 73.9193 59.9807C74.3617 61.3742 74.7776 62.776 75.2084 64.1744C75.616 65.5812 76.0352 66.9813 76.4213 68.3947C76.8157 69.8048 77.1901 71.2231 77.5547 72.6448L78.0766 74.7839L78.3252 75.8576L78.4411 76.3978L78.4991 76.6679L78.5273 76.8021L78.5422 76.87L78.5505 76.9048L78.5538 76.9214L78.5555 76.9297C78.4942 76.8932 78.6947 77.0208 78.4179 76.8518L78.4478 77.1086Z" fill="#0C172F"/>
<path d="M78.6705 77.1087C78.7384 76.5951 78.697 76.9662 78.7152 76.8519H78.7268L78.7517 76.8502H78.7997L78.8958 76.8469L79.0864 76.8419L79.4658 76.8105C79.7177 76.7806 79.9646 76.7458 80.2098 76.6978C80.6986 76.6 81.1708 76.4509 81.6215 76.267C82.5163 75.8875 83.3266 75.3391 83.9661 74.6713L86.0605 72.4179L88.2063 70.1677C91.0927 67.1968 94.0139 64.2623 97.0694 61.4637L99.3626 59.3859C99.8647 58.9269 100.093 58.3503 100.087 57.5632C100.075 56.7894 99.805 55.9112 99.4107 55.0645C99.0229 54.2095 98.5026 53.3778 97.9575 52.5509C96.8341 50.9122 95.5433 49.3232 94.1349 47.8336C93.439 47.0797 92.7016 46.3605 91.9543 45.653C91.1954 44.9588 90.4233 44.2744 89.623 43.6232L90.2576 43.436C89.7671 44.8312 89.3098 46.2363 88.9039 47.6596C88.488 49.0796 88.1135 50.5129 87.7573 51.9528C87.0448 54.8309 86.3273 57.709 85.3845 60.511C84.9189 61.9144 84.4251 63.3079 83.9247 64.6998C83.4044 66.085 82.904 67.4768 82.3556 68.8521C81.8187 70.2307 81.2537 71.601 80.6738 72.9663C80.0756 74.3267 79.4857 75.687 78.8097 77.0209L78.6705 77.1087ZM78.5645 76.9397C78.8213 75.4667 79.1626 74.0218 79.4973 72.5753C79.8486 71.1354 80.2164 69.6988 80.6108 68.2722C80.9952 66.8422 81.4277 65.4288 81.8386 64.0071C82.2711 62.5921 82.7102 61.1804 83.1758 59.7769C84.0987 56.9684 85.247 54.2327 86.3986 51.5004C86.9735 50.1334 87.5319 48.7615 88.0489 47.3746C88.5741 45.9927 89.0497 44.5926 89.4921 43.1808L89.6644 42.6307L90.1267 42.9936L92.579 44.9256C93.4025 45.5669 94.2111 46.2263 95.0197 46.8941C95.8283 47.5635 96.6154 48.2627 97.3908 48.9852C98.153 49.7225 98.9102 50.4764 99.5979 51.3115C100.294 52.1383 100.927 53.0381 101.472 54.0323C102.007 55.0248 102.456 56.1399 102.562 57.439C102.612 58.0852 102.552 58.7828 102.329 59.4604C102.11 60.1348 101.691 60.781 101.21 61.2616L98.9848 63.4454C96.0106 66.3252 92.9021 69.0675 89.7589 71.775L87.3828 73.7849C86.5659 74.4493 85.8136 75.0938 84.9437 75.7765C84.0225 76.4691 82.9819 76.9447 81.8949 77.1684C81.3548 77.2843 80.8047 77.3324 80.2628 77.3225C79.9911 77.3175 79.7227 77.2976 79.4559 77.2612L79.0599 77.1949L78.8644 77.1518L78.7683 77.1303L78.7186 77.1187L78.6954 77.1137L78.6821 77.112C78.6937 76.996 78.6423 77.3655 78.7036 76.8519L78.5645 76.9397Z" fill="#0C172F"/>
<path d="M57.9447 26.8404C58.0442 26.5322 58.248 26.2555 58.5164 26.0715C58.8097 25.8777 59.0748 25.8097 59.3482 25.6805C59.89 25.4435 60.4285 25.195 60.9621 24.9382C62.0275 24.4146 63.0813 23.8612 64.1285 23.2928L64.5229 23.0807L64.6206 23.0277C64.6538 23.0111 64.677 22.9946 64.7598 22.9631C64.8973 22.9051 65.0498 22.8736 65.2022 22.8603C65.8269 22.8057 66.4632 23.1586 66.7581 23.7584C66.7929 23.8396 66.8244 23.8976 66.8542 24.0003C66.8824 24.0981 66.9072 24.234 66.9089 24.2406L66.9221 24.2953L66.9271 24.3566L66.9288 24.3632L66.9304 24.3765L66.9354 24.4046L66.9569 24.5157L67.0365 24.9547L67.174 25.8362C67.3629 27.011 67.4457 28.1908 67.5418 29.3705C67.6197 30.5503 67.6926 31.73 67.7158 32.9131C67.7374 33.503 67.7307 34.0945 67.739 34.6861L67.749 36.4607C67.7473 37.6437 67.7539 38.8268 67.7324 40.0099C67.7158 41.1946 67.6446 42.3793 67.57 43.5657L67.5418 43.9948L67.3165 44.1788C66.0042 45.2425 64.6935 46.3063 63.4044 47.3949L61.4906 49.0486L59.6166 50.7453L59.2935 51.0386L59.0218 50.6641C58.871 50.4553 58.6572 50.1819 58.4584 49.9483C58.2513 49.7097 58.0458 49.4661 57.8254 49.2358C57.388 48.7719 56.9522 48.3079 56.485 47.8688C56.0293 47.4198 55.5554 46.989 55.0832 46.5515C54.8462 46.3312 54.5828 46.0478 54.3574 45.7711C54.1304 45.4878 53.92 45.1879 53.741 44.8664C53.0037 43.5889 52.6955 42.0993 52.7336 40.6809C52.7518 39.9684 52.8446 39.2692 53.002 38.5882C53.0799 38.2469 53.181 37.9122 53.2887 37.5808C53.4063 37.2411 53.524 36.9428 53.6946 36.5717L53.6681 36.6429C54.3674 35.0059 55.1693 33.4019 55.9398 31.7864C56.311 30.9745 56.6871 30.1642 57.0218 29.3407C57.3582 28.5172 57.6581 27.6804 57.9447 26.8404ZM58.19 26.9232C57.9083 27.7649 57.6399 28.6117 57.4095 29.4716C57.1759 30.3299 56.9837 31.2015 56.7882 32.073C56.422 33.8244 56.0873 35.5858 55.6515 37.3123L55.6233 37.3852C55.5571 37.6073 55.4775 37.9188 55.4162 38.1922C55.3499 38.4755 55.2953 38.7622 55.2472 39.0472C55.1478 39.6188 55.0815 40.1921 55.0567 40.7572C55.0069 41.8889 55.108 42.9974 55.4808 44.033C55.5803 44.2881 55.6863 44.5433 55.8155 44.7902C55.9498 45.042 56.0873 45.2591 56.2679 45.5226L57.3731 47.1083C57.7376 47.6402 58.127 48.1522 58.5064 48.6724C58.692 48.9342 58.8925 49.1861 59.0864 49.4462C59.2836 49.713 59.4708 49.9367 59.6829 50.2548L59.0897 50.1736L60.9289 48.4405L62.73 46.6642C63.9164 45.4646 65.0796 44.2417 66.2444 43.0189L65.9926 43.632C65.8186 42.4555 65.6496 41.2808 65.5336 40.101C65.4126 38.9229 65.3215 37.7448 65.2204 36.565L65.0829 34.7971C65.0415 34.2072 64.9851 33.6173 64.9586 33.0274C64.8841 31.8477 64.8576 30.6663 64.8377 29.4832C64.8344 28.3001 64.8195 27.1187 64.9106 25.9307L64.9719 25.0409L65.0166 24.5952L65.0266 24.4842L65.0299 24.456L65.0315 24.4427V24.4361C65.0349 24.4577 65.0282 24.3765 65.0365 24.4825L65.0382 24.4278C65.0365 24.3599 65.0398 24.4245 65.0531 24.4494C65.068 24.4792 65.0663 24.4709 65.0796 24.4825C65.1409 24.5339 65.2022 24.5123 65.2287 24.4726C65.2353 24.4659 65.2387 24.451 65.237 24.4444C65.2503 24.4328 65.2039 24.4444 65.1674 24.4543L65.0581 24.4792L64.6239 24.5852C63.4641 24.862 62.3108 25.1552 61.1692 25.4767C60.5992 25.6424 60.0342 25.818 59.4724 26.0036C59.204 26.108 58.8809 26.1792 58.6755 26.3085C58.4534 26.451 58.2794 26.6714 58.19 26.9232Z" fill="#0C172F"/>
<path d="M98.6606 26.9232C98.5711 26.6714 98.3971 26.451 98.1751 26.3085C97.9679 26.1792 97.6465 26.108 97.3781 26.0036C96.8164 25.818 96.2513 25.6424 95.6813 25.4767C94.5397 25.1552 93.3865 24.862 92.2266 24.5852L91.7908 24.4792L91.6831 24.4543C91.6466 24.4444 91.6003 24.4328 91.6135 24.4444C91.6119 24.451 91.6152 24.4659 91.6218 24.4726C91.6483 24.5123 91.7096 24.5339 91.7709 24.4825C91.7825 24.4726 91.7825 24.4792 91.7958 24.4494C91.8107 24.4245 91.814 24.3599 91.8123 24.4278L91.814 24.4842C91.8206 24.3765 91.8157 24.4577 91.8173 24.4361L91.819 24.4427L91.8206 24.456L91.8223 24.4842L91.8339 24.5952L91.8786 25.0409L91.9399 25.9307C92.0311 27.1187 92.0162 28.3001 92.0128 29.4832C91.993 30.6663 91.9664 31.8477 91.8919 33.0274C91.8654 33.6173 91.809 34.2072 91.7676 34.7971L91.6301 36.565C91.529 37.7448 91.4379 38.9246 91.3169 40.101C91.2009 41.2808 91.0319 42.4555 90.8579 43.632L90.6061 43.0189C91.7693 44.2417 92.9341 45.4646 94.1205 46.6642L95.9216 48.4405L97.7608 50.1736L97.1676 50.2548C97.3797 49.9384 97.567 49.713 97.7641 49.4462C97.958 49.1861 98.1585 48.9359 98.3441 48.6724C98.7235 48.1522 99.1129 47.6402 99.4774 47.1099L100.581 45.5226C100.763 45.2591 100.901 45.0437 101.035 44.7902C101.164 44.5433 101.27 44.2881 101.37 44.033C101.742 42.9974 101.844 41.8889 101.794 40.7572C101.769 40.1921 101.703 39.6188 101.603 39.0472C101.555 38.7622 101.501 38.4755 101.434 38.1922C101.373 37.9188 101.293 37.6073 101.227 37.3852L101.199 37.3123C100.763 35.5858 100.429 33.8244 100.062 32.073C99.8668 31.2015 99.6746 30.3299 99.441 29.4716C99.2107 28.6117 98.9422 27.7649 98.6606 26.9232ZM98.9058 26.8404C99.1908 27.6804 99.4923 28.5172 99.8287 29.3407C100.163 30.1642 100.54 30.9745 100.911 31.7864C101.681 33.4019 102.483 35.0058 103.182 36.6446L103.154 36.5717C103.327 36.9428 103.444 37.2411 103.562 37.5808C103.67 37.9122 103.771 38.2469 103.848 38.5882C104.006 39.2692 104.099 39.9684 104.117 40.6809C104.155 42.0993 103.845 43.5889 103.109 44.8664C102.931 45.1879 102.718 45.4878 102.493 45.7728C102.268 46.0478 102.004 46.3312 101.767 46.5515C101.293 46.989 100.821 47.4198 100.366 47.8688C99.8983 48.3079 99.4609 48.7719 99.0251 49.2358C98.8047 49.4661 98.5992 49.7097 98.3921 49.9483C98.1933 50.1819 97.9779 50.4553 97.8271 50.6641L97.557 51.0386L97.2339 50.7453L95.3599 49.0486L93.4461 47.3949C92.157 46.3063 90.8463 45.2425 89.534 44.1788L89.3087 43.9948L89.2805 43.5657C89.206 42.3793 89.1347 41.1946 89.1181 40.0099C89.0966 38.8268 89.1032 37.6437 89.1016 36.4607L89.1115 34.6861C89.1198 34.0945 89.1115 33.503 89.1347 32.9131C89.1579 31.73 89.2291 30.5503 89.3087 29.3705C89.4048 28.1908 89.4876 27.0127 89.6765 25.8362L89.8141 24.9547L89.8936 24.5157L89.9151 24.4046L89.9201 24.3781L89.9218 24.3632L89.9234 24.3566L89.9284 24.2953L89.9416 24.2406C89.9433 24.234 89.9665 24.0981 89.9963 24.002C90.0261 23.8976 90.0576 23.8396 90.0924 23.7584C90.3874 23.1586 91.0236 22.8057 91.6467 22.8603C91.8007 22.8736 91.9532 22.9067 92.0907 22.9631C92.1736 22.9946 92.1968 23.0111 92.2299 23.0277L92.3277 23.0807L92.7204 23.2928C93.7692 23.8628 94.823 24.4146 95.8885 24.9398C96.422 25.195 96.9605 25.4435 97.5023 25.6805C97.7757 25.8097 98.0409 25.8777 98.3341 26.0715C98.6026 26.2571 98.8064 26.5322 98.9058 26.8404Z" fill="#0C172F"/>
<path d="M66.9221 113.348C66.9221 113.348 66.9071 113.139 66.8806 112.75C66.879 112.554 66.8276 112.317 66.7713 112.04C66.7282 111.76 66.6271 111.452 66.5028 111.112C66.246 110.441 65.8318 109.653 65.1541 108.942C64.4896 108.226 63.6148 107.573 62.609 107.086C62.097 106.854 61.5734 106.627 61.01 106.47C60.4599 106.281 59.8369 106.195 59.3116 106.137C59.1758 106.115 58.9587 106.122 58.7847 106.113L58.508 106.105L58.3688 106.102C58.3009 106.1 58.4417 106.103 58.4219 106.103L58.4069 106.105L58.3771 106.107L58.3191 106.112C58.006 106.14 57.6862 106.132 57.3713 106.2C56.7334 106.269 56.1054 106.466 55.4774 106.693C54.8495 106.934 54.2629 107.296 53.6929 107.701C53.1345 108.123 52.6424 108.644 52.1934 109.212C51.7625 109.794 51.3997 110.438 51.0981 111.127C50.9656 111.479 50.8164 111.837 50.7352 112.183C50.6176 112.489 50.5778 113.011 50.5082 113.348C50.4386 114.126 50.4618 114.927 50.6325 115.709C50.8297 116.481 51.1329 117.23 51.5687 117.899C52.0094 118.561 52.5529 119.149 53.1809 119.606C53.8172 120.05 54.5032 120.395 55.2107 120.6C55.9083 120.794 56.6506 120.923 57.2835 120.915C57.5685 120.947 57.9861 120.908 58.3523 120.898L58.4235 120.897H58.4583H58.4749C58.4931 120.897 58.3821 120.892 58.4368 120.893L58.5594 120.877L58.7996 120.844C58.9604 120.821 59.1194 120.821 59.2752 120.786C60.5212 120.57 61.6397 120.173 62.6421 119.661C63.6413 119.147 64.5112 118.488 65.1756 117.767C65.85 117.053 66.2659 116.262 66.5211 115.588C66.6437 115.247 66.7431 114.937 66.7829 114.66C66.8375 114.387 66.8873 114.15 66.8856 113.949C66.9105 113.552 66.9221 113.341 66.9221 113.341V113.348ZM67.1805 113.354C67.1805 113.354 67.1723 113.565 67.1557 113.962C67.1524 114.16 67.1325 114.407 67.0944 114.701C67.0728 114.847 67.0662 115.008 67.0414 115.175C67.0099 115.341 66.9784 115.518 66.9436 115.706C66.7945 116.45 66.5807 117.372 66.1019 118.375C65.6329 119.374 64.9072 120.474 63.7921 121.377C62.6819 122.269 61.1757 122.913 59.5304 123.043C59.3249 123.066 59.1161 123.056 58.909 123.059L58.5958 123.056L58.4401 123.053L58.3672 123.051L58.349 123.048L58.3142 123.044L58.2446 123.036C57.8668 122.98 57.5238 122.946 57.0598 122.827C56.1717 122.637 55.4128 122.28 54.6523 121.86C53.156 120.988 51.91 119.76 50.9125 118.335C50.6772 117.967 50.4403 117.599 50.2514 117.2C50.0261 116.821 49.8786 116.4 49.7096 115.987C49.3964 115.15 49.2009 114.262 49.0915 113.348C49.0816 112.839 49.0203 112.511 49.07 111.986C49.0816 111.487 49.1661 111.033 49.244 110.566C49.4577 109.651 49.7991 108.756 50.2879 107.946C50.7849 107.142 51.3881 106.41 52.0807 105.777C52.7816 105.161 53.5537 104.627 54.3872 104.236C55.2173 103.85 56.0889 103.56 56.9704 103.447C57.4078 103.366 57.8469 103.365 58.2794 103.345L58.3606 103.343L58.4003 103.341L58.508 103.343L58.6472 103.353L58.9239 103.374C59.1178 103.393 59.2686 103.389 59.4939 103.426C59.9313 103.5 60.3953 103.563 60.7698 103.691C60.9653 103.749 61.1592 103.807 61.3514 103.863C61.5403 103.931 61.7209 104.016 61.9031 104.092C62.6322 104.39 63.2635 104.824 63.8269 105.267C64.9337 106.196 65.6528 107.303 66.1217 108.306C66.6006 109.313 66.816 110.239 66.9602 110.985C66.995 111.172 67.0264 111.349 67.0563 111.517C67.0795 111.684 67.0861 111.843 67.106 111.989C67.1424 112.281 67.1607 112.528 67.1607 112.73C67.1739 113.132 67.1805 113.348 67.1805 113.348V113.354Z" fill="#0C172F"/>
<path d="M54.6211 109.544C54.6211 109.544 54.8199 109.583 55.1281 109.69C55.4413 109.792 55.8671 109.961 56.3377 110.205C57.2838 110.685 58.3874 111.484 59.3385 112.433C60.2912 113.383 61.0915 114.485 61.5704 115.433C61.8139 115.903 61.9813 116.329 62.084 116.644C62.1901 116.954 62.2282 117.151 62.2282 117.151C62.2282 117.151 62.031 117.113 61.7195 117.007C61.4063 116.904 60.9805 116.737 60.5099 116.493C59.5621 116.014 58.4603 115.214 57.5108 114.263C56.5614 113.31 55.7627 112.206 55.2822 111.26C55.0386 110.791 54.8696 110.366 54.7669 110.052C54.6609 109.743 54.6211 109.544 54.6211 109.544Z" fill="#0C172F"/>
<path d="M62.2301 109.544C62.2301 109.544 62.1904 109.743 62.0843 110.052C61.9816 110.366 61.8126 110.791 61.569 111.26C61.0885 112.206 60.2898 113.31 59.3404 114.263C58.391 115.214 57.2891 116.014 56.3413 116.493C55.8707 116.737 55.4449 116.904 55.1317 117.007C54.8202 117.113 54.623 117.151 54.623 117.151C54.623 117.151 54.6612 116.954 54.7672 116.644C54.8699 116.329 55.0373 115.903 55.2809 115.433C55.7597 114.485 56.56 113.383 57.5111 112.433C58.4639 111.484 59.5674 110.685 60.5135 110.205C60.9841 109.961 61.4099 109.792 61.7215 109.69C62.0313 109.583 62.2301 109.544 62.2301 109.544Z" fill="#0C172F"/>
<path d="M115.107 113.348C115.107 113.348 115.092 113.139 115.066 112.75C115.064 112.554 115.013 112.317 114.956 112.04C114.913 111.76 114.812 111.452 114.688 111.112C114.431 110.441 114.017 109.653 113.339 108.942C112.675 108.226 111.8 107.573 110.794 107.086C110.282 106.854 109.758 106.627 109.195 106.47C108.645 106.281 108.022 106.195 107.497 106.137C107.361 106.115 107.144 106.122 106.97 106.113L106.693 106.105L106.554 106.102C106.486 106.1 106.627 106.103 106.607 106.103L106.592 106.105L106.562 106.107L106.504 106.112C106.191 106.14 105.871 106.132 105.556 106.2C104.918 106.269 104.29 106.466 103.663 106.693C103.035 106.934 102.448 107.296 101.878 107.701C101.32 108.123 100.827 108.644 100.378 109.212C99.9476 109.794 99.5847 110.438 99.2832 111.127C99.1506 111.479 99.0015 111.837 98.9203 112.183C98.8026 112.489 98.7629 113.011 98.6933 113.348C98.6237 114.126 98.6469 114.927 98.8176 115.709C99.0147 116.481 99.318 117.23 99.7537 117.899C100.194 118.561 100.738 119.149 101.366 119.606C102.002 120.05 102.688 120.395 103.396 120.6C104.093 120.794 104.836 120.923 105.469 120.915C105.754 120.947 106.171 120.908 106.537 120.898L106.609 120.897H106.643H106.66C106.678 120.897 106.567 120.892 106.622 120.893L106.744 120.877L106.985 120.844C107.145 120.821 107.305 120.821 107.46 120.786C108.706 120.57 109.825 120.173 110.827 119.661C111.826 119.147 112.696 118.488 113.361 117.767C114.035 117.053 114.451 116.262 114.706 115.588C114.829 115.247 114.928 114.937 114.968 114.66C115.023 114.387 115.072 114.15 115.071 113.949C115.096 113.552 115.107 113.341 115.107 113.341V113.348ZM115.366 113.354C115.366 113.354 115.357 113.565 115.341 113.962C115.337 114.16 115.318 114.407 115.279 114.701C115.258 114.847 115.251 115.008 115.226 115.175C115.195 115.341 115.163 115.518 115.129 115.706C114.98 116.45 114.766 117.372 114.287 118.375C113.818 119.374 113.092 120.474 111.977 121.377C110.867 122.269 109.361 122.913 107.715 123.043C107.51 123.066 107.301 123.056 107.094 123.059L106.781 123.056L106.625 123.053L106.552 123.051L106.534 123.048L106.499 123.044L106.43 123.036C106.052 122.98 105.711 122.946 105.245 122.827C104.357 122.637 103.598 122.28 102.837 121.86C101.341 120.988 100.095 119.76 99.0976 118.335C98.8623 117.967 98.6254 117.599 98.4365 117.2C98.2111 116.821 98.0636 116.4 97.8946 115.987C97.5815 115.15 97.3859 114.262 97.2766 113.348C97.2666 112.839 97.2053 112.511 97.255 111.986C97.2666 111.487 97.3512 111.033 97.429 110.566C97.6428 109.651 97.9841 108.756 98.4729 107.946C98.97 107.142 99.5731 106.41 100.266 105.777C100.967 105.161 101.739 104.627 102.572 104.236C103.402 103.85 104.274 103.56 105.155 103.447C105.593 103.366 106.032 103.365 106.464 103.345L106.546 103.343L106.585 103.341L106.693 103.343L106.832 103.353L107.109 103.374C107.303 103.393 107.454 103.389 107.679 103.426C108.116 103.5 108.58 103.563 108.955 103.691C109.15 103.749 109.344 103.807 109.536 103.863C109.725 103.931 109.906 104.016 110.088 104.092C110.817 104.39 111.449 104.824 112.012 105.267C113.119 106.196 113.838 107.303 114.307 108.306C114.786 109.313 115.001 110.239 115.145 110.985C115.18 111.172 115.212 111.349 115.241 111.517C115.265 111.684 115.271 111.843 115.291 111.989C115.327 112.281 115.346 112.528 115.346 112.73C115.359 113.132 115.366 113.348 115.366 113.348V113.354Z" fill="#0C172F"/>
<path d="M102.807 109.544C102.807 109.544 103.005 109.583 103.314 109.69C103.627 109.792 104.053 109.961 104.523 110.205C105.469 110.685 106.573 111.484 107.526 112.433C108.477 113.383 109.277 114.485 109.756 115.433C110 115.903 110.167 116.329 110.27 116.644C110.376 116.954 110.414 117.151 110.414 117.151C110.414 117.151 110.217 117.113 109.905 117.007C109.592 116.904 109.166 116.737 108.695 116.493C107.748 116.014 106.646 115.214 105.696 114.263C104.747 113.31 103.948 112.206 103.468 111.26C103.224 110.791 103.055 110.366 102.952 110.052C102.846 109.743 102.807 109.544 102.807 109.544Z" fill="#0C172F"/>
<path d="M110.414 109.544C110.414 109.544 110.374 109.743 110.268 110.052C110.165 110.366 109.996 110.791 109.753 111.26C109.272 112.206 108.473 113.31 107.524 114.263C106.575 115.214 105.473 116.014 104.525 116.493C104.054 116.737 103.628 116.904 103.315 117.007C103.004 117.113 102.807 117.151 102.807 117.151C102.807 117.151 102.845 116.954 102.951 116.644C103.054 116.329 103.221 115.903 103.464 115.433C103.943 114.485 104.744 113.383 105.696 112.433C106.647 111.484 107.751 110.685 108.697 110.205C109.168 109.961 109.594 109.792 109.907 109.69C110.215 109.583 110.414 109.544 110.414 109.544Z" fill="#0C172F"/>
</svg>
