<svg width="49" height="125" viewBox="0 0 49 125" fill="none" xmlns="http://www.w3.org/2000/svg">
<path d="M3.60304 77.7418C3.60304 77.7418 3.41267 77.6166 3.0778 77.3298C2.75265 77.0373 2.27326 76.569 1.85918 75.8082C1.65631 75.4272 1.4729 74.9729 1.36729 74.4484C1.25335 73.9155 1.27697 73.3403 1.27003 72.7342C1.26447 71.5178 1.22139 70.1201 1.1936 68.5535C1.1672 66.987 1.12274 65.2531 1.05743 63.3645C1.00324 61.4774 0.929592 59.4355 0.843442 57.2531C0.686425 52.891 0.46688 47.9678 0.308474 42.5974C0.133394 37.227 0.0792029 31.4095 0.0361277 25.2558C0.0250115 23.7174 0.0125057 22.1579 0 20.5801C0 19.7898 0 18.9967 0 18.198C0 17.7986 -1.00778e-07 17.3978 0.00138942 16.9956V16.3924V16.2419L0.00694745 16.0436C0.0097265 15.91 0.0180637 15.7764 0.0333485 15.6428C0.137563 14.5741 0.540525 13.5476 1.13663 12.6954C1.43538 12.2679 1.77998 11.8812 2.15654 11.5381C2.34552 11.3637 2.59841 11.1612 2.73458 11.0642L3.2626 10.6845C4.59238 9.73107 5.9555 8.79874 7.31863 7.84251C10.049 5.93848 12.8253 4.00211 15.6363 2.04182L16.7327 1.28246C17.1676 0.999809 17.6289 0.769188 18.1027 0.579346C19.0546 0.205292 20.055 0.0126419 21.0735 -1.52588e-05C22.8632 0.016861 24.5043 0.0154495 26.3398 0.0660782C28.3435 0.167328 30.3945 0.964653 31.8048 2.5776C32.5024 3.38618 33.0346 4.34944 33.2277 5.48567L33.2944 5.93426L33.3097 6.27457L33.3166 6.44191L33.3208 6.58956L33.318 6.67252L33.3125 7.00721L33.2847 8.34312C33.1944 11.9093 33.1026 15.4896 33.0109 19.0698C33.0123 19.2794 32.9929 19.5437 32.9706 19.8053C32.9554 20.0654 32.8817 20.3186 32.8359 20.5731C32.6886 21.0681 32.5079 21.5546 32.2356 21.9863C31.7201 22.8638 30.9822 23.5683 30.1527 24.0774C29.3231 24.5907 28.4047 24.9211 27.4653 25.0772C27.2291 25.1166 26.979 25.1349 26.7358 25.1616L26.0717 25.1785L25.4325 25.1911C25.2296 25.215 25.024 25.2291 24.8211 25.26C23.2176 25.5314 21.6613 26.4159 20.829 27.8123C20.6067 28.1498 20.4733 28.5337 20.3593 28.9162C20.3135 29.1103 20.2801 29.279 20.2523 29.4857L20.2301 29.8162L20.2218 29.9568V30.1228C20.2176 31.0059 20.2134 31.889 20.2106 32.7707C20.1954 39.8187 20.3149 46.7556 20.5275 53.4689C20.5747 55.1466 20.6205 56.8101 20.6664 58.4596C20.6789 58.8717 20.6914 59.2823 20.7039 59.6929C20.7039 59.9179 20.7331 60.0416 20.7428 60.2132C20.7581 60.3749 20.8095 60.531 20.8373 60.6885C21.011 61.31 21.3556 61.8753 21.8003 62.3535C22.6826 63.3153 24.0429 63.8736 25.2907 63.9777C25.42 64.003 25.6381 64.0016 25.8271 64.0086L26.4107 64.0241C26.6344 64.0269 26.8567 64.0395 27.0791 64.0719C27.3014 64.0972 27.5223 64.1197 27.7419 64.1717C28.6187 64.3405 29.4718 64.6526 30.2527 65.1111C31.8104 66.0279 33.0707 67.5635 33.4014 69.5491C33.4556 69.8402 33.457 70.0062 33.4695 70.1918L33.4778 70.331L33.4834 70.4744V70.5433L33.4848 70.8218C33.4862 71.193 33.4862 71.5628 33.4875 71.9299C33.4945 72.6653 33.4778 73.3952 33.4737 74.1194C33.4514 77.0148 33.4209 79.8118 33.3458 82.4963L33.3347 82.9983L33.3278 83.2528L33.3055 83.5608C33.293 83.7661 33.2722 83.9686 33.2249 84.1683C33.186 84.3679 33.1513 84.5676 33.0818 84.7575C32.8498 85.5309 32.4482 86.2228 31.9646 86.8035C30.9767 87.9496 29.6955 88.6907 28.3852 89.0352C28.0601 89.135 27.728 89.1772 27.3987 89.2377C27.0582 89.27 26.6886 89.3136 26.4149 89.3024L25.9424 89.301L25.5047 89.2841C25.2143 89.2729 24.9253 89.2616 24.6391 89.2504C23.4941 89.2054 22.3825 89.1618 21.3042 89.121C20.1481 89.0844 19.0365 88.7961 18.0749 88.3068C17.5914 88.0677 17.1426 87.7555 16.7591 87.4546C16.3714 87.1593 15.9907 86.871 15.6169 86.587C14.1287 85.4465 12.7531 84.4129 11.5011 83.4919C9.01246 81.6272 7.02544 80.2083 5.67482 79.2352C4.32281 78.2607 3.60304 77.7418 3.60304 77.7418ZM3.75866 77.5168C3.75866 77.5168 4.48539 78.0287 5.84712 78.9863C7.20886 79.944 9.19865 81.3586 11.7748 83.0981C13.0532 83.9798 14.4802 84.9417 16.0435 85.9753C16.4325 86.234 16.8299 86.4998 17.2357 86.7698C17.6386 87.044 18.0235 87.2802 18.4612 87.456C19.3297 87.8174 20.3037 87.9904 21.3042 87.944C22.3825 87.9032 23.4941 87.8596 24.6391 87.8146C24.9253 87.8034 25.2143 87.7921 25.5047 87.7809L25.9424 87.764L26.3482 87.733C26.665 87.719 26.8804 87.6571 27.1319 87.6191C27.3848 87.5488 27.6502 87.4968 27.8961 87.3955C28.9063 87.0623 29.8234 86.4126 30.4528 85.5759C30.7599 85.1512 30.9781 84.6773 31.1003 84.1851C31.142 84.0642 31.1518 83.9376 31.1712 83.8125C31.1976 83.6887 31.2018 83.5622 31.2018 83.4342L31.2087 83.2444L31.2046 82.9983L31.1934 82.4963C31.1184 79.8118 31.0878 77.0148 31.0656 74.1194C31.0614 73.3952 31.0448 72.6653 31.0503 71.9299C31.0517 71.5628 31.0531 71.193 31.0545 70.8218V70.5433L31.0559 70.4744C31.06 70.5982 31.0545 70.4688 31.0545 70.4786L31.0462 70.3394L31.0309 70.0596C31.0295 69.9499 31.0059 69.9372 30.9975 69.8697C30.9795 69.7657 30.9642 69.6546 30.9142 69.5154C30.8808 69.3818 30.8363 69.251 30.7738 69.1259C30.7266 68.9937 30.6599 68.8699 30.5862 68.7476C30.5237 68.6196 30.4375 68.5043 30.3528 68.3862C30.011 67.9179 29.5538 67.5087 29.0327 67.1754C28.5075 66.845 27.91 66.6031 27.2792 66.4611C27.1235 66.4175 26.961 66.3978 26.7998 66.3739C26.64 66.3443 26.476 66.3303 26.312 66.3246L25.7312 66.2909C25.5339 66.2782 25.3616 66.2782 25.1045 66.2375C24.1486 66.1179 23.3148 65.8536 22.4825 65.4345C21.6655 65.0155 20.9096 64.4417 20.294 63.7147C19.6785 62.9905 19.2088 62.1018 19.0031 61.1329C18.9684 60.8882 18.9156 60.6449 18.9031 60.3988C18.8961 60.1626 18.8781 59.8771 18.8906 59.6929C18.9031 59.2823 18.9142 58.8717 18.9267 58.4596C18.9726 56.8101 19.0198 55.1466 19.0671 53.4689C19.2797 46.7556 19.3978 39.8187 19.3839 32.7707C19.3797 31.889 19.3769 31.0059 19.3728 30.1228L19.3714 29.9568L19.3811 29.7642L19.3992 29.4337C19.4256 29.2017 19.47 28.9331 19.527 28.6983C19.6562 28.2328 19.8244 27.773 20.0745 27.3609C21.0332 25.6678 22.8077 24.6132 24.6446 24.2532L25.3435 24.1449L26.0258 24.0985L26.6817 24.0521C26.8762 24.0169 27.0666 23.9972 27.2625 23.955C28.0587 23.7849 28.8187 23.4671 29.4788 23.0157C30.1402 22.5699 30.6946 21.9779 31.0517 21.2959C31.2462 20.9626 31.356 20.5956 31.4505 20.2328C31.47 20.0457 31.5228 19.8629 31.5214 19.6745C31.5269 19.4903 31.538 19.3089 31.5269 19.0698C31.4352 15.4896 31.3449 11.9093 31.2532 8.34312L31.2268 7.00721L31.2198 6.67252L31.2185 6.58956C31.2185 6.54737 31.2185 6.65424 31.2143 6.56987L31.2018 6.40394C31.1921 6.29566 31.1865 6.17472 31.1726 6.07769L31.1226 5.86957C30.9934 5.25083 30.6251 4.611 30.1471 4.11179C29.1884 3.07399 27.7071 2.51572 26.2551 2.49181C24.5362 2.50869 22.8229 2.52415 21.1194 2.54103C20.4121 2.56353 19.6979 2.71822 19.0546 2.98681C18.7336 3.12321 18.4265 3.28493 18.1444 3.47617L17.1398 4.20319C14.3663 6.21832 11.6275 8.20953 8.93464 10.167C7.58542 11.1429 6.25842 12.1259 4.92309 13.0709L4.4576 13.4055C4.26445 13.549 4.20192 13.6066 4.08937 13.7065C3.86427 13.9132 3.66696 14.1382 3.50021 14.3787C3.16673 14.8582 2.96664 15.3953 2.91383 15.9353C2.89716 19.1148 2.88048 22.2268 2.86381 25.2558C2.82074 31.4095 2.76654 37.227 2.59146 42.5974C2.43306 47.9678 2.21351 52.891 2.0565 57.2531C1.97035 59.4355 1.8967 61.4774 1.84251 63.3645C1.7772 65.2531 1.73274 66.987 1.70634 68.5535C1.67855 70.1201 1.63408 71.5178 1.62991 72.7342C1.62713 73.3445 1.59934 73.9028 1.69522 74.3851C1.78554 74.8731 1.9495 75.2992 2.13431 75.6592C2.51087 76.3792 2.9583 76.832 3.26399 77.116C3.57942 77.3945 3.75866 77.5168 3.75866 77.5168Z" fill="#1C1C1C"/>
<path d="M26.5756 1.26745C26.5756 1.26745 26.6437 1.54167 26.7285 1.95369C26.8063 2.36571 26.9174 2.91414 26.9939 3.46257C27.0828 4.011 27.1592 4.56083 27.2078 4.97145C27.2551 5.38348 27.2857 5.65769 27.2857 5.65769C27.3315 6.05565 27.0494 6.41424 26.6576 6.46065C26.2657 6.50564 25.91 6.22159 25.8656 5.82362C25.8586 5.76878 25.8586 5.71113 25.8656 5.65769C25.8656 5.65769 25.8961 5.38348 25.9434 4.97145C25.992 4.56083 26.0684 4.011 26.1574 3.46257C26.2338 2.91414 26.3449 2.36571 26.4228 1.95369C26.5075 1.54167 26.5756 1.26745 26.5756 1.26745Z" fill="#1C1C1C"/>
<path d="M27.6022 10.0482C27.6022 10.0482 27.6467 11.1465 27.6536 12.2434C27.6689 13.3416 27.6453 14.4385 27.6453 14.4385C27.6328 15.0375 27.1436 15.5114 26.5517 15.4988C25.9778 15.4861 25.5179 15.015 25.504 14.4385C25.504 14.4385 25.4818 13.3416 25.4971 12.2434C25.504 11.1465 25.5485 10.0482 25.5485 10.0482C25.5707 9.4745 26.0501 9.02732 26.617 9.05123C27.1548 9.07373 27.5786 9.51388 27.6022 10.0482Z" fill="#1C1C1C"/>
<path d="M27.4254 18.8287C27.4254 18.8287 27.3351 19.9269 27.1989 21.0238C27.1336 21.5722 27.0461 22.122 26.9822 22.5327C26.9224 22.9447 26.8682 23.2189 26.8682 23.2189C26.8363 23.3834 26.6779 23.4889 26.5167 23.4551C26.3944 23.4312 26.3055 23.3342 26.2818 23.2189C26.2818 23.2189 26.2277 22.9447 26.1679 22.5327C26.104 22.122 26.0164 21.5722 25.9511 21.0238C25.815 19.9269 25.7246 18.8287 25.7246 18.8287C25.6857 18.3533 26.0345 17.9357 26.5042 17.8963C26.9738 17.857 27.3865 18.2099 27.4254 18.6852C27.4296 18.7316 27.4296 18.7837 27.4254 18.8287Z" fill="#1C1C1C"/>
<path d="M26.5756 65.1603C26.5756 65.1603 26.6437 65.4345 26.7285 65.8465C26.8063 66.2585 26.9174 66.807 26.9939 67.3554C27.0828 67.9038 27.1592 68.4537 27.2078 68.8643C27.2551 69.2763 27.2857 69.5505 27.2857 69.5505C27.3315 69.9485 27.0494 70.3071 26.6576 70.3535C26.2657 70.3985 25.91 70.1144 25.8656 69.7164C25.8586 69.6616 25.8586 69.6039 25.8656 69.5505C25.8656 69.5505 25.8961 69.2763 25.9434 68.8643C25.992 68.4537 26.0684 67.9038 26.1574 67.3554C26.2338 66.807 26.3449 66.2585 26.4228 65.8465C26.5075 65.4345 26.5756 65.1603 26.5756 65.1603Z" fill="#1C1C1C"/>
<path d="M27.6022 73.9413C27.6022 73.9413 27.6467 75.0396 27.6536 76.1364C27.6689 77.2347 27.6453 78.3315 27.6453 78.3315C27.6328 78.9306 27.1436 79.4045 26.5517 79.3918C25.9778 79.3792 25.5179 78.9081 25.504 78.3315C25.504 78.3315 25.4818 77.2347 25.4971 76.1364C25.504 75.0396 25.5485 73.9413 25.5485 73.9413C25.5707 73.3676 26.0501 72.9218 26.617 72.9443C27.1548 72.9668 27.5786 73.4069 27.6022 73.9413Z" fill="#1C1C1C"/>
<path d="M27.4254 82.7218C27.4254 82.7218 27.3351 83.82 27.1989 84.9169C27.1336 85.4653 27.0461 86.0151 26.9822 86.4258C26.9224 86.8378 26.8682 87.112 26.8682 87.112C26.8363 87.2765 26.6779 87.382 26.5167 87.3496C26.3944 87.3243 26.3055 87.2273 26.2818 87.112C26.2818 87.112 26.2277 86.8378 26.1679 86.4258C26.104 86.0151 26.0164 85.4653 25.9511 84.9169C25.815 83.82 25.7246 82.7218 25.7246 82.7218C25.6857 82.2465 26.0345 81.8288 26.5042 81.7894C26.9738 81.7501 27.3865 82.103 27.4254 82.5783C27.4296 82.6247 27.4296 82.6768 27.4254 82.7218Z" fill="#1C1C1C"/>
<path d="M43.6683 124.74L39.3274 124.837C39.2274 124.84 39.1454 124.76 39.1426 124.659C39.1412 124.557 39.219 124.475 39.3191 124.472C39.3246 124.472 39.3302 124.472 39.3344 124.472L43.6683 124.74Z" fill="#1C1C1C"/>
<path d="M34.9872 124.905L30.6477 124.949C30.3934 124.952 30.1864 124.745 30.1836 124.489C30.1808 124.232 30.3851 124.022 30.638 124.019C30.6463 124.019 30.6561 124.019 30.6658 124.019L34.9997 124.233C35.1831 124.243 35.3249 124.4 35.3151 124.586C35.3068 124.764 35.1609 124.904 34.9872 124.905Z" fill="#1C1C1C"/>
<path d="M26.3073 124.981L21.9678 124.995C21.5954 124.996 21.2939 124.691 21.2925 124.316C21.2911 123.939 21.5912 123.632 21.9636 123.632C21.9734 123.631 21.9845 123.632 21.9942 123.632L26.3295 123.816C26.6477 123.831 26.8937 124.102 26.8798 124.423C26.8673 124.735 26.613 124.979 26.3073 124.981Z" fill="#1C1C1C"/>
<path d="M17.6294 125C17.6294 125 16.5441 124.996 15.4603 124.993C14.917 124.992 14.3751 124.99 13.968 124.989L13.2774 124.977C12.816 124.97 12.4492 124.587 12.4562 124.121C12.4631 123.654 12.8411 123.283 13.3024 123.29C13.3107 123.29 13.3177 123.29 13.326 123.29L13.3371 123.291C13.3371 123.291 13.6025 123.304 13.9999 123.324C14.407 123.338 14.949 123.358 15.4909 123.377C16.5747 123.417 17.6585 123.456 17.6585 123.456C18.0809 123.471 18.4103 123.829 18.395 124.255C18.3797 124.672 18.0393 125.001 17.6294 125Z" fill="#1C1C1C"/>
<path d="M8.7328 123.583C8.7328 123.583 8.67305 123.545 8.56606 123.479C8.44934 123.404 8.29649 123.305 8.11307 123.171C7.93105 123.039 7.72262 122.877 7.50724 122.693C7.40025 122.6 7.29187 122.503 7.18348 122.402C7.07927 122.299 6.97366 122.195 6.86806 122.092C6.76662 121.987 6.66519 121.882 6.56514 121.779C6.46649 121.668 6.36922 121.558 6.27473 121.453C6.09132 121.237 5.92874 121.028 5.79535 120.844C5.52995 120.475 5.37571 120.212 5.37571 120.212L5.35765 120.181C5.08808 119.726 5.23676 119.134 5.68696 118.862C6.13856 118.59 6.72355 118.739 6.99173 119.196C6.99451 119.2 7.00006 119.208 7.00145 119.213C7.00145 119.213 7.12095 119.426 7.33077 119.727C7.43499 119.878 7.56143 120.049 7.70733 120.226C7.78098 120.314 7.85879 120.404 7.9366 120.495C8.02137 120.586 8.10891 120.681 8.19506 120.772C8.2826 120.862 8.37014 120.951 8.4549 121.038C8.54105 121.122 8.6272 121.204 8.71335 121.28C8.88426 121.433 9.051 121.567 9.19551 121.678C9.34002 121.789 9.46925 121.88 9.55123 121.936C9.64572 122 9.69991 122.035 9.69991 122.035L9.70686 122.04C10.1237 122.32 10.2377 122.888 9.96114 123.309C9.69157 123.722 9.14688 123.84 8.7328 123.583Z" fill="#1C1C1C"/>
<path d="M3.93276 115.593C3.93276 115.593 3.92998 115.524 3.92442 115.405C3.91886 115.297 3.9133 115.065 3.91747 114.845C3.92164 114.388 3.97166 113.776 4.08282 113.175C4.1926 112.573 4.3649 111.984 4.52608 111.553C4.6831 111.121 4.8151 110.843 4.8151 110.843L4.82761 110.816C5.07356 110.293 5.69328 110.071 6.21019 110.321C6.72709 110.57 6.94664 111.197 6.6993 111.721C6.69791 111.725 6.69235 111.733 6.69096 111.737C6.69096 111.737 6.58397 111.954 6.45196 112.293C6.31857 112.63 6.17406 113.093 6.07679 113.57C5.97814 114.045 5.9295 114.53 5.91839 114.896C5.91144 115.088 5.91283 115.2 5.91561 115.332C5.91839 115.451 5.91978 115.52 5.91978 115.52C5.93506 116.076 5.50153 116.538 4.95267 116.552C4.41075 116.568 3.95777 116.139 3.93276 115.593Z" fill="#1C1C1C"/>
<path d="M7.86516 107.065C7.86516 107.065 7.92074 107.024 8.01662 106.956C8.10138 106.892 8.29314 106.757 8.47794 106.641C8.86145 106.392 9.39781 106.098 9.95779 105.861C10.5192 105.625 11.1041 105.448 11.5488 105.348C11.9934 105.247 12.295 105.205 12.295 105.205L12.3241 105.201C12.9077 105.122 13.4441 105.535 13.5233 106.126C13.6025 106.716 13.1926 107.259 12.609 107.339L12.6034 107.341C12.6034 107.341 12.3658 107.37 12.0171 107.449C11.6669 107.525 11.2084 107.661 10.7665 107.843C10.3246 108.026 9.90082 108.253 9.59929 108.448C9.4381 108.549 9.35056 108.609 9.24357 108.685C9.1463 108.755 9.09072 108.795 9.09072 108.795C8.61828 109.137 7.96104 109.024 7.62477 108.546C7.28851 108.069 7.39689 107.407 7.86516 107.065Z" fill="#1C1C1C"/>
<path d="M16.7986 105.126L21.1367 105.189C21.73 105.198 22.2038 105.691 22.1955 106.292C22.1871 106.894 21.7022 107.373 21.1089 107.365L16.7708 107.313C16.1733 107.306 15.6953 106.809 15.7022 106.206C15.7106 105.603 16.1997 105.119 16.7958 105.126H16.7986Z" fill="#1C1C1C"/>
<path d="M25.4781 105.263L29.8162 105.351C30.3929 105.362 30.8514 105.846 30.8403 106.431C30.8292 107.013 30.3554 107.475 29.7801 107.468L25.4434 107.409C24.857 107.401 24.3887 106.914 24.3971 106.322C24.404 105.729 24.8862 105.255 25.4712 105.263H25.4781Z" fill="#1C1C1C"/>
<path d="M34.1528 105.45L38.4895 105.567C39.0286 105.581 39.4538 106.035 39.4399 106.581C39.426 107.119 38.9869 107.545 38.4575 107.542L34.1194 107.513C33.5553 107.509 33.1023 107.045 33.1065 106.474C33.1106 105.904 33.5692 105.446 34.1319 105.45C34.1375 105.45 34.1472 105.45 34.1528 105.45Z" fill="#1C1C1C"/>
<path d="M41.8417 105.177C41.8417 105.177 41.9056 105.154 42.0181 105.115C42.1334 105.073 42.246 105.031 42.4211 104.956C42.7587 104.815 43.1937 104.593 43.605 104.33C44.0176 104.07 44.4025 103.764 44.6735 103.515C44.8138 103.39 44.9139 103.29 45.0028 103.203C45.0848 103.12 45.132 103.072 45.132 103.072L45.1362 103.069C45.4794 102.726 46.0325 102.729 46.3729 103.076C46.705 103.418 46.7064 103.962 46.384 104.306C46.384 104.306 46.3368 104.357 46.2534 104.447C46.1756 104.529 46.0394 104.675 45.8782 104.828C45.5572 105.143 45.0973 105.534 44.5999 105.872C44.1052 106.213 43.5702 106.493 43.1589 106.676C42.963 106.766 42.7573 106.847 42.6504 106.888C42.5392 106.929 42.4767 106.953 42.4767 106.953C41.9931 107.136 41.4554 106.887 41.2761 106.399C41.0955 105.909 41.3414 105.365 41.8236 105.184C41.8291 105.181 41.8375 105.178 41.8417 105.177Z" fill="#1C1C1C"/>
<path d="M47.129 99.7123C47.129 99.7123 47.147 99.6462 47.1804 99.5308C47.2137 99.4057 47.2457 99.2876 47.286 99.0963C47.368 98.7307 47.4416 98.2343 47.4652 97.7337C47.5236 96.7268 47.3207 95.7326 47.3207 95.7326C47.2387 95.3347 47.4916 94.9451 47.8849 94.8622C48.267 94.782 48.6408 95.0197 48.7366 95.398L48.7422 95.4176C48.7422 95.4176 48.8159 95.7059 48.8853 96.1461C48.9562 96.5876 49.0076 97.1825 48.9993 97.7787C48.9909 98.3749 48.9228 98.9712 48.8395 99.4113C48.802 99.6237 48.7519 99.8402 48.7255 99.9457C48.6977 100.062 48.6811 100.13 48.6811 100.13C48.5741 100.564 48.1392 100.83 47.7084 100.722C47.2777 100.615 47.015 100.173 47.122 99.7376C47.1234 99.7305 47.1276 99.7193 47.129 99.7123Z" fill="#1C1C1C"/>
<path d="M45.6554 92.124C45.6554 92.124 45.472 91.9215 45.1982 91.6178C45.1635 91.5798 45.1274 91.5404 45.0912 91.4982L45.0343 91.4364L45.0329 91.435L45.0315 91.4336C45.0259 91.4265 45.0843 91.4856 45.0593 91.4603L45.0551 91.4561L45.0468 91.449L45.0315 91.4336L45.0009 91.404C44.9203 91.3281 44.837 91.2479 44.7494 91.1664C44.573 91.0061 44.377 90.8444 44.1728 90.6911C43.3627 90.0667 42.4109 89.6744 42.4109 89.6744C42.1413 89.5647 42.0107 89.2539 42.1204 88.9811C42.2247 88.7195 42.5109 88.5874 42.7721 88.6745L42.7888 88.6802C42.7888 88.6802 43.0625 88.7716 43.4572 88.9516C43.8518 89.1302 44.3631 89.4044 44.8425 89.732C45.0815 89.8951 45.3136 90.0709 45.5248 90.2453C45.6276 90.3339 45.7263 90.4197 45.8207 90.5012L45.9138 90.5856L45.9722 90.6461C46.0111 90.6854 46.0486 90.7234 46.0848 90.7586C46.3724 91.0497 46.5641 91.2437 46.5641 91.2437C46.8101 91.4926 46.8101 91.8962 46.5655 92.1451C46.3196 92.394 45.9208 92.394 45.6748 92.1451C45.6693 92.1395 45.661 92.131 45.6554 92.124Z" fill="#1C1C1C"/>
<path d="M38.3321 88.9822L33.994 88.8233C33.8508 88.8176 33.7383 88.6953 33.7438 88.5491C33.748 88.4098 33.8606 88.2988 33.9967 88.2959L38.3348 88.1708C38.5572 88.1638 38.7406 88.3409 38.7475 88.5645C38.7545 88.7895 38.5794 88.9766 38.3585 88.9822C38.3501 88.9822 38.3404 88.9822 38.3321 88.9822Z" fill="#1C1C1C"/>
<path d="M29.6559 88.6384L27.4062 88.533L29.6559 88.4444C29.7087 88.443 29.7532 88.4852 29.7559 88.5386C29.7573 88.5906 29.717 88.6356 29.6642 88.6384H29.6559Z" fill="#1C1C1C"/>
</svg>
