<svg width="96" height="96" viewBox="0 0 96 96" fill="none" xmlns="http://www.w3.org/2000/svg">
<path d="M12.8344 64.3138C12.8904 63.9018 12.857 64.1991 12.873 64.1071H12.8864H12.913L12.9664 64.1085H13.0717L13.281 64.1098L13.6997 64.0911C13.977 64.0658 14.253 64.0391 14.525 63.9951C15.069 63.9071 15.5997 63.7618 16.105 63.5645C17.1117 63.1658 18.033 62.5751 18.7757 61.8418L21.121 59.4085L23.5064 56.9791L25.9144 54.5725C26.7144 53.7685 27.529 52.9778 28.3437 52.1885L30.7917 49.8231L33.2744 47.4951L35.781 45.2058C36.413 44.6298 36.697 43.8458 36.6677 42.9125C36.6397 41.9858 36.3144 40.9898 35.8597 40.0405C35.4117 39.0831 34.825 38.1631 34.2064 37.2565C33.5757 36.3551 32.8824 35.4818 32.1717 34.6205C31.4424 33.7725 30.6957 32.9338 29.9037 32.1325C29.117 31.3271 28.3077 30.5391 27.4784 29.7711C26.6397 29.0151 25.785 28.2738 24.9064 27.5605L25.417 27.4098C25.1557 28.1765 24.889 28.9418 24.6477 29.7151C24.405 30.4885 24.1437 31.2551 23.921 32.0338C23.4504 33.5858 23.013 35.1471 22.5904 36.7138C22.1637 38.2805 21.7464 39.8485 21.2984 41.4071C21.0837 42.1898 20.8344 42.9605 20.605 43.7378C20.377 44.5165 20.109 45.2805 19.8624 46.0525C19.6184 46.8258 19.3437 47.5871 19.0797 48.3538L18.2837 50.6498C17.7304 52.1738 17.1917 53.7018 16.6144 55.2178C16.0464 56.7365 15.457 58.2471 14.8544 59.7551L13.9237 62.0071C13.6077 62.7565 13.2824 63.5018 12.9464 64.2431L12.8344 64.3138ZM12.749 64.1778C12.9237 63.3818 13.109 62.5898 13.3037 61.8005L13.9064 59.4405C14.325 57.8725 14.757 56.3085 15.2104 54.7511C15.6557 53.1925 16.1384 51.6445 16.6064 50.0925L17.3437 47.7765C17.5917 47.0058 17.8277 46.2298 18.093 45.4645C18.3584 44.6991 18.601 43.9258 18.8837 43.1658C19.165 42.4058 19.4264 41.6391 19.7237 40.8845C20.297 39.3671 20.901 37.8605 21.497 36.3511C22.0957 34.8431 22.6797 33.3298 23.2317 31.8058C23.5197 31.0471 23.769 30.2765 24.037 29.5125C24.3064 28.7485 24.5517 27.9751 24.801 27.2045L24.9464 26.7578L25.3117 27.0538C26.1957 27.7698 27.1024 28.4591 27.9824 29.1858C28.8744 29.8965 29.7597 30.6178 30.6224 31.3711C31.4877 32.1205 32.3357 32.8951 33.1664 33.6965C33.9837 34.5111 34.7917 35.3445 35.5264 36.2578C36.2677 37.1658 36.9437 38.1405 37.5184 39.2098C38.0837 40.2778 38.5477 41.4671 38.6477 42.8125C38.6944 43.4818 38.6277 44.1951 38.3984 44.8818C38.169 45.5645 37.753 46.2125 37.2584 46.7045C36.4344 47.5138 35.6384 48.3005 34.813 49.0871L32.341 51.4258L29.8317 53.7271C28.9944 54.4951 28.157 55.2605 27.305 56.0111L24.757 58.2725L22.185 60.5085C21.3077 61.2498 20.485 61.9778 19.5624 62.7298C18.5944 63.4858 17.4864 64.0191 16.3224 64.2791C15.7424 64.4125 15.153 64.4831 14.5664 64.4925C14.2744 64.4965 13.981 64.4831 13.6917 64.4525L13.261 64.3938L13.0464 64.3538L12.941 64.3338L12.8877 64.3231L12.861 64.3191L12.8477 64.3165C12.8544 64.2231 12.813 64.5205 12.861 64.1071L12.749 64.1778Z" fill="#0C172F"/>
<path d="M34.7744 9.33704C34.6757 9.05304 34.4797 8.80371 34.2291 8.64104C33.9904 8.49037 33.6464 8.41171 33.3517 8.2957C32.7384 8.0837 32.1224 7.88104 31.5037 7.68504C30.2637 7.3037 29.0131 6.94504 27.7584 6.59837L27.2891 6.4677L27.1704 6.4357C27.1317 6.4237 27.0851 6.41037 27.0851 6.41704C27.0624 6.41437 27.0437 6.4237 27.0277 6.42904C26.9624 6.45837 26.9277 6.53037 26.9437 6.56771C26.9504 6.57037 26.9451 6.58637 26.9531 6.57304C26.9624 6.56237 26.9624 6.52237 26.9611 6.58637L26.9597 6.64771C26.9664 6.56237 26.9624 6.62904 26.9637 6.6117V6.61971L26.9651 6.63437L26.9664 6.66504L26.9744 6.78637L27.0051 7.27437L27.0437 8.24771C27.1024 9.5477 27.0757 10.8424 27.0597 12.1384C27.0291 13.4344 26.9931 14.729 26.9184 16.0224C26.8904 16.669 26.8371 17.3157 26.7971 17.9624L26.6651 19.9024C26.5691 21.1944 26.4811 22.4877 26.3704 23.7797C26.2624 25.0717 26.1117 26.361 25.9584 27.6517L25.7544 27.1584C27.0517 28.4757 28.3491 29.793 29.6651 31.0917L31.6544 33.021L33.6757 34.9157L33.1984 34.9797C33.4224 34.6477 33.6304 34.3957 33.8477 34.1064L34.4917 33.2677L35.1317 32.429C35.3491 32.153 35.5517 31.8637 35.7637 31.5837L37.0171 29.8837C37.2237 29.601 37.3917 29.3544 37.5531 29.0744C37.7091 28.7984 37.8411 28.5117 37.9611 28.2224C38.1944 27.6384 38.3371 27.025 38.4291 26.4037C38.5117 25.7784 38.5397 25.141 38.5104 24.4997C38.4837 23.8584 38.4077 23.213 38.2904 22.5704C38.2331 22.249 38.1677 21.9277 38.0877 21.6104C38.0131 21.301 37.9211 20.9624 37.8317 20.697L37.8104 20.6384C37.2931 18.7584 36.8597 16.8504 36.3984 14.9517C36.1584 14.0064 35.9211 13.0584 35.6504 12.1224C35.3824 11.1864 35.0837 10.2597 34.7744 9.33704ZM34.9717 9.27037C35.2851 10.1917 35.6091 11.1104 35.9624 12.017C36.3144 12.9264 36.6997 13.8224 37.0811 14.721C37.8664 16.5104 38.6771 18.2917 39.4051 20.0997L39.3837 20.0424C39.5557 20.4277 39.6797 20.7557 39.7997 21.1184C39.9131 21.4757 40.0157 21.8344 40.0971 22.1997C40.2611 22.9304 40.3597 23.6797 40.3797 24.4384C40.3971 25.197 40.3331 25.9664 40.1717 26.721C40.0064 27.4757 39.7291 28.2117 39.3611 28.893C39.1771 29.2357 38.9597 29.5584 38.7264 29.8637C38.4931 30.1637 38.2224 30.4637 37.9704 30.7117C37.4677 31.2037 36.9651 31.6917 36.4784 32.1944C35.9811 32.689 35.5091 33.205 35.0397 33.7224C34.8024 33.9784 34.5784 34.2464 34.3544 34.5117C34.1357 34.7717 33.9037 35.065 33.7304 35.309L33.5144 35.613L33.2517 35.3744L31.2024 33.509L29.1224 31.6784C27.7251 30.4704 26.3077 29.281 24.8931 28.0917L24.7011 27.9304L24.6891 27.5997C24.6424 26.301 24.5997 25.0024 24.6011 23.705C24.5971 22.409 24.6184 21.113 24.6304 19.817L24.6597 17.873C24.6731 17.225 24.6744 16.577 24.6997 15.9304C24.7331 14.6344 24.8051 13.341 24.8837 12.0477C24.9744 10.7557 25.0557 9.46237 25.2224 8.1717L25.3437 7.20504L25.4131 6.72104L25.4317 6.60104L25.4357 6.57037L25.4384 6.5557L25.4437 6.49704L25.4544 6.43704C25.4571 6.41971 25.4797 6.30104 25.5051 6.2117C25.5317 6.11837 25.5611 6.06104 25.5917 5.98637C25.8637 5.4237 26.4611 5.08504 27.0491 5.13037C27.1931 5.14237 27.3384 5.17171 27.4677 5.22504C27.5464 5.25304 27.5744 5.27037 27.6104 5.2877L27.7197 5.34104L28.1571 5.55837C29.3211 6.13971 30.4917 6.7077 31.6704 7.25304C32.2611 7.52104 32.8544 7.78237 33.4517 8.03437C33.7504 8.17171 34.0491 8.2477 34.3571 8.45037C34.6451 8.64637 34.8651 8.94104 34.9717 9.27037Z" fill="#0C172F"/>
<path d="M27.155 71.4028C27.0244 70.7148 26.9297 70.0255 26.8337 69.3375C26.7537 68.6482 26.6604 67.9602 26.599 67.2708L26.5537 66.7748L27.155 66.7148C28.8937 66.5415 30.631 66.4188 32.3697 66.3442C34.107 66.2695 35.8457 66.2348 37.583 66.2308C39.3217 66.2335 41.0604 66.2668 42.7977 66.3415C44.5364 66.4162 46.2737 66.5375 48.0124 66.7122L48.615 66.7735L48.571 67.2708C48.5097 67.9602 48.415 68.6482 48.3364 69.3375C48.239 70.0255 48.1444 70.7148 48.0124 71.4028C47.8804 70.7148 47.7857 70.0255 47.6884 69.3375C47.6097 68.6482 47.515 67.9602 47.4537 67.2708L48.0124 67.8295C46.2737 68.0055 44.5364 68.1268 42.7977 68.2002C41.0604 68.2762 39.3217 68.3082 37.583 68.3108C35.8457 68.3068 34.107 68.2735 32.3697 68.1975C30.631 68.1242 28.8937 68.0015 27.155 67.8268L27.711 67.2708C27.6497 67.9602 27.5564 68.6482 27.4764 69.3375C27.3804 70.0255 27.2857 70.7148 27.155 71.4028Z" fill="#0C172F"/>
<path d="M30.7385 7.47964C32.1332 7.82631 33.5252 8.1823 34.9145 8.55031L39.0758 9.66764L43.2252 10.821L47.3665 12.0036L47.8732 12.149L47.8852 12.709C47.9212 14.281 47.9225 15.8223 47.9812 17.369C48.0105 18.141 48.0452 18.9116 48.0958 19.681C48.1452 20.4516 48.2012 21.2196 48.2665 21.9863C48.3972 23.5196 48.5772 25.0476 48.8185 26.5623C48.9345 27.3196 49.0825 28.0703 49.2212 28.8236C49.3705 29.573 49.5305 30.3196 49.7145 31.0596C49.8985 31.7996 50.1012 32.5343 50.3198 33.2623C50.4225 33.629 50.5372 33.9916 50.6612 34.349C50.7812 34.709 50.8958 35.0716 51.0372 35.4236C51.2958 36.137 51.5958 36.8303 51.8918 37.5276L52.3745 38.553L52.9078 39.5516C53.2852 40.2036 53.6772 40.849 54.1198 41.4583C54.3278 41.773 54.5665 42.0636 54.8025 42.357L55.1545 42.7983L55.5372 43.213C55.7905 43.4903 56.0412 43.7743 56.3238 44.0223C56.6038 44.273 56.8598 44.5543 57.1625 44.7783C57.4598 45.009 57.7425 45.261 58.0518 45.4756L58.9892 46.113L59.2492 46.289L59.2358 46.549C59.1172 48.8596 59.0398 51.169 58.9585 53.4796C58.9065 55.7903 58.8372 58.101 58.8172 60.4116C58.7798 62.7223 58.7745 65.0343 58.7692 67.345L58.8092 74.281L58.8718 81.217L58.8918 84.6836L58.8985 86.4183V86.6343V86.689L58.8945 86.7863L58.8878 86.8943C58.8892 87.005 58.8505 87.273 58.8132 87.4596C58.7332 87.8316 58.5892 88.189 58.4012 88.5196C58.0238 89.181 57.4305 89.7143 56.7345 90.037C56.3852 90.1943 56.0118 90.2996 55.6305 90.3503C55.2052 90.3876 54.9732 90.3796 54.6718 90.389L51.2065 90.4596L44.2732 90.5996L37.3412 90.7303L30.4078 90.805L23.4745 90.817C21.1625 90.8263 18.8505 90.7983 16.5398 90.7903L15.6252 90.7836L15.4078 90.7716C15.3505 90.7716 15.2065 90.749 15.1105 90.7356C14.8838 90.7063 14.7198 90.653 14.5292 90.5983C13.7972 90.3556 13.1492 89.8836 12.7038 89.2663C12.2492 88.6556 12.0012 87.8943 11.9932 87.1436L12.0252 85.3836C12.0652 83.073 12.1518 80.7623 12.2158 78.4503C12.2918 76.1396 12.3372 73.8276 12.4398 71.517C12.5372 69.2063 12.6158 66.8943 12.7425 64.5836H12.9518C13.0785 66.8943 13.1572 69.2063 13.2545 71.517C13.3572 73.8276 13.4025 76.1396 13.4785 78.4503C13.5425 80.7623 13.6292 83.073 13.6692 85.3836L13.7105 87.0916C13.7345 87.493 13.8812 87.8796 14.1332 88.1836C14.3772 88.4956 14.7238 88.7116 15.0905 88.8236C15.1772 88.8436 15.2918 88.877 15.3532 88.877C15.3998 88.8796 15.3972 88.893 15.4852 88.893L15.7025 88.8983L16.5198 88.8756C18.8305 88.8223 21.1412 88.7463 23.4532 88.7103L30.3852 88.5823L37.3185 88.517L44.2518 88.5076L51.1865 88.509H54.6532C54.9292 88.509 55.2758 88.5116 55.4278 88.5023C55.6198 88.4823 55.8092 88.4356 55.9892 88.3623C56.3452 88.2103 56.6638 87.9476 56.8692 87.6103C56.9705 87.441 57.0532 87.2596 57.1012 87.0676C57.1158 86.9703 57.1385 86.9543 57.1478 86.777L57.1572 86.669L57.1598 86.6423C57.1625 86.5943 57.1585 86.677 57.1598 86.6583L57.1612 86.6036L57.1692 86.3876L57.2372 84.6543L57.3798 81.1903L57.6892 74.261L57.9758 67.3316C58.0518 65.021 58.1292 62.7103 58.1732 60.3996C58.2358 58.0903 58.2478 55.7783 58.2785 53.4676C58.2798 51.1556 58.2838 48.8436 58.2465 46.5316L58.4932 46.969L57.4572 46.3516C57.1145 46.141 56.7972 45.8916 56.4665 45.6636C56.1278 45.441 55.8372 45.161 55.5225 44.909C55.2038 44.6583 54.9185 44.3743 54.6292 44.093L54.1945 43.6716L53.7918 43.221C53.5212 42.9223 53.2478 42.6236 53.0065 42.301C52.4958 41.6756 52.0398 41.013 51.5985 40.3383L50.9705 39.3076L50.3958 38.249C50.0318 37.533 49.6945 36.805 49.3998 36.0596C49.2398 35.6916 49.1065 35.3156 48.9678 34.941C48.8252 34.5663 48.6945 34.189 48.5745 33.809C48.3172 33.0516 48.1172 32.2796 47.9145 31.5103C47.7185 30.7383 47.5465 29.9623 47.3865 29.185C47.2345 28.4063 47.1065 27.6223 46.9932 26.8396C46.7665 25.2716 46.6052 23.6983 46.4932 22.1236C46.3772 20.5503 46.3438 18.9743 46.3318 17.4023C46.3212 15.8316 46.3572 14.2543 46.4065 12.709L46.9252 13.4156L42.8465 12.033L38.7785 10.621L34.7198 9.17297C33.3692 8.68497 32.0212 8.1863 30.6758 7.67831L30.7385 7.47964Z" fill="#0C172F"/>
<path d="M58.7414 1.16043C58.7414 1.16043 58.7334 2.20443 58.7241 3.24843C58.7308 4.28843 58.7361 5.32843 58.7361 5.32843C58.7374 5.5511 58.5574 5.73377 58.3348 5.7351C58.1108 5.73643 57.9281 5.55643 57.9268 5.33243C57.9268 5.31377 57.9281 5.29243 57.9308 5.2751C57.9308 5.2751 58.0734 4.2351 58.2788 3.20577C58.3748 2.6911 58.4894 2.17777 58.5801 1.79643C58.6681 1.41243 58.7414 1.16043 58.7414 1.16043Z" fill="#0C172F"/>
<path d="M58.8562 9.44769C58.8562 9.44769 58.8748 9.70769 58.9028 10.097C58.9268 10.4877 58.9588 11.0064 58.9908 11.5264C59.0535 12.5664 59.1162 13.6064 59.1162 13.6064C59.1468 14.089 58.7788 14.5037 58.2975 14.533C57.8148 14.5624 57.3988 14.1957 57.3695 13.713C57.3682 13.6877 57.3682 13.661 57.3682 13.6357C57.3682 13.6357 57.3962 12.5944 57.4255 11.553C57.4388 11.033 57.4535 10.5117 57.4642 10.1224C57.4802 9.73169 57.4895 9.47169 57.4895 9.47169C57.5042 9.09302 57.8228 8.79836 58.2002 8.81302C58.5522 8.82769 58.8308 9.10502 58.8562 9.44769Z" fill="#0C172F"/>
<path d="M59.5389 17.6256C59.5389 17.6256 59.7069 18.6523 59.8762 19.6789C60.0362 20.7069 60.1962 21.7349 60.1962 21.7349C60.2855 22.3003 59.9002 22.8309 59.3362 22.9189C58.7709 23.0096 58.2415 22.6229 58.1522 22.0589C58.1509 22.0549 58.1495 22.0443 58.1495 22.0416C58.1495 22.0416 58.0042 21.0109 57.8602 19.9803C57.7242 18.9483 57.5882 17.9163 57.5882 17.9163C57.5149 17.3763 57.8935 16.8803 58.4335 16.8069C58.9629 16.7363 59.4509 17.1029 59.5389 17.6256Z" fill="#0C172F"/>
<path d="M61.1069 25.6527C61.1069 25.6527 61.1762 25.898 61.2789 26.266C61.3829 26.6313 61.5309 27.1167 61.6896 27.598C61.9909 28.5647 62.3549 29.5087 62.3549 29.5087C62.5416 29.994 62.2989 30.5393 61.8136 30.726C61.3442 30.9073 60.8202 30.6873 60.6162 30.2353L60.6136 30.23C60.6136 30.23 60.1749 29.2527 59.8042 28.2487C59.6242 27.7447 59.4549 27.238 59.3336 26.8567C59.2162 26.4753 59.1376 26.222 59.1376 26.222C58.9709 25.682 59.2736 25.1073 59.8136 24.9393C60.3549 24.7727 60.9296 25.0753 61.0962 25.6167C61.0989 25.6233 61.1002 25.6313 61.1029 25.638L61.1069 25.6527Z" fill="#0C172F"/>
<path d="M64.0246 33.1807C64.0246 33.1807 64.1472 33.4034 64.3312 33.7367C64.5179 34.0674 64.7779 34.4994 65.0512 34.9247C65.5819 35.7874 66.2006 36.5927 66.2006 36.5927C66.3952 36.8461 66.3472 37.2101 66.0939 37.4047C65.8592 37.5847 65.5312 37.5567 65.3286 37.3514L65.3272 37.3487C65.3272 37.3487 64.5752 36.5861 63.9032 35.7461C63.5699 35.3261 63.2566 34.8901 63.0272 34.5581C62.8032 34.2261 62.6539 34.0047 62.6539 34.0047C62.4072 33.6381 62.5046 33.1407 62.8712 32.8941C63.2379 32.6474 63.7352 32.7434 63.9819 33.1101C63.9952 33.1301 64.0072 33.1501 64.0179 33.1701L64.0246 33.1807Z" fill="#0C172F"/>
<path d="M68.9404 39.6215C68.9404 39.6215 69.3777 40.0255 69.8404 40.4108C70.299 40.7975 70.7817 41.1628 70.7817 41.1628C70.7817 41.1628 70.2244 40.9255 69.687 40.6388C69.1484 40.3575 68.6324 40.0282 68.6324 40.0282L68.6284 40.0255C68.5097 39.9495 68.475 39.7908 68.551 39.6722C68.627 39.5522 68.7857 39.5175 68.9044 39.5935C68.9177 39.6015 68.9297 39.6122 68.9404 39.6215Z" fill="#0C172F"/>
<path d="M69.3466 48.7161C69.3466 48.7161 69.4679 49.7574 69.5572 50.7974C69.6026 51.3174 69.6479 51.8387 69.6826 52.2281C69.7106 52.6187 69.7292 52.8787 69.7292 52.8787C69.7452 53.0907 69.5866 53.2747 69.3746 53.2894C69.1626 53.3054 68.9786 53.1467 68.9639 52.9347C68.9626 52.9161 68.9626 52.8961 68.9639 52.8787C68.9639 52.8787 68.9826 52.6187 69.0106 52.2281C69.0452 51.8387 69.0906 51.3174 69.1359 50.7974C69.2252 49.7574 69.3466 48.7161 69.3466 48.7161Z" fill="#0C172F"/>
<path d="M69.9972 57.0417C69.9972 57.0417 70.0638 58.083 70.0998 59.123C70.1425 60.1643 70.1852 61.2043 70.1852 61.2043C70.2052 61.667 69.8438 62.059 69.3812 62.0777C68.9185 62.0963 68.5265 61.7363 68.5078 61.2737C68.5065 61.251 68.5065 61.227 68.5078 61.2043C68.5078 61.2043 68.5505 60.1643 68.5932 59.123C68.6292 58.083 68.6958 57.0417 68.6958 57.0417C68.7198 56.683 69.0292 56.4097 69.3878 56.4323C69.7198 56.4537 69.9772 56.719 69.9972 57.0417Z" fill="#0C172F"/>
<path d="M70.3041 65.3673C70.3041 65.3673 70.3388 66.4086 70.3468 67.4486C70.3548 68.4899 70.3641 69.5299 70.3641 69.5299C70.3681 70.0926 69.9161 70.5513 69.3548 70.5566C68.7921 70.5606 68.3335 70.1086 68.3281 69.5473C68.3281 69.5433 68.3281 69.5339 68.3281 69.5299C68.3281 69.5299 68.3375 68.4899 68.3455 67.4486C68.3535 66.4086 68.3881 65.3673 68.3881 65.3673C68.4068 64.8379 68.8495 64.4233 69.3788 64.4419C69.8841 64.4579 70.2868 64.8686 70.3041 65.3673Z" fill="#0C172F"/>
<path d="M70.3761 73.6929L70.3388 77.8556C70.3348 78.4036 69.8854 78.8436 69.3374 78.8396C68.7961 78.8342 68.3601 78.3956 68.3548 77.8556L68.3174 73.6929C68.3121 73.1249 68.7694 72.6596 69.3374 72.6542C69.9054 72.6489 70.3708 73.1062 70.3761 73.6742C70.3761 73.6796 70.3761 73.6889 70.3761 73.6929Z" fill="#0C172F"/>
<path d="M70.2345 82.0184C70.2345 82.0184 70.2265 82.2784 70.2145 82.6691C70.1985 83.0598 70.1758 83.5798 70.1545 84.0998C70.1118 85.1411 70.0691 86.1811 70.0691 86.1811C70.0518 86.5798 69.7158 86.8904 69.3172 86.8731C68.9385 86.8584 68.6412 86.5518 68.6238 86.1811C68.6238 86.1811 68.5812 85.1411 68.5385 84.0998C68.5172 83.5798 68.4945 83.0598 68.4785 82.6691C68.4665 82.2784 68.4585 82.0184 68.4585 82.0184C68.4425 81.5278 68.8278 81.1171 69.3185 81.1024C69.8092 81.0864 70.2185 81.4718 70.2345 81.9624C70.2345 81.9798 70.2345 82.0011 70.2345 82.0184Z" fill="#0C172F"/>
<path d="M69.8244 90.3439C69.8244 90.3439 69.7484 91.3852 69.6711 92.4252C69.5764 93.4666 69.4831 94.5066 69.4831 94.5066C69.4764 94.5812 69.4097 94.6372 69.3337 94.6306C69.2671 94.6252 69.2164 94.5719 69.2097 94.5066C69.2097 94.5066 69.1164 93.4666 69.0217 92.4252C68.9457 91.3852 68.8684 90.3439 68.8684 90.3439C68.8497 90.0799 69.0471 89.8506 69.3111 89.8306C69.5751 89.8119 69.8044 90.0092 69.8244 90.2732C69.8257 90.2959 69.8257 90.3212 69.8244 90.3439Z" fill="#0C172F"/>
<path d="M55.8174 4.49731C55.9467 4.09998 56.1307 3.75331 56.3094 3.40131C56.4947 3.05598 56.7001 2.72931 56.9147 2.41065C57.3467 1.77731 57.8227 1.18398 58.3414 0.630648L58.9321 -1.85966e-05L59.4987 0.645315C59.9881 1.20265 60.4374 1.79331 60.8414 2.42531C61.0414 2.74398 61.2321 3.06931 61.4041 3.41198C61.4854 3.58798 61.5734 3.75731 61.6481 3.93865C61.7241 4.11865 61.7961 4.30131 61.8547 4.49731C61.6681 4.41465 61.4961 4.31998 61.3267 4.22131C61.1561 4.12531 60.9987 4.01598 60.8347 3.91331C60.5161 3.70131 60.2174 3.47065 59.9267 3.23198C59.3507 2.75198 58.8201 2.23065 58.3281 1.67598L59.4854 1.69065C58.9721 2.24931 58.4161 2.76931 57.8161 3.24798C57.5147 3.48531 57.2041 3.71331 56.8734 3.92531C56.5361 4.12931 56.204 4.33865 55.8174 4.49731Z" fill="#0C172F"/>
<path d="M66.3281 52.0613C66.4575 51.6639 66.6415 51.3173 66.8201 50.9653C67.0055 50.6199 67.2108 50.2933 67.4255 49.9746C67.8575 49.3413 68.3335 48.7479 68.8521 48.1946L69.4428 47.5639L70.0095 48.2093C70.4975 48.7666 70.9481 49.3573 71.3521 49.9893C71.5521 50.3079 71.7428 50.6333 71.9148 50.9759C71.9961 51.1519 72.0841 51.3213 72.1588 51.5026C72.2348 51.6826 72.3068 51.8653 72.3655 52.0613C72.1788 51.9786 72.0068 51.8839 71.8375 51.7853C71.6668 51.6893 71.5095 51.5799 71.3455 51.4773C71.0268 51.2653 70.7281 51.0346 70.4375 50.7959C69.8615 50.3159 69.3308 49.7946 68.8388 49.2399L69.9961 49.2546C69.4828 49.8133 68.9268 50.3333 68.3268 50.8119C68.0255 51.0493 67.7148 51.2773 67.3841 51.4893C67.0468 51.6933 66.7148 51.9026 66.3281 52.0613Z" fill="#0C172F"/>
<path d="M71.0477 37.2353C71.237 37.6073 71.353 37.9833 71.4743 38.3579C71.5877 38.7339 71.6743 39.1099 71.7477 39.4873C71.8903 40.2406 71.9717 40.9966 71.997 41.7539L72.025 42.6179L71.169 42.5619C70.429 42.5139 69.693 42.4139 68.9597 42.2526C68.5943 42.1699 68.2277 42.0739 67.865 41.9526C67.6837 41.8859 67.501 41.8286 67.3197 41.7526C67.1383 41.6793 66.9583 41.6019 66.7783 41.5046C66.969 41.4299 67.1583 41.3766 67.3463 41.3259C67.5357 41.2726 67.7237 41.2393 67.9117 41.1953C68.2877 41.1206 68.6623 41.0726 69.037 41.0353C69.7837 40.9673 70.5263 40.9606 71.2663 41.0059L70.4383 41.8126C70.4063 41.0553 70.4317 40.2953 70.5183 39.5326C70.5623 39.1513 70.621 38.7699 70.705 38.3873C70.7997 38.0033 70.8877 37.6206 71.0477 37.2353Z" fill="#0C172F"/>
<path d="M72.3655 91.4988C72.2361 91.8961 72.0521 92.2428 71.8735 92.5948C71.6881 92.9401 71.4828 93.2668 71.2681 93.5854C70.8361 94.2188 70.3601 94.8121 69.8415 95.3654L69.2508 95.9961L68.6841 95.3508C68.1961 94.7934 67.7455 94.2014 67.3415 93.5708C67.1415 93.2521 66.9508 92.9268 66.7788 92.5841C66.6975 92.4081 66.6095 92.2388 66.5348 92.0574C66.4588 91.8774 66.3868 91.6948 66.3281 91.4988C66.5148 91.5814 66.6868 91.6761 66.8561 91.7748C67.0268 91.8708 67.1841 91.9801 67.3481 92.0814C67.6668 92.2948 67.9655 92.5254 68.2561 92.7641C68.8321 93.2441 69.3628 93.7641 69.8548 94.3201L68.6975 94.3054C69.2108 93.7454 69.7668 93.2268 70.3668 92.7481C70.6681 92.5108 70.9788 92.2814 71.3095 92.0708C71.6468 91.8668 71.9788 91.6574 72.3655 91.4988Z" fill="#0C172F"/>
<path d="M3.01826 63.2351C3.01826 63.2351 3.05959 63.4951 3.11959 63.8858C3.18359 64.2764 3.24359 64.7964 3.31159 65.3164C3.37826 65.8364 3.42359 66.3578 3.46759 66.7471C3.50893 67.1378 3.53693 67.3978 3.53693 67.3978C3.56626 67.6844 3.35959 67.9404 3.07293 67.9711C2.78626 68.0004 2.53026 67.7938 2.49959 67.5071C2.49559 67.4711 2.49693 67.4324 2.49959 67.3978C2.49959 67.3978 2.52759 67.1378 2.56893 66.7471C2.61293 66.3578 2.65826 65.8364 2.72493 65.3164C2.79293 64.7964 2.85293 64.2764 2.91693 63.8858C2.97693 63.4951 3.01826 63.2351 3.01826 63.2351Z" fill="#0C172F"/>
<path d="M3.84408 71.5606C3.84408 71.5606 3.90408 72.602 3.94275 73.642L4.01208 75.7233C4.02941 76.2726 3.60008 76.7313 3.05075 76.75C2.50275 76.7673 2.04275 76.3366 2.02541 75.7886C2.02408 75.7673 2.02408 75.7446 2.02541 75.7233L2.09341 73.642C2.13208 72.602 2.19208 71.5606 2.19208 71.5606C2.21875 71.1046 2.60941 70.7566 3.06541 70.782C3.48941 70.8073 3.82008 71.146 3.84408 71.5606Z" fill="#0C172F"/>
<path d="M4.0578 79.8862C4.0578 79.8862 4.0578 80.9275 4.03914 81.9675C4.02447 83.0089 3.99114 84.0489 3.99114 84.0489C3.97514 84.5862 3.5258 85.0075 2.98847 84.9902C2.47247 84.9742 2.06314 84.5569 2.04714 84.0489C2.04714 84.0489 2.0138 83.0089 1.99914 81.9675C1.98047 80.9275 1.98047 79.8862 1.98047 79.8862C1.98047 79.3129 2.44447 78.8476 3.01914 78.8476C3.59247 78.8462 4.0578 79.3116 4.0578 79.8849V79.8862Z" fill="#0C172F"/>
<path d="M3.80311 88.2116C3.80311 88.2116 3.74311 89.2529 3.64845 90.2929C3.60445 90.8129 3.56045 91.3343 3.52711 91.7236C3.48578 92.1143 3.45911 92.3743 3.45911 92.3743C3.43245 92.6169 3.21511 92.7943 2.97245 92.7676C2.76045 92.7449 2.60045 92.5769 2.57778 92.3743C2.57778 92.3743 2.55111 92.1143 2.50978 91.7236C2.47645 91.3343 2.43245 90.8129 2.38845 90.2929C2.29378 89.2529 2.23378 88.2116 2.23378 88.2116C2.20845 87.7783 2.54045 87.4063 2.97378 87.3823C3.40711 87.3569 3.77778 87.6876 3.80311 88.1209C3.80445 88.1516 3.80445 88.1823 3.80311 88.2116Z" fill="#0C172F"/>
<path d="M0 65.9426C0.130667 65.5453 0.313333 65.1986 0.492 64.8466C0.677333 64.5013 0.882667 64.1746 1.09733 63.856C1.52933 63.2226 2.00533 62.6293 2.524 62.076L3.11467 61.4453L3.68133 62.0906C4.17067 62.648 4.62 63.24 5.024 63.8706C5.224 64.1893 5.41467 64.5146 5.58667 64.8573C5.668 65.0333 5.756 65.2026 5.83067 65.384C5.90667 65.564 5.97867 65.7466 6.03733 65.9426C5.85067 65.86 5.67867 65.7653 5.50933 65.6666C5.33867 65.5706 5.18133 65.4613 5.01733 65.36C4.69867 65.1466 4.4 64.916 4.10933 64.6773C3.53333 64.1973 3.00267 63.6773 2.51067 63.1213L3.668 63.136C3.15467 63.6946 2.59867 64.2146 1.99867 64.6933C1.69733 64.9306 1.38667 65.16 1.056 65.3706C0.718667 65.5746 0.386667 65.784 0 65.9426Z" fill="#0C172F"/>
<path d="M6.03733 91.4985C5.908 91.8958 5.724 92.2425 5.54533 92.5945C5.36 92.9398 5.15467 93.2665 4.94 93.5852C4.508 94.2185 4.032 94.8118 3.51333 95.3652L2.92267 95.9958L2.356 95.3505C1.868 94.7932 1.41733 94.2025 1.01333 93.5705C0.813333 93.2518 0.622666 92.9265 0.450666 92.5838C0.369333 92.4078 0.281333 92.2385 0.206666 92.0572C0.130666 91.8772 0.0586667 91.6945 0 91.4985C0.186667 91.5812 0.358667 91.6758 0.528 91.7745C0.698667 91.8705 0.856 91.9798 1.02 92.0825C1.33867 92.2945 1.63733 92.5252 1.928 92.7638C2.504 93.2438 3.03467 93.7652 3.52667 94.3198L2.36933 94.3052C2.88267 93.7465 3.43867 93.2265 4.03867 92.7478C4.34 92.5105 4.65067 92.2825 4.98133 92.0705C5.31867 91.8665 5.65067 91.6572 6.03733 91.4985Z" fill="#0C172F"/>
</svg>
