<svg width="128" height="129" viewBox="0 0 128 129" fill="none" xmlns="http://www.w3.org/2000/svg">
<path d="M20.8367 127.551C20.6285 127.879 20.2666 128.136 19.8615 128.175C19.462 128.22 19.0532 128.094 18.7493 127.836C18.4474 127.581 18.2448 127.183 18.2542 126.77C18.2523 126.669 18.2805 126.56 18.2955 126.455C18.3217 126.363 18.3555 126.287 18.3855 126.2L18.6181 125.703C19.2257 124.415 19.8502 123.138 20.4429 121.844C21.63 119.255 22.8472 116.684 23.9912 114.077L30.9304 98.466C33.2241 93.2541 35.5647 88.0628 37.9803 82.909C39.1693 80.3247 40.4071 77.7609 41.6262 75.1897L45.2946 67.4815C47.7927 62.3672 50.242 57.2303 52.7889 52.1403L60.3714 36.8422C62.8826 31.7353 65.467 26.6622 68.0233 21.5778L68.2633 21.0996L68.4152 20.8051L68.4827 20.6889C68.5559 20.567 68.5146 20.6382 68.5371 20.6045L68.5578 20.5745L68.599 20.5163L69.2629 19.588L69.9962 18.7121C70.2513 18.4289 70.527 18.1645 70.7933 17.8925C71.8923 16.8367 73.1451 15.9327 74.5311 15.2632C75.9114 14.5974 77.4343 14.151 79.0116 14.1304C80.5813 14.1004 82.1942 14.5074 83.5314 15.3738L83.4264 15.3194C84.8349 15.9646 86.0089 17.0749 86.7685 18.382C87.543 19.6874 87.9106 21.1671 87.9988 22.6225C88.0869 24.0853 87.9012 25.5369 87.5355 26.9266C87.4286 27.2698 87.3348 27.6149 87.2186 27.9581L86.8247 28.9765L86.3784 29.918C86.1983 30.3156 85.9733 30.5744 85.7895 30.8632L81.1365 37.7593L76.5547 44.7041C75.0562 47.039 73.5296 49.3552 72.0574 51.7052L67.6125 58.7419L63.1621 65.7749C61.6711 68.1136 60.2138 70.4748 58.6947 72.7966C57.1869 75.124 55.6809 77.4533 54.1392 79.7583C52.6126 82.0745 51.0691 84.3775 49.4993 86.6637C47.9483 88.963 46.3617 91.2398 44.7694 93.511C43.1959 95.7934 41.553 98.0309 39.9458 100.293L30.2665 113.839C28.6386 116.088 27.0895 118.387 25.4991 120.66L20.8367 127.551ZM20.5929 127.387L25.169 120.439C26.6581 118.098 28.1885 115.786 29.642 113.421L38.4417 99.2893C39.9139 96.9375 41.3505 94.5631 42.8565 92.2319C44.3437 89.8914 45.8366 87.5546 47.367 85.2402C48.8767 82.9147 50.4127 80.6041 51.9675 78.3067C53.5035 75.998 55.077 73.7156 56.6486 71.4294C58.2109 69.1376 59.8312 66.8851 61.4198 64.6121L66.2116 57.806L71.0052 51.0038C72.6125 48.742 74.1654 46.4445 75.7464 44.1658L80.405 37.2717L84.9905 30.3306C85.1762 30.0324 85.3956 29.7492 85.4875 29.5054L85.9095 28.5564L86.2433 27.6262C86.3409 27.3111 86.4215 26.9848 86.5134 26.6641C86.8322 25.3681 86.9447 24.0253 86.8097 22.7219C86.6784 21.4203 86.2958 20.1469 85.6038 19.0891C84.923 18.0295 83.9553 17.1949 82.8169 16.7241L82.7794 16.7091L82.7137 16.6698C80.5176 15.3644 77.6687 15.6983 75.4013 16.9755C74.2516 17.6 73.2051 18.4308 72.2974 19.3892C72.0799 19.6386 71.8492 19.8749 71.641 20.1319L71.0315 20.9139L70.4782 21.7391L70.4445 21.7916L70.4276 21.816C70.437 21.7991 70.3826 21.8892 70.4445 21.786L70.3807 21.9042L70.3657 21.9323C70.3526 21.9548 70.4126 21.8423 70.3807 21.9042L70.3526 21.966L70.2963 22.0861L70.0713 22.5699C67.6632 27.7274 65.2813 32.8962 62.8282 38.0331L55.5177 53.4625C53.0984 58.6144 50.5834 63.7194 48.1153 68.8487L44.3362 76.5044C43.074 79.0531 41.8287 81.6131 40.5365 84.1487C37.9878 89.2368 35.3621 94.2893 32.6915 99.3193L24.7358 114.437C23.3986 116.95 22.1327 119.501 20.8367 122.035C20.1878 123.301 19.5727 124.584 18.9388 125.857L18.71 126.322C18.6818 126.403 18.6424 126.491 18.6199 126.568C18.6143 126.639 18.5937 126.705 18.5918 126.78C18.5824 127.084 18.725 127.382 18.9594 127.588C19.4339 128.021 20.2497 127.965 20.5929 127.387Z" fill="#0C172F"/>
<path d="M69.8867 40.9339C69.8867 40.9339 70.018 41.0258 70.3012 41.0614C70.5675 41.1046 71.0514 41.0108 71.3271 40.5832C71.4546 40.3863 71.5803 40.0487 71.7097 39.7392C71.8447 39.4204 71.9816 39.0697 72.1241 38.6909C72.4167 37.9426 72.7243 37.0836 73.105 36.1721C73.4782 35.255 73.9621 34.3079 74.4816 33.3083C74.988 32.3031 75.5769 31.2716 76.1976 30.2138C76.8315 29.1617 77.488 28.0739 78.1537 26.9711C78.2606 26.7967 78.2756 26.7817 78.3019 26.7198C78.3282 26.6617 78.3394 26.5979 78.3413 26.5323C78.3525 26.3972 78.2982 26.2435 78.2081 26.1384C78.2213 26.114 78.0412 25.9959 77.9118 25.9077L77.5048 25.6302L76.6909 25.075C76.3758 24.8106 75.7963 24.8612 75.5093 25.2738C75.1755 25.7952 74.8304 26.3747 74.5191 26.9317C73.8871 28.0551 73.3413 29.2029 72.8687 30.3432C72.3905 31.4816 71.9422 32.59 71.4302 33.5934C70.9238 34.5986 70.3875 35.5176 69.8286 36.3315C69.2809 37.1511 68.7202 37.8694 68.2382 38.5146C67.7637 38.9909 67.9306 39.7149 68.3507 40.0074C68.814 40.3188 69.2134 40.5513 69.476 40.7032C69.7442 40.8533 69.8867 40.9339 69.8867 40.9339ZM69.7986 41.0933C69.7986 41.0933 69.2397 40.767 68.1876 40.27C67.9044 40.12 67.6268 39.848 67.4768 39.4598C67.3211 39.0903 67.3548 38.5371 67.5518 38.1339C67.8425 37.3837 68.1519 36.5266 68.557 35.6282C68.9471 34.7205 69.4422 33.779 70.0255 32.8151C70.6031 31.8492 71.3046 30.8815 72.0154 29.8725C72.7318 28.8635 73.4145 27.7926 74.0315 26.6598C74.3447 26.0897 74.6223 25.5289 74.9298 24.9138C75.2993 24.1711 76.3402 23.7866 77.1766 24.1973L78.0806 24.5931L78.5326 24.79C78.6845 24.8631 78.8045 24.8837 79.069 25.0713C79.4834 25.3789 79.761 25.8384 79.8473 26.3504C79.8904 26.6054 79.8773 26.8699 79.8191 27.1249C79.7648 27.3762 79.6222 27.6482 79.5697 27.7532C78.9883 28.9047 78.4163 30.0375 77.8612 31.1346C77.2929 32.2224 76.7321 33.2689 76.1508 34.2329C75.5787 35.2025 75.033 36.1159 74.4535 36.9186C73.8852 37.725 73.3188 38.4414 72.8406 39.0885C72.3417 39.7374 71.9704 40.2869 71.6028 40.7933C71.1414 41.2846 70.5863 41.3109 70.2731 41.2602C70.108 41.2359 69.9899 41.1852 69.913 41.1533C69.838 41.114 69.7986 41.0933 69.7986 41.0933Z" fill="#0C172F"/>
<path d="M73.2771 36.0175C73.2771 36.0175 71.8705 35.5618 70.4921 35.0479C69.7982 34.8003 69.1099 34.5397 68.5979 34.339C68.0821 34.1421 67.7408 34.0089 67.7408 34.0089C67.4107 33.8832 67.2457 33.5138 67.3732 33.1837C67.4989 32.8536 67.8683 32.6886 68.1984 32.8161C68.234 32.8292 68.2697 32.848 68.3015 32.8668C68.3015 32.8668 68.6147 33.0562 69.0874 33.3431C69.5581 33.6263 70.1864 34.0089 70.8053 34.4084C72.0562 35.1829 73.2771 36.0175 73.2771 36.0175Z" fill="#0C172F"/>
<path d="M62.3004 31.801C62.3004 31.801 60.9538 31.2234 59.6072 30.6438C58.2607 30.0662 56.9272 29.4586 56.9272 29.4586C56.2671 29.1566 55.9764 28.3783 56.2764 27.7181C56.5784 27.0561 57.3586 26.7654 58.0187 27.0673C58.0394 27.0767 58.0637 27.0898 58.0844 27.0992C58.0844 27.0992 59.3803 27.7819 60.6631 28.4927C61.9441 29.2054 63.225 29.9162 63.225 29.9162C63.7332 30.1975 63.9152 30.837 63.6338 31.3453C63.3713 31.8198 62.7899 32.0092 62.3004 31.801Z" fill="#0C172F"/>
<path d="M51.6152 26.9935C51.6152 26.9935 50.2967 26.3577 48.9783 25.7201C47.6655 25.0712 46.3545 24.4241 46.3545 24.4241C45.6343 24.0678 45.3399 23.1976 45.6962 22.4774C46.0507 21.761 46.9153 21.4665 47.6336 21.8154L50.2648 23.0982C51.5758 23.7509 52.8849 24.4054 52.8849 24.4054C53.5975 24.7599 53.8882 25.6263 53.5319 26.339C53.1793 27.046 52.3241 27.3349 51.6152 26.9935Z" fill="#0C172F"/>
<path d="M41.1425 21.7516C41.1425 21.7516 39.8503 21.0633 38.5562 20.375C37.2697 19.6755 35.9906 18.9572 35.9906 18.9572C35.4561 18.6552 35.2667 17.9782 35.5668 17.4437C35.8481 16.9448 36.4557 16.7442 36.9696 16.9636C36.9696 16.9636 38.3199 17.5356 39.6609 18.1264C40.9962 18.7265 42.3315 19.3285 42.3315 19.3285C43.0123 19.6342 43.3143 20.4332 43.0086 21.114C42.7029 21.7948 41.9039 22.0967 41.2231 21.791C41.1969 21.7798 41.1669 21.7647 41.1425 21.7516Z" fill="#0C172F"/>
<path d="M30.8991 16.0437C30.8991 16.0437 29.6425 15.2823 28.386 14.519C27.7633 14.1251 27.1407 13.7331 26.6756 13.4368C26.2123 13.1349 25.9029 12.9342 25.9029 12.9342C25.8335 12.8892 25.8129 12.7973 25.8579 12.7279C25.8972 12.6679 25.9704 12.6454 26.0342 12.6679C26.0342 12.6679 26.3811 12.7898 26.9044 12.9717C27.422 13.1593 28.114 13.4124 28.8061 13.6638C30.1789 14.1908 31.5499 14.7178 31.5499 14.7178C31.9325 14.864 32.1219 15.2935 31.9756 15.6761C31.8293 16.0587 31.3998 16.2481 31.0172 16.1018C30.9779 16.0868 30.9347 16.0662 30.8991 16.0437Z" fill="#0C172F"/>
<path d="M60.3442 67.9129C60.3442 67.9129 61.7621 68.3537 63.148 68.8582C63.842 69.1095 64.5265 69.3777 65.0441 69.569C65.5617 69.7621 65.9031 69.9009 65.9031 69.9009C66.2894 70.0566 66.477 70.4973 66.3194 70.8837C66.1638 71.2719 65.723 71.4575 65.3348 71.3C65.2954 71.285 65.2542 71.2625 65.2204 71.2419C65.2204 71.2419 64.9072 71.0468 64.4477 70.7411C63.9864 70.4354 63.3675 70.0397 62.7579 69.6252C61.5352 68.8 60.3442 67.9129 60.3442 67.9129Z" fill="#0C172F"/>
<path d="M71.318 72.1716C71.318 72.1716 71.6537 72.3198 72.1582 72.5392C72.6552 72.7699 73.321 73.0775 73.9849 73.3851C74.6507 73.6926 75.3146 74.0002 75.8135 74.2328C76.3105 74.4653 76.6368 74.6322 76.6368 74.6322C77.3289 74.9886 77.6008 75.8382 77.2463 76.5302C76.8919 77.2185 76.0479 77.4923 75.3559 77.1435C75.3559 77.1435 75.0296 76.9784 74.5494 76.7121C74.0693 76.4458 73.4298 76.0895 72.7903 75.7313C72.1507 75.3749 71.5112 75.0186 71.0311 74.7504C70.5566 74.4728 70.2396 74.2872 70.2396 74.2872C69.6732 73.9552 69.4819 73.2275 69.8139 72.6593C70.1234 72.1341 70.7723 71.9316 71.318 72.1716Z" fill="#0C172F"/>
<path d="M81.869 77.2589L84.1327 78.4479C84.8923 78.8362 85.6331 79.26 86.3795 79.6745L85.0986 82.0263L84.5922 81.73L85.8412 79.3688L85.9688 79.4307L85.98 79.4344C86.6458 79.7533 86.9271 80.5522 86.6083 81.2161C86.2913 81.8782 85.5018 82.1595 84.8379 81.85L84.6878 81.7806L85.935 79.4194L86.4432 79.7101L85.1623 82.062C84.3878 81.7037 83.6113 81.3511 82.8499 80.9667L80.5581 79.8339C79.8417 79.4813 79.5472 78.613 79.9017 77.8984C80.2543 77.182 81.1207 76.8894 81.8371 77.242C81.8446 77.2476 81.8596 77.2551 81.869 77.2589Z" fill="#0C172F"/>
<path d="M91.1369 80.8728C91.1369 80.8728 91.2288 80.8803 91.3882 80.8953C91.557 80.9103 91.7315 80.9235 91.994 80.9366C92.5004 80.9629 93.1793 80.9647 93.8545 80.9178C95.2086 80.8372 96.527 80.5034 96.527 80.5034C97.2116 80.329 97.9055 80.7416 98.078 81.4242C98.2506 82.1031 97.8436 82.7933 97.1684 82.9715L97.1459 82.9771C97.1459 82.9771 95.6193 83.3822 94.0458 83.4929C93.2618 83.5547 92.4723 83.5604 91.8834 83.536C91.5964 83.5266 91.3151 83.506 91.1651 83.4947C91.0056 83.4816 90.9138 83.4741 90.9138 83.4741C90.1954 83.4178 89.6591 82.7877 89.7172 82.0694C89.7753 81.3492 90.4055 80.8147 91.1238 80.871L91.1369 80.8728Z" fill="#0C172F"/>
<path d="M101.538 78.429C101.538 78.429 101.615 78.3802 101.75 78.294C101.895 78.2021 102.043 78.1045 102.257 77.9545C102.677 77.6657 103.215 77.2493 103.723 76.8011C104.753 75.9084 105.599 74.8337 105.599 74.8337C106.009 74.3105 106.765 74.2205 107.287 74.6312C107.804 75.0382 107.898 75.7827 107.502 76.3041L107.489 76.321C107.489 76.321 106.538 77.5738 105.368 78.6259C104.79 79.1567 104.171 79.6424 103.689 79.9819C103.457 80.1488 103.222 80.3063 103.099 80.387C102.964 80.4732 102.887 80.5239 102.887 80.5239C102.311 80.899 101.54 80.7358 101.163 80.16C100.788 79.5843 100.951 78.8116 101.527 78.4365L101.538 78.429Z" fill="#0C172F"/>
<path d="M108.225 70.0946C108.225 70.0946 108.255 70.0084 108.306 69.8565C108.358 69.6952 108.414 69.5245 108.488 69.2694C108.634 68.7781 108.795 68.1142 108.908 67.439C109.15 66.0887 109.129 64.7139 109.129 64.7139C109.121 64.1044 109.607 63.6037 110.219 63.5943C110.821 63.5868 111.318 64.0632 111.336 64.6633L111.338 64.6839C111.338 64.6839 111.387 66.2481 111.139 67.7935C111.023 68.5643 110.851 69.3276 110.695 69.8902C110.622 70.1659 110.539 70.4303 110.494 70.5748C110.446 70.7267 110.417 70.8148 110.417 70.8148C110.224 71.4206 109.575 71.7563 108.968 71.5631C108.36 71.37 108.026 70.721 108.219 70.1134C108.219 70.1096 108.223 70.0984 108.225 70.0946Z" fill="#0C172F"/>
<path d="M108.173 59.3405C108.173 59.3405 108.143 59.2599 108.09 59.1173C108.03 58.9579 107.957 58.7722 107.858 58.5378C107.659 58.0633 107.365 57.4407 107.023 56.8424C106.354 55.6365 105.467 54.5731 105.467 54.5731C105.112 54.1474 105.168 53.5135 105.596 53.1571C106.016 52.8064 106.641 52.857 106.999 53.2715L107.01 53.2847C107.01 53.2847 108.028 54.4624 108.807 55.809C109.202 56.4767 109.548 57.1743 109.78 57.707C109.9 57.977 109.998 58.2152 110.052 58.3559C110.114 58.5115 110.15 58.6016 110.15 58.6016C110.362 59.1455 110.095 59.7569 109.551 59.9688C109.009 60.1826 108.398 59.9144 108.184 59.3724C108.184 59.3686 108.182 59.3649 108.18 59.3611L108.173 59.3405Z" fill="#0C172F"/>
<path d="M101.324 50.9626C101.324 50.9626 101.249 50.9176 101.118 50.8388C100.987 50.7657 100.797 50.6588 100.57 50.5313C100.09 50.2781 99.4488 49.9405 98.8073 49.6048L96.2192 48.2319C95.831 48.0256 95.6847 47.5455 95.8891 47.1573C96.0879 46.7822 96.5437 46.6341 96.9244 46.8066C96.9244 46.8066 98.2541 47.4161 99.5857 48.0256C99.9195 48.1794 100.251 48.3313 100.565 48.4739C100.718 48.5451 100.868 48.6145 101.011 48.6802C101.159 48.7533 101.3 48.8227 101.429 48.8865C101.684 49.0234 101.898 49.1359 102.046 49.2147C102.193 49.2972 102.275 49.3441 102.275 49.3441C102.727 49.601 102.885 50.173 102.63 50.6231C102.374 51.0751 101.801 51.2327 101.35 50.9776C101.345 50.9739 101.339 50.972 101.335 50.9682L101.324 50.9626Z" fill="#0C172F"/>
<path d="M91.0571 45.4616C91.0571 45.4616 89.7686 44.7658 88.4802 44.0682C87.1955 43.3649 85.9108 42.6597 85.9108 42.6597C85.7345 42.564 85.6689 42.3427 85.7664 42.1665C85.8564 42.0014 86.0609 41.9339 86.2315 42.0089C86.2315 42.0089 87.5725 42.6016 88.9116 43.1923C90.2488 43.7925 91.586 44.3926 91.586 44.3926C91.886 44.5276 92.0192 44.8802 91.886 45.1803C91.751 45.4823 91.3965 45.6154 91.0965 45.4804C91.0833 45.4748 91.0702 45.4691 91.0571 45.4616Z" fill="#0C172F"/>
<path d="M80.7839 39.8144L79.563 39.1224L80.8552 39.67C80.8964 39.6888 80.9152 39.7356 80.8983 39.775C80.8796 39.8163 80.8327 39.835 80.7914 39.8182C80.7895 39.8182 80.7858 39.8163 80.7839 39.8144Z" fill="#0C172F"/>
<path d="M62.7937 108.615L57.4843 106.135C57.3755 106.085 57.3286 105.955 57.3793 105.847C57.4299 105.736 57.5593 105.689 57.67 105.742C57.6737 105.743 57.6794 105.745 57.6831 105.747L62.7937 108.615Z" fill="#0C172F"/>
<path d="M52.1918 103.624L46.9086 101.092C46.6311 100.959 46.5129 100.625 46.6461 100.346C46.7792 100.066 47.1149 99.9481 47.3925 100.083C47.4019 100.087 47.4131 100.093 47.4206 100.096L52.5575 102.911C52.7507 103.018 52.8219 103.262 52.715 103.455C52.6138 103.643 52.3812 103.714 52.1918 103.624Z" fill="#0C172F"/>
<path d="M41.6325 98.5528L36.3681 95.9872C35.9555 95.7866 35.7829 95.2896 35.9836 94.877C36.1843 94.4644 36.6832 94.2918 37.0958 94.4925C37.1051 94.4981 37.1164 94.5037 37.1258 94.5094L42.2795 97.2907C42.6246 97.4763 42.754 97.9077 42.5665 98.2528C42.3864 98.5866 41.972 98.7179 41.6325 98.5528Z" fill="#0C172F"/>
<path d="M31.1039 93.419L25.8488 90.8346C25.3293 90.5776 25.1155 89.9512 25.3725 89.4317C25.6275 88.9122 26.2539 88.6984 26.7734 88.9535C26.7828 88.9591 26.7959 88.9647 26.8053 88.9703L31.9703 91.731C32.4317 91.9786 32.6061 92.5525 32.3586 93.0157C32.1166 93.4677 31.5596 93.6421 31.1039 93.419Z" fill="#0C172F"/>
<path d="M20.6003 88.2355L15.3528 85.638C14.7507 85.3398 14.505 84.6102 14.8014 84.0082C15.0996 83.4062 15.8291 83.1605 16.4311 83.4587C16.4405 83.4624 16.4536 83.4699 16.463 83.4737L21.6337 86.2231C22.185 86.5157 22.3951 87.2002 22.1007 87.7535C21.8137 88.2936 21.146 88.5055 20.6003 88.2355Z" fill="#0C172F"/>
<path d="M10.0994 83.0079C10.0994 83.0079 10.0188 82.9647 9.87623 82.8916C9.74495 82.8222 9.49551 82.6872 9.24982 82.5427C8.73782 82.2483 8.07579 81.8226 7.44563 81.3481C6.17595 80.4141 5.10131 79.2551 5.10131 79.2551L5.08443 79.2363C4.59494 78.7093 4.62494 77.8841 5.15382 77.3946C5.68083 76.9051 6.50603 76.937 6.99552 77.464L7.0049 77.4734C7.0049 77.4734 7.91825 78.4786 9.00226 79.2963C9.54052 79.7071 10.1069 80.0803 10.5439 80.3391C10.7708 80.4722 10.9227 80.5585 11.0728 80.6392C11.2153 80.716 11.2959 80.7592 11.2959 80.7592C11.9149 81.093 12.1455 81.8638 11.8136 82.4846C11.4816 83.0998 10.7164 83.3323 10.0994 83.0079Z" fill="#0C172F"/>
<path d="M1.62816 74.0238C1.62816 74.0238 1.58878 73.9337 1.52126 73.7781C1.4575 73.6187 1.3656 73.3899 1.25495 73.1142C1.14992 72.8422 1.03364 72.499 0.928619 72.1839C0.87048 72.0114 0.81234 71.8332 0.754201 71.6513C0.699813 71.4638 0.643549 71.2743 0.587285 71.0849C0.152179 69.5639 0.00776889 67.9829 0.00776889 67.9829L0.00589346 67.9604C-0.0634985 67.2102 0.487886 66.5482 1.23807 66.4788C1.98825 66.4113 2.65029 66.9627 2.71968 67.711L2.72156 67.726C2.72156 67.726 2.83033 69.0744 3.18855 70.3779C3.23543 70.541 3.28044 70.7023 3.32545 70.8617C3.37609 71.023 3.42673 71.1825 3.47549 71.3362C3.58427 71.6738 3.67241 71.9364 3.76056 72.1783C3.85246 72.4146 3.92935 72.6097 3.98374 72.7485C4.04188 72.8854 4.07564 72.966 4.07564 72.966L4.07939 72.9773C4.36633 73.6562 4.0475 74.4382 3.36859 74.7233C2.69342 75.0065 1.91886 74.6933 1.62816 74.0238Z" fill="#0C172F"/>
<path d="M0.466666 61.6886C0.466666 61.6886 0.489171 61.6005 0.530431 61.4448C0.566065 61.3023 0.642959 61.0247 0.727354 60.7509C0.898021 60.1808 1.16621 59.4362 1.48691 58.7123C2.11519 57.2551 3.00604 55.9385 3.00604 55.9385L3.01916 55.916C3.45427 55.2727 4.33011 55.1039 4.97527 55.539C5.61855 55.976 5.78734 56.85 5.35223 57.4951L5.34848 57.4989C5.34848 57.4989 4.58892 58.6148 4.05067 59.8507C3.77685 60.4658 3.54617 61.0979 3.39613 61.578C3.31736 61.8293 3.2686 61.9925 3.22359 62.1575C3.18233 62.3132 3.15795 62.4013 3.15795 62.4013C2.95727 63.144 2.19396 63.5828 1.45128 63.3822C0.714226 63.1834 0.275369 62.4257 0.466666 61.6886Z" fill="#0C172F"/>
<path d="M7.3435 51.3403C7.3435 51.3403 7.41665 51.286 7.54605 51.1922C7.66796 51.1022 7.90239 50.9352 8.14057 50.7758C8.63382 50.4439 9.31274 50.0332 10.0198 49.6731C11.4283 48.9379 12.9511 48.4784 12.9511 48.4784L12.9774 48.469C13.7332 48.2421 14.5284 48.6697 14.7572 49.4236C14.9841 50.1794 14.5565 50.9765 13.8026 51.2034L13.797 51.2053C13.797 51.2053 12.5029 51.5898 11.3101 52.2087C10.71 52.5125 10.1342 52.8576 9.71596 53.1389C9.49653 53.2833 9.35962 53.3808 9.22084 53.4802C9.09143 53.5759 9.01829 53.6284 9.01829 53.6284C8.38438 54.0898 7.49729 53.951 7.03593 53.319C6.57644 52.6851 6.71147 51.8017 7.3435 51.3403Z" fill="#0C172F"/>
<path d="M19.2243 47.6452C19.2243 47.6452 19.3162 47.649 19.4756 47.6565C19.6237 47.664 19.9126 47.6827 20.1976 47.709C20.7903 47.7615 21.578 47.8703 22.3544 48.0353C23.9148 48.3485 25.3889 48.9524 25.3889 48.9524L25.4152 48.9618C26.1541 49.2656 26.5086 50.1096 26.2066 50.8504C25.9047 51.5893 25.0588 51.9438 24.3199 51.6418L24.3143 51.64C24.3143 51.64 23.0708 51.1261 21.7524 50.856C21.0979 50.7154 20.4321 50.6197 19.9313 50.5747C19.6706 50.5503 19.5037 50.5391 19.3312 50.5297C19.1718 50.5222 19.0799 50.5166 19.0799 50.5166C18.2865 50.4753 17.677 49.8001 17.7183 49.0068C17.7595 48.2135 18.431 47.604 19.2243 47.6452Z" fill="#0C172F"/>
<path d="M30.7313 51.7059C30.7313 51.7059 31.0521 51.8822 31.534 52.1467C32.016 52.4074 32.6574 52.7618 33.2876 53.135C34.5535 53.8702 35.8213 54.6073 35.8213 54.6073C36.4215 54.9561 36.6259 55.7269 36.2771 56.3271C35.9432 56.901 35.2249 57.111 34.6361 56.8278C34.6361 56.8278 33.3195 56.1864 32.0029 55.545C31.3409 55.2299 30.6901 54.8961 30.2043 54.641C29.7167 54.3878 29.3923 54.219 29.3923 54.219C28.6927 53.859 28.4189 52.9981 28.7809 52.3005C29.1428 51.6009 30.0018 51.3271 30.7013 51.6891C30.7088 51.6947 30.7238 51.7022 30.7313 51.7059Z" fill="#0C172F"/>
<path d="M40.8143 57.6865C40.8143 57.6865 41.1238 57.8853 41.5851 58.1835C42.0502 58.478 42.6654 58.8831 43.2712 59.3013C44.4958 60.1153 45.6924 60.9836 45.6924 60.9836C45.8162 61.0717 45.8443 61.2462 45.7543 61.3699C45.6793 61.4731 45.548 61.5087 45.4336 61.4675C45.4336 61.4675 44.0476 60.9573 42.6879 60.3947C42.0034 60.1246 41.3263 59.8396 40.8218 59.6183C40.3155 59.4007 39.9779 59.2544 39.9779 59.2544C39.5259 59.0613 39.3158 58.5361 39.5109 58.0841C39.7059 57.6303 40.2311 57.4221 40.683 57.6172C40.7281 57.6359 40.7749 57.6603 40.8143 57.6865Z" fill="#0C172F"/>
<path d="M44.5405 108.615C44.5405 108.615 44.9381 108.787 45.5814 109.144C46.2284 109.494 47.123 110.025 48.1395 110.721C49.156 111.415 50.2963 112.272 51.461 113.247C52.0442 113.733 52.635 114.247 53.2183 114.787C53.809 115.319 54.3829 115.886 54.9606 116.448C55.5251 117.026 56.0933 117.598 56.626 118.189C57.168 118.768 57.6781 119.365 58.1657 119.946C59.141 121.109 59.998 122.249 60.692 123.266C61.3878 124.282 61.9185 125.179 62.2673 125.828C62.6218 126.471 62.7943 126.869 62.7943 126.869C62.7943 126.869 62.3968 126.696 61.7535 126.342C61.1046 125.993 60.2081 125.462 59.1916 124.766C58.1751 124.072 57.0348 123.215 55.872 122.24C55.2906 121.752 54.6961 121.242 54.1147 120.7C53.524 120.168 52.952 119.599 52.3743 119.035C51.8117 118.457 51.2453 117.883 50.7127 117.292C50.1725 116.709 49.6586 116.118 49.1729 115.535C48.1977 114.37 47.3406 113.23 46.6467 112.214C45.9509 111.197 45.4201 110.303 45.0694 109.656C44.7131 109.012 44.5405 108.615 44.5405 108.615Z" fill="#0C172F"/>
<path d="M62.7943 108.615C62.7943 108.615 62.6218 109.012 62.2655 109.656C61.9148 110.303 61.384 111.197 60.6882 112.214C59.9943 113.23 59.1372 114.37 58.162 115.535C57.6762 116.118 57.1624 116.709 56.6222 117.292C56.0896 117.883 55.5232 118.457 54.9606 119.035C54.3829 119.599 53.8109 120.168 53.2201 120.7C52.6388 121.242 52.0442 121.752 51.4628 122.24C50.3001 123.215 49.1598 124.072 48.1433 124.766C47.1268 125.462 46.2303 125.993 45.5814 126.342C44.9381 126.696 44.5405 126.869 44.5405 126.869C44.5405 126.869 44.7131 126.471 45.0675 125.828C45.4164 125.179 45.9471 124.282 46.6429 123.266C47.3368 122.249 48.1939 121.109 49.1692 119.946C49.6568 119.365 50.1669 118.768 50.7089 118.189C51.2415 117.598 51.8098 117.026 52.3743 116.448C52.952 115.886 53.5258 115.319 54.1166 114.787C54.6999 114.247 55.2906 113.733 55.8739 113.247C57.0386 112.272 58.1788 111.415 59.1953 110.721C60.2118 110.025 61.1064 109.494 61.7535 109.144C62.3968 108.787 62.7943 108.615 62.7943 108.615Z" fill="#0C172F"/>
<path d="M74.5918 108.615C74.5918 108.615 74.9894 108.787 75.6327 109.144C76.2797 109.494 77.1743 110.025 78.1908 110.721C79.2073 111.415 80.3476 112.272 81.5122 113.247C82.0955 113.733 82.6863 114.247 83.2695 114.787C83.8603 115.319 84.4342 115.886 85.0118 116.448C85.5764 117.026 86.1446 117.598 86.6773 118.189C87.2193 118.768 87.7294 119.365 88.217 119.946C89.1922 121.109 90.0493 122.249 90.7433 123.266C91.439 124.282 91.9698 125.179 92.3186 125.828C92.6731 126.471 92.8456 126.869 92.8456 126.869C92.8456 126.869 92.448 126.696 91.8048 126.342C91.1559 125.993 90.2594 125.462 89.2429 124.766C88.2264 124.072 87.0861 123.215 85.9233 122.24C85.3419 121.752 84.7474 121.242 84.166 120.7C83.5752 120.168 83.0032 119.599 82.4256 119.035C81.863 118.457 81.2966 117.883 80.7639 117.292C80.2238 116.709 79.7099 116.118 79.2242 115.535C78.2489 114.37 77.3919 113.23 76.6979 112.214C76.0021 111.197 75.4714 110.303 75.1207 109.656C74.7643 109.012 74.5918 108.615 74.5918 108.615Z" fill="#0C172F"/>
<path d="M92.8456 108.615C92.8456 108.615 92.6731 109.012 92.3168 109.656C91.9661 110.303 91.4353 111.197 90.7395 112.214C90.0456 113.23 89.1885 114.37 88.2133 115.535C87.7275 116.118 87.2136 116.709 86.6735 117.292C86.1409 117.883 85.5745 118.457 85.0118 119.035C84.4342 119.599 83.8622 120.168 83.2714 120.7C82.69 121.242 82.0955 121.752 81.5141 122.24C80.3513 123.215 79.2111 124.072 78.1946 124.766C77.1781 125.462 76.2816 125.993 75.6327 126.342C74.9894 126.696 74.5918 126.869 74.5918 126.869C74.5918 126.869 74.7643 126.471 75.1188 125.828C75.4676 125.179 75.9984 124.282 76.6942 123.266C77.3881 122.249 78.2452 121.109 79.2204 119.946C79.708 119.365 80.2182 118.768 80.7602 118.189C81.2928 117.598 81.8611 117.026 82.4256 116.448C83.0032 115.886 83.5771 115.319 84.1679 114.787C84.7512 114.247 85.3419 113.733 85.9252 113.247C87.0899 112.272 88.2301 111.415 89.2466 110.721C90.2631 110.025 91.1577 109.494 91.8048 109.144C92.448 108.787 92.8456 108.615 92.8456 108.615Z" fill="#0C172F"/>
<path d="M104.645 108.615C104.645 108.615 105.043 108.787 105.686 109.144C106.333 109.494 107.228 110.025 108.244 110.721C109.261 111.415 110.401 112.272 111.565 113.247C112.149 113.733 112.739 114.247 113.323 114.787C113.914 115.319 114.487 115.886 115.065 116.448C115.63 117.026 116.198 117.598 116.73 118.189C117.272 118.768 117.783 119.365 118.27 119.946C119.245 121.109 120.103 122.249 120.796 123.266C121.492 124.282 122.023 125.179 122.372 125.828C122.726 126.471 122.899 126.869 122.899 126.869C122.899 126.869 122.501 126.696 121.858 126.342C121.209 125.993 120.313 125.462 119.296 124.766C118.28 124.072 117.139 123.215 115.977 122.24C115.395 121.752 114.801 121.242 114.219 120.7C113.628 120.168 113.056 119.599 112.479 119.035C111.916 118.457 111.35 117.883 110.817 117.292C110.277 116.709 109.763 116.118 109.277 115.535C108.302 114.37 107.445 113.23 106.751 112.214C106.055 111.197 105.525 110.303 105.174 109.656C104.818 109.012 104.645 108.615 104.645 108.615Z" fill="#0C172F"/>
<path d="M122.899 108.615C122.899 108.615 122.726 109.012 122.37 109.656C122.019 110.303 121.488 111.197 120.793 112.214C120.099 113.23 119.242 114.37 118.266 115.535C117.781 116.118 117.267 116.709 116.727 117.292C116.194 117.883 115.628 118.457 115.065 119.035C114.487 119.599 113.915 120.168 113.325 120.7C112.743 121.242 112.149 121.752 111.567 122.24C110.405 123.215 109.264 124.072 108.248 124.766C107.231 125.462 106.335 125.993 105.686 126.342C105.043 126.696 104.645 126.869 104.645 126.869C104.645 126.869 104.818 126.471 105.172 125.828C105.521 125.179 106.052 124.282 106.747 123.266C107.441 122.249 108.298 121.109 109.274 119.946C109.761 119.365 110.271 118.768 110.813 118.189C111.346 117.598 111.914 117.026 112.479 116.448C113.056 115.886 113.63 115.319 114.221 114.787C114.804 114.247 115.395 113.733 115.978 113.247C117.143 112.272 118.283 111.415 119.3 110.721C120.316 110.025 121.211 109.494 121.858 109.144C122.501 108.787 122.899 108.615 122.899 108.615Z" fill="#0C172F"/>
</svg>
