<svg width="96" height="97" viewBox="0 0 96 97" fill="none" xmlns="http://www.w3.org/2000/svg">
<path d="M15.6275 95.6629C15.4714 95.9091 15.1999 96.1018 14.8961 96.1313C14.5965 96.1651 14.2899 96.0708 14.062 95.8767C13.8355 95.6854 13.6836 95.3872 13.6907 95.0778C13.6893 95.0018 13.7104 94.9202 13.7216 94.8415C13.7413 94.7725 13.7666 94.7149 13.7891 94.6502L13.9635 94.2774C14.4193 93.3111 14.8877 92.3532 15.3322 91.3827C16.2225 89.4416 17.1354 87.5131 17.9934 85.558L23.1978 73.8495C24.9181 69.9406 26.6735 66.0471 28.4852 62.1818C29.377 60.2435 30.3053 58.3207 31.2196 56.3922L33.9709 50.6111C35.8445 46.7754 37.6815 42.9227 39.5917 39.1052L45.2785 27.6316C47.162 23.8015 49.1003 19.9966 51.0174 16.1834L51.1975 15.8247L51.3114 15.6039L51.3621 15.5166C51.4169 15.4252 51.386 15.4787 51.4028 15.4534L51.4183 15.4308L51.4493 15.3872L51.9472 14.691L52.4972 14.0341C52.6885 13.8217 52.8952 13.6234 53.095 13.4194C53.9192 12.6275 54.8588 11.9495 55.8983 11.4474C56.9336 10.948 58.0757 10.6133 59.2587 10.5978C60.436 10.5753 61.6457 10.8805 62.6486 11.5304L62.5698 11.4896C63.6261 11.9734 64.5067 12.8061 65.0763 13.7865C65.6573 14.7655 65.933 15.8753 65.9991 16.9668C66.0652 18.064 65.9259 19.1527 65.6516 20.195C65.5715 20.4524 65.5011 20.7112 65.4139 20.9686L65.1185 21.7324L64.7838 22.4385C64.6487 22.7367 64.4799 22.9308 64.3421 23.1474L60.8523 28.3195L57.416 33.5281C56.2922 35.2793 55.1472 37.0164 54.043 38.7789L50.7094 44.0564L47.3715 49.3312C46.2533 51.0852 45.1604 52.8561 44.021 54.5974C42.8901 56.343 41.7606 58.09 40.6044 59.8187C39.4595 61.5559 38.3018 63.2831 37.1245 64.9978C35.9613 66.7223 34.7713 68.4299 33.5771 70.1333C32.397 71.8451 31.1648 73.5231 29.9593 75.2195L22.6999 85.3793C21.479 87.0658 20.3171 88.7903 19.1243 90.4951L15.6275 95.6629ZM15.4447 95.5405L18.8768 90.3291C19.9936 88.5737 21.1414 86.8394 22.2315 85.0656L28.8312 74.467C29.9354 72.7031 31.0129 70.9224 32.1424 69.174C33.2578 67.4185 34.3774 65.6659 35.5252 63.9302C36.6575 62.186 37.8095 60.4531 38.9756 58.73C40.1276 56.9985 41.3077 55.2867 42.4864 53.572C43.6581 51.8532 44.8734 50.1639 46.0648 48.4591L49.6587 43.3545L53.2539 38.2528C54.4594 36.5565 55.624 34.8334 56.8098 33.1244L60.3038 27.9537L63.7429 22.7479C63.8821 22.5243 64.0467 22.3119 64.1156 22.129L64.4321 21.4173L64.6825 20.7196C64.7556 20.4833 64.8161 20.2386 64.885 19.9981C65.1242 19.0261 65.2086 18.019 65.1073 17.0414C65.0088 16.0652 64.7219 15.1101 64.2028 14.3168C63.6923 13.5221 62.9664 12.8962 62.1126 12.5431L62.0845 12.5319L62.0353 12.5023C60.3882 11.5233 58.2515 11.7737 56.551 12.7316C55.6887 13.2 54.9039 13.8231 54.2231 14.5419C54.0599 14.729 53.8869 14.9062 53.7308 15.0989L53.2736 15.6854L52.8587 16.3043L52.8334 16.3437L52.8207 16.362C52.8277 16.3493 52.7869 16.4169 52.8334 16.3395L52.7855 16.4281L52.7743 16.4492C52.7644 16.4661 52.8094 16.3817 52.7855 16.4281L52.7644 16.4745L52.7222 16.5646L52.5534 16.9275C50.7474 20.7956 48.961 24.6722 47.1212 28.5248L41.6383 40.0969C39.8238 43.9608 37.9375 47.7895 36.0864 51.6366L33.2522 57.3783C32.3055 59.2898 31.3715 61.2098 30.4024 63.1115C28.4908 66.9276 26.5216 70.717 24.5186 74.4895L18.5519 85.828C17.5489 87.7129 16.5995 89.6258 15.6275 91.5261C15.1409 92.4756 14.6795 93.4377 14.2041 94.3928L14.0325 94.7416C14.0114 94.8021 13.9818 94.8682 13.9649 94.9259C13.9607 94.9793 13.9453 95.0285 13.9439 95.0848C13.9368 95.3127 14.0437 95.5363 14.2195 95.6911C14.5754 96.016 15.1873 95.9738 15.4447 95.5405Z" fill="#0C172F"/>
<path d="M52.415 30.7005C52.415 30.7005 52.5135 30.7694 52.7259 30.7962C52.9256 30.8285 53.2885 30.7582 53.4953 30.4375C53.591 30.2898 53.6852 30.0366 53.7822 29.8045C53.8835 29.5654 53.9862 29.3024 54.0931 29.0182C54.3125 28.457 54.5432 27.8128 54.8288 27.1292C55.1087 26.4413 55.4716 25.731 55.8612 24.9813C56.241 24.2274 56.6826 23.4537 57.1482 22.6604C57.6237 21.8713 58.116 21.0555 58.6153 20.2284C58.6955 20.0976 58.7067 20.0864 58.7264 20.0399C58.7461 19.9963 58.7546 19.9485 58.756 19.8993C58.7644 19.798 58.7236 19.6827 58.6561 19.6039C58.6659 19.5856 58.5309 19.497 58.4339 19.4309L58.1286 19.2227L57.5182 18.8064C57.2819 18.608 56.8472 18.646 56.632 18.9555C56.3816 19.3465 56.1228 19.7811 55.8893 20.1989C55.4153 21.0414 55.006 21.9023 54.6515 22.7575C54.2928 23.6113 53.9567 24.4426 53.5727 25.1951C53.1929 25.949 52.7906 26.6383 52.3714 27.2487C51.9607 27.8634 51.5401 28.4021 51.1786 28.886C50.8228 29.2433 50.948 29.7862 51.263 30.0057C51.6105 30.2391 51.9101 30.4136 52.107 30.5275C52.3081 30.64 52.415 30.7005 52.415 30.7005ZM52.3489 30.8201C52.3489 30.8201 51.9298 30.5753 51.1407 30.2026C50.9283 30.09 50.7201 29.8861 50.6076 29.5949C50.4908 29.3178 50.5161 28.9029 50.6638 28.6005C50.8818 28.0378 51.1139 27.395 51.4178 26.7213C51.7103 26.0405 52.0817 25.3344 52.5191 24.6114C52.9524 23.887 53.4784 23.1612 54.0115 22.4044C54.5488 21.6477 55.0608 20.8445 55.5236 19.9949C55.7585 19.5673 55.9667 19.1468 56.1974 18.6854C56.4745 18.1284 57.2551 17.84 57.8825 18.1481L58.5604 18.4449L58.8994 18.5926C59.0134 18.6474 59.1034 18.6629 59.3017 18.8035C59.6126 19.0342 59.8208 19.3788 59.8855 19.7628C59.9178 19.9541 59.908 20.1525 59.8644 20.3438C59.8236 20.5322 59.7167 20.7362 59.6773 20.815C59.2412 21.6786 58.8122 22.5282 58.3959 23.3511C57.9697 24.1669 57.5491 24.9518 57.1131 25.6748C56.6841 26.402 56.2747 27.087 55.8401 27.689C55.4139 28.2938 54.9891 28.8311 54.6304 29.3164C54.2563 29.8031 53.9778 30.2152 53.7021 30.595C53.356 30.9635 52.9397 30.9832 52.7048 30.9453C52.581 30.927 52.4924 30.889 52.4347 30.8651C52.3785 30.8355 52.3489 30.8201 52.3489 30.8201Z" fill="#0C172F"/>
<path d="M54.9578 27.0132C54.9578 27.0132 53.9029 26.6714 52.8691 26.286C52.3486 26.1003 51.8324 25.9048 51.4484 25.7543C51.0616 25.6066 50.8056 25.5067 50.8056 25.5067C50.558 25.4125 50.4342 25.1354 50.5299 24.8878C50.6241 24.6403 50.9012 24.5165 51.1488 24.6121C51.1755 24.622 51.2022 24.636 51.2262 24.6501C51.2262 24.6501 51.4611 24.7922 51.8155 25.0074C52.1686 25.2198 52.6398 25.5067 53.104 25.8063C54.0422 26.3873 54.9578 27.0132 54.9578 27.0132Z" fill="#0C172F"/>
<path d="M46.7253 23.8508C46.7253 23.8508 45.7154 23.4175 44.7054 22.9829C43.6955 22.5497 42.6954 22.0939 42.6954 22.0939C42.2003 21.8675 41.9823 21.2837 42.2073 20.7886C42.4338 20.2921 43.0189 20.0741 43.514 20.3005C43.5295 20.3076 43.5478 20.3174 43.5633 20.3245C43.5633 20.3245 44.5352 20.8365 45.4973 21.3695C46.458 21.9041 47.4187 22.4372 47.4187 22.4372C47.7999 22.6481 47.9364 23.1278 47.7254 23.509C47.5285 23.8648 47.0924 24.0069 46.7253 23.8508Z" fill="#0C172F"/>
<path d="M38.7114 20.2451C38.7114 20.2451 37.7226 19.7683 36.7337 19.2901C35.7491 18.8034 34.7659 18.3181 34.7659 18.3181C34.2258 18.0509 34.0049 17.3982 34.2722 16.8581C34.538 16.3207 35.1865 16.0999 35.7252 16.3615L37.6986 17.3236C38.6818 17.8131 39.6636 18.304 39.6636 18.304C40.1982 18.5699 40.4162 19.2197 40.1489 19.7542C39.8845 20.2845 39.2431 20.5011 38.7114 20.2451Z" fill="#0C172F"/>
<path d="M30.857 16.3137C30.857 16.3137 29.8878 15.7975 28.9173 15.2813C27.9524 14.7566 26.9931 14.2179 26.9931 14.2179C26.5922 13.9915 26.4501 13.4837 26.6752 13.0828C26.8862 12.7087 27.3419 12.5581 27.7273 12.7227C27.7273 12.7227 28.7401 13.1517 29.7458 13.5948C30.7473 14.0449 31.7488 14.4964 31.7488 14.4964C32.2594 14.7257 32.4858 15.3249 32.2566 15.8355C32.0273 16.3461 31.4281 16.5726 30.9175 16.3433C30.8978 16.3348 30.8753 16.3236 30.857 16.3137Z" fill="#0C172F"/>
<path d="M23.1743 12.0328C23.1743 12.0328 22.2319 11.4617 21.2895 10.8892C20.8225 10.5938 20.3555 10.2998 20.0067 10.0776C19.6592 9.85113 19.4272 9.70062 19.4272 9.70062C19.3751 9.66686 19.3596 9.59794 19.3934 9.5459C19.4229 9.50089 19.4778 9.48401 19.5256 9.50089C19.5256 9.50089 19.7858 9.59232 20.1783 9.72875C20.5665 9.86941 21.0855 10.0593 21.6046 10.2478C22.6342 10.643 23.6624 11.0383 23.6624 11.0383C23.9494 11.148 24.0914 11.4701 23.9817 11.7571C23.872 12.044 23.5499 12.1861 23.2629 12.0764C23.2334 12.0651 23.201 12.0496 23.1743 12.0328Z" fill="#0C172F"/>
<path d="M45.2583 50.9347C45.2583 50.9347 46.3217 51.2653 47.3612 51.6437C47.8816 51.8321 48.395 52.0333 48.7832 52.1768C49.1714 52.3216 49.4274 52.4257 49.4274 52.4257C49.7172 52.5425 49.8579 52.873 49.7397 53.1628C49.623 53.4539 49.2924 53.5932 49.0012 53.475C48.9717 53.4638 48.9408 53.4469 48.9154 53.4314C48.9154 53.4314 48.6805 53.2851 48.3359 53.0559C47.9899 52.8266 47.5257 52.5298 47.0686 52.219C46.1515 51.6 45.2583 50.9347 45.2583 50.9347Z" fill="#0C172F"/>
<path d="M53.4886 54.1287C53.4886 54.1287 53.7404 54.2398 54.1188 54.4044C54.4915 54.5774 54.9909 54.8081 55.4888 55.0388C55.9882 55.2694 56.4861 55.5001 56.8602 55.6745C57.233 55.849 57.4777 55.9741 57.4777 55.9741C57.9968 56.2414 58.2007 56.8786 57.9349 57.3976C57.669 57.9138 57.0361 58.1192 56.517 57.8576C56.517 57.8576 56.2723 57.7338 55.9122 57.534C55.5521 57.3343 55.0725 57.0671 54.5928 56.7984C54.1132 56.5311 53.6335 56.2639 53.2734 56.0628C52.9176 55.8546 52.6798 55.7153 52.6798 55.7153C52.2551 55.4664 52.1116 54.9206 52.3606 54.4944C52.5926 54.1006 53.0793 53.9486 53.4886 54.1287Z" fill="#0C172F"/>
<path d="M61.4016 57.9441L63.0994 58.8359C63.6691 59.127 64.2247 59.4449 64.7845 59.7558L63.8238 61.5197L63.444 61.2974L64.3808 59.5265L64.4764 59.5729L64.4849 59.5757C64.9842 59.8149 65.1952 60.4141 64.9561 60.912C64.7184 61.4085 64.1262 61.6195 63.6283 61.3874L63.5157 61.3354L64.4511 59.5645L64.8323 59.7825L63.8716 61.5464C63.2907 61.2777 62.7084 61.0133 62.1373 60.7249L60.4184 59.8753C59.8811 59.6109 59.6603 58.9597 59.9261 58.4237C60.1906 57.8864 60.8404 57.667 61.3777 57.9314C61.3834 57.9356 61.3946 57.9413 61.4016 57.9441Z" fill="#0C172F"/>
<path d="M68.3527 60.6547C68.3527 60.6547 68.4216 60.6603 68.5412 60.6715C68.6678 60.6828 68.7986 60.6926 68.9955 60.7025C69.3753 60.7222 69.8845 60.7236 70.3909 60.6884C71.4064 60.6279 72.3953 60.3776 72.3953 60.3776C72.9087 60.2467 73.4291 60.5562 73.5585 61.0682C73.6879 61.5774 73.3827 62.095 72.8763 62.2286L72.8594 62.2329C72.8594 62.2329 71.7145 62.5367 70.5343 62.6197C69.9464 62.6661 69.3542 62.6703 68.9125 62.652C68.6973 62.645 68.4863 62.6295 68.3738 62.6211C68.2542 62.6112 68.1853 62.6056 68.1853 62.6056C67.6466 62.5634 67.2443 62.0908 67.2879 61.5521C67.3315 61.0119 67.8041 60.6111 68.3429 60.6533L68.3527 60.6547Z" fill="#0C172F"/>
<path d="M76.1538 58.8217C76.1538 58.8217 76.2115 58.7852 76.3127 58.7205C76.421 58.6515 76.5322 58.5784 76.6925 58.4659C77.0076 58.2493 77.4113 57.937 77.7925 57.6008C78.5647 56.9313 79.1991 56.1253 79.1991 56.1253C79.5071 55.7329 80.074 55.6653 80.465 55.9734C80.8532 56.2786 80.9236 56.837 80.6268 57.2281L80.6169 57.2407C80.6169 57.2407 79.9038 58.1803 79.0261 58.9694C78.5928 59.3675 78.1287 59.7318 77.7672 59.9864C77.5927 60.1116 77.4169 60.2297 77.3241 60.2902C77.2228 60.3549 77.1651 60.3929 77.1651 60.3929C76.7333 60.6742 76.1552 60.5519 75.8725 60.12C75.5912 59.6882 75.7135 59.1087 76.1454 58.8274L76.1538 58.8217Z" fill="#0C172F"/>
<path d="M81.1688 52.5711C81.1688 52.5711 81.1913 52.5064 81.2293 52.3924C81.2687 52.2715 81.3109 52.1435 81.3658 51.9522C81.4755 51.5836 81.5964 51.0857 81.6808 50.5793C81.8623 49.5666 81.8468 48.5355 81.8468 48.5355C81.8412 48.0784 82.2055 47.7028 82.6641 47.6958C83.1156 47.6902 83.4883 48.0475 83.5024 48.4976L83.5038 48.513C83.5038 48.513 83.5404 49.6861 83.3547 50.8452C83.2675 51.4233 83.1381 51.9958 83.0213 52.4177C82.9665 52.6245 82.9046 52.8228 82.8708 52.9311C82.8343 53.0451 82.8132 53.1112 82.8132 53.1112C82.6683 53.5655 82.1816 53.8173 81.7259 53.6724C81.2701 53.5275 81.0197 53.0409 81.1646 52.5851C81.1646 52.5823 81.1674 52.5739 81.1688 52.5711Z" fill="#0C172F"/>
<path d="M81.1295 44.5053C81.1295 44.5053 81.107 44.4449 81.0676 44.338C81.0226 44.2184 80.9678 44.0791 80.8932 43.9033C80.7441 43.5475 80.5233 43.0805 80.2673 42.6318C79.7651 41.7273 79.0998 40.9298 79.0998 40.9298C78.834 40.6105 78.8762 40.1351 79.1969 39.8678C79.5119 39.6048 79.9803 39.6428 80.249 39.9536L80.2574 39.9635C80.2574 39.9635 81.0212 40.8468 81.6049 41.8567C81.9017 42.3575 82.1606 42.8807 82.335 43.2802C82.425 43.4828 82.4981 43.6614 82.5389 43.7669C82.5853 43.8836 82.6121 43.9511 82.6121 43.9511C82.771 44.3591 82.5713 44.8176 82.1634 44.9766C81.7569 45.1369 81.2983 44.9358 81.138 44.5293C81.138 44.5264 81.1366 44.5236 81.1351 44.5208L81.1295 44.5053Z" fill="#0C172F"/>
<path d="M75.9932 38.222C75.9932 38.222 75.9369 38.1882 75.8384 38.1291C75.74 38.0743 75.5979 37.9941 75.4277 37.8984C75.0676 37.7085 74.5866 37.4554 74.1055 37.2036L72.1644 36.174C71.8732 36.0192 71.7635 35.6591 71.9169 35.368C72.066 35.0867 72.4078 34.9755 72.6933 35.105C72.6933 35.105 73.6906 35.5621 74.6892 36.0192C74.9396 36.1346 75.1886 36.2485 75.4235 36.3554C75.5388 36.4089 75.6514 36.4609 75.7583 36.5101C75.8694 36.565 75.9749 36.617 76.0719 36.6649C76.2632 36.7675 76.4236 36.8519 76.5347 36.911C76.6444 36.9729 76.7063 37.0081 76.7063 37.0081C77.0453 37.2008 77.1634 37.6298 76.9721 37.9674C76.7808 38.3064 76.3504 38.4245 76.0128 38.2332C76.0086 38.2304 76.0044 38.229 76.0016 38.2262L75.9932 38.222Z" fill="#0C172F"/>
<path d="M68.2929 34.0962C68.2929 34.0962 67.3266 33.5743 66.3603 33.0511C65.3968 32.5236 64.4332 31.9947 64.4332 31.9947C64.301 31.923 64.2518 31.757 64.3249 31.6248C64.3925 31.501 64.5458 31.4504 64.6738 31.5067C64.6738 31.5067 65.6795 31.9511 66.6838 32.3942C67.6867 32.8443 68.6896 33.2944 68.6896 33.2944C68.9146 33.3957 69.0145 33.6601 68.9146 33.8852C68.8134 34.1117 68.5475 34.2115 68.3225 34.1103C68.3126 34.106 68.3028 34.1018 68.2929 34.0962Z" fill="#0C172F"/>
<path d="M60.5881 29.8608L59.6724 29.3418L60.6415 29.7525C60.6725 29.7666 60.6865 29.8018 60.6739 29.8313C60.6598 29.8622 60.6246 29.8763 60.5937 29.8636C60.5923 29.8636 60.5895 29.8622 60.5881 29.8608Z" fill="#0C172F"/>
<path d="M47.0952 81.4611L43.1131 79.6015C43.0315 79.5636 42.9964 79.4665 43.0343 79.3849C43.0723 79.3019 43.1694 79.2668 43.2524 79.3062C43.2552 79.3076 43.2594 79.309 43.2622 79.3104L47.0952 81.4611Z" fill="#0C172F"/>
<path d="M39.1437 77.718L35.1814 75.8191C34.9732 75.7193 34.8846 75.4689 34.9844 75.2593C35.0843 75.0497 35.3361 74.9611 35.5443 75.0624C35.5513 75.0652 35.5597 75.0694 35.5654 75.0722L39.418 77.1835C39.5629 77.2637 39.6163 77.4466 39.5362 77.5914C39.4602 77.7321 39.2858 77.7855 39.1437 77.718Z" fill="#0C172F"/>
<path d="M31.2243 73.9147L27.2759 71.9905C26.9665 71.84 26.8371 71.4672 26.9876 71.1578C27.1381 70.8483 27.5123 70.7189 27.8217 70.8694C27.8287 70.8736 27.8372 70.8779 27.8442 70.8821L31.7095 72.968C31.9683 73.1073 32.0654 73.4308 31.9247 73.6896C31.7897 73.94 31.4788 74.0385 31.2243 73.9147Z" fill="#0C172F"/>
<path d="M23.3279 70.0642L19.3866 68.126C18.997 67.9332 18.8367 67.4634 19.0294 67.0738C19.2207 66.6842 19.6905 66.5238 20.0801 66.7151C20.0871 66.7194 20.097 66.7236 20.104 66.7278L23.9777 68.7983C24.3238 68.984 24.4546 69.4144 24.2689 69.7618C24.0875 70.1008 23.6697 70.2316 23.3279 70.0642Z" fill="#0C172F"/>
<path d="M15.4502 66.1766L11.5146 64.2284C11.063 64.0048 10.8788 63.4576 11.101 63.0061C11.3247 62.5546 11.8718 62.3703 12.3234 62.594C12.3304 62.5968 12.3402 62.6024 12.3473 62.6052L16.2252 64.6673C16.6388 64.8867 16.7963 65.4001 16.5755 65.8151C16.3603 66.2202 15.8595 66.3791 15.4502 66.1766Z" fill="#0C172F"/>
<path d="M7.57455 62.2558C7.57455 62.2558 7.51407 62.2235 7.40717 62.1686C7.30871 62.1166 7.12163 62.0153 6.93737 61.907C6.55337 61.6861 6.05684 61.3668 5.58422 61.011C4.63196 60.3105 3.82598 59.4412 3.82598 59.4412L3.81332 59.4272C3.4462 59.0319 3.46871 58.413 3.86537 58.0459C4.26062 57.6788 4.87952 57.7027 5.24664 58.0979L5.25368 58.105C5.25368 58.105 5.93869 58.8589 6.7517 59.4722C7.15539 59.7802 7.58018 60.0601 7.90792 60.2542C8.07811 60.3541 8.19205 60.4188 8.30458 60.4793C8.41148 60.537 8.47196 60.5693 8.47196 60.5693C8.93614 60.8197 9.10915 61.3978 8.86018 61.8634C8.61121 62.3247 8.03732 62.4992 7.57455 62.2558Z" fill="#0C172F"/>
<path d="M1.22112 55.5178C1.22112 55.5178 1.19158 55.4503 1.14095 55.3336C1.09312 55.214 1.0242 55.0424 0.941211 54.8356C0.862442 54.6317 0.775233 54.3743 0.696464 54.138C0.65286 54.0086 0.609255 53.8749 0.565651 53.7385C0.52486 53.5978 0.482662 53.4558 0.440464 53.3137C0.114134 52.173 0.00582667 50.9872 0.00582667 50.9872L0.0044201 50.9703C-0.0476239 50.4077 0.365915 49.9112 0.928552 49.8591C1.49119 49.8085 1.98772 50.222 2.03976 50.7832L2.04117 50.7945C2.04117 50.7945 2.12275 51.8058 2.39141 52.7834C2.42657 52.9058 2.46033 53.0268 2.49409 53.1463C2.53207 53.2673 2.57005 53.3868 2.60662 53.5022C2.6882 53.7554 2.75431 53.9523 2.82042 54.1337C2.88934 54.311 2.94701 54.4573 2.9878 54.5613C3.03141 54.664 3.05673 54.7245 3.05673 54.7245L3.05954 54.7329C3.27475 55.2421 3.03563 55.8287 2.52644 56.0425C2.02007 56.2549 1.43915 56.02 1.22112 55.5178Z" fill="#0C172F"/>
<path d="M0.349999 46.2665C0.349999 46.2665 0.366878 46.2004 0.397824 46.0837C0.424549 45.9768 0.482219 45.7686 0.545516 45.5632C0.673516 45.1356 0.874659 44.5772 1.11519 44.0343C1.5864 42.9413 2.25453 41.9539 2.25453 41.9539L2.26437 41.937C2.5907 41.4546 3.24758 41.328 3.73145 41.6543C4.21391 41.982 4.34051 42.6375 4.01418 43.1214L4.01136 43.1242C4.01136 43.1242 3.44169 43.9611 3.038 44.8881C2.83264 45.3494 2.65963 45.8234 2.5471 46.1835C2.48802 46.372 2.45145 46.4944 2.41769 46.6182C2.38675 46.7349 2.36846 46.801 2.36846 46.801C2.21796 47.358 1.64547 47.6872 1.08846 47.5367C0.53567 47.3876 0.206527 46.8193 0.349999 46.2665Z" fill="#0C172F"/>
<path d="M5.50763 38.5053C5.50763 38.5053 5.56249 38.4645 5.65954 38.3942C5.75097 38.3267 5.92679 38.2015 6.10543 38.0819C6.47536 37.833 6.98455 37.5249 7.51484 37.2548C8.57119 36.7035 9.71334 36.3588 9.71334 36.3588L9.73304 36.3518C10.2999 36.1816 10.8963 36.5023 11.0679 37.0678C11.2381 37.6346 10.9174 38.2324 10.3519 38.4026L10.3477 38.404C10.3477 38.404 9.37717 38.6924 8.48257 39.1566C8.03246 39.3844 7.60064 39.6432 7.28697 39.8542C7.1224 39.9625 7.01972 40.0357 6.91563 40.1102C6.81857 40.182 6.76372 40.2214 6.76372 40.2214C6.28829 40.5674 5.62297 40.4633 5.27695 39.9893C4.93233 39.5138 5.03361 38.8513 5.50763 38.5053Z" fill="#0C172F"/>
<path d="M14.4181 35.734C14.4181 35.734 14.487 35.7368 14.6066 35.7424C14.7177 35.7481 14.9343 35.7621 15.1481 35.7818C15.5926 35.8212 16.1834 35.9028 16.7657 36.0266C17.936 36.2615 19.0416 36.7144 19.0416 36.7144L19.0612 36.7214C19.6154 36.9493 19.8813 37.5823 19.6548 38.1379C19.4284 38.6921 18.794 38.9579 18.2398 38.7314L18.2356 38.73C18.2356 38.73 17.303 38.3446 16.3142 38.1421C15.8233 38.0366 15.3239 37.9649 14.9484 37.9311C14.7529 37.9128 14.6277 37.9044 14.4983 37.8973C14.3787 37.8917 14.3098 37.8875 14.3098 37.8875C13.7148 37.8565 13.2576 37.3502 13.2886 36.7552C13.3195 36.1602 13.8231 35.7031 14.4181 35.734Z" fill="#0C172F"/>
<path d="M23.0485 38.7794C23.0485 38.7794 23.289 38.9116 23.6505 39.11C24.012 39.3055 24.4931 39.5713 24.9657 39.8512C25.9151 40.4026 26.866 40.9554 26.866 40.9554C27.3161 41.217 27.4694 41.7952 27.2078 42.2453C26.9574 42.6757 26.4187 42.8332 25.977 42.6208C25.977 42.6208 24.9896 42.1398 24.0022 41.6587C23.5057 41.4224 23.0176 41.172 22.6533 40.9807C22.2875 40.7908 22.0442 40.6643 22.0442 40.6643C21.5195 40.3942 21.3142 39.7486 21.5857 39.2253C21.8571 38.7007 22.5013 38.4953 23.026 38.7668C23.0316 38.771 23.0429 38.7766 23.0485 38.7794Z" fill="#0C172F"/>
<path d="M30.6109 43.2649C30.6109 43.2649 30.843 43.414 31.189 43.6376C31.5378 43.8585 31.9992 44.1623 32.4535 44.476C33.372 45.0864 34.2694 45.7377 34.2694 45.7377C34.3622 45.8038 34.3833 45.9346 34.3158 46.0274C34.2596 46.1048 34.1611 46.1315 34.0753 46.1006C34.0753 46.1006 33.0358 45.718 32.016 45.296C31.5026 45.0934 30.9949 44.8796 30.6165 44.7137C30.2367 44.5505 29.9835 44.4408 29.9835 44.4408C29.6445 44.2959 29.487 43.9021 29.6333 43.5631C29.7796 43.2227 30.1734 43.0665 30.5124 43.2128C30.5462 43.2269 30.5813 43.2452 30.6109 43.2649Z" fill="#0C172F"/>
<path d="M33.4053 81.461C33.4053 81.461 33.7035 81.5904 34.1859 81.8577C34.6712 82.1207 35.3422 82.5188 36.1045 83.0406C36.8669 83.561 37.7221 84.2039 38.5956 84.9353C39.0331 85.2996 39.4761 85.685 39.9136 86.0901C40.3567 86.4896 40.7871 86.9144 41.2203 87.3363C41.6437 87.7696 42.0699 88.1986 42.4694 88.6417C42.8759 89.0763 43.2585 89.5236 43.6242 89.9596C44.3556 90.8317 44.9984 91.6869 45.5189 92.4493C46.0407 93.2117 46.4388 93.884 46.7004 94.3707C46.9662 94.8532 47.0956 95.1514 47.0956 95.1514C47.0956 95.1514 46.7974 95.022 46.315 94.7561C45.8283 94.4945 45.156 94.0964 44.3936 93.5746C43.6312 93.0541 42.776 92.4113 41.9039 91.6799C41.4679 91.3142 41.022 90.9316 40.5859 90.5251C40.1429 90.1256 39.7138 89.6994 39.2806 89.276C38.8586 88.8428 38.4338 88.4124 38.0344 87.9693C37.6293 87.5319 37.2439 87.0888 36.8796 86.6513C36.1481 85.7778 35.5053 84.9226 34.9849 84.1603C34.463 83.3979 34.065 82.7269 33.8019 82.2417C33.5347 81.7592 33.4053 81.461 33.4053 81.461Z" fill="#0C172F"/>
<path d="M47.0956 81.461C47.0956 81.461 46.9662 81.7592 46.699 82.2417C46.436 82.7269 46.0379 83.3979 45.516 84.1603C44.9956 84.9226 44.3528 85.7778 43.6214 86.6513C43.257 87.0888 42.8716 87.5319 42.4665 87.9693C42.0671 88.4124 41.6423 88.8428 41.2203 89.276C40.7871 89.6994 40.3581 90.1256 39.915 90.5251C39.4789 90.9316 39.0331 91.3142 38.597 91.6799C37.7249 92.4113 36.8697 93.0541 36.1073 93.5746C35.345 94.0964 34.6726 94.4945 34.1859 94.7561C33.7035 95.022 33.4053 95.1514 33.4053 95.1514C33.4053 95.1514 33.5347 94.8532 33.8005 94.3707C34.0622 93.884 34.4602 93.2117 34.9821 92.4493C35.5025 91.6869 36.1453 90.8317 36.8767 89.9596C37.2425 89.5236 37.6251 89.0763 38.0316 88.6417C38.431 88.1986 38.8572 87.7696 39.2806 87.3363C39.7138 86.9144 40.1443 86.4896 40.5873 86.0901C41.0248 85.685 41.4679 85.2996 41.9053 84.9353C42.7788 84.2039 43.634 83.561 44.3964 83.0406C45.1588 82.5188 45.8297 82.1207 46.315 81.8577C46.7974 81.5904 47.0956 81.461 47.0956 81.461Z" fill="#0C172F"/>
<path d="M55.9438 81.461C55.9438 81.461 56.242 81.5904 56.7245 81.8577C57.2098 82.1207 57.8807 82.5188 58.6431 83.0406C59.4055 83.561 60.2607 84.2039 61.1342 84.9353C61.5716 85.2996 62.0147 85.685 62.4522 86.0901C62.8952 86.4896 63.3257 86.9144 63.7589 87.3363C64.1823 87.7696 64.6085 88.1986 65.0079 88.6417C65.4144 89.0763 65.797 89.5236 66.1628 89.9596C66.8942 90.8317 67.537 91.6869 68.0574 92.4493C68.5793 93.2117 68.9773 93.884 69.239 94.3707C69.5048 94.8532 69.6342 95.1514 69.6342 95.1514C69.6342 95.1514 69.336 95.022 68.8536 94.7561C68.3669 94.4945 67.6945 94.0964 66.9322 93.5746C66.1698 93.0541 65.3146 92.4113 64.4425 91.6799C64.0064 91.3142 63.5606 90.9316 63.1245 90.5251C62.6814 90.1256 62.2524 89.6994 61.8192 89.276C61.3972 88.8428 60.9724 88.4124 60.5729 87.9693C60.1678 87.5319 59.7824 87.0888 59.4181 86.6513C58.6867 85.7778 58.0439 84.9226 57.5235 84.1603C57.0016 83.3979 56.6035 82.7269 56.3405 82.2417C56.0733 81.7592 55.9438 81.461 55.9438 81.461Z" fill="#0C172F"/>
<path d="M69.6342 81.461C69.6342 81.461 69.5048 81.7592 69.2376 82.2417C68.9745 82.7269 68.5765 83.3979 68.0546 84.1603C67.5342 84.9226 66.8914 85.7778 66.1599 86.6513C65.7956 87.0888 65.4102 87.5319 65.0051 87.9693C64.6057 88.4124 64.1809 88.8428 63.7589 89.276C63.3257 89.6994 62.8966 90.1256 62.4536 90.5251C62.0175 90.9316 61.5716 91.3142 61.1356 91.6799C60.2635 92.4113 59.4083 93.0541 58.6459 93.5746C57.8835 94.0964 57.2112 94.4945 56.7245 94.7561C56.242 95.022 55.9438 95.1514 55.9438 95.1514C55.9438 95.1514 56.0733 94.8532 56.3391 94.3707C56.6007 93.884 56.9988 93.2117 57.5206 92.4493C58.0411 91.6869 58.6839 90.8317 59.4153 89.9596C59.781 89.5236 60.1636 89.0763 60.5701 88.6417C60.9696 88.1986 61.3958 87.7696 61.8192 87.3363C62.2524 86.9144 62.6828 86.4896 63.1259 86.0901C63.5634 85.685 64.0064 85.2996 64.4439 84.9353C65.3174 84.2039 66.1726 83.561 66.935 83.0406C67.6973 82.5188 68.3683 82.1207 68.8536 81.8577C69.336 81.5904 69.6342 81.461 69.6342 81.461Z" fill="#0C172F"/>
<path d="M78.4839 81.461C78.4839 81.461 78.7821 81.5904 79.2645 81.8577C79.7498 82.1207 80.4208 82.5188 81.1831 83.0406C81.9455 83.561 82.8007 84.2039 83.6742 84.9353C84.1117 85.2996 84.5547 85.685 84.9922 86.0901C85.4353 86.4896 85.8657 86.9144 86.2989 87.3363C86.7223 87.7696 87.1485 88.1986 87.548 88.6417C87.9545 89.0763 88.3371 89.5236 88.7028 89.9596C89.4342 90.8317 90.077 91.6869 90.5975 92.4493C91.1193 93.2117 91.5174 93.884 91.779 94.3707C92.0448 94.8532 92.1743 95.1514 92.1743 95.1514C92.1743 95.1514 91.8761 95.022 91.3936 94.7561C90.9069 94.4945 90.2346 94.0964 89.4722 93.5746C88.7098 93.0541 87.8546 92.4113 86.9825 91.6799C86.5465 91.3142 86.1006 90.9316 85.6645 90.5251C85.2215 90.1256 84.7925 89.6994 84.3592 89.276C83.9372 88.8428 83.5125 88.4124 83.113 87.9693C82.7079 87.5319 82.3225 87.0888 81.9582 86.6513C81.2267 85.7778 80.5839 84.9226 80.0635 84.1603C79.5416 83.3979 79.1436 82.7269 78.8805 82.2417C78.6133 81.7592 78.4839 81.461 78.4839 81.461Z" fill="#0C172F"/>
<path d="M92.1743 81.461C92.1743 81.461 92.0448 81.7592 91.7776 82.2417C91.5146 82.7269 91.1165 83.3979 90.5947 84.1603C90.0742 84.9226 89.4314 85.7778 88.7 86.6513C88.3357 87.0888 87.9503 87.5319 87.5452 87.9693C87.1457 88.4124 86.7209 88.8428 86.2989 89.276C85.8657 89.6994 85.4367 90.1256 84.9936 90.5251C84.5576 90.9316 84.1117 91.3142 83.6756 91.6799C82.8035 92.4113 81.9483 93.0541 81.186 93.5746C80.4236 94.0964 79.7512 94.4945 79.2645 94.7561C78.7821 95.022 78.4839 95.1514 78.4839 95.1514C78.4839 95.1514 78.6133 94.8532 78.8791 94.3707C79.1408 93.884 79.5388 93.2117 80.0607 92.4493C80.5811 91.6869 81.2239 90.8317 81.9554 89.9596C82.3211 89.5236 82.7037 89.0763 83.1102 88.6417C83.5096 88.1986 83.9358 87.7696 84.3592 87.3363C84.7925 86.9144 85.2229 86.4896 85.666 86.0901C86.1034 85.685 86.5465 85.2996 86.9839 84.9353C87.8574 84.2039 88.7126 83.561 89.475 83.0406C90.2374 82.5188 90.9083 82.1207 91.3936 81.8577C91.8761 81.5904 92.1743 81.461 92.1743 81.461Z" fill="#0C172F"/>
</svg>
