<svg width="24" height="24" viewBox="0 0 24 24" fill="none" xmlns="http://www.w3.org/2000/svg">
<path d="M20.9995 15.7278V18.287C21.0004 18.5245 20.9517 18.7597 20.8563 18.9774C20.7609 19.1951 20.6211 19.3905 20.4457 19.5511C20.2702 19.7117 20.0632 19.834 19.8376 19.9101C19.6121 19.9862 19.3732 20.0145 19.1361 19.9931C16.5059 19.7078 13.9794 18.8109 11.7596 17.3742C9.69433 16.0644 7.94337 14.3169 6.63104 12.2558C5.18648 10.0303 4.28751 7.49657 4.00694 4.85976C3.98558 4.62386 4.01367 4.3861 4.08942 4.16163C4.16518 3.93716 4.28693 3.73089 4.44694 3.55596C4.60694 3.38102 4.80169 3.24125 5.01879 3.14555C5.23589 3.04985 5.47057 3.00031 5.7079 3.00008H8.27217C8.68698 2.99601 9.08913 3.14261 9.40366 3.41257C9.71818 3.68252 9.92362 4.05741 9.98168 4.46735C10.0899 5.28635 10.2906 6.09049 10.58 6.86445C10.695 7.16978 10.7199 7.50162 10.6517 7.82063C10.5836 8.13965 10.4252 8.43248 10.1954 8.66441L9.10983 9.7478C10.3266 11.8835 12.0984 13.6518 14.2384 14.8662L15.3239 13.7828C15.5563 13.5534 15.8497 13.3954 16.1694 13.3273C16.489 13.2593 16.8215 13.2841 17.1274 13.3989C17.9029 13.6877 18.7087 13.888 19.5293 13.9961C19.9445 14.0545 20.3237 14.2632 20.5948 14.5825C20.8658 14.9018 21.0099 15.3094 20.9995 15.7278Z" stroke="white" stroke-linecap="round" stroke-linejoin="round"/>
</svg>
