<svg width="96" height="96" viewBox="0 0 96 96" fill="none" xmlns="http://www.w3.org/2000/svg">
<path d="M69.2151 14.9159C69.4472 17.7745 69.5959 20.6353 69.7537 23.4973C69.9149 26.3593 70.0109 29.2248 70.1116 32.0891C70.1893 34.9545 70.2682 37.8211 70.2945 40.6876C70.3197 43.5542 70.3437 46.4219 70.3071 49.2908C70.2739 52.1585 70.2236 55.0274 70.1218 57.8962C70.0109 60.7639 69.8691 63.6328 69.637 66.4971C69.4221 69.3637 69.0973 72.2222 68.7029 75.0751C68.2924 77.9245 67.8064 80.7728 67.0072 83.5662C66.5944 84.9555 66.1267 86.3493 65.3378 87.6288C64.9398 88.2542 64.4527 88.9003 63.6832 89.2525C63.4957 89.3428 63.2864 89.3931 63.0772 89.4251C62.9731 89.4365 62.8634 89.4411 62.7627 89.4423L62.494 89.4354L61.4204 89.4068C58.5572 89.3371 55.6941 89.2833 52.8298 89.2444C49.9667 89.2056 47.1035 89.177 44.2392 89.1655H35.6475L27.0558 89.1884C24.1926 89.2044 21.3284 89.1976 18.4641 89.1873L9.8735 89.1518L1.28293 89.0832L0 89.0729L0.503111 87.822C0.777534 87.1405 1.09883 86.4922 1.31151 85.7707L1.66483 84.7108L1.96212 83.6222C2.17366 82.9019 2.32688 82.1586 2.49725 81.4211C2.67677 80.687 2.80025 79.9335 2.94776 79.1891C3.09869 78.4459 3.2096 77.6901 3.33995 76.94C3.47374 76.1899 3.5835 75.4341 3.69099 74.6783C3.92081 73.169 4.09919 71.6482 4.27985 70.1298C4.44793 68.609 4.6183 67.0871 4.76581 65.5606C4.91788 64.0364 5.05166 62.5088 5.1763 60.9801C5.30207 59.4513 5.40841 57.9202 5.51933 56.3892C5.63367 54.8593 5.73315 53.3259 5.83034 51.7938C6.02244 48.7282 6.17337 45.6593 6.30944 42.5892L6.67762 33.3731C6.7931 30.2996 6.86514 27.2249 6.95547 24.1502C7.04923 21.0744 7.10755 17.9986 7.17615 14.9216L7.35453 14.9182C7.51346 17.994 7.59236 21.0721 7.67583 24.1514C7.75473 27.2306 7.77302 30.3099 7.79132 33.3903L7.79475 38.012C7.79475 39.5522 7.76045 41.0924 7.73643 42.6326C7.67583 45.713 7.59922 48.7945 7.48259 51.8761C7.42314 53.4163 7.36024 54.9565 7.28249 56.4978C7.20817 58.038 7.10526 59.5771 6.99892 61.1173C6.89144 62.6563 6.77367 64.1965 6.63874 65.7344L6.4295 68.043L6.17794 70.3482C5.99156 71.8849 5.80861 73.4205 5.57307 74.9539C5.4633 75.7211 5.3501 76.4872 5.21289 77.2522C5.0814 78.0183 4.96019 78.7844 4.79325 79.5459C4.63088 80.3086 4.49482 81.0735 4.29815 81.8316C4.11291 82.592 3.94483 83.3535 3.71271 84.107L3.38569 85.2402L2.99464 86.3653C2.75909 87.1188 2.3932 87.8529 2.07761 88.5915L1.29894 87.3303L9.88837 87.5167L18.4778 87.7374C21.3409 87.8106 24.2041 87.8895 27.0672 87.9912L35.6567 88.2691L44.2461 88.5229C47.1092 88.5973 49.9724 88.6533 52.8355 88.7002C55.6987 88.7459 58.5629 88.7768 61.4261 88.7928L62.4998 88.7962H62.7685C62.8462 88.7928 62.916 88.7882 62.9891 88.7791C63.1321 88.7516 63.2739 88.7173 63.4076 88.6476C63.9531 88.3892 64.3841 87.8392 64.7237 87.2572C65.3961 86.0646 65.8054 84.6982 66.1507 83.3341C66.8208 80.5876 67.1912 77.7564 67.4897 74.9264C67.7881 72.093 67.9528 69.2436 68.1277 66.3953C68.2809 63.5448 68.4204 60.6931 68.5199 57.8368C68.6297 54.9816 68.7212 52.1253 68.7783 49.2668C68.8332 46.4071 68.8984 43.5485 68.9247 40.6876L68.9956 32.1039L69.0333 23.5156L69.0367 14.9228L69.2151 14.9159Z" fill="#0C172F"/>
<path d="M69.516 14.8261C69.404 12.5301 69.3354 10.2341 69.2462 7.93805C69.1993 6.77404 69.1753 5.61118 69.1421 4.44717L69.0495 0.956281L69.6087 1.51656L65.53 1.62519L61.4503 1.70294L53.2919 1.82872L45.1336 1.89961C42.4145 1.92705 39.6954 1.9019 36.9752 1.90533L20.6585 1.76354L12.5002 1.63662L4.3418 1.44452L4.83119 0.956281L4.68368 7.93805L4.63909 11.4289L4.61736 14.9198L4.3418 14.6443C5.70248 14.6545 7.06201 14.65 8.42155 14.6397C9.78108 14.6351 11.1406 14.626 12.5002 14.5985C15.2204 14.5688 17.9394 14.4716 20.6585 14.4076L28.8169 14.1995C31.5371 14.1434 34.2562 14.1183 36.9752 14.1183C38.3359 14.1103 39.6954 14.132 41.055 14.1366L45.1336 14.1629C47.8538 14.2052 50.5729 14.2258 53.2919 14.2886C56.0122 14.339 58.7312 14.4133 61.4503 14.4945L65.53 14.6488C66.8587 14.6946 68.1874 14.754 69.516 14.8261ZM69.6087 15.009C68.2491 15.0822 66.8896 15.1428 65.53 15.1897L61.4503 15.3452C58.7312 15.4264 56.0122 15.4995 53.2919 15.5499C50.5729 15.6127 47.8538 15.6333 45.1336 15.6756L41.055 15.7019C39.6954 15.7076 38.3359 15.7282 36.9752 15.7202C34.2562 15.7202 31.5371 15.6951 28.8169 15.639L20.6585 15.4309C17.9394 15.3669 15.2204 15.2697 12.5002 15.24C11.1406 15.2137 9.78108 15.2045 8.42155 15.1988C7.06201 15.1885 5.70248 15.1851 4.3418 15.1942L4.06852 15.1965L4.06738 14.9198L4.04565 11.4289L4.00106 7.93805L3.85356 0.956281L3.84326 0.479471L4.3418 0.466894L12.5002 0.275941L20.6585 0.14902L36.9752 0.00723553C39.6954 0.0106659 42.4145 -0.0144892 45.1336 0.0129528L53.2919 0.0827017L61.4503 0.208478L65.53 0.287375L69.6087 0.396001L70.1838 0.412009L70.1689 0.956281L70.0752 4.44717C70.0432 5.61118 70.0191 6.77404 69.9711 7.93805C69.8819 10.2649 69.8133 12.5918 69.6978 14.9198L69.6944 15.0044L69.6087 15.009Z" fill="#0C172F"/>
<path d="M69.6087 0.509816C70.0855 0.650458 70.552 0.808251 71.0174 0.971762C71.485 1.12841 71.9401 1.31136 72.4021 1.47944C72.8617 1.64981 73.3122 1.84191 73.7685 2.02143C74.2247 2.20095 74.6741 2.39419 75.1246 2.58514L75.455 2.72578L75.4916 3.18772C75.638 5.06866 75.7043 6.9496 75.7066 8.83054C75.7066 10.7115 75.6403 12.5924 75.4939 14.4734L75.4413 15.1503L74.8673 15.1514C74.3905 15.1514 73.9137 15.156 73.4357 15.1434C72.9578 15.1331 72.481 15.1331 72.003 15.1125C71.5239 15.0885 71.046 15.0794 70.5657 15.0416C70.0866 15.0119 69.6064 14.9753 69.125 14.9193C69.5927 14.7889 70.0603 14.678 70.5291 14.574C70.9979 14.4619 71.4679 14.3785 71.9367 14.2801C72.4066 14.1852 72.8777 14.1109 73.3488 14.0251C73.8188 13.9394 74.2899 13.8696 74.761 13.7953L74.1344 14.4734C73.9891 12.5924 73.9217 10.7115 73.9228 8.83054C73.9251 6.9496 73.9903 5.06866 74.1378 3.18772L74.5048 3.78917C74.0875 3.53418 73.669 3.28149 73.2573 3.01392C72.8457 2.74865 72.4284 2.49366 72.0213 2.2181C71.6154 1.94025 71.2026 1.67611 70.8036 1.38683C70.3999 1.10326 69.9997 0.815112 69.6087 0.509816Z" fill="#0C172F"/>
<path d="M73.9964 14.9194L74.0959 18.4892C74.0971 18.5441 74.0536 18.5898 73.9987 18.591C73.9439 18.5933 73.8993 18.5498 73.897 18.4949C73.897 18.4926 73.897 18.4904 73.897 18.4892L73.9964 14.9194Z" fill="#0C172F"/>
<path d="M74.1801 22.0593L74.2545 25.6291C74.2567 25.7709 74.1447 25.8886 74.0018 25.8921C73.86 25.8943 73.7422 25.7823 73.7388 25.6394C73.7388 25.6371 73.7388 25.6325 73.7388 25.6291L73.8131 22.0593C73.8154 21.9575 73.8989 21.8775 74.0006 21.8798C74.099 21.8821 74.1778 21.961 74.1801 22.0593Z" fill="#0C172F"/>
<path d="M74.3278 29.199L74.4022 32.7687C74.4067 32.9928 74.2284 33.1781 74.0043 33.1827C73.7813 33.1872 73.596 33.0089 73.5903 32.7859C73.5903 32.7802 73.5903 32.7733 73.5903 32.7687L73.6647 29.199C73.6692 29.016 73.8202 28.8708 74.0031 28.8742C74.1815 28.8776 74.3244 29.0217 74.3278 29.199Z" fill="#0C172F"/>
<path d="M74.4668 36.3388L74.5205 39.9086C74.5239 40.1979 74.2941 40.4357 74.0048 40.4403C73.7155 40.4437 73.4777 40.2139 73.4731 39.9246C73.4731 39.92 73.4731 39.9131 73.4731 39.9086L73.5269 36.3388C73.5303 36.0792 73.7441 35.8711 74.0037 35.8757C74.2587 35.8791 74.4622 36.0861 74.4668 36.3388Z" fill="#0C172F"/>
<path d="M74.5733 43.4786L74.6214 47.0484C74.6259 47.3937 74.3492 47.6773 74.005 47.6818C73.6597 47.6864 73.3762 47.4097 73.3716 47.0655C73.3716 47.0609 73.3716 47.0529 73.3716 47.0484L73.4196 43.4786C73.4242 43.1596 73.6849 42.9046 74.0039 42.9092C74.3172 42.9137 74.5688 43.1676 74.5733 43.4786Z" fill="#0C172F"/>
<path d="M74.6602 50.6183L74.6991 54.1881C74.7025 54.5757 74.3926 54.8936 74.005 54.897C73.6174 54.9016 73.2995 54.5906 73.2949 54.203C73.2949 54.1996 73.2949 54.1915 73.2949 54.1881L73.3338 50.6183C73.3372 50.2524 73.638 49.9586 74.0038 49.962C74.3652 49.9666 74.6556 50.2593 74.6602 50.6183Z" fill="#0C172F"/>
<path d="M74.7367 57.7581L74.7653 61.3279C74.7687 61.7521 74.4268 62.0986 74.0026 62.102C73.5784 62.1055 73.2319 61.7647 73.2285 61.3405V61.3279L73.2571 57.7581C73.2594 57.3499 73.5933 57.0206 74.0026 57.0241C74.4074 57.0275 74.7333 57.3545 74.7367 57.7581Z" fill="#0C172F"/>
<path d="M74.7882 64.898L74.811 68.4677C74.8145 68.9182 74.452 69.2853 74.0015 69.2876C73.5521 69.291 73.1851 68.9285 73.1816 68.478V68.4677L73.2045 64.898C73.2079 64.4612 73.5647 64.109 74.0015 64.1113C74.4348 64.1147 74.7847 64.4657 74.7882 64.898Z" fill="#0C172F"/>
<path d="M74.8342 72.0377L74.8525 75.6075C74.8548 76.0809 74.474 76.4662 74.0007 76.4685C73.5273 76.4708 73.1419 76.0889 73.1396 75.6166V75.6075L73.1579 72.0377C73.1602 71.5746 73.5376 71.2019 74.0007 71.2042C74.4603 71.2064 74.8319 71.5792 74.8342 72.0377Z" fill="#0C172F"/>
<path d="M74.8612 79.1774L74.8692 82.7471C74.8704 83.2285 74.4804 83.6196 73.9991 83.6207C73.5177 83.6219 73.1255 83.232 73.1255 82.7506V82.7471L73.1323 79.1774C73.1335 78.6994 73.5211 78.3141 73.9991 78.3152C74.4759 78.3164 74.8624 78.6994 74.8612 79.1774Z" fill="#0C172F"/>
<path d="M74.876 86.3171L74.884 89.8869C74.8851 90.3774 74.4883 90.7753 73.9978 90.7765C73.5084 90.7776 73.1105 90.3809 73.1094 89.8903V89.8869L73.1162 86.3171C73.1174 85.8312 73.5119 85.4378 73.9978 85.439C74.4838 85.4401 74.8771 85.8312 74.876 86.3171Z" fill="#0C172F"/>
<path d="M74.8864 93.457L74.883 95.1116L74.8807 96L73.9968 95.9977L72.0816 95.9943C71.5945 95.9931 71.2 95.5975 71.2012 95.1104C71.2023 94.6222 71.5945 94.2288 72.0816 94.23L73.9968 94.2254L73.1107 95.1116L73.1073 93.457C73.1061 92.9653 73.5029 92.5663 73.9946 92.5651C74.4862 92.564 74.8853 92.9619 74.8864 93.4536V93.457Z" fill="#0C172F"/>
<path d="M68.5119 95.9865L64.9421 95.9784C64.463 95.9773 64.0765 95.5885 64.0776 95.1106C64.0788 94.6315 64.463 94.245 64.9421 94.245L68.5119 94.2381C68.9944 94.237 69.3866 94.6269 69.3877 95.1106C69.3889 95.5931 68.999 95.9853 68.5153 95.9865H68.5119Z" fill="#0C172F"/>
<path d="M61.3718 95.9707L57.802 95.957C57.3355 95.9547 56.9582 95.5751 56.9605 95.1086C56.9627 94.6443 57.3389 94.2693 57.802 94.267L61.3718 94.2533C61.8463 94.251 62.2317 94.634 62.2339 95.1086C62.2362 95.5831 61.8532 95.9684 61.3787 95.9707H61.3718Z" fill="#0C172F"/>
<path d="M54.2318 95.9333L50.662 95.9105C50.2207 95.9071 49.8662 95.548 49.8697 95.1067C49.8719 94.6699 50.2264 94.3165 50.662 94.3143L54.2318 94.2902C54.6858 94.288 55.0562 94.6527 55.0585 95.1067C55.062 95.5606 54.6961 95.9299 54.2421 95.9333H54.2318Z" fill="#0C172F"/>
<path d="M47.0926 95.8865L43.5229 95.8625C43.1089 95.859 42.7751 95.5206 42.7774 95.1067C42.7808 94.6962 43.1135 94.3646 43.5229 94.3611L47.0926 94.3371C47.5203 94.3337 47.8702 94.679 47.8725 95.1067C47.8759 95.5343 47.5306 95.8842 47.1029 95.8865H47.0926Z" fill="#0C172F"/>
<path d="M39.9526 95.8232L36.3828 95.7844C36.0112 95.7809 35.7128 95.4756 35.7173 95.1052C35.7208 94.7381 36.0181 94.4431 36.3828 94.4385L39.9526 94.4008C40.3459 94.3962 40.6672 94.7107 40.6718 95.104C40.6764 95.4974 40.3608 95.8187 39.9686 95.8232H39.9526Z" fill="#0C172F"/>
<path d="M32.813 95.7461L29.2432 95.7015C28.9173 95.6981 28.6566 95.4305 28.6612 95.1046C28.6646 94.7845 28.9242 94.5261 29.2432 94.5226L32.813 94.478C33.1629 94.4735 33.451 94.7536 33.4544 95.1046C33.459 95.4545 33.1789 95.7415 32.829 95.7461H32.813Z" fill="#0C172F"/>
<path d="M25.6728 95.6478L22.103 95.5941C21.8366 95.5895 21.6239 95.3711 21.6285 95.1047C21.6319 94.8429 21.8435 94.6336 22.103 94.6302L25.6728 94.5753C25.9689 94.5719 26.2125 94.8074 26.2171 95.1036C26.2216 95.3997 25.985 95.6433 25.6888 95.6478H25.6728Z" fill="#0C172F"/>
<path d="M18.5335 95.5334L14.9637 95.4591C14.7716 95.4546 14.6196 95.2968 14.6241 95.1047C14.6276 94.9183 14.7785 94.7685 14.9637 94.7651L18.5335 94.6907C18.7668 94.685 18.9589 94.8703 18.9634 95.1035C18.9691 95.3356 18.7839 95.5289 18.5507 95.5334H18.5335Z" fill="#0C172F"/>
<path d="M11.3937 95.3844L8.07659 95.3158L7.86963 95.3112L7.87306 95.1123L7.87878 94.8584C7.88106 94.7498 7.97139 94.6618 8.08116 94.6652C8.1875 94.6663 8.27326 94.7532 8.27555 94.8584L8.28012 95.1123L8.07659 94.9087L11.3937 94.839C11.5446 94.8356 11.6692 94.9556 11.6715 95.1065C11.675 95.2563 11.556 95.381 11.4051 95.3844C11.4017 95.3844 11.3971 95.3844 11.3937 95.3844Z" fill="#0C172F"/>
<path d="M7.9585 91.289L8.05797 87.7192C8.05912 87.7089 8.06712 87.7009 8.07741 87.7009C8.0877 87.7009 8.09456 87.7101 8.09571 87.7192L8.19519 91.289C8.19747 91.3542 8.14602 91.4091 8.0797 91.4102C8.01452 91.4125 7.96078 91.361 7.9585 91.2959C7.9585 91.2936 7.9585 91.2913 7.9585 91.289Z" fill="#0C172F"/>
<path d="M37.5254 24.1578C37.2213 24.4756 36.9354 24.8164 36.6004 25.1057C36.4254 25.2657 36.2551 25.4304 36.0767 25.5859L35.5187 26.0273C35.3369 26.1805 35.1368 26.3097 34.9424 26.4446C34.7446 26.5761 34.5559 26.7236 34.3478 26.8391L33.7338 27.2061C33.5269 27.3228 33.3119 27.4268 33.1004 27.5377C32.8911 27.6521 32.6739 27.7504 32.4543 27.8453C32.2348 27.9391 32.0198 28.0477 31.7957 28.1277C31.3498 28.3004 30.9015 28.4685 30.4419 28.6011C29.9845 28.7418 29.5191 28.8561 29.0526 28.959C28.585 29.0631 28.1139 29.1465 27.6405 29.2186C27.1671 29.2826 26.6926 29.3478 26.2158 29.3821C25.739 29.4267 25.261 29.4461 24.7831 29.4633C24.3051 29.4758 23.8272 29.4758 23.3492 29.4633C22.8713 29.4484 22.3944 29.4267 21.9176 29.3889C20.964 29.3192 20.015 29.1968 19.0728 29.0276C18.6017 28.9396 18.1317 28.8492 17.6629 28.7395C17.1907 28.6286 16.739 28.5176 16.2474 28.3656L17.2296 27.7836C17.0718 28.9144 16.9757 30.1082 16.8946 31.2767C16.8145 32.4522 16.7859 33.6322 16.7665 34.8099C16.7585 37.1677 16.8385 39.5243 17.0615 41.8672C17.169 43.0392 17.3188 44.2055 17.4926 45.3672L17.7704 47.1075L18.1032 48.8364C18.3604 49.9809 18.62 51.1243 18.9493 52.2483C19.0957 52.8166 19.2683 53.3758 19.4478 53.9326C19.6239 54.4906 19.7909 55.0532 20.0035 55.5974C20.2105 56.1451 20.3957 56.7008 20.6198 57.2417L21.3059 58.8562C21.8113 59.9082 22.2973 60.975 22.893 61.9801C23.4407 63.0137 24.1027 63.9765 24.7339 64.9598C25.4337 65.894 26.0957 66.8591 26.8687 67.7372C27.5902 68.6588 28.4329 69.4718 29.2344 70.3248C29.6598 70.7261 30.0989 71.1138 30.5299 71.5094C30.7483 71.7049 30.961 71.9073 31.184 72.0971L31.8735 72.6425C32.3343 73.005 32.7836 73.3823 33.2547 73.7345L34.7069 74.7338C34.9516 74.8974 35.1871 75.0746 35.4387 75.2278L36.2002 75.6749L37.7255 76.5702L37.5048 76.5176L37.5357 76.5187L37.315 76.5713L38.8804 75.7458L39.6648 75.3319C39.9243 75.1901 40.1679 75.0231 40.4206 74.8711L41.9253 73.9334C42.4147 73.6019 42.8847 73.2428 43.3661 72.8986L44.0796 72.3704C44.3094 72.184 44.5301 71.9862 44.7553 71.7952C45.2024 71.4088 45.6575 71.0291 46.1 70.6347C46.9347 69.7954 47.8003 68.9836 48.5526 68.0654C49.3599 67.1952 50.038 66.2199 50.7492 65.272C51.3918 64.2761 52.0744 63.3053 52.6175 62.2488C52.9057 61.7319 53.1995 61.2174 53.4442 60.6777C53.6969 60.1414 53.9691 59.6154 54.1989 59.07L54.8655 57.4246C55.0816 56.8746 55.26 56.3087 55.459 55.7529C55.6648 55.1984 55.8237 54.629 55.9918 54.0618C56.1622 53.497 56.3302 52.931 56.464 52.3547C56.767 51.2135 57.0014 50.0552 57.2313 48.8981L57.524 47.1521L57.763 45.3992C57.9116 44.2295 58.0374 43.0563 58.1197 41.8797C58.2158 40.7043 58.2832 39.5266 58.3164 38.3477C58.3484 37.1688 58.3621 35.9888 58.3484 34.8088C58.3198 33.6288 58.2821 32.4487 58.194 31.2733C58.1026 30.1036 58.0042 28.911 57.8384 27.779L58.752 28.3507C58.2626 28.4788 57.811 28.5714 57.341 28.6629C56.8745 28.7543 56.408 28.8275 55.9392 28.8984C55.0039 29.0356 54.0628 29.1271 53.1184 29.174C52.6473 29.2003 52.1739 29.2117 51.7016 29.2174C51.2294 29.2197 50.7572 29.2128 50.2849 29.1945C49.8127 29.1705 49.3405 29.1488 48.8694 29.0985C48.3983 29.0585 47.9295 28.991 47.4618 28.9236C45.5935 28.6377 43.748 28.13 42.0385 27.3216L41.4016 27.0129L40.7831 26.6699C40.3726 26.4389 39.9769 26.1805 39.5893 25.9152L39.0199 25.5013C38.8335 25.3595 38.6574 25.1983 38.4768 25.0485C38.1314 24.7718 37.8387 24.4573 37.5254 24.1578ZM37.578 23.9599C37.9439 24.2412 38.295 24.5557 38.678 24.8015C39.0473 25.0691 39.4372 25.308 39.8271 25.5459C40.2228 25.7746 40.623 25.9941 41.0358 26.1873L41.6566 26.472L42.2924 26.7213C43.9961 27.3605 45.7856 27.7332 47.5887 27.9162C48.0404 27.9551 48.492 27.9951 48.946 28.0077C49.3988 28.0328 49.8539 28.0374 50.3067 28.0397C50.7606 28.0385 51.2146 28.026 51.6673 28.0042C52.1213 27.9791 52.5741 27.9494 53.0257 27.9059C53.9302 27.8179 54.8301 27.6967 55.7242 27.5446C56.1702 27.4645 56.6161 27.3822 57.0575 27.2827C57.4931 27.1856 57.947 27.0781 58.3507 26.9591C58.7326 26.8471 59.1339 27.0666 59.2448 27.4485C59.2528 27.4748 59.2586 27.5011 59.2631 27.5274L59.2643 27.5309C59.477 28.7578 59.613 29.9424 59.7171 31.1532C59.8234 32.3584 59.8783 33.5659 59.9217 34.7733C59.9481 35.9808 59.9652 37.1894 59.9149 38.3969C59.8726 39.6055 59.804 40.8118 59.6896 42.0158C59.5719 43.2198 59.4106 44.4181 59.2243 45.6119C59.1202 46.2088 59.0139 46.8033 58.8961 47.3968L58.5073 49.1668C58.2123 50.34 57.9128 51.5108 57.5434 52.6611C57.3776 53.242 57.1764 53.8114 56.9717 54.3797C56.7693 54.9491 56.5772 55.5197 56.3382 56.0754C56.1061 56.6322 55.8946 57.1971 55.6442 57.7459L54.8792 59.3845C54.3178 60.4501 53.7998 61.5387 53.1572 62.5586C52.5626 63.606 51.872 64.5928 51.2054 65.5944C50.4713 66.5469 49.7715 67.5268 48.9666 68.4221C48.213 69.3632 47.3315 70.1864 46.5025 71.0589C46.0634 71.4694 45.6095 71.8661 45.1635 72.272C44.9383 72.471 44.7187 72.678 44.4889 72.8723L43.7765 73.4281C43.302 73.7997 42.8378 74.1861 42.3541 74.5452L40.8585 75.5651C40.6081 75.7321 40.3646 75.9127 40.1061 76.0694L39.324 76.5245L37.7575 77.4369C37.6992 77.4712 37.6352 77.4884 37.5723 77.4895L37.5357 77.4907H37.5048C37.4271 77.4929 37.3528 77.4746 37.2887 77.4415L37.283 77.4381L35.6765 76.5953L34.8715 76.1734C34.6063 76.0282 34.3547 75.859 34.0951 75.7023L32.5469 74.7441C32.045 74.4045 31.5602 74.0375 31.0651 73.6842L30.3287 73.1456C30.092 72.9558 29.8645 72.7534 29.6312 72.5579C29.1693 72.1611 28.7004 71.7724 28.2442 71.3687C27.3821 70.51 26.4776 69.6868 25.6932 68.7503C24.854 67.863 24.1382 66.8728 23.3927 65.9054C22.7146 64.8924 22.0045 63.8964 21.4134 62.8285C20.7731 61.788 20.2448 60.688 19.6982 59.5983L18.9516 57.9289C18.7092 57.3698 18.5045 56.7969 18.2792 56.2298C18.0483 55.666 17.8642 55.0863 17.6698 54.5089C17.4743 53.9326 17.2787 53.3552 17.1244 52.7675C16.7802 51.5989 16.5069 50.4143 16.2394 49.2297L15.8906 47.4414C15.7854 46.8434 15.6974 46.2431 15.6013 45.6439C15.439 44.441 15.3029 43.2358 15.2103 42.0284C15.1119 40.8209 15.0525 39.6112 15.0228 38.4003C14.9873 37.1905 15.0079 35.9797 15.0445 34.771C15.0971 33.5624 15.16 32.355 15.2766 31.1498C15.3898 29.9389 15.5282 28.7532 15.7488 27.5263L15.7511 27.5149C15.8243 27.1101 16.2119 26.8402 16.6167 26.9134C16.6544 26.9203 16.6956 26.9317 16.7322 26.9443C17.129 27.0838 17.5818 27.2153 18.0151 27.3342C18.453 27.4543 18.8978 27.5583 19.3438 27.6589C20.2368 27.851 21.139 28.0065 22.0468 28.1277C22.5008 28.1872 22.9559 28.2329 23.4121 28.2718C23.8683 28.3073 24.3245 28.3313 24.7819 28.3438C25.2393 28.3507 25.6978 28.3576 26.154 28.3381C26.6125 28.3313 27.0676 28.2924 27.5239 28.2547C27.9789 28.2112 28.4329 28.1552 28.8834 28.0797C29.3339 28.0042 29.7844 27.9185 30.2269 27.8076L30.8935 27.6418L31.551 27.4462C31.7728 27.3845 31.9832 27.2953 32.2005 27.2221C32.4166 27.1467 32.6327 27.0678 32.8408 26.9729C33.0512 26.8803 33.265 26.7956 33.472 26.6984L34.0883 26.3886C34.2975 26.2914 34.4885 26.1622 34.6897 26.0501C34.8875 25.9324 35.0899 25.8214 35.2774 25.6865L35.8503 25.2966L36.4003 24.8758C36.7788 24.6037 37.1024 24.271 37.458 23.9679L37.4591 24.0937L37.4557 24.0891C37.4225 24.0537 37.4248 23.9965 37.4614 23.9634C37.4934 23.9336 37.5437 23.9336 37.578 23.9599Z" fill="#0C172F"/>
<path d="M37.5795 30.3276C37.5795 30.3276 37.7521 30.4728 38.0163 30.6695C38.2816 30.8696 38.6486 31.1155 39.0248 31.3419C39.7749 31.8027 40.5867 32.1308 40.5867 32.1308C40.7411 32.1937 40.8165 32.3709 40.7536 32.5264C40.6908 32.6808 40.5135 32.7563 40.3592 32.6934C40.3489 32.6888 40.3386 32.6842 40.3283 32.6785L40.3226 32.6762C40.3226 32.6762 39.5142 32.2394 38.7938 31.6803C38.4325 31.4036 38.0963 31.0983 37.8528 30.8616C37.6081 30.6226 37.4583 30.4591 37.4583 30.4591L37.456 30.4557C37.4228 30.4203 37.4251 30.3631 37.4617 30.3299C37.4949 30.299 37.5452 30.299 37.5795 30.3276Z" fill="#0C172F"/>
<path d="M43.925 33.0723C43.925 33.0723 44.1411 33.1032 44.4658 33.1512C44.7883 33.1936 45.2205 33.2381 45.6539 33.2633C46.5217 33.317 47.3919 33.3022 47.3919 33.3022C47.7132 33.2976 47.9773 33.5537 47.983 33.875C47.9887 34.1963 47.7315 34.4605 47.4102 34.4662C47.4033 34.4662 47.3953 34.4662 47.3873 34.4662H47.3782C47.3782 34.4662 46.46 34.441 45.5498 34.3095C45.0959 34.2478 44.6431 34.1678 44.3058 34.098C43.9719 34.0237 43.7489 33.9734 43.7489 33.9734C43.5008 33.9185 43.3453 33.6738 43.4002 33.4257C43.4528 33.1901 43.678 33.0369 43.9136 33.0701L43.925 33.0723Z" fill="#0C172F"/>
<path d="M50.8492 32.9831C51.2814 32.9145 51.6782 32.8402 52.0955 32.7521L52.7072 32.6115L53.0091 32.5349L53.295 32.4537L54.0828 32.233L54.2086 33.0254L54.3664 34.0179C54.4304 34.4227 54.1548 34.8023 53.7501 34.8663C53.3464 34.9315 52.9657 34.6548 52.9016 34.25C52.9005 34.242 52.8993 34.234 52.8982 34.226L52.8948 34.1986L52.7827 33.2735L53.6963 33.8453L53.3533 33.9287L53.0217 34.0008L52.3619 34.1265C51.9286 34.202 51.4701 34.2706 51.0424 34.3221H51.0356C50.6651 34.3667 50.3278 34.1025 50.2832 33.7321C50.2397 33.3696 50.4924 33.0403 50.8492 32.9831Z" fill="#0C172F"/>
<path d="M54.6911 37.6619L54.7151 39.4456C54.7322 40.3375 54.73 41.2305 54.73 41.2305C54.73 41.6719 54.3709 42.0298 53.9284 42.0298C53.4905 42.0286 53.1349 41.6753 53.1303 41.2385C53.1303 41.2385 53.1189 40.3467 53.1257 39.4548C53.1292 38.5618 53.1326 37.6699 53.1326 37.6699C53.1337 37.24 53.4836 36.8912 53.9147 36.8935C54.34 36.8947 54.6854 37.2377 54.6911 37.6619Z" fill="#0C172F"/>
<path d="M54.4595 44.9056C54.4595 44.9056 54.3177 45.786 54.1748 46.6676C54.0307 47.548 53.8695 48.4262 53.8695 48.4262C53.8009 48.7989 53.4418 49.0471 53.0679 48.9785C52.7135 48.9133 52.4733 48.5828 52.5077 48.2307C52.5077 48.2307 52.5991 47.3422 52.7078 46.4561C52.8175 45.5711 52.9284 44.686 52.9284 44.686C52.981 44.2618 53.3675 43.9611 53.7917 44.0137C54.2159 44.0663 54.5167 44.4528 54.4641 44.877C54.4629 44.885 54.4606 44.8976 54.4595 44.9056Z" fill="#0C172F"/>
<path d="M52.9397 51.9597C52.9397 51.9597 52.8711 52.1747 52.767 52.4971C52.6607 52.8207 52.5132 53.2484 52.3577 53.6737C52.0478 54.5244 51.6899 55.3557 51.6899 55.3557C51.5939 55.5833 51.3309 55.6896 51.1033 55.5935C50.8861 55.5009 50.7809 55.254 50.8563 55.0333C50.8563 55.0333 51.1479 54.2009 51.3915 53.3547C51.5138 52.9328 51.6293 52.5074 51.7105 52.1873C51.7905 51.866 51.8431 51.6522 51.8431 51.6522L51.8443 51.6476C51.9209 51.3423 52.2296 51.157 52.5349 51.2325C52.8402 51.3091 53.0266 51.6178 52.95 51.9231C52.9465 51.9346 52.9431 51.9483 52.9397 51.9597Z" fill="#0C172F"/>
<path d="M50.1067 58.6049C50.1067 58.6049 49.9969 58.8016 49.8323 59.0966C49.6653 59.3904 49.4355 59.7781 49.1977 60.16C48.7243 60.9283 48.212 61.6693 48.212 61.6693C48.124 61.7985 47.9491 61.8316 47.8198 61.7436C47.6906 61.6556 47.6586 61.4795 47.7455 61.3514C47.7455 61.3514 48.2463 60.6219 48.682 59.8535C49.1222 59.0851 49.5098 58.2916 49.5098 58.2916C49.591 58.1247 49.7934 58.0549 49.9603 58.1372C50.1284 58.2184 50.197 58.4208 50.1158 58.5877C50.1124 58.5935 50.109 58.5992 50.1067 58.6049Z" fill="#0C172F"/>
<path d="M45.9872 64.505C45.9872 64.505 45.3926 65.1842 44.7512 65.8165C44.12 66.4603 43.4431 67.0594 43.4431 67.0594L43.4408 67.0606C43.3116 67.1749 43.1149 67.1635 43.0006 67.0343C42.8863 66.905 42.8977 66.7072 43.0269 66.5929C43.0292 66.5906 43.0326 66.5883 43.0349 66.586C43.0349 66.586 43.7152 66.0235 44.351 65.4106C44.9879 64.7954 45.5767 64.1357 45.5767 64.1357C45.6785 64.0225 45.8523 64.0133 45.9666 64.1151C46.0787 64.2157 46.089 64.3884 45.9895 64.5016L45.9872 64.505Z" fill="#0C172F"/>
<path d="M40.6091 69.3039C40.1528 69.6229 39.6829 69.9317 39.2072 70.2267C38.7304 70.5205 38.2456 70.8018 37.7528 71.0705L37.6624 71.1197L37.5321 71.1231L37.5081 71.1243L37.404 71.1277L37.2863 71.0717L37.0713 70.9676C36.8243 70.851 36.7203 70.556 36.838 70.309C36.9547 70.0631 37.2497 69.958 37.4967 70.0757C37.5058 70.0803 37.5138 70.0837 37.5218 70.0883L37.5264 70.0906L37.7288 70.2038L37.5081 70.15L37.5321 70.1512L37.3114 70.2038C37.8019 69.9705 38.2868 69.7247 38.7647 69.4651C39.2427 69.2044 39.7115 68.9323 40.1768 68.6441C40.3621 68.5287 40.6056 68.5858 40.72 68.7711C40.8309 68.9494 40.7817 69.1827 40.6125 69.3016L40.6091 69.3039Z" fill="#0C172F"/>
<path d="M33.8891 69.1967C33.8891 69.1967 33.6993 69.0721 33.4134 68.8857C33.1287 68.6959 32.7536 68.4352 32.3855 68.1642C31.6491 67.6211 30.9528 67.023 30.9528 67.023L30.9482 67.0196C30.6509 66.7635 30.6166 66.3153 30.8716 66.018C31.1277 65.7207 31.5759 65.6864 31.8732 65.9414C31.8824 65.9494 31.8915 65.9574 31.8995 65.9654C31.8995 65.9654 32.5307 66.5634 33.2053 67.1179C33.5392 67.3981 33.8811 67.6691 34.1418 67.868C34.4048 68.0647 34.5808 68.1973 34.5808 68.1973L34.5866 68.2019C34.8553 68.4032 34.9102 68.7839 34.7089 69.0526C34.5157 69.311 34.1555 69.3693 33.8891 69.1967Z" fill="#0C172F"/>
<path d="M28.3334 64.4523C28.3334 64.4523 28.1836 64.2796 27.9583 64.0212C27.7342 63.7605 27.4426 63.4049 27.1625 63.0413C26.5999 62.3152 26.0877 61.5514 26.0877 61.5514L26.0842 61.5457C25.8293 61.1638 25.931 60.6481 26.3129 60.3919C26.6937 60.137 27.2105 60.2387 27.4655 60.6206C27.4689 60.6252 27.4735 60.6332 27.4769 60.6366C27.4769 60.6366 27.9423 61.3696 28.4569 62.0671C28.7141 62.4158 28.9783 62.76 29.1807 63.015C29.3865 63.2688 29.5248 63.438 29.5248 63.438L29.5305 63.446C29.8027 63.7811 29.7524 64.2739 29.4162 64.546C29.088 64.8124 28.6089 64.7678 28.3334 64.4523Z" fill="#0C172F"/>
<path d="M24.2208 58.3876C24.2208 58.3876 24.1179 58.1841 23.9647 57.8777C23.8126 57.5689 23.6159 57.155 23.4295 56.7354C23.0545 55.8984 22.7286 55.042 22.7286 55.042L22.7275 55.0362C22.5468 54.5629 22.7846 54.0335 23.258 53.8528C23.7325 53.6733 24.2619 53.9111 24.4415 54.3845C24.4438 54.3902 24.4472 54.3994 24.4495 54.4051C24.4495 54.4051 24.7376 55.2249 25.0749 56.0265C25.2419 56.4278 25.418 56.8246 25.5552 57.1196C25.6947 57.4157 25.7884 57.6124 25.7884 57.6124L25.7919 57.6215C25.9988 58.0583 25.8124 58.5797 25.3756 58.7855C24.9457 58.9891 24.4335 58.8096 24.2208 58.3876Z" fill="#0C172F"/>
<path d="M21.5981 51.5577C21.5981 51.5577 21.5421 51.337 21.4563 51.0066C21.3728 50.6738 21.2676 50.229 21.1704 49.7831C20.9749 48.8912 20.8206 47.9913 20.8206 47.9913V47.9868C20.7314 47.4665 21.0801 46.9725 21.6004 46.8845C22.1206 46.7953 22.6135 47.1441 22.7026 47.6643V47.6666C22.7026 47.6666 22.8479 48.5288 23.0319 49.3806C23.1234 49.8071 23.2229 50.2325 23.3018 50.5492C23.3818 50.8671 23.4367 51.0797 23.4367 51.0797L23.4379 51.0877C23.5671 51.5966 23.2595 52.1134 22.7518 52.2426C22.243 52.3707 21.7273 52.0665 21.5981 51.5577Z" fill="#0C172F"/>
<path d="M20.3662 44.3417L20.2027 40.7742C20.1787 40.2802 20.5618 39.8606 21.0557 39.8366C21.5451 39.8137 21.9602 40.1887 21.9933 40.6747L22.2266 44.2376C22.2609 44.751 21.8721 45.1947 21.3587 45.229C20.8453 45.2633 20.4017 44.8745 20.3674 44.3611C20.3674 44.3565 20.3662 44.3462 20.3662 44.3417Z" fill="#0C172F"/>
<path d="M20.3177 37.1093L20.36 36.5456C20.3875 36.206 20.4275 35.7532 20.4767 35.3015C20.5681 34.3971 20.7202 33.4915 20.7202 33.4915C20.7911 33.0764 21.1844 32.7963 21.6007 32.8671C21.9997 32.9346 22.2741 33.3016 22.2318 33.6984L22.2307 33.703C22.2307 33.703 22.1381 34.5686 22.0763 35.4444C22.0443 35.8812 22.0214 36.3203 22.0077 36.6485C21.9951 36.9789 21.986 37.1996 21.986 37.1996V37.2042C21.9688 37.665 21.5801 38.024 21.1193 38.0069C20.6573 37.9886 20.2983 37.6009 20.3166 37.139C20.3166 37.131 20.3166 37.1184 20.3177 37.1093Z" fill="#0C172F"/>
<path d="M24.6787 33.1779C24.6787 33.1779 24.8937 33.2156 25.215 33.2717C25.5363 33.3254 25.9651 33.3883 26.3973 33.434C27.2594 33.5335 28.1273 33.5472 28.1273 33.5472C28.4303 33.5518 28.6727 33.8022 28.6681 34.1064C28.6635 34.3957 28.4349 34.6301 28.1501 34.6461H28.1456C28.1456 34.6461 27.2263 34.6952 26.3081 34.6552C25.8484 34.6381 25.3911 34.6038 25.048 34.5706C24.7073 34.5329 24.4797 34.5088 24.4797 34.5088C24.1104 34.4677 23.8429 34.1361 23.8829 33.7668C23.924 33.3963 24.2556 33.1299 24.6261 33.1699C24.6398 33.171 24.6535 33.1733 24.6673 33.1756L24.6787 33.1779Z" fill="#0C172F"/>
<path d="M31.5723 33.2573C31.5723 33.2573 31.7941 33.2138 32.104 33.1384C32.4207 33.0663 32.8404 32.9543 33.2532 32.817C34.0821 32.5506 34.8597 32.1481 34.8597 32.1481C34.9889 32.0818 35.1467 32.1321 35.213 32.2602C35.2747 32.3814 35.2347 32.5278 35.1238 32.5998L35.1192 32.6021C35.1192 32.6021 34.3497 33.0995 33.5036 33.4642C33.0839 33.6495 32.6517 33.8107 32.3247 33.9182C31.9897 34.0245 31.7759 34.0817 31.7759 34.0817L31.7644 34.0851C31.5369 34.1457 31.3048 34.0108 31.243 33.7844C31.1824 33.558 31.3173 33.3247 31.5437 33.2641C31.5529 33.2618 31.5632 33.2596 31.5723 33.2573Z" fill="#0C172F"/>
</svg>
