<svg xmlns="http://www.w3.org/2000/svg" viewBox="0 0 130.09 146.2" xmlns:v="https://vecta.io/nano"><path d="M65.08 145.9a18.82 18.82 0 0 1-8.07-.34 19.08 19.08 0 0 1-7.32-3.7l-6-5.37-5.92-5.4-5.87-5.44-5.84-5.5c-3.9-3.66-7.67-7.43-11.46-11.2l-5.68-5.64c-.45-.46-1-.9-1.44-1.46a9.5 9.5 0 0 1-1.18-1.76 9.09 9.09 0 0 1-1-4.07A13.88 13.88 0 0 1 5.93 92c.17-.67.44-1.3.66-1.93s.53-1.25.85-1.85a46.41 46.41 0 0 1 4.28-6.84c1.6-2.16 3.35-4.2 5.12-6.22s3.67-3.93 5.6-5.8 3.87-3.72 5.87-5.5 4.06-3.5 6.1-5.23l1.16-1 .52 1.45L40 69.84l3.8 10.76 3.78 10.78 3.68 10.82 3.58 10.85 3.55 10.86 3.46 10.9 1.68 5.47.83 2.73.4 1.37.2.7.1.34.06.17v.15c0 .08.14-.15-.06.2zm0-.25c-.2.32-.06.08-.1.15v-.15l-.06-.17-.13-.33-.27-.66-.53-1.33-1-2.66-2.07-5.33L48.88 103l-3.82-10.74-3.7-10.8-3.65-10.83-3.63-10.83 1.68.48-6.23 5-6.08 5.17a124.63 124.63 0 0 0-5.77 5.5 72.64 72.64 0 0 0-5.27 6 41.06 41.06 0 0 0-4.29 6.66 21.47 21.47 0 0 0-1.42 3.66 12 12 0 0 0-.5 3.75 8.13 8.13 0 0 0 1 3.63 8.61 8.61 0 0 0 1.12 1.5c.42.45.94.85 1.46 1.32l6 5.34 11.87 10.76q2.94 2.73 5.83 5.5l5.78 5.53 11.44 11.15a19.18 19.18 0 0 0 6.64 3.91 19.78 19.78 0 0 0 7.72 1.01zm.52.1c1-3.73 2.13-7.4 3.2-11.12s2.22-7.38 3.37-11.06l3.48-11 3.6-11 1.85-5.47 1.9-5.45 3.93-10.88 3.9-10.88 1.87-5.47 1.82-5.48.17-.54.44.36 6.3 5.1 6.15 5.3c2 1.82 4 3.7 5.9 5.62a79.13 79.13 0 0 1 5.41 6.14 46.11 46.11 0 0 1 4.54 6.92 20.77 20.77 0 0 1 2.5 8.15 11.78 11.78 0 0 1-.56 4.46 10.11 10.11 0 0 1-2.45 3.85l-5.9 5.58q-5.87 5.56-11.8 11.07L93.25 130.9l-6 5.45-6.08 5.4a19.27 19.27 0 0 1-15.51 4.18zm.13-.1a19.23 19.23 0 0 0 14.55-5l5.73-5.67 5.8-5.65 11.62-11.26 11.75-11.13 5.93-5.5a8 8 0 0 0 2.4-6.4 18.82 18.82 0 0 0-2.11-7.26 44.54 44.54 0 0 0-4.12-6.72c-1.57-2.14-3.28-4.2-5-6.22s-3.63-3.94-5.55-5.82-3.88-3.72-5.9-5.5-4.1-3.5-6.18-5.2l.62-.18-1.83 5.48-1.77 5.5-3.4 11-3.4 11.14-1.73 5.52c-.57 1.84-1.2 3.66-1.8 5.5l-3.7 11-3.8 10.9q-1.94 5.45-3.92 10.88l-4.1 10.8z"/><path d="M12.12 15.3l-2.15 6.6-2 6.66L6 35.22l-2 6.66V42c-.26.7-.5 1.5-.7 2.27l-.5 2.3a34.86 34.86 0 0 0-.56 4.77 26 26 0 0 0 .27 4.75A22.68 22.68 0 0 0 3 58.4a18.87 18.87 0 0 0 .79 2.22 16.17 16.17 0 0 0 1.11 2.1 21.21 21.21 0 0 0 1.41 1.94l3.13 3.9 3.1 3.92 1.56 2 1.53 2-.58-.08q4.83-4.48 9.6-9l9.48-9.14-.24.6-.67-9.22-.55-9.23-.26-4.6-.24-4.6-.35-9.24-.2-9.24v-4a.65.65 0 0 0 0-.16 1.21 1.21 0 0 0 0-.14 1.15 1.15 0 0 0-1-.76 1 1 0 0 0-.35 0c-.1 0-.35.1-.52.16l-1.1.36-8.77 3-4.36 1.54a13.2 13.2 0 0 0-2.1.87 3.36 3.36 0 0 0-1.34 1.72zm-.24-.08a3.71 3.71 0 0 1 1.42-1.89 4.69 4.69 0 0 1 1.06-.51l1.08-.43 4.27-1.75L28.2 7l1.06-.46c.2-.08.3-.15.57-.24a2.58 2.58 0 0 1 .78-.16 2.79 2.79 0 0 1 2.65 1.61 2.08 2.08 0 0 1 .15.4c0 .15.08.34.1.4v.63l.3 3.45.6 9.23.42 9.23.14 4.6.12 4.62.23 9.24.1 9.62-.24.22-9.8 8.7q-4.9 4.38-9.75 8.9l-.3.3-.3-.4-1.5-1.94-1.6-1.9-3.32-3.72-3.38-3.65a21.74 21.74 0 0 1-1.66-2 20.3 20.3 0 0 1-1.37-2.24 18.56 18.56 0 0 1-1-2.42 20.13 20.13 0 0 1-.69-2.53 22.78 22.78 0 0 1-.47-5.2 27.58 27.58 0 0 1 .64-5.14l.64-2.5a25.29 25.29 0 0 1 .9-2.46v.07l2.47-6.5 2.5-6.48 2.45-6.5 2.3-6.55zm106.32-.02l2.3 6.55 2.45 6.5 2.5 6.48 2.47 6.5v-.07a22.92 22.92 0 0 1 .9 2.46l.65 2.5a26.76 26.76 0 0 1 .63 5.14 22.77 22.77 0 0 1-.41 5.2 19.85 19.85 0 0 1-1.73 5 19 19 0 0 1-1.38 2.24 21.74 21.74 0 0 1-1.66 2l-3.4 3.65-3.33 3.72-1.6 1.9-1.5 1.94-.26.37-.32-.3q-4.83-4.47-9.74-8.86L94.65 59.2v-.38l.1-9.24.22-9.24.13-4.62.14-4.6.42-9.23.6-9.23.3-3.45v-.63a2.38 2.38 0 0 1 .08-.41c0-.16.1-.27.15-.4a2.81 2.81 0 0 1 2.69-1.66 2.64 2.64 0 0 1 .79.16l.57.24 1.06.46 8.5 3.67 4.27 1.75 1.08.43a4.69 4.69 0 0 1 1.06.51 3.71 3.71 0 0 1 1.42 1.89zm-.24.08a3.36 3.36 0 0 0-1.34-1.72 13.6 13.6 0 0 0-2.1-.87l-4.35-1.55-8.77-3-1.1-.36c-.16 0-.4-.14-.5-.16a1.08 1.08 0 0 0-.35 0 1.14 1.14 0 0 0-1 .76v.44c0-.05 0 .07 0 .1v3.75l-.18 9.24-.35 9.24-.24 4.6-.26 4.6-.55 9.23-.67 9.22-.25-.6 9.5 9.14q4.76 4.55 9.6 9l-.57.08c.5-.74 1-1.37 1.52-2l1.56-2 3.12-3.92 3.13-3.9a21.21 21.21 0 0 0 1.41-1.94 15 15 0 0 0 1.1-2.1 15.84 15.84 0 0 0 .79-2.22 22.68 22.68 0 0 0 .52-2.31 25.11 25.11 0 0 0 .27-4.75 33.34 33.34 0 0 0-.55-4.77l-.55-2.35-.7-2.27v-.07l-2-6.66-4-13.33-2.1-6.57z"/><path d="M21.68 11.76a3.7 3.7 0 0 1-.26.62 8 8 0 0 1-.9 1.43 7 7 0 0 1-.75.83 7.88 7.88 0 0 1-1 .72 4.91 4.91 0 0 0-1 .85 6.24 6.24 0 0 0-.81 1.13 11.66 11.66 0 0 1-.75 1.17l-.83 1a9.93 9.93 0 0 1-1.69 1.64 10.1 10.1 0 0 1-2 1.27l-.1-.1a10.2 10.2 0 0 1 1.14-2.08 10.47 10.47 0 0 1 1.53-1.78l1-.9a11.59 11.59 0 0 1 1.12-.83 6.14 6.14 0 0 0 1.08-.87 4.57 4.57 0 0 0 .78-1.08 8.07 8.07 0 0 1 .66-1.09 6.49 6.49 0 0 1 .78-.79A8.2 8.2 0 0 1 21 12a4.12 4.12 0 0 1 .61-.3zM12.25 40.2a3.7 3.7 0 0 1-.26.62 8 8 0 0 1-.9 1.43 6.32 6.32 0 0 1-.75.83 7 7 0 0 1-1 .72 4.91 4.91 0 0 0-1 .85 6.24 6.24 0 0 0-.81 1.13A11.66 11.66 0 0 1 6.71 47l-.82 1a10 10 0 0 1-1.7 1.64 10.1 10.1 0 0 1-2 1.27l-.1-.1a10 10 0 0 1 1.14-2.07 10.14 10.14 0 0 1 1.53-1.79l1-.9a12.19 12.19 0 0 1 1.13-.83 6.07 6.07 0 0 0 1.07-.87 4.57 4.57 0 0 0 .78-1.08 7.37 7.37 0 0 1 .66-1.08 6 6 0 0 1 .78-.8 8.63 8.63 0 0 1 1.37-1 4.12 4.12 0 0 1 .61-.3zM23 29a4.43 4.43 0 0 1-.25.63 8.93 8.93 0 0 1-.92 1.37 6.26 6.26 0 0 1-.75.82 7.06 7.06 0 0 1-1 .73 4.91 4.91 0 0 0-1 .85 5.68 5.68 0 0 0-.8 1.12 12.39 12.39 0 0 1-.76 1.17l-.82 1a11.2 11.2 0 0 1-1.69 1.64 10.18 10.18 0 0 1-2 1.26l-.1-.1a9.91 9.91 0 0 1 1.1-2.02 10.51 10.51 0 0 1 1.53-1.79l1-.9a9.5 9.5 0 0 1 1.08-.79 6.55 6.55 0 0 0 1.07-.87 4.62 4.62 0 0 0 .78-1.13 9.08 9.08 0 0 1 .66-1.08 8.52 8.52 0 0 1 .78-.8 9.33 9.33 0 0 1 1.37-1 3.85 3.85 0 0 1 .61-.29zm1.7 27.3a4 4 0 0 1-.26.63 8.51 8.51 0 0 1-.91 1.43 6.16 6.16 0 0 1-.74.82 8.32 8.32 0 0 1-1 .73 4.72 4.72 0 0 0-1 .85 7.07 7.07 0 0 0-.8 1.12 9.76 9.76 0 0 1-.83 1.13l-.83 1.05a10.73 10.73 0 0 1-1.69 1.64 10.18 10.18 0 0 1-2 1.26l-.1-.1a10.12 10.12 0 0 1 1.13-2.08A10.6 10.6 0 0 1 17.2 63l1-.88a10.47 10.47 0 0 1 1.12-.83 6.55 6.55 0 0 0 1.07-.87 5 5 0 0 0 .79-1.09 7.57 7.57 0 0 1 .66-1.08 6.44 6.44 0 0 1 .77-.79 8.37 8.37 0 0 1 1.38-1 3.42 3.42 0 0 1 .61-.29zm-.84 7.5a4.43 4.43 0 0 1-.25.63 8.13 8.13 0 0 1-.91 1.43 7 7 0 0 1-.75.83 7.88 7.88 0 0 1-1 .72 4.91 4.91 0 0 0-1 .85 6 6 0 0 0-.8 1.12 12.56 12.56 0 0 1-.76 1.18l-.82 1a10.73 10.73 0 0 1-1.69 1.64 11 11 0 0 1-2 1.27l-.1-.1a10.2 10.2 0 0 1 1.14-2.08 10.91 10.91 0 0 1 1.53-1.79l1-.88a10.61 10.61 0 0 1 1.13-.83 6.07 6.07 0 0 0 1.07-.87 4.78 4.78 0 0 0 .78-1.08 9.25 9.25 0 0 1 .58-1.05 7.31 7.31 0 0 1 .78-.79 8 8 0 0 1 1.37-1 4.79 4.79 0 0 1 .61-.3zm10.06-10.7a4.43 4.43 0 0 1-.25.63 8.13 8.13 0 0 1-.91 1.43A7 7 0 0 1 32 56a7.88 7.88 0 0 1-1 .72 4.91 4.91 0 0 0-1 .85 6 6 0 0 0-.8 1.12 9.81 9.81 0 0 1-.76 1.17c-.27.37-.55.72-.82 1a10.73 10.73 0 0 1-1.69 1.64 10.18 10.18 0 0 1-2 1.26l-.1-.1a10.52 10.52 0 0 1 1.14-2.08 10.91 10.91 0 0 1 1.53-1.79l1-.88a9.56 9.56 0 0 1 1.12-.83 6.07 6.07 0 0 0 1.07-.87 4.62 4.62 0 0 0 .78-1.09 10 10 0 0 1 .66-1.08 7.31 7.31 0 0 1 .78-.79 8.8 8.8 0 0 1 1.37-1 3.85 3.85 0 0 1 .61-.29zM27 73.4a4.12 4.12 0 0 1-.25.62 8.53 8.53 0 0 1-.91 1.44 7 7 0 0 1-.75.82 7.06 7.06 0 0 1-1 .73 4.57 4.57 0 0 0-1 .84 6.06 6.06 0 0 0-.8 1.13 13.83 13.83 0 0 1-.76 1.17l-.82 1A10.64 10.64 0 0 1 19 82.83a10 10 0 0 1-2 1.27l-.1-.1a9.91 9.91 0 0 1 1.1-2.08 10.14 10.14 0 0 1 1.53-1.79l1-.9a9.5 9.5 0 0 1 1.12-.82 6.6 6.6 0 0 0 1.07-.88 4.38 4.38 0 0 0 .78-1.08 9.08 9.08 0 0 1 .66-1.08 7.45 7.45 0 0 1 .78-.8 8.63 8.63 0 0 1 1.37-1 4.79 4.79 0 0 1 .61-.3zM16.1 85a4 4 0 0 1-.26.63 8.27 8.27 0 0 1-.91 1.43 6.16 6.16 0 0 1-.74.82 7.64 7.64 0 0 1-1 .73 4.45 4.45 0 0 0-1 .85 6.17 6.17 0 0 0-.81 1.12 10.62 10.62 0 0 1-.75 1.17l-.83 1A10.32 10.32 0 0 1 8 94.46a10.31 10.31 0 0 1-2 1.26l-.1-.1a9.91 9.91 0 0 1 1.14-2.08 10.08 10.08 0 0 1 1.57-1.79l1-.9a10.4 10.4 0 0 1 1.11-.86 6.55 6.55 0 0 0 1.07-.87 4.67 4.67 0 0 0 .79-1.09 7 7 0 0 1 .66-1.04 6.59 6.59 0 0 1 .78-.8 8.38 8.38 0 0 1 1.37-1 3.42 3.42 0 0 1 .61-.29z"/><path d="M23.86 83.25a5 5 0 0 1-.35.75 12.42 12.42 0 0 1-1.15 1.74 11.8 11.8 0 0 1-.91 1 12.86 12.86 0 0 1-1.23 1A7.89 7.89 0 0 0 18 90.22a16 16 0 0 1-1 1.42l-1 1.3A16.89 16.89 0 0 1 14 95a15.25 15.25 0 0 1-2.35 1.71l-.12-.1A15.21 15.21 0 0 1 13 94.12a16.39 16.39 0 0 1 1.89-2.23l1.1-1.14a16.11 16.11 0 0 1 1.33-1.09 7.88 7.88 0 0 0 2.26-2.46 11 11 0 0 1 .85-1.31 9.25 9.25 0 0 1 .94-1A12.37 12.37 0 0 1 23 83.57a5.77 5.77 0 0 1 .71-.42zM22 93.3a4.43 4.43 0 0 1-.25.63 8.51 8.51 0 0 1-.91 1.43 6.26 6.26 0 0 1-.75.82 7.06 7.06 0 0 1-1 .73 4.91 4.91 0 0 0-1 .85 5.68 5.68 0 0 0-.8 1.12 11.22 11.22 0 0 1-.76 1.17l-.82 1a10.73 10.73 0 0 1-1.71 1.69 10.53 10.53 0 0 1-2 1.25l-.1-.1a9.91 9.91 0 0 1 1.11-2.07 10.51 10.51 0 0 1 1.51-1.83l1-.9a12.12 12.12 0 0 1 1.13-.82 6.55 6.55 0 0 0 1.07-.87 4.62 4.62 0 0 0 .78-1.09 9.08 9.08 0 0 1 .66-1.08 7.31 7.31 0 0 1 .78-.79 8.8 8.8 0 0 1 1.37-1 3.85 3.85 0 0 1 .61-.29zm11.05-11.65a4.12 4.12 0 0 1-.25.62 8.13 8.13 0 0 1-.91 1.43 6.32 6.32 0 0 1-.75.83 7.48 7.48 0 0 1-1 .72 4.72 4.72 0 0 0-1 .85 6.06 6.06 0 0 0-.8 1.13 11.74 11.74 0 0 1-.76 1.17l-.82 1A10.31 10.31 0 0 1 25 91.08a10 10 0 0 1-2 1.27l-.1-.1a10.52 10.52 0 0 1 1.1-2.08 10.14 10.14 0 0 1 1.53-1.79l1-.9a10.84 10.84 0 0 1 1.12-.83 6.07 6.07 0 0 0 1.07-.87 4.57 4.57 0 0 0 .78-1.08 8.34 8.34 0 0 1 .66-1.08 6.62 6.62 0 0 1 .78-.8 8.63 8.63 0 0 1 1.37-1 4.79 4.79 0 0 1 .61-.3zm-6.9 15.63a4 4 0 0 1-.26.63 8.76 8.76 0 0 1-.9 1.43 6.26 6.26 0 0 1-.75.82 7.64 7.64 0 0 1-1 .73 4.67 4.67 0 0 0-1 .85 6.17 6.17 0 0 0-.81 1.12 10.62 10.62 0 0 1-.75 1.17l-.83 1a10.75 10.75 0 0 1-1.69 1.64 10.31 10.31 0 0 1-2 1.26l-.1-.1a9.91 9.91 0 0 1 1.14-2.08 10.08 10.08 0 0 1 1.46-1.75l1-.9a11.5 11.5 0 0 1 1.12-.82 6.63 6.63 0 0 0 1.08-.87 4.93 4.93 0 0 0 .78-1.09 7 7 0 0 1 .66-1.08 6.59 6.59 0 0 1 .78-.8 7.81 7.81 0 0 1 1.37-1 3.42 3.42 0 0 1 .61-.29z"/><path d="M35.7 87a4.12 4.12 0 0 1-.25.62 8.76 8.76 0 0 1-.91 1.43 6.32 6.32 0 0 1-.75.83 7.06 7.06 0 0 1-1 .73 4.57 4.57 0 0 0-1 .84 6.61 6.61 0 0 0-.81 1.13 11.66 11.66 0 0 1-.75 1.17l-.82 1a10.27 10.27 0 0 1-1.7 1.63 10.1 10.1 0 0 1-2 1.27l-.1-.1a9.91 9.91 0 0 1 1.14-2.08 10.14 10.14 0 0 1 1.53-1.79l1-.9a10.53 10.53 0 0 1 1.05-.79 6.6 6.6 0 0 0 1.07-.88 4.57 4.57 0 0 0 .78-1.08 7.94 7.94 0 0 1 .66-1.04 6 6 0 0 1 .78-.8 8.63 8.63 0 0 1 1.37-1 4.79 4.79 0 0 1 .61-.3z"/><path d="M42.13 79.85a4.12 4.12 0 0 1-.25.62A8.13 8.13 0 0 1 41 81.9a7 7 0 0 1-.75.83 8.46 8.46 0 0 1-1 .72 4.72 4.72 0 0 0-1 .85 5.75 5.75 0 0 0-.8 1.13 10.19 10.19 0 0 1-.76 1.17l-.82 1a10.31 10.31 0 0 1-1.69 1.64 10 10 0 0 1-2 1.27l-.18-.07a10.63 10.63 0 0 1 1.14-2.07 10.14 10.14 0 0 1 1.53-1.79l1-.9a9.56 9.56 0 0 1 1.12-.83 6.07 6.07 0 0 0 1.03-.86 4.57 4.57 0 0 0 .78-1.08 8.34 8.34 0 0 1 .66-1.08A6.62 6.62 0 0 1 40 81a8.63 8.63 0 0 1 1.37-1 4.79 4.79 0 0 1 .61-.3zm-7.35 16.88a4.43 4.43 0 0 1-.25.63 8.93 8.93 0 0 1-.91 1.43 6.26 6.26 0 0 1-.75.82 7.06 7.06 0 0 1-1 .73 4.91 4.91 0 0 0-1 .85 5.68 5.68 0 0 0-.8 1.12 12.39 12.39 0 0 1-.76 1.17l-.82 1a10.73 10.73 0 0 1-1.69 1.64 10.53 10.53 0 0 1-2 1.26l-.1-.1a9.91 9.91 0 0 1 1.14-2.08 10.51 10.51 0 0 1 1.53-1.79l1-.9a10.53 10.53 0 0 1 1.13-.82 6.55 6.55 0 0 0 1.07-.87 4.62 4.62 0 0 0 .78-1.09 9.08 9.08 0 0 1 .66-1.08 8.52 8.52 0 0 1 .78-.8 9.33 9.33 0 0 1 1.37-1 3.85 3.85 0 0 1 .61-.29zm3.3 11.27a4.43 4.43 0 0 1-.25.63 8.93 8.93 0 0 1-.91 1.43 6.26 6.26 0 0 1-.75.82 7.52 7.52 0 0 1-1 .73 4.72 4.72 0 0 0-1 .85 5.68 5.68 0 0 0-.8 1.12 9.39 9.39 0 0 1-.76 1.17l-.82 1a10.73 10.73 0 0 1-1.79 1.67 10.18 10.18 0 0 1-2 1.26l-.1-.1a11.5 11.5 0 0 1 2.67-3.87l1-.9a9.5 9.5 0 0 1 1.14-.82 6.55 6.55 0 0 0 1.07-.87 4.62 4.62 0 0 0 .78-1.09 9.08 9.08 0 0 1 .66-1.08 8.52 8.52 0 0 1 .78-.8 9.33 9.33 0 0 1 1.37-1 3.85 3.85 0 0 1 .61-.29z"/><path d="M47.75 97.7a3.1 3.1 0 0 1-.25.62 8.53 8.53 0 0 1-.91 1.44 6.85 6.85 0 0 1-.74.82 8.32 8.32 0 0 1-1 .73 4.41 4.41 0 0 0-1 .84 7.16 7.16 0 0 0-.8 1.13 9.39 9.39 0 0 1-.76 1.17l-.82 1a10.64 10.64 0 0 1-1.69 1.63 10 10 0 0 1-2 1.27l-.1-.1a10.52 10.52 0 0 1 1.14-2.08 11 11 0 0 1 1.53-1.79l1-.9a9.5 9.5 0 0 1 1.12-.82 6.12 6.12 0 0 0 1.07-.88 4.69 4.69 0 0 0 .79-1.08 7 7 0 0 1 .66-1.08 6.56 6.56 0 0 1 .77-.8 8.22 8.22 0 0 1 1.38-1 3.42 3.42 0 0 1 .61-.29zm-7.6 16.18a2 2 0 0 1-.14.51 4.91 4.91 0 0 1-.61 1.12 3.84 3.84 0 0 1-.55.61 4 4 0 0 1-.82.49 2.8 2.8 0 0 0-.8.6 4.05 4.05 0 0 0-.56.87 6.67 6.67 0 0 1-.51.91l-.6.8A5.85 5.85 0 0 1 34.3 121a6.3 6.3 0 0 1-1.6.83l-.1-.1a6.08 6.08 0 0 1 .73-1.65 5.8 5.8 0 0 1 1.11-1.34l.76-.64a6.63 6.63 0 0 1 .88-.57 3.43 3.43 0 0 0 .83-.61 2.73 2.73 0 0 0 .55-.83 4.23 4.23 0 0 1 .44-.85 3.61 3.61 0 0 1 .58-.59 4.78 4.78 0 0 1 1.08-.68 2.56 2.56 0 0 1 .49-.17z"/><path d="M48.8 104.75a3.09 3.09 0 0 1-.2.56 7 7 0 0 1-.78 1.28 4.32 4.32 0 0 1-.65.72 6.1 6.1 0 0 1-.94.61 3.61 3.61 0 0 0-.92.73 4.61 4.61 0 0 0-.69 1 9.24 9.24 0 0 1-.65 1l-.7.92a8.19 8.19 0 0 1-1.5 1.42 8.42 8.42 0 0 1-1.82 1l-.1-.1a7.64 7.64 0 0 1 1-1.86 7.28 7.28 0 0 1 1.34-1.57l.88-.77a8.16 8.16 0 0 1 1-.69 5.05 5.05 0 0 0 1-.75 3.6 3.6 0 0 0 .67-1 6.22 6.22 0 0 1 .56-1 5.09 5.09 0 0 1 .69-.7 6.62 6.62 0 0 1 1.23-.83 3.74 3.74 0 0 1 .56-.24zm2.35 5.35a4.2 4.2 0 0 1-.32.69 11.15 11.15 0 0 1-1.09 1.58 8.17 8.17 0 0 1-.87.92 8.88 8.88 0 0 1-1.16.84 6.63 6.63 0 0 0-2.13 2.21 13.59 13.59 0 0 1-.9 1.3l-1 1.16a13.73 13.73 0 0 1-1.94 1.85 12.92 12.92 0 0 1-2.24 1.46l-.1-.1a12.37 12.37 0 0 1 1.39-2.28 13.77 13.77 0 0 1 1.78-2l1.13-1a13.46 13.46 0 0 1 1.27-.94 6.8 6.8 0 0 0 2.14-2.2 9.86 9.86 0 0 1 .8-1.19 9.34 9.34 0 0 1 .89-.89 10.77 10.77 0 0 1 1.55-1.14A4.11 4.11 0 0 1 51 110zm-2.9 9.47a2.89 2.89 0 0 1-.22.58 7.34 7.34 0 0 1-.82 1.3 5.23 5.23 0 0 1-.69.74 6.38 6.38 0 0 1-1 .63 3.85 3.85 0 0 0-1 .74 5.43 5.43 0 0 0-.74 1 7.78 7.78 0 0 1-.68 1.07l-.75.94a9.34 9.34 0 0 1-3.34 2.56l-.1-.1a8.76 8.76 0 0 1 1-1.91 8.51 8.51 0 0 1 1.41-1.61l.92-.78a8.7 8.7 0 0 1 1-.72 5.07 5.07 0 0 0 1-.76 3.82 3.82 0 0 0 .71-1 7.22 7.22 0 0 1 .6-1 6 6 0 0 1 .71-.71 7.5 7.5 0 0 1 1.28-.86 3.86 3.86 0 0 1 .58-.24zm6.63-.24a5.8 5.8 0 0 1-.33.69 11.36 11.36 0 0 1-1.1 1.58 8.41 8.41 0 0 1-.88.93 9.42 9.42 0 0 1-1.18.84 6.89 6.89 0 0 0-2.14 2.22 15.17 15.17 0 0 1-.92 1.3l-1 1.17a13.29 13.29 0 0 1-2 1.85 12.76 12.76 0 0 1-2.26 1.47l-.1-.1a13.62 13.62 0 0 1 1.47-2.27 14.14 14.14 0 0 1 1.81-2l1.14-1a15.73 15.73 0 0 1 1.28-.95 6.77 6.77 0 0 0 2.16-2.2 11.39 11.39 0 0 1 .81-1.2 10.91 10.91 0 0 1 .9-.9 11.6 11.6 0 0 1 1.56-1.14 5.94 5.94 0 0 1 .68-.35zM44.56 86.8a3.7 3.7 0 0 1-.26.62 8.37 8.37 0 0 1-.9 1.44 7 7 0 0 1-.75.82 7.06 7.06 0 0 1-1 .73 4.36 4.36 0 0 0-1 .84 6.61 6.61 0 0 0-.81 1.13 11.66 11.66 0 0 1-.84 1.17l-.83 1a10.23 10.23 0 0 1-1.69 1.63 10.1 10.1 0 0 1-2 1.27l-.1-.1a9.91 9.91 0 0 1 1.14-2.08 10.51 10.51 0 0 1 1.53-1.79l1-.9a11.5 11.5 0 0 1 1.12-.82 6.68 6.68 0 0 0 1.08-.88 4.65 4.65 0 0 0 .76-1.03 7 7 0 0 1 .66-1.08 5.94 5.94 0 0 1 .78-.8 8.2 8.2 0 0 1 1.37-1 3.42 3.42 0 0 1 .61-.29zM33.2 105.66a3.29 3.29 0 0 1-.25.63 8.13 8.13 0 0 1-.91 1.43 6.9 6.9 0 0 1-.74.83 9.48 9.48 0 0 1-1 .72 4.72 4.72 0 0 0-1 .85 7.07 7.07 0 0 0-.8 1.12 9.51 9.51 0 0 1-.76 1.18l-.82 1a10.73 10.73 0 0 1-1.69 1.64 10.18 10.18 0 0 1-2 1.26l-.1-.1a10.52 10.52 0 0 1 1.14-2.08 11.42 11.42 0 0 1 1.53-1.79l1-.88a9.56 9.56 0 0 1 1.12-.83 6.07 6.07 0 0 0 1.07-.87 5 5 0 0 0 .79-1.09 7.57 7.57 0 0 1 .66-1.08 6.44 6.44 0 0 1 .77-.79 8.37 8.37 0 0 1 1.38-1 3.42 3.42 0 0 1 .61-.29z"/><path d="M45.65 93a5.37 5.37 0 0 1-.37.75 13.37 13.37 0 0 1-1.22 1.73 9.75 9.75 0 0 1-.94 1 13.12 13.12 0 0 1-1.27 1 8.23 8.23 0 0 0-2.33 2.52l-1 1.42-1.07 1.3a16.85 16.85 0 0 1-2.12 2.06 15 15 0 0 1-2.42 1.68l-.1-.1a15.08 15.08 0 0 1 1.56-2.5 16.6 16.6 0 0 1 2-2.22l1.24-1.13c.42-.38.9-.72 1.37-1.07a8.25 8.25 0 0 0 2.3-2.43 12.46 12.46 0 0 1 .89-1.31 11.67 11.67 0 0 1 1-1 13.4 13.4 0 0 1 1.68-1.29 5.89 5.89 0 0 1 .72-.41zM40.3 73.65a4 4 0 0 1-.26.63 8.93 8.93 0 0 1-.91 1.43 6.16 6.16 0 0 1-.74.82 7.64 7.64 0 0 1-1 .73 4.72 4.72 0 0 0-1 .85 6.64 6.64 0 0 0-.8 1.12 10.62 10.62 0 0 1-.75 1.17l-.83 1a11.35 11.35 0 0 1-3.69 2.9l-.1-.1a9.91 9.91 0 0 1 1.14-2.08 10.08 10.08 0 0 1 1.53-1.79l1-.9a10.4 10.4 0 0 1 1.12-.82 6.55 6.55 0 0 0 1-.82 4.67 4.67 0 0 0 .79-1.09 7 7 0 0 1 .66-1.08 7.38 7.38 0 0 1 .77-.8 8.84 8.84 0 0 1 1.38-1 3.42 3.42 0 0 1 .61-.29zm-2.07-5.6a6.11 6.11 0 0 1-.44.82 17.22 17.22 0 0 1-1.39 1.94A12.71 12.71 0 0 1 35.32 72a13.68 13.68 0 0 1-1.4 1.11 10.52 10.52 0 0 0-2.63 2.8 17.06 17.06 0 0 1-1.16 1.59l-1.2 1.46a22.86 22.86 0 0 1-2.38 2.36 20 20 0 0 1-2.68 2l-.1-.1a19.83 19.83 0 0 1 1.82-2.78 19.52 19.52 0 0 1 2.22-2.51l1.38-1.3c.47-.44 1-.84 1.52-1.24a10.61 10.61 0 0 0 2.65-2.79 13.94 13.94 0 0 1 1-1.46 13.39 13.39 0 0 1 1.1-1.14 17.66 17.66 0 0 1 1.86-1.5 8.2 8.2 0 0 1 .79-.49zM37.1 62.7a4.12 4.12 0 0 1-.25.62 8.13 8.13 0 0 1-.91 1.43 6.32 6.32 0 0 1-.75.83 7.48 7.48 0 0 1-1 .72 4.72 4.72 0 0 0-1 .85 6.06 6.06 0 0 0-.8 1.13 11.74 11.74 0 0 1-.76 1.17l-.82 1a10.31 10.31 0 0 1-1.69 1.64 10 10 0 0 1-2 1.27l-.1-.1a10.63 10.63 0 0 1 1.14-2.07 10.14 10.14 0 0 1 1.53-1.79l1-.9a10.84 10.84 0 0 1 1.12-.83 6.07 6.07 0 0 0 1.07-.87 4.57 4.57 0 0 0 .78-1.08 8.34 8.34 0 0 1 .66-1.08 6.62 6.62 0 0 1 .78-.8 8.63 8.63 0 0 1 1.37-1 4.79 4.79 0 0 1 .61-.3zm-12.5-6.54a3 3 0 0 1 .25-.63 8.13 8.13 0 0 1 .91-1.43 6.9 6.9 0 0 1 .74-.83 9.48 9.48 0 0 1 1-.72 4.72 4.72 0 0 0 1-.85 6.2 6.2 0 0 0 .8-1.13 10.19 10.19 0 0 1 .76-1.17l.82-1a10.73 10.73 0 0 1 1.69-1.64 10 10 0 0 1 2-1.27l.1.1A11.5 11.5 0 0 1 32 49.47l-1 .88a9.56 9.56 0 0 1-1.12.83 6.07 6.07 0 0 0-.98.82 5.16 5.16 0 0 0-.79 1.08 7.16 7.16 0 0 1-.66 1.09 6.44 6.44 0 0 1-.77.79 7.68 7.68 0 0 1-1.38 1 4.39 4.39 0 0 1-.6.3zM21.66 37.4a3.7 3.7 0 0 1-.26.62 8.53 8.53 0 0 1-.91 1.44 6.85 6.85 0 0 1-.74.82 8.32 8.32 0 0 1-1 .73 4.41 4.41 0 0 0-1 .84 7.16 7.16 0 0 0-.8 1.13 11.66 11.66 0 0 1-.75 1.17l-.83 1a10.23 10.23 0 0 1-1.69 1.63 10.1 10.1 0 0 1-2 1.27l-.1-.1a9.91 9.91 0 0 1 1.14-2.08 9.74 9.74 0 0 1 1.53-1.79l1-.9a10.4 10.4 0 0 1 1.12-.82 6.6 6.6 0 0 0 1.07-.88 4.41 4.41 0 0 0 .79-1.08 7 7 0 0 1 .66-1.08 6.56 6.56 0 0 1 .77-.8 8.22 8.22 0 0 1 1.38-1 4.12 4.12 0 0 1 .61-.3zM18 48.8a4.43 4.43 0 0 1-.25.63 8.93 8.93 0 0 1-.91 1.43 6.26 6.26 0 0 1-.75.82 7.06 7.06 0 0 1-1 .73 4.91 4.91 0 0 0-1 .85 5.68 5.68 0 0 0-.8 1.12 12.39 12.39 0 0 1-.76 1.17l-.82 1.05a11.2 11.2 0 0 1-1.69 1.64 10.53 10.53 0 0 1-2 1.26l-.1-.1a9.91 9.91 0 0 1 1.14-2.08 10.51 10.51 0 0 1 1.53-1.79l1-.9a10.53 10.53 0 0 1 1.13-.82 6.55 6.55 0 0 0 .94-.82 4.62 4.62 0 0 0 .78-1.09 9.08 9.08 0 0 1 .66-1.08 7.43 7.43 0 0 1 .78-.8 8.63 8.63 0 0 1 1.37-1 3.85 3.85 0 0 1 .61-.29zm0 6.57a4.43 4.43 0 0 1-.25.63 8.93 8.93 0 0 1-.91 1.43 6.26 6.26 0 0 1-.75.82A7.06 7.06 0 0 1 15 59a4.91 4.91 0 0 0-1 .85 5.68 5.68 0 0 0-.8 1.12 11.22 11.22 0 0 1-.76 1.17l-.82 1.05a10.73 10.73 0 0 1-1.69 1.64 10.53 10.53 0 0 1-2 1.26L7.8 66a9.91 9.91 0 0 1 1.14-2.08 10.51 10.51 0 0 1 1.53-1.79l1-.9a12.12 12.12 0 0 1 1.13-.82 6.55 6.55 0 0 0 1.07-.87 4.62 4.62 0 0 0 .78-1.09 9.08 9.08 0 0 1 .66-1.08 6.49 6.49 0 0 1 .78-.79 8.8 8.8 0 0 1 1.37-1 3.85 3.85 0 0 1 .61-.29zm15.05-15.72a8 8 0 0 1-.47.84 17.15 17.15 0 0 1-1.48 2 13.73 13.73 0 0 1-1.1 1.2 16.13 16.13 0 0 1-1.46 1.15 11.37 11.37 0 0 0-2.76 2.89l-1.23 1.64-1.28 1.5a23.48 23.48 0 0 1-2.49 2.44 21 21 0 0 1-2.79 2l-.1-.1a21 21 0 0 1 1.93-2.86 24.1 24.1 0 0 1 2.34-2.59l1.45-1.33a20.3 20.3 0 0 1 1.59-1.29 11.81 11.81 0 0 0 2.78-2.87A15.43 15.43 0 0 1 29 42.78c.38-.45.8-.8 1.16-1.17a20 20 0 0 1 1.94-1.56 8 8 0 0 1 .82-.5zM28.9 37.4a4.12 4.12 0 0 1-.25.62 8.53 8.53 0 0 1-.91 1.44 7 7 0 0 1-.75.82 7.06 7.06 0 0 1-1 .73 4.57 4.57 0 0 0-1 .84 6.06 6.06 0 0 0-.8 1.13 13.83 13.83 0 0 1-.76 1.17l-.82 1a10.64 10.64 0 0 1-1.69 1.63 10 10 0 0 1-2 1.27l-.1-.1a10.52 10.52 0 0 1 1.14-2.08 10.14 10.14 0 0 1 1.53-1.79l1-.9a9.5 9.5 0 0 1 1.12-.82 6.6 6.6 0 0 0 1.07-.88 4.38 4.38 0 0 0 .78-1.08 9.08 9.08 0 0 1 .56-1.03 7.45 7.45 0 0 1 .78-.8 8.63 8.63 0 0 1 1.37-1 4.79 4.79 0 0 1 .61-.3zM10 50a2.36 2.36 0 0 1-.16.52 5 5 0 0 1-.65 1.16 3.87 3.87 0 0 1-.58.65 4.92 4.92 0 0 1-.85.52 2.88 2.88 0 0 0-.83.64 4 4 0 0 0-.6.9 5.89 5.89 0 0 1-.55.95l-.62.83a6.48 6.48 0 0 1-1.33 1.26 6.55 6.55 0 0 1-1.66.89L2 58.2a6.9 6.9 0 0 1 .8-1.71 6.45 6.45 0 0 1 1.2-1.4l.8-.67a6.51 6.51 0 0 1 .91-.6 4.39 4.39 0 0 0 .87-.65 3 3 0 0 0 .58-.87 4.55 4.55 0 0 1 .47-.88 3.59 3.59 0 0 1 .61-.62 4.78 4.78 0 0 1 1.12-.72 2.64 2.64 0 0 1 .51-.2zm22.07-23.3a4.12 4.12 0 0 1-.25.62 8.13 8.13 0 0 1-.91 1.43 6.32 6.32 0 0 1-.75.83 7 7 0 0 1-1 .72 4.91 4.91 0 0 0-1 .85 6.06 6.06 0 0 0-.8 1.13 11.74 11.74 0 0 1-.76 1.17l-.82 1A10.31 10.31 0 0 1 24 36.12a10 10 0 0 1-2 1.27l-.1-.1a10.63 10.63 0 0 1 1.1-2.08 10.14 10.14 0 0 1 1.53-1.79l1-.9a10.84 10.84 0 0 1 1.12-.83 6.07 6.07 0 0 0 1.07-.87 4.57 4.57 0 0 0 .78-1.08 8.34 8.34 0 0 1 .66-1.08 6.62 6.62 0 0 1 .78-.8 8.63 8.63 0 0 1 1.37-1 4.79 4.79 0 0 1 .61-.3zm.98-8.06a4.12 4.12 0 0 1-.25.62 8.53 8.53 0 0 1-.91 1.44 7 7 0 0 1-.75.82 7.52 7.52 0 0 1-1 .73 4.41 4.41 0 0 0-1 .84 6.06 6.06 0 0 0-.8 1.13 11.74 11.74 0 0 1-.76 1.17l-.82 1.05A10.64 10.64 0 0 1 25 28.07a10 10 0 0 1-2 1.27l-.1-.1a11.5 11.5 0 0 1 2.67-3.87l1-.9a9.5 9.5 0 0 1 1.12-.82 6.6 6.6 0 0 0 1.07-.88 4.38 4.38 0 0 0 .78-1.08 9.08 9.08 0 0 1 .66-1.08 7.45 7.45 0 0 1 .78-.8 8.63 8.63 0 0 1 1.37-1 3.85 3.85 0 0 1 .61-.29zm-.9-10.2a3.49 3.49 0 0 1-.27.61 7.73 7.73 0 0 1-.88 1.38 6.21 6.21 0 0 1-.76.79 7.48 7.48 0 0 1-1 .68 4.3 4.3 0 0 0-1 .8 5.91 5.91 0 0 0-.82 1.08 10.26 10.26 0 0 1-.78 1.13l-.84 1a10.38 10.38 0 0 1-1.8 1.56 10 10 0 0 1-2 1.18l-.1-.1a9.77 9.77 0 0 1 1.18-2 10.12 10.12 0 0 1 1.56-1.72l1-.84a13.36 13.36 0 0 1 1.14-.77 6.27 6.27 0 0 0 1.08-.82 4.49 4.49 0 0 0 .8-1 7.48 7.48 0 0 1 .68-1 6.21 6.21 0 0 1 .79-.76 7.73 7.73 0 0 1 1.38-.93 3.36 3.36 0 0 1 .62-.27zm-11.48 11.2a3.22 3.22 0 0 1-.26.6 8 8 0 0 1-.91 1.37 5.86 5.86 0 0 1-.74.77 7.3 7.3 0 0 1-1 .66 4.58 4.58 0 0 0-1 .78 6.22 6.22 0 0 0-.8 1.07 9.8 9.8 0 0 1-.81 1.13l-.83 1a9.28 9.28 0 0 1-1.68 1.52 9.5 9.5 0 0 1-2 1.15l-.1-.1a9.7 9.7 0 0 1 1.14-2 10.17 10.17 0 0 1 1.53-1.69l1-.82a9.8 9.8 0 0 1 1.11-.75 5.71 5.71 0 0 0 1.06-.81 4.36 4.36 0 0 0 .79-1 6.5 6.5 0 0 1 .66-1 6 6 0 0 1 .77-.75 7.83 7.83 0 0 1 1.36-.9 3.59 3.59 0 0 1 .6-.26zm-4.05 10.02a4 4 0 0 1-.25.6 8.19 8.19 0 0 1-.91 1.36 6 6 0 0 1-.75.77 7.32 7.32 0 0 1-1 .67 4.07 4.07 0 0 0-1 .78 5.71 5.71 0 0 0-.81 1.06 9.93 9.93 0 0 1-.8 1.12l-.82 1a9.74 9.74 0 0 1-1.69 1.53 9.7 9.7 0 0 1-2 1.14l-.1-.1a9.41 9.41 0 0 1 1.15-2 10 10 0 0 1 1.52-1.68l1-.82a9.86 9.86 0 0 1 1.11-.76 6.22 6.22 0 0 0 1.07-.8 4.58 4.58 0 0 0 .78-1 8.32 8.32 0 0 1 .66-1 5.94 5.94 0 0 1 .78-.74 7.61 7.61 0 0 1 1.36-.91 3.59 3.59 0 0 1 .6-.26z"/><path d="M26.68 19.62a3.56 3.56 0 0 1-.25.6 8.65 8.65 0 0 1-.91 1.37 6.72 6.72 0 0 1-.75.77 6.76 6.76 0 0 1-1 .66 4.53 4.53 0 0 0-1 .78 5.79 5.79 0 0 0-.81 1.07 9.8 9.8 0 0 1-.8 1.13l-.82 1a9.66 9.66 0 0 1-1.69 1.52 9.5 9.5 0 0 1-2 1.15l-.1-.1a9.5 9.5 0 0 1 1.15-2 10.08 10.08 0 0 1 1.52-1.69l1-.82a10.78 10.78 0 0 1 1.11-.75 5.79 5.79 0 0 0 1.07-.81 4.32 4.32 0 0 0 .78-1 8.32 8.32 0 0 1 .66-1 6 6 0 0 1 .78-.75 7.47 7.47 0 0 1 1.36-.9 3.59 3.59 0 0 1 .6-.26zm29.5 105.73a4.43 4.43 0 0 1-.25.63 8.51 8.51 0 0 1-.91 1.43 6.26 6.26 0 0 1-.75.82 7.52 7.52 0 0 1-1 .73 4.72 4.72 0 0 0-1 .85 5.68 5.68 0 0 0-.8 1.12 9.81 9.81 0 0 1-.76 1.17l-.82 1.05a10.73 10.73 0 0 1-1.69 1.64 10.18 10.18 0 0 1-2 1.26L46 136a11.5 11.5 0 0 1 2.67-3.87l1-.9a10.78 10.78 0 0 1 1.12-.82 6.55 6.55 0 0 0 1.07-.87 4.62 4.62 0 0 0 .78-1.09 9.08 9.08 0 0 1 .66-1.08 7.31 7.31 0 0 1 .78-.79 8.8 8.8 0 0 1 1.37-1 3.85 3.85 0 0 1 .61-.29z"/><path d="M57 131.65a2.71 2.71 0 0 1-.18.54 5.65 5.65 0 0 1-.72 1.18 3.69 3.69 0 0 1-.61.65 5.13 5.13 0 0 1-.89.54 3.06 3.06 0 0 0-.87.64 4.08 4.08 0 0 0-.64.92 7.08 7.08 0 0 1-.6 1l-.67.85a6.77 6.77 0 0 1-1.4 1.27 6.88 6.88 0 0 1-1.73.91l-.1-.1a7.05 7.05 0 0 1 .87-1.73 6.51 6.51 0 0 1 1.25-1.43l.84-.7a8.14 8.14 0 0 1 1-.61 4.08 4.08 0 0 0 .91-.66 3.19 3.19 0 0 0 .62-.88 5.46 5.46 0 0 1 .52-.9 4.63 4.63 0 0 1 .64-.62 5.85 5.85 0 0 1 1.17-.74 3.49 3.49 0 0 1 .53-.19zm3.3 2.35a2.25 2.25 0 0 1-.12.47 4.37 4.37 0 0 1-.57 1 2.94 2.94 0 0 1-.51.56 4.12 4.12 0 0 1-.78.42 2.24 2.24 0 0 0-.76.52 3.15 3.15 0 0 0-.52.8 6.11 6.11 0 0 1-.47.84l-.55.73a4.9 4.9 0 0 1-1.21 1.06 5.25 5.25 0 0 1-1.52.7l-.1-.1a5.38 5.38 0 0 1 .67-1.54 5 5 0 0 1 1-1.22l.72-.56a6 6 0 0 1 .83-.49 3.21 3.21 0 0 0 .79-.53 2.25 2.25 0 0 0 .51-.77 3.82 3.82 0 0 1 .41-.78 3 3 0 0 1 .54-.53 4.07 4.07 0 0 1 1-.58 2.45 2.45 0 0 1 .48-.14zm2.48 3.55a2 2 0 0 1-.13.48 4.12 4.12 0 0 1-.56 1 3 3 0 0 1-.52.56 3.74 3.74 0 0 1-.77.42 2.14 2.14 0 0 0-.76.52 3 3 0 0 0-.52.8 5.73 5.73 0 0 1-.48.84l-.55.72a4.92 4.92 0 0 1-1.2 1.07 5.25 5.25 0 0 1-1.52.7l-.1-.1a5.06 5.06 0 0 1 .67-1.53 5 5 0 0 1 1-1.22l.72-.56a5.18 5.18 0 0 1 .83-.49 3 3 0 0 0 .79-.54 2.36 2.36 0 0 0 .51-.76 3.89 3.89 0 0 1 .4-.79 3.79 3.79 0 0 1 .55-.52 4.15 4.15 0 0 1 1-.59 2 2 0 0 1 .48-.13zM100 63.8a4.43 4.43 0 0 1-.25.63 8.13 8.13 0 0 1-.91 1.43 7 7 0 0 1-.75.83 7.88 7.88 0 0 1-1 .72 4.91 4.91 0 0 0-1 .85 6 6 0 0 0-.8 1.12 12.56 12.56 0 0 1-.76 1.18l-.82 1a10.73 10.73 0 0 1-1.69 1.64 11 11 0 0 1-2 1.27l-.1-.1a10.2 10.2 0 0 1 1.14-2.08 10.91 10.91 0 0 1 1.53-1.79l1-.88a10.61 10.61 0 0 1 1.13-.83 6.07 6.07 0 0 0 1.07-.87 4.78 4.78 0 0 0 .78-1.08 9.25 9.25 0 0 1 .66-1.09 6.49 6.49 0 0 1 .78-.79 8 8 0 0 1 1.37-1 4.79 4.79 0 0 1 .61-.3zm-3.4 10.7a3.7 3.7 0 0 1-.26.62 8 8 0 0 1-.9 1.43 7 7 0 0 1-.75.83 7.88 7.88 0 0 1-1 .72 4.91 4.91 0 0 0-1 .85 6.24 6.24 0 0 0-.81 1.13 11.66 11.66 0 0 1-.75 1.17l-.83 1a9.93 9.93 0 0 1-1.69 1.64 10.1 10.1 0 0 1-2 1.27l-.1-.1A10.2 10.2 0 0 1 87.57 83a10.47 10.47 0 0 1 1.53-1.78l1-.9a11.59 11.59 0 0 1 1.12-.83 6.14 6.14 0 0 0 1.08-.87 4.57 4.57 0 0 0 .78-1.08 8.07 8.07 0 0 1 .66-1.09 6.49 6.49 0 0 1 .78-.79 7.66 7.66 0 0 1 1.37-1 4.12 4.12 0 0 1 .61-.3z"/><path d="M103.24 67.2a4.43 4.43 0 0 1-.25.63 9.7 9.7 0 0 1-.91 1.43 6.26 6.26 0 0 1-.75.82 7.06 7.06 0 0 1-1 .73 4.91 4.91 0 0 0-1 .85 6.17 6.17 0 0 0-.81 1.12 10.62 10.62 0 0 1-.75 1.17l-.82 1a10.79 10.79 0 0 1-1.7 1.64 10.31 10.31 0 0 1-2 1.26l-.1-.1a9.91 9.91 0 0 1 1.14-2.08 10.51 10.51 0 0 1 1.53-1.79l1-.9a10.53 10.53 0 0 1 1.13-.82 6.55 6.55 0 0 0 1.07-.87 4.62 4.62 0 0 0 .78-1.09 9.08 9.08 0 0 1 .66-1.08 7.43 7.43 0 0 1 .78-.8 8.63 8.63 0 0 1 1.37-1 3.85 3.85 0 0 1 .61-.29zm8.38-55.2a7.28 7.28 0 0 1-.45.82 16.5 16.5 0 0 1-1.41 2 14.43 14.43 0 0 1-1.09 1.18 13.61 13.61 0 0 1-1.41 1.12 10.75 10.75 0 0 0-2.66 2.83l-1.18 1.6L102.2 23a22.28 22.28 0 0 1-2.4 2.38 19.69 19.69 0 0 1-2.71 2l-.1-.1a20.63 20.63 0 0 1 1.84-2.81 22.54 22.54 0 0 1 2.25-2.53l1.4-1.3a19.15 19.15 0 0 1 1.54-1.27 10.81 10.81 0 0 0 2.68-2.81 14.14 14.14 0 0 1 1-1.47 15.39 15.39 0 0 1 1.11-1.15 18.17 18.17 0 0 1 1.88-1.52 9 9 0 0 1 .8-.49zm-3.75-2.22a4 4 0 0 1-.26.63 7.58 7.58 0 0 1-.91 1.43 6.14 6.14 0 0 1-.74.83 8.61 8.61 0 0 1-1 .72 4.67 4.67 0 0 0-1 .85 6.53 6.53 0 0 0-.81 1.12 9.76 9.76 0 0 1-.75 1.17l-.83 1a10.32 10.32 0 0 1-1.69 1.64 10.31 10.31 0 0 1-2 1.26l-.1-.1a9.91 9.91 0 0 1 1.14-2.08 10.44 10.44 0 0 1 1.53-1.79l1-.88a11.59 11.59 0 0 1 1.12-.83 5.73 5.73 0 0 0 1.07-.87 4.67 4.67 0 0 0 .79-1.09 7.57 7.57 0 0 1 .66-1.08 5.84 5.84 0 0 1 .78-.79 8 8 0 0 1 1.37-1 3.42 3.42 0 0 1 .61-.29zm9.75 4.54a4.2 4.2 0 0 1-.27.61 8.34 8.34 0 0 1-.93 1.39 6.9 6.9 0 0 1-.76.78 6.78 6.78 0 0 1-1 .68 4.51 4.51 0 0 0-1 .8 6 6 0 0 0-.83 1.09 10.19 10.19 0 0 1-.83 1.13l-.84 1a10.12 10.12 0 0 1-1.72 1.56 10.27 10.27 0 0 1-2 1.18l-.1-.1a9.87 9.87 0 0 1 1.17-2A11 11 0 0 1 110 20.7l1-.84a10.26 10.26 0 0 1 1.13-.78 5.58 5.58 0 0 0 1.08-.82 4.77 4.77 0 0 0 .81-1 6.78 6.78 0 0 1 .68-1 6.21 6.21 0 0 1 .79-.76 8.54 8.54 0 0 1 1.38-.93 3.45 3.45 0 0 1 .61-.26zm-11.48 10.22a3.59 3.59 0 0 1-.26.6 8.63 8.63 0 0 1-.88 1.36 6.63 6.63 0 0 1-.74.77 7 7 0 0 1-1 .66 4.63 4.63 0 0 0-1 .79 5.27 5.27 0 0 0-.8 1.06 11.39 11.39 0 0 1-.76 1.11l-.82 1a10.54 10.54 0 0 1-1.68 1.53 9.9 9.9 0 0 1-2 1.14l-.2-.12a9.5 9.5 0 0 1 1.15-2 9.36 9.36 0 0 1 1.53-1.68l1-.83a10.78 10.78 0 0 1 1.11-.75 6.22 6.22 0 0 0 1.07-.8 4.31 4.31 0 0 0 .78-1 8.32 8.32 0 0 1 .66-1 5.34 5.34 0 0 1 .78-.74 7.61 7.61 0 0 1 1.36-.91 3.59 3.59 0 0 1 .6-.26zm-.04 7.26a3.45 3.45 0 0 1-.26.61 7.83 7.83 0 0 1-.9 1.36 6 6 0 0 1-.75.77 6.5 6.5 0 0 1-1 .66 4.6 4.6 0 0 0-1 .78 6.14 6.14 0 0 0-.81 1.07 9.8 9.8 0 0 1-.75 1.11l-.83 1a9.28 9.28 0 0 1-1.68 1.52 9.5 9.5 0 0 1-2 1.15L96 41.7a9.5 9.5 0 0 1 1.15-2 9.28 9.28 0 0 1 1.52-1.68l1-.83a9.8 9.8 0 0 1 1.11-.75 5.79 5.79 0 0 0 1.07-.81 4.32 4.32 0 0 0 .78-1 7.3 7.3 0 0 1 .66-1 6.72 6.72 0 0 1 .77-.75 7.83 7.83 0 0 1 1.36-.9 3.45 3.45 0 0 1 .61-.26z"/><path d="M116.17 21.8a3.59 3.59 0 0 1-.26.6 7.47 7.47 0 0 1-.9 1.36 6 6 0 0 1-.75.77 7.32 7.32 0 0 1-1 .67 4.07 4.07 0 0 0-1 .78 6.06 6.06 0 0 0-.86 1.02 9.93 9.93 0 0 1-.75 1.12l-.82 1a9.74 9.74 0 0 1-1.69 1.53 9.15 9.15 0 0 1-2 1.14l-.1-.1a9.41 9.41 0 0 1 1.15-2 10 10 0 0 1 1.54-1.69l1-.82a9.86 9.86 0 0 1 1.11-.76 5.74 5.74 0 0 0 1.07-.8 4.58 4.58 0 0 0 .78-1 8.32 8.32 0 0 1 .66-1 7.53 7.53 0 0 1 .77-.74 8 8 0 0 1 1.37-.91 3.59 3.59 0 0 1 .6-.26zm-5.03 12.75a3.59 3.59 0 0 1-.26.6 7.47 7.47 0 0 1-.9 1.36 6 6 0 0 1-.75.78 8.32 8.32 0 0 1-1 .66 4.07 4.07 0 0 0-1 .78 5.79 5.79 0 0 0-.81 1.07 10.78 10.78 0 0 1-.75 1.11l-.82 1a9.74 9.74 0 0 1-1.69 1.53 9.5 9.5 0 0 1-2 1.15l-.1-.1a9.7 9.7 0 0 1 1.15-2 10 10 0 0 1 1.52-1.68l1-.82a11.39 11.39 0 0 1 1.11-.76 5.33 5.33 0 0 0 1.07-.8 4.58 4.58 0 0 0 .78-1 7.92 7.92 0 0 1 .66-1 7.53 7.53 0 0 1 .77-.74 8.65 8.65 0 0 1 1.37-.91 3.22 3.22 0 0 1 .6-.26z"/><path d="M104.4 41.4a2.33 2.33 0 0 1-.17.49 4.79 4.79 0 0 1-.66 1.07 3.45 3.45 0 0 1-.57.58 5 5 0 0 1-.83.43 2.66 2.66 0 0 0-.82.54 3.5 3.5 0 0 0-.59.82 6.92 6.92 0 0 1-.55.88l-.62.75a5.93 5.93 0 0 1-1.32 1.1 6 6 0 0 1-1.62.72l-.1-.1a5.84 5.84 0 0 1 .8-1.58 5.63 5.63 0 0 1 1.16-1.26l.78-.6a6.51 6.51 0 0 1 .9-.5 3.3 3.3 0 0 0 .85-.56 2.42 2.42 0 0 0 .58-.79 4.79 4.79 0 0 1 .47-.81 3.7 3.7 0 0 1 .6-.54 5.26 5.26 0 0 1 1.1-.61 2.84 2.84 0 0 1 .5-.14zm2.2 5.36a3.59 3.59 0 0 1-.26.6 7.47 7.47 0 0 1-.9 1.36 6 6 0 0 1-.75.77 7.32 7.32 0 0 1-1 .67 4.07 4.07 0 0 0-1 .78 5.71 5.71 0 0 0-.81 1.06 9 9 0 0 1-.75 1.11l-.83 1a9.36 9.36 0 0 1-1.68 1.53 9.7 9.7 0 0 1-2 1.14l-.1-.1a9.41 9.41 0 0 1 1.15-2A9.28 9.28 0 0 1 99.16 53l1-.82a9.86 9.86 0 0 1 1.11-.76 6.63 6.63 0 0 0 1.07-.8 4.9 4.9 0 0 0 .78-1 6.5 6.5 0 0 1 .66-1 5.89 5.89 0 0 1 .77-.74 8 8 0 0 1 1.36-.91 3.45 3.45 0 0 1 .61-.26zm7.8 0a3.59 3.59 0 0 1-.26.6 7.47 7.47 0 0 1-.9 1.36 6 6 0 0 1-.75.77 7.32 7.32 0 0 1-1 .67 4.07 4.07 0 0 0-1 .78 5.71 5.71 0 0 0-.81 1.06 9 9 0 0 1-.75 1.11l-.83 1a9.36 9.36 0 0 1-1.68 1.53 9.7 9.7 0 0 1-2 1.14l-.1-.1a9.41 9.41 0 0 1 1.15-2A9.28 9.28 0 0 1 107 53l1-.82a9.86 9.86 0 0 1 1.11-.76 6.63 6.63 0 0 0 1.07-.8 4.9 4.9 0 0 0 .78-1 6.5 6.5 0 0 1 .66-1 5.89 5.89 0 0 1 .77-.74 8 8 0 0 1 1.36-.91 3.45 3.45 0 0 1 .61-.26zM118.42 57a3.59 3.59 0 0 1-.26.6 7.1 7.1 0 0 1-.91 1.36 5.3 5.3 0 0 1-.74.77 6.5 6.5 0 0 1-1 .66 4.36 4.36 0 0 0-1 .79 5.71 5.71 0 0 0-.81 1.06 9 9 0 0 1-.75 1.11l-.83 1a9.36 9.36 0 0 1-1.68 1.53 9.7 9.7 0 0 1-2 1.14l-.1-.1a9.61 9.61 0 0 1 1.14-2 9.75 9.75 0 0 1 1.53-1.65l1-.82a8.69 8.69 0 0 1 1.11-.76 6.13 6.13 0 0 0 1.06-.8 4.63 4.63 0 0 0 .79-1 6.5 6.5 0 0 1 .66-1 5.89 5.89 0 0 1 .77-.74 8 8 0 0 1 1.36-.91 3.45 3.45 0 0 1 .61-.26z"/><path d="M127.12 48.1a3.59 3.59 0 0 1-.26.6 7.61 7.61 0 0 1-.91 1.36 5.89 5.89 0 0 1-.74.77 7.32 7.32 0 0 1-1 .67 4.31 4.31 0 0 0-1 .78 6.13 6.13 0 0 0-.8 1.06 8 8 0 0 1-.76 1.11l-.82 1a9.36 9.36 0 0 1-1.74 1.56 9.7 9.7 0 0 1-2 1.14L117 58a9.61 9.61 0 0 1 1.14-2 9.75 9.75 0 0 1 1.53-1.68l1-.82a9.86 9.86 0 0 1 1.11-.76 6.13 6.13 0 0 0 1.06-.8 4.63 4.63 0 0 0 .79-1 6.5 6.5 0 0 1 .66-1 5.89 5.89 0 0 1 .77-.74 8 8 0 0 1 1.36-.91A3.59 3.59 0 0 1 127 48zm-4.34 12.23a5.24 5.24 0 0 1-.37.71 11.91 11.91 0 0 1-1.21 1.66 10.65 10.65 0 0 1-.94 1 10.35 10.35 0 0 1-1.26.88 8.09 8.09 0 0 0-2.32 2.34 15.37 15.37 0 0 1-1 1.36l-1.06 1.23a16.12 16.12 0 0 1-2.11 2 14.17 14.17 0 0 1-2.4 1.56l-.1-.1a15 15 0 0 1 1.56-2.4 16.88 16.88 0 0 1 2-2.1l1.22-1.07c.42-.36.9-.68 1.36-1a7.73 7.73 0 0 0 2.3-2.39 10.25 10.25 0 0 1 .89-1.25 10.75 10.75 0 0 1 1-1 12.54 12.54 0 0 1 1.67-1.16 5 5 0 0 1 .72-.37zM112.8 55a5.1 5.1 0 0 1-.26.6 8.19 8.19 0 0 1-.91 1.36 6.69 6.69 0 0 1-.74.78 9.14 9.14 0 0 1-1 .66 4.12 4.12 0 0 0-1 .78 5.56 5.56 0 0 0-.8 1.06 11.55 11.55 0 0 1-.76 1.12l-.82 1a10.08 10.08 0 0 1-1.68 1.53 9.33 9.33 0 0 1-2 1.14l-.1-.1a9.7 9.7 0 0 1 1.15-2 10.44 10.44 0 0 1 1.52-1.68l1-.82a12.75 12.75 0 0 1 1.11-.76 5.74 5.74 0 0 0 1.07-.8 4.31 4.31 0 0 0 .78-1 8.32 8.32 0 0 1 .66-1 6.69 6.69 0 0 1 .78-.74 7.61 7.61 0 0 1 1.36-.91 3.59 3.59 0 0 1 .6-.26z"/><path d="M126.1 41.9a5.82 5.82 0 0 1-.42.75 14.18 14.18 0 0 1-1.31 1.77 13.89 13.89 0 0 1-1 1 14.23 14.23 0 0 1-1.33 1 8.82 8.82 0 0 0-2.48 2.5l-1.1 1.45-1.15 1.3a18.41 18.41 0 0 1-2.25 2.09 16.23 16.23 0 0 1-2.54 1.7l-.1-.1a16.83 16.83 0 0 1 1.71-2.54 18.38 18.38 0 0 1 2.09-2.26l1.3-1.14c.44-.4 1-.73 1.44-1.1a9 9 0 0 0 2.5-2.48 13.48 13.48 0 0 1 1-1.33 9.77 9.77 0 0 1 1-1 14.74 14.74 0 0 1 1.76-1.32 6.94 6.94 0 0 1 .76-.41zm-1.83-5.08a3.59 3.59 0 0 1-.26.6 7.61 7.61 0 0 1-.91 1.36 6.69 6.69 0 0 1-.74.78 8.32 8.32 0 0 1-1 .66 4.58 4.58 0 0 0-1 .78 6.22 6.22 0 0 0-.8 1.07 10.86 10.86 0 0 1-.76 1.11l-.82 1a10 10 0 0 1-1.68 1.52 9.41 9.41 0 0 1-2 1.15l-.1-.1a10.72 10.72 0 0 1 2.67-3.67l1-.82a9.93 9.93 0 0 1 1.12-.75 5.71 5.71 0 0 0 1.06-.81 4.26 4.26 0 0 0 .78-1 6.79 6.79 0 0 1 .67-1 6 6 0 0 1 .77-.75 8.19 8.19 0 0 1 1.36-.91 4 4 0 0 1 .6-.25zm-7.64-.08a3.59 3.59 0 0 1-.26.6 8 8 0 0 1-.91 1.37 7.53 7.53 0 0 1-.74.77 7.3 7.3 0 0 1-1 .66 4.58 4.58 0 0 0-1 .78 5.74 5.74 0 0 0-.8 1.07 9.86 9.86 0 0 1-.76 1.11l-.82 1a10 10 0 0 1-1.68 1.52 9.41 9.41 0 0 1-2 1.15l-.1-.1a10.72 10.72 0 0 1 2.62-3.66l1-.82a9.93 9.93 0 0 1 1.12-.75 5.71 5.71 0 0 0 1.06-.81 4.07 4.07 0 0 0 .78-1 7.32 7.32 0 0 1 .67-1 6 6 0 0 1 .77-.75 7.47 7.47 0 0 1 1.36-.9 3.59 3.59 0 0 1 .6-.26z"/><path d="M123.1 30a2.08 2.08 0 0 1-.16.5 4.92 4.92 0 0 1-.64 1.1 3.5 3.5 0 0 1-.57.59 4.38 4.38 0 0 1-.83.47 2.75 2.75 0 0 0-.82.57 3.45 3.45 0 0 0-.58.85 6 6 0 0 1-.5.92l-.6.78a5.72 5.72 0 0 1-1.39 1.14 5.93 5.93 0 0 1-1.62.78l-.1-.1a6.49 6.49 0 0 1 .78-1.62 5.78 5.78 0 0 1 1.16-1.31l.77-.6a5.32 5.32 0 0 1 .9-.53 4 4 0 0 0 .84-.59 2.65 2.65 0 0 0 .58-.82 4.36 4.36 0 0 1 .46-.83 3.47 3.47 0 0 1 .6-.56 5 5 0 0 1 1.09-.65 3.17 3.17 0 0 1 .5-.16zm-1.9-5.46a4 4 0 0 1-.25.6 8.63 8.63 0 0 1-.95 1.36 6 6 0 0 1-.75.77 6.07 6.07 0 0 1-1 .66 4.36 4.36 0 0 0-1 .79 5.71 5.71 0 0 0-.81 1.06 9.8 9.8 0 0 1-.75 1.11l-.82 1a10.17 10.17 0 0 1-1.69 1.53 9.7 9.7 0 0 1-2 1.14l-.1-.1a9.5 9.5 0 0 1 1.15-2 9.66 9.66 0 0 1 1.52-1.68l1-.83a9.8 9.8 0 0 1 1.11-.75 6.22 6.22 0 0 0 1.07-.8 4.58 4.58 0 0 0 .78-1 8.32 8.32 0 0 1 .66-1 5.34 5.34 0 0 1 .78-.74 7.61 7.61 0 0 1 1.36-.91 3.59 3.59 0 0 1 .6-.26zM103.24 75.9a4.43 4.43 0 0 1-.25.63 9.7 9.7 0 0 1-.91 1.43 6.26 6.26 0 0 1-.75.82 7.06 7.06 0 0 1-1 .73 4.91 4.91 0 0 0-1 .85 6.17 6.17 0 0 0-.81 1.12 10.62 10.62 0 0 1-.75 1.17l-.82 1a10.79 10.79 0 0 1-1.7 1.64 10.31 10.31 0 0 1-2 1.26l-.1-.1a9.91 9.91 0 0 1 1.14-2.08 10.51 10.51 0 0 1 1.53-1.79l1-.9a10.53 10.53 0 0 1 1.13-.82 6.55 6.55 0 0 0 .99-.86 4.62 4.62 0 0 0 .78-1 9.08 9.08 0 0 1 .66-1.08 7.43 7.43 0 0 1 .78-.8 8.63 8.63 0 0 1 1.37-1 3.85 3.85 0 0 1 .61-.29z"/><path d="M108.76 70.3a4 4 0 0 1-.26.63 8.76 8.76 0 0 1-.9 1.43 6.26 6.26 0 0 1-.75.82 7.64 7.64 0 0 1-1 .73 4.67 4.67 0 0 0-1 .85 6.17 6.17 0 0 0-.81 1.12 10.62 10.62 0 0 1-.75 1.17l-.83 1a10.75 10.75 0 0 1-1.69 1.64 10.31 10.31 0 0 1-2 1.26l-.1-.1a9.91 9.91 0 0 1 1.14-2.08 10.08 10.08 0 0 1 1.46-1.77l1-.9a11.5 11.5 0 0 1 1.12-.82 6.63 6.63 0 0 0 1.08-.87 4.93 4.93 0 0 0 .78-1.09 7 7 0 0 1 .66-1.08 6.59 6.59 0 0 1 .78-.8 7.81 7.81 0 0 1 1.37-1 3.42 3.42 0 0 1 .61-.29zm-6.96 14.28a3.29 3.29 0 0 1-.25.63 8.22 8.22 0 0 1-.89 1.44 6.11 6.11 0 0 1-.73.83 7.55 7.55 0 0 1-1 .74 4.66 4.66 0 0 0-1 .86 5.71 5.71 0 0 0-.79 1.13 12.45 12.45 0 0 1-.74 1.18l-.8 1a10.06 10.06 0 0 1-1.68 1.66 10.41 10.41 0 0 1-2 1.28l-.1-.1a10.14 10.14 0 0 1 1.11-2.09 10 10 0 0 1 1.51-1.8l1-.9a10.42 10.42 0 0 1 1.11-.84 6 6 0 0 0 1.06-.88 4.58 4.58 0 0 0 .77-1.09 8 8 0 0 1 .64-1.04 5.89 5.89 0 0 1 .77-.8 7.55 7.55 0 0 1 1.36-1 4.39 4.39 0 0 1 .6-.3z"/><path d="M111.76 74.2a3.7 3.7 0 0 1-.26.62 7.58 7.58 0 0 1-.91 1.43 5.68 5.68 0 0 1-.75.83 7 7 0 0 1-1 .72 4.67 4.67 0 0 0-1 .85 6.24 6.24 0 0 0-.81 1.13 11.74 11.74 0 0 1-.76 1.17l-.83 1a11.46 11.46 0 0 1-3.7 2.91l-.1-.1a10.2 10.2 0 0 1 1.14-2.08 11 11 0 0 1 1.54-1.79l1-.88a9.56 9.56 0 0 1 1.12-.83 6.53 6.53 0 0 0 1.08-.87 4.57 4.57 0 0 0 .78-1.08 8.09 8.09 0 0 1 .67-1.09 5.84 5.84 0 0 1 .78-.79 7.66 7.66 0 0 1 1.37-1 4.79 4.79 0 0 1 .61-.3zM91.84 95.4a3.7 3.7 0 0 1-.26.62 8.65 8.65 0 0 1-.92 1.42 6.37 6.37 0 0 1-.76.82 7.57 7.57 0 0 1-1 .71 4.68 4.68 0 0 0-1 .84 6.21 6.21 0 0 0-.82 1.12 10.54 10.54 0 0 1-.76 1.16l-.84 1a11.42 11.42 0 0 1-3.8 2.92l-.1-.1a10.18 10.18 0 0 1 1.16-2.07 10.61 10.61 0 0 1 1.55-1.82l1-.88a10.46 10.46 0 0 1 1.13-.81 7 7 0 0 0 1.08-.86 4.91 4.91 0 0 0 .79-1.08 7.83 7.83 0 0 1 .72-1.03 6.54 6.54 0 0 1 .79-.79 7.54 7.54 0 0 1 1.38-1 3.42 3.42 0 0 1 .61-.29zm8.16-.97a4 4 0 0 1-.26.63 8.65 8.65 0 0 1-.92 1.42 7.05 7.05 0 0 1-.75.82A7.69 7.69 0 0 1 97 98a4.68 4.68 0 0 0-1 .84 6.21 6.21 0 0 0-.82 1.12 10.54 10.54 0 0 1-.76 1.16l-.84 1a10.58 10.58 0 0 1-1.7 1.62 10.21 10.21 0 0 1-2 1.24l-.1-.1a10.18 10.18 0 0 1 1.16-2.07 10.61 10.61 0 0 1 1.55-1.77l1-.88a10.46 10.46 0 0 1 1.13-.81 7 7 0 0 0 1.08-.86 4.91 4.91 0 0 0 .79-1.08 8 8 0 0 1 .67-1.08 7.23 7.23 0 0 1 .79-.78 7.54 7.54 0 0 1 1.38-1 3.85 3.85 0 0 1 .61-.29zm12.6-13a4 4 0 0 1-.26.63 8.65 8.65 0 0 1-.92 1.42 5.35 5.35 0 0 1-1.8 1.53 4.41 4.41 0 0 0-1 .84 6.45 6.45 0 0 0-.81 1.11 10.75 10.75 0 0 1-.77 1.17l-.83 1a11 11 0 0 1-1.71 1.62 10.21 10.21 0 0 1-2 1.24l-.1-.1a10.5 10.5 0 0 1 1.16-2.07 10.61 10.61 0 0 1 1.46-1.73l1-.88a10.46 10.46 0 0 1 1.13-.81 5.8 5.8 0 0 0 1.08-.87 4.6 4.6 0 0 0 .8-1.07 7.08 7.08 0 0 1 .67-1.08 5.74 5.74 0 0 1 .78-.78 7.9 7.9 0 0 1 1.38-1 3.85 3.85 0 0 1 .61-.29zm-28.44 29.7a3.7 3.7 0 0 1-.26.62 8.27 8.27 0 0 1-.92 1.43 6.92 6.92 0 0 1-.75.81 7.73 7.73 0 0 1-1 .72 4.62 4.62 0 0 0-1 .84 6.45 6.45 0 0 0-.81 1.11 11.81 11.81 0 0 1-.77 1.17l-.83 1a10.62 10.62 0 0 1-1.82 1.65 10 10 0 0 1-2 1.25l-.1-.1a10.5 10.5 0 0 1 1.16-2.07 11.06 11.06 0 0 1 1.55-1.78l1-.87a12.12 12.12 0 0 1 1.13-.82 5.38 5.38 0 0 0 1.08-.86 4.6 4.6 0 0 0 .8-1.07 8 8 0 0 1 .67-1.08 5.84 5.84 0 0 1 .78-.79 9.16 9.16 0 0 1 1.38-1 4.28 4.28 0 0 1 .61-.28z"/><path d="M89.85 105a4 4 0 0 1-.26.63 8.65 8.65 0 0 1-.92 1.42 7.05 7.05 0 0 1-.75.82 7.69 7.69 0 0 1-1 .71 4.68 4.68 0 0 0-1 .84 6.21 6.21 0 0 0-.82 1.12 10.54 10.54 0 0 1-.76 1.16l-.84 1a10.58 10.58 0 0 1-1.7 1.62 10.21 10.21 0 0 1-2 1.24l-.1-.1a10.18 10.18 0 0 1 1.16-2.07 10.61 10.61 0 0 1 1.55-1.77l1-.88a10.46 10.46 0 0 1 1.13-.81 7 7 0 0 0 1.08-.86 4.91 4.91 0 0 0 .79-1.08 8 8 0 0 1 .6-.99 6.43 6.43 0 0 1 .79-.78 7.54 7.54 0 0 1 1.38-1 3.85 3.85 0 0 1 .61-.29zm19-12a3.7 3.7 0 0 1-.26.62 8.27 8.27 0 0 1-.92 1.43 6.92 6.92 0 0 1-.75.81 7.73 7.73 0 0 1-1.05.72 4.62 4.62 0 0 0-1 .84 6.45 6.45 0 0 0-.81 1.11 11.81 11.81 0 0 1-.77 1.17l-.83 1a10.71 10.71 0 0 1-1.71 1.63 10.21 10.21 0 0 1-2 1.24l-.1-.1a10.1 10.1 0 0 1 1.15-2.07 10.61 10.61 0 0 1 1.55-1.77l1-.88a12.12 12.12 0 0 1 1.13-.82 5.38 5.38 0 0 0 1.08-.86 4.6 4.6 0 0 0 .8-1.07 8 8 0 0 1 .63-1.1 5.84 5.84 0 0 1 .78-.79 9.16 9.16 0 0 1 1.38-1 4.05 4.05 0 0 1 .62-.28z"/><path d="M118.18 83.2a3.7 3.7 0 0 1-.26.62 8.27 8.27 0 0 1-.92 1.43 6.92 6.92 0 0 1-.75.81 7.73 7.73 0 0 1-1 .72 4.62 4.62 0 0 0-1 .84 6.45 6.45 0 0 0-.81 1.11 10.75 10.75 0 0 1-.77 1.17l-.83 1a11.24 11.24 0 0 1-3.84 2.9l-.1-.1a10.5 10.5 0 0 1 1.16-2.07 10.61 10.61 0 0 1 1.55-1.77l1-.88a10.46 10.46 0 0 1 1.13-.81 5.8 5.8 0 0 0 1.08-.87 4.6 4.6 0 0 0 .8-1.07 8 8 0 0 1 .67-1.08 5.84 5.84 0 0 1 .78-.79 8.32 8.32 0 0 1 1.38-1 3.67 3.67 0 0 1 .62-.29zM93 109.64a3.7 3.7 0 0 1-.26.62 8.65 8.65 0 0 1-.92 1.42 6.37 6.37 0 0 1-.76.82 7.57 7.57 0 0 1-1 .71 5 5 0 0 0-1.05.84 6.17 6.17 0 0 0-.81 1.12 10.61 10.61 0 0 1-.77 1.16l-.83 1a11.71 11.71 0 0 1-3.72 2.87l-.1-.1a10 10 0 0 1 1.16-2.06 10.18 10.18 0 0 1 1.54-1.78l1-.88a10.46 10.46 0 0 1 1.13-.81 7 7 0 0 0 1.08-.86 4.91 4.91 0 0 0 .79-1.08 7.83 7.83 0 0 1 .67-1.07 7.31 7.31 0 0 1 .78-.79 9.16 9.16 0 0 1 1.39-1 3.42 3.42 0 0 1 .61-.29z"/><path d="M82.86 120.24a3.7 3.7 0 0 1-.26.62 8.18 8.18 0 0 1-.93 1.42 5.63 5.63 0 0 1-.75.82 7.57 7.57 0 0 1-1 .71 5 5 0 0 0-1 .84 6.17 6.17 0 0 0-.81 1.12 10.61 10.61 0 0 1-.77 1.16l-.83 1a10.22 10.22 0 0 1-1.71 1.62 10.75 10.75 0 0 1-2 1.25l-.1-.1a10 10 0 0 1 1.16-2.06 10.18 10.18 0 0 1 1.54-1.78l1-.88a10.46 10.46 0 0 1 1.13-.81 7 7 0 0 0 1.08-.86 4.91 4.91 0 0 0 .79-1.08 7.83 7.83 0 0 1 .67-1.07 7.31 7.31 0 0 1 .78-.79 9.16 9.16 0 0 1 1.39-1 3.42 3.42 0 0 1 .61-.29zm15.84-16.72a3.7 3.7 0 0 1-.26.62 8.27 8.27 0 0 1-.92 1.43 6.92 6.92 0 0 1-.75.81 7.73 7.73 0 0 1-1 .72 4.62 4.62 0 0 0-1 .84 6.45 6.45 0 0 0-.81 1.11 11.81 11.81 0 0 1-.77 1.17l-.83 1a10.19 10.19 0 0 1-1.71 1.62 10 10 0 0 1-2 1.25l-.1-.1A10.5 10.5 0 0 1 89.6 112a11.06 11.06 0 0 1 1.55-1.78l1-.87a12.12 12.12 0 0 1 1.13-.82 5.38 5.38 0 0 0 1.08-.86 4.6 4.6 0 0 0 .8-1.07 8 8 0 0 1 .67-1.08 5.84 5.84 0 0 1 .78-.79 9.16 9.16 0 0 1 1.38-1 4.05 4.05 0 0 1 .62-.28zm.8 6.48a4 4 0 0 1-.26.63 8.65 8.65 0 0 1-.92 1.42 6.37 6.37 0 0 1-.76.82 7.57 7.57 0 0 1-1 .71 4.73 4.73 0 0 0-1.05.84 6.17 6.17 0 0 0-.81 1.12 10.61 10.61 0 0 1-.77 1.16l-.83 1a10.22 10.22 0 0 1-1.71 1.62 10.33 10.33 0 0 1-2 1.24l-.1-.1a10.18 10.18 0 0 1 1.16-2.07 10.52 10.52 0 0 1 1.54-1.77l1-.88a10.46 10.46 0 0 1 1.13-.81 7 7 0 0 0 1.08-.86 4.91 4.91 0 0 0 .79-1.08 8 8 0 0 1 .67-1.08 8.19 8.19 0 0 1 .78-.78 7.92 7.92 0 0 1 1.39-1 3.42 3.42 0 0 1 .61-.29z"/><path d="M108.8 100.8a4 4 0 0 1-.26.63 8.18 8.18 0 0 1-.93 1.42 5.63 5.63 0 0 1-.75.82 7.57 7.57 0 0 1-1 .71 4.73 4.73 0 0 0-1 .84 6.17 6.17 0 0 0-.81 1.12 10.61 10.61 0 0 1-.77 1.16l-.83 1a10.22 10.22 0 0 1-1.71 1.62 10.33 10.33 0 0 1-2 1.24l-.1-.1a10.18 10.18 0 0 1 1.16-2.07 10.52 10.52 0 0 1 1.54-1.77l1-.88a10.46 10.46 0 0 1 1.13-.81 7 7 0 0 0 1.08-.86 4.91 4.91 0 0 0 .79-1.08 8 8 0 0 1 .67-1.08 7.17 7.17 0 0 1 .78-.78 7.92 7.92 0 0 1 1.39-1 3.42 3.42 0 0 1 .61-.29zm14.38-6.96a4.3 4.3 0 0 1-.39.74 14.12 14.12 0 0 1-1.25 1.72 10.22 10.22 0 0 1-1 1 12.08 12.08 0 0 1-1.28.93 8.3 8.3 0 0 0-2.4 2.43 14.51 14.51 0 0 1-1 1.4l-1.1 1.28a17.36 17.36 0 0 1-2.17 2 16 16 0 0 1-2.46 1.64l-.1-.1a15.48 15.48 0 0 1 1.62-2.47 17.25 17.25 0 0 1 2-2.19l1.26-1.1a16.48 16.48 0 0 1 1.4-1 8.38 8.38 0 0 0 2.41-2.41 12 12 0 0 1 .92-1.3 13 13 0 0 1 1-1 14.67 14.67 0 0 1 1.71-1.27 6.27 6.27 0 0 1 .74-.39z"/><path d="M110.17 107a3.7 3.7 0 0 1-.26.62A8.25 8.25 0 0 1 109 109a7.05 7.05 0 0 1-.75.82 8.75 8.75 0 0 1-1 .72 4.63 4.63 0 0 0-1 .83 6.58 6.58 0 0 0-.82 1.12 10.54 10.54 0 0 1-.76 1.16l-.84 1a10.58 10.58 0 0 1-1.7 1.62 10 10 0 0 1-2 1.25l-.1-.1a10 10 0 0 1 1.16-2.06 10.27 10.27 0 0 1 1.55-1.78l1-.87a10.53 10.53 0 0 1 1.13-.82 6.48 6.48 0 0 0 1.08-.86 4.41 4.41 0 0 0 .79-1.08 8.5 8.5 0 0 1 .67-1.07 6.54 6.54 0 0 1 .79-.79 8.68 8.68 0 0 1 1.38-1 5.47 5.47 0 0 1 .61-.29zm-11.5 9.92a4 4 0 0 1-.26.63 8.65 8.65 0 0 1-.92 1.42 6.26 6.26 0 0 1-.75.82 7.69 7.69 0 0 1-1 .71 4.68 4.68 0 0 0-1 .84 6.21 6.21 0 0 0-.82 1.12 10.54 10.54 0 0 1-.76 1.16l-.84 1a10.58 10.58 0 0 1-1.7 1.62 10.21 10.21 0 0 1-2 1.24l-.1-.1a10.83 10.83 0 0 1 1.16-2.07 10.61 10.61 0 0 1 1.55-1.77l1-.88a10.46 10.46 0 0 1 1.13-.81 6.19 6.19 0 0 0 1.08-.86 4.34 4.34 0 0 0 .79-1.08 7.28 7.28 0 0 1 .68-1.07 5.84 5.84 0 0 1 .78-.79 7.9 7.9 0 0 1 1.38-1 3.85 3.85 0 0 1 .61-.29zm-10.1 10.58a6.77 6.77 0 0 1-.45.81 17.33 17.33 0 0 1-1.42 1.9l-1.1 1.13a13.84 13.84 0 0 1-1.42 1.07 10.29 10.29 0 0 0-2.66 2.72l-1.18 1.55-1.24 1.42a20.93 20.93 0 0 1-2.41 2.29 19.45 19.45 0 0 1-2.7 1.89l-.1-.1a19.24 19.24 0 0 1 1.85-2.73A21.33 21.33 0 0 1 78 137l1.4-1.26c.48-.43 1-.8 1.54-1.2a10.46 10.46 0 0 0 2.69-2.7 13.9 13.9 0 0 1 1-1.43 14.56 14.56 0 0 1 1.12-1.11 17.35 17.35 0 0 1 1.88-1.45 5.82 5.82 0 0 1 .8-.46zm32.28-39.14a4.93 4.93 0 0 1-.38.75 14.34 14.34 0 0 1-1.23 1.74 11.39 11.39 0 0 1-1 1 12.19 12.19 0 0 1-1.28 1 8.44 8.44 0 0 0-2.37 2.46 16.71 16.71 0 0 1-1 1.43L112.5 98a17 17 0 0 1-2.15 2.06 15.34 15.34 0 0 1-2.45 1.68l-.1-.1a16.23 16.23 0 0 1 1.59-2.51 17.87 17.87 0 0 1 2-2.22l1.25-1.13c.42-.4.9-.72 1.4-1.07a8.56 8.56 0 0 0 2.39-2.45 12.49 12.49 0 0 1 .9-1.31 13.46 13.46 0 0 1 1-1 12.69 12.69 0 0 1 1.7-1.29 6.39 6.39 0 0 1 .73-.41zM86.9 122.6a3.7 3.7 0 0 1-.26.62 8.65 8.65 0 0 1-.92 1.42 6.37 6.37 0 0 1-.76.82 8.61 8.61 0 0 1-1 .72 4.69 4.69 0 0 0-1.05.83 6.17 6.17 0 0 0-.81 1.12 10.61 10.61 0 0 1-.77 1.16l-.83 1a11.71 11.71 0 0 1-3.72 2.87l-.1-.1A10 10 0 0 1 77.8 131a10.18 10.18 0 0 1 1.54-1.78l1-.88a10.46 10.46 0 0 1 1.13-.81 7 7 0 0 0 1.08-.86 4.91 4.91 0 0 0 .79-1.08 7.83 7.83 0 0 1 .67-1.07 7.31 7.31 0 0 1 .78-.79 9.16 9.16 0 0 1 1.39-1 3.42 3.42 0 0 1 .61-.29z"/><path d="M76.75 133.2a3.36 3.36 0 0 1-.27.62 7.88 7.88 0 0 1-.91 1.42 6.37 6.37 0 0 1-.76.82 7.57 7.57 0 0 1-1 .71 5 5 0 0 0-1 .84 6.17 6.17 0 0 0-.81 1.12 10.61 10.61 0 0 1-.77 1.16l-.83 1a11.71 11.71 0 0 1-3.72 2.87l-.1-.1a10 10 0 0 1 1.16-2.06 10.18 10.18 0 0 1 1.54-1.78l1-.88a10.46 10.46 0 0 1 1.13-.81 7 7 0 0 0 1.08-.86 4.91 4.91 0 0 0 .79-1.08 7.83 7.83 0 0 1 .67-1.07 7.31 7.31 0 0 1 .78-.79 9.16 9.16 0 0 1 1.39-1 3.42 3.42 0 0 1 .61-.29zm15-45.7a4 4 0 0 1-.26.63 8.76 8.76 0 0 1-.9 1.43 6.26 6.26 0 0 1-.75.82 7.06 7.06 0 0 1-1 .73 4.91 4.91 0 0 0-1 .85 6.17 6.17 0 0 0-.83 1.12 9.76 9.76 0 0 1-.75 1.17l-.82 1a11.53 11.53 0 0 1-3.7 2.9l-.1-.1A9.91 9.91 0 0 1 82.71 96a10.51 10.51 0 0 1 1.53-1.79l1-.9a10.53 10.53 0 0 1 1.13-.82 6.55 6.55 0 0 0 1.07-.87 4.62 4.62 0 0 0 .78-1.09 7.94 7.94 0 0 1 .66-1.08 6.49 6.49 0 0 1 .78-.79 8.8 8.8 0 0 1 1.37-1 3.42 3.42 0 0 1 .61-.29zM32 6.35a4.1 4.1 0 0 1 .38-.35 9.62 9.62 0 0 1 .88-.58c.65-.4 1.33-.7 1.33-.7a.66.66 0 0 1 .85.31.64.64 0 0 1-.31.84h-.08s-.72.22-1.47.36l-1 .16c-.25.03-.5 0-.5 0a.09.09 0 0 1-.09.02.05.05 0 0 1 0-.05zm6.46-2.7a9.27 9.27 0 0 0 1.41-.51l1.33-.7a.45.45 0 1 1 .47.76l-.15.06-1.47.35a8.79 8.79 0 0 0-1.39.57.28.28 0 0 1-.38-.12.28.28 0 0 1 .11-.38zM44.8.68l1.52-.54.44-.14.3.27 1.06.9a.754.754 0 0 1-1 1.13l-1.08-.88.76.13-1.5.6a.81.81 0 0 1-1-.49.8.8 0 0 1 .48-1zm5.6 2.46l2.27 2a.64.64 0 0 1 .06.9.63.63 0 0 1-.88.07L49.5 4.2a.693.693 0 0 1 .87-1.08zm5.28 4.6l2.25 2a.45.45 0 0 1 0 .64.45.45 0 0 1-.62.06L55 8.58a.54.54 0 0 1-.09-.77.55.55 0 0 1 .77-.09zm5.24 4.66l2.22 2a.22.22 0 0 1 0 .3.2.2 0 0 1-.28 0l-2.38-1.83a.34.34 0 0 1-.07-.47.35.35 0 0 1 .47-.06zm37.35-5.9h-.5c-.3 0-.67-.1-1-.16-.75-.14-1.47-.36-1.47-.36a.64.64 0 0 1-.42-.8.63.63 0 0 1 .79-.42h.08l1.34.7.88.58a3.21 3.21 0 0 1 .38.31.07.07 0 0 1 0 .11.09.09 0 0 1-.09.03zm-6.6-2.32a9.31 9.31 0 0 0-1.39-.57l-1.47-.35a.451.451 0 0 1 .2-.88.34.34 0 0 1 .15.06 12.7 12.7 0 0 0 1.33.7 9.6 9.6 0 0 0 1.42.51.28.28 0 1 1-.14.54zm-6.73-2l-1.48-.6.76-.14-1.07.9a.751.751 0 1 1-1-1.12l1-.92.4-.27.46.14a15.94 15.94 0 0 1 1.5.54.79.79 0 0 1 .43 1 .81.81 0 0 1-1 .49zm-4.1 2.05l-2.32 1.9a.63.63 0 0 1-.89-.12.63.63 0 0 1 .07-.87l2.24-2a.69.69 0 1 1 .92 1zM75.4 8.64L73 10.5a.44.44 0 0 1-.57-.67l2.22-2a.534.534 0 1 1 .72.79zM69.9 13l-2.36 1.84a.18.18 0 0 1-.25 0 .18.18 0 0 1 0-.23l2.2-2a.301.301 0 1 1 .41.44zm-4.46 59.63l-1.08-1-1.06-1.1a.21.21 0 1 1 .29-.29h0l.92 1.18zm-4.94-4.96l-2.07-2.18a.53.53 0 0 1 0-.76.55.55 0 0 1 .76 0h0l1.9 2.33a.42.42 0 0 1-.06.59.43.43 0 0 1-.52.02z"/><path d="M55.7 62.57l-2-2.22a.72.72 0 0 1 0-1 .71.71 0 0 1 1 0h0l1.95 2.3a.659.659 0 0 1-1 .86zm-4.05-4.47l-2-2.23a.75.75 0 0 1 .06-1.06.73.73 0 0 1 1.05.06h0l2 2.26a.743.743 0 1 1-1.1 1zM47 52.86l-1-1.13-1-1.15a.68.68 0 0 1 1-.9l1 1.1 1 1.12a.736.736 0 1 1-1.08 1zm-4.5-5.34l-1.92-2.32a.52.52 0 0 1 .07-.71.51.51 0 0 1 .69 0l2.06 2.2a.601.601 0 1 1-.88.82zm-3.8-4.66l-1.85-2.37a.21.21 0 0 1 0-.29.21.21 0 0 1 .27 0l2.1 2.14a.39.39 0 0 1 0 .54.38.38 0 0 1-.54 0zm26.68 29.77l.9-1.2.92-1.18a.203.203 0 1 1 .32.25h0l-1.06 1.07zm4.32-5.53l1.9-2.33a.54.54 0 0 1 .76-.07.53.53 0 0 1 .07.75h0l-2.08 2.18a.42.42 0 0 1-.59 0 .43.43 0 0 1-.06-.53zm4.46-5.4l1.94-2.3a.7.7 0 0 1 1-.08.69.69 0 0 1 .08 1h0l-2 2.22a.66.66 0 0 1-.92 0 .64.64 0 0 1-.1-.85zm3.9-4.55l2-2.26a.74.74 0 0 1 1-.08.75.75 0 0 1 .08 1.06h0l-2 2.23a.74.74 0 0 1-1.09-1zm4.63-5.25l1-1.12 1-1.1a.68.68 0 0 1 1 .9l-1 1.15-1 1.13a.743.743 0 0 1-1.1-1zm4.72-5.17l2-2.2a.52.52 0 0 1 .72 0 .51.51 0 0 1 0 .69l-1.9 2.32a.601.601 0 0 1-.93-.76zm4.13-4.37l2.1-2.14a.21.21 0 0 1 .29 0 .2.2 0 0 1 0 .27l-1.84 2.37a.38.38 0 1 1-.6-.46zm-22.9 37.9a5.25 5.25 0 0 1-.5 1.1 9.57 9.57 0 0 1-1.53 2 9.32 9.32 0 0 1-2 1.53 5 5 0 0 1-1.1.5 5.42 5.42 0 0 1 .48-1.12 10 10 0 0 1 3.53-3.52 5.23 5.23 0 0 1 1.12-.49z"/><path d="M63.53 80.25a5.23 5.23 0 0 1 1.1.49 9.39 9.39 0 0 1 2 1.54 9.28 9.28 0 0 1 1.53 2 5.18 5.18 0 0 1 .5 1.11 5.18 5.18 0 0 1-1.11-.5 9.28 9.28 0 0 1-2-1.53 9.57 9.57 0 0 1-1.53-2 5.25 5.25 0 0 1-.49-1.11zm5.12 17.55a5 5 0 0 1-.5 1.1 9.69 9.69 0 0 1-3.52 3.52 5 5 0 0 1-1.1.5 5.42 5.42 0 0 1 .49-1.11 9.89 9.89 0 0 1 3.53-3.51 5 5 0 0 1 1.1-.5z"/><path d="M63.53 97.8a5 5 0 0 1 1.1.5 9.76 9.76 0 0 1 3.52 3.51 5.18 5.18 0 0 1 .5 1.11 5.18 5.18 0 0 1-1.11-.5A9.76 9.76 0 0 1 64 98.9a5 5 0 0 1-.47-1.1zm5.12 16.44a5.25 5.25 0 0 1-.5 1.1 9.69 9.69 0 0 1-3.52 3.52 5.66 5.66 0 0 1-1.1.5 5.42 5.42 0 0 1 .49-1.11 10 10 0 0 1 3.53-3.52 5.23 5.23 0 0 1 1.1-.49z"/><path d="M63.53 114.24a5.23 5.23 0 0 1 1.1.49 9.39 9.39 0 0 1 2 1.54 9.28 9.28 0 0 1 1.53 2 5.18 5.18 0 0 1 .5 1.11 5.88 5.88 0 0 1-1.11-.5 9.76 9.76 0 0 1-3.55-3.54 5.25 5.25 0 0 1-.47-1.1zM60.4 15l-3.8-1.2a.26.26 0 0 1-.18-.34.28.28 0 0 1 .34-.18h0l1.82.84zm-7.64-2.46L49 11.25a.66.66 0 0 1-.4-.82.65.65 0 0 1 .82-.41h0l3.67 1.6a.483.483 0 0 1-.35.9zM45.2 9.92l-1.67-.6-.2-.05a2.23 2.23 0 0 0-.34 0 1.45 1.45 0 0 0-.33 0 .851.851 0 1 1-.21-1.69h.1a3.54 3.54 0 0 1 .61 0 4 4 0 0 1 .6.12l.33.1.27.12 1.4.58a.773.773 0 0 1-.56 1.44zm-4.2.43l-.05.12c0 .07-.07.17-.1.3a2 2 0 0 0-.06.44v2.67a1 1 0 1 1-1.93 0h0v-2.8a3.73 3.73 0 0 1 .16-.82 3.8 3.8 0 0 1 .21-.55l.1-.2a.91.91 0 0 1 1.62.81zm-.18 7.52v2.22h-2v-.3h2v1.5a1 1 0 0 1-2 0v-1.5h2v.3h-2v-2.22a1 1 0 0 1 2 0zm-.02 7.43v3a.94.94 0 0 1-1.87 0v-3a1 1 0 1 1 1.93 0zm.62 4.97l.14.1a1.5 1.5 0 0 0 .24.15 2 2 0 0 0 .92.22 2.08 2.08 0 0 0 .5-.07l.56-.2.6-.2a.8.8 0 0 1 1 .48.81.81 0 0 1-.44 1l-.58.24-.65.26a3.13 3.13 0 0 1-.93.18A3.77 3.77 0 0 1 41 32.1a3.93 3.93 0 0 1-.53-.31l-.14-.1a.89.89 0 1 1 1-1.44zm6.72-1.34l3.8-1.3a.52.52 0 0 1 .66.33.53.53 0 0 1-.28.65l-3.67 1.6a.69.69 0 0 1-.91-.35.68.68 0 0 1 .36-.9zm7.6-2.56l2.86-.9a.13.13 0 0 1 .18.09.14.14 0 0 1-.08.17L56 27a.33.33 0 0 1-.43-.16.34.34 0 0 1 .16-.44zM70.1 15l1.8-.87 1.82-.84a.27.27 0 0 1 .36.14.28.28 0 0 1-.13.36h0l-1.96.6zm7.28-3.36L81.05 10a.65.65 0 0 1 .52 1.19h0l-3.8 1.3a.48.48 0 0 1-.61-.3.48.48 0 0 1 .21-.54zm7.36-3.16l1.38-.58.27-.12.33-.1a4.08 4.08 0 0 1 .61-.12 3.43 3.43 0 0 1 .6 0H88a.853.853 0 1 1-.15 1.7h0a1.45 1.45 0 0 0-.33 0 2.23 2.23 0 0 0-.34 0l-.18.07-.25.1-1.42.5a.771.771 0 0 1-.55-1.44zM91.1 9.5l.1.2a5.15 5.15 0 0 1 .22.55 3.75 3.75 0 0 1 .15.82 3.47 3.47 0 0 1 0 .43v2.37a1 1 0 1 1-1.92 0h0V11.2a2.7 2.7 0 0 0-.07-.44 1.9 1.9 0 0 0-.1-.29l-.06-.12a.901.901 0 0 1 1.61-.81zm.54 8.37v2.22h-2v-.3h2v1.5a1 1 0 1 1-2 0v-1.5h2v.3h-2v-2.22a1 1 0 0 1 2 0zm-.01 7.43v3a.94.94 0 0 1-1.88 0v-3a1 1 0 1 1 2 0zm-1.5 6.4l-.14.1a4.12 4.12 0 0 1-.54.31 3.72 3.72 0 0 1-1.75.34 3.2 3.2 0 0 1-.94-.18l-.65-.26-.57-.24a.8.8 0 0 1 .57-1.49l.6.2.56.2a2.09 2.09 0 0 0 .51.07 1.94 1.94 0 0 0 .91-.22 1.75 1.75 0 0 0 .25-.15l.13-.1a.89.89 0 1 1 1.09 1.4zm-8.28-1.5l-3.67-1.6a.535.535 0 0 1 .38-1l3.78 1.3a.69.69 0 0 1 .43.87.67.67 0 0 1-.87.42zM74.53 27l-2.73-1.28a.14.14 0 0 1 .1-.26l2.87.9a.33.33 0 0 1 .21.41.33.33 0 0 1-.41.21z"/><g fill="none" stroke="#000" stroke-linecap="round" stroke-miterlimit="10" stroke-dasharray="4 4 4 4 3 3"><path d="M69.7 25H59.45V14.6H69.7z"/><path d="M65.4 25v47"/></g><path d="M67.48 70.2l-1.9 2.33a.12.12 0 0 1-.17 0 .11.11 0 0 1 0-.16h0zM63 75.6l-1.92 2.3a.33.33 0 0 1-.47 0 .32.32 0 0 1 0-.46h0l2.06-2.2a.241.241 0 0 1 .36.32zm-2.33 5.85l.08 3a.56.56 0 0 1-.55.56.57.57 0 0 1-.59-.53h0l.1-3a.5.5 0 0 1 1 0zm.15 6v3a.64.64 0 0 1-.62.68.63.63 0 0 1-.64-.65h0v-3a.6.6 0 0 1 .6-.6.61.61 0 0 1 .66.57zm.1 7v3a.67.67 0 0 1-.65.74.68.68 0 0 1-.67-.73h0v-3a.68.68 0 1 1 1.36 0zm-.32 7l.16 3a.68.68 0 0 1-.66.74.71.71 0 0 1-.69-.74v-3c0-.4.17-.75.6-.75s.6.33.6.75zm0 6l.12 3a.62.62 0 0 1-.62.68.65.65 0 0 1-.64-.68v-3c0-.4.17-.72.57-.73s.58.32.58.72zm0 7v3a.52.52 0 0 1-.52.55.54.54 0 0 1-.52-.55l-.06-3c0-.34.17-.63.52-.64s.54.27.54.62zm0 7l-.1 3a.33.33 0 0 1-.35.34.36.36 0 0 1-.33-.34l-.1-3a.43.43 0 0 1 .42-.46.43.43 0 0 1 .45.43zm0 6a14.64 14.64 0 0 0-.17 1.5c0 .75-.13 1.5-.13 1.5s-.06.07-.1.07a.08.08 0 0 1-.08-.07s0-.75-.1-1.5-.07-1.5-.07-1.5.2-.2.3-.22.32.1.32.2z"/></svg>