<svg width="128" height="128" viewBox="0 0 128 128" fill="none" xmlns="http://www.w3.org/2000/svg">
<path d="M106.87 127.788L101.209 127.873C101.102 127.875 101.014 127.788 101.012 127.681C101.01 127.572 101.097 127.483 101.204 127.483C101.209 127.483 101.213 127.483 101.218 127.483L106.87 127.788Z" fill="#0C172F"/>
<path d="M95.5513 127.915L89.8925 127.951C89.6207 127.953 89.3978 127.734 89.396 127.46C89.3942 127.188 89.6134 126.967 89.8871 126.965C89.8943 126.965 89.9034 126.965 89.9106 126.965L95.564 127.221C95.7561 127.23 95.9047 127.393 95.8956 127.583C95.8884 127.768 95.7344 127.913 95.5513 127.915Z" fill="#0C172F"/>
<path d="M84.2341 127.986L78.5752 128C78.1548 128 77.8124 127.659 77.8105 127.239C77.8105 126.819 78.1512 126.476 78.5716 126.476C78.5825 126.476 78.5951 126.476 78.606 126.476L84.2594 126.71C84.611 126.724 84.8846 127.022 84.8701 127.375C84.8556 127.716 84.5729 127.984 84.2341 127.986Z" fill="#0C172F"/>
<path d="M72.9169 127.994L67.258 127.987C66.7235 127.987 66.2886 127.552 66.2886 127.016C66.2904 126.479 66.7253 126.046 67.2616 126.046C67.2707 126.046 67.2852 126.046 67.296 126.046L72.9513 126.26C73.4296 126.278 73.8029 126.681 73.7848 127.161C73.7667 127.626 73.3807 127.994 72.9169 127.994Z" fill="#0C172F"/>
<path d="M61.6014 127.953C61.6014 127.953 60.1736 127.942 58.7457 127.931C57.2164 127.901 55.7251 127.531 55.7251 127.531L55.6997 127.524C55.0982 127.375 54.7321 126.766 54.8807 126.165C55.0311 125.565 55.64 125.197 56.2397 125.347C56.2488 125.349 56.2615 125.353 56.2705 125.355C56.2705 125.355 57.5317 125.704 58.8399 125.766C60.2406 125.813 61.6413 125.862 61.6413 125.862C62.2193 125.88 62.6723 126.362 62.6542 126.94C62.6379 127.507 62.1649 127.955 61.6014 127.953Z" fill="#0C172F"/>
<path d="M50.1973 124.96C50.1973 124.96 50.123 124.904 49.9925 124.804C49.8584 124.701 49.67 124.55 49.4507 124.364C49.2315 124.177 48.9814 123.954 48.7223 123.702C48.5991 123.581 48.4722 123.456 48.3436 123.327C48.2131 123.193 48.0809 123.055 47.9486 122.92C46.8849 121.805 46.0877 120.475 46.0877 120.475L46.0732 120.452C45.7198 119.865 45.9119 119.102 46.499 118.748C47.0879 118.397 47.8507 118.587 48.2023 119.176C48.2041 119.18 48.2113 119.189 48.2131 119.192C48.2131 119.192 48.86 120.316 49.7425 121.269C49.8548 121.388 49.9653 121.508 50.0759 121.626C50.1936 121.745 50.3078 121.863 50.4183 121.977C50.6321 122.191 50.8405 122.383 51.0235 122.544C51.2047 122.704 51.3624 122.833 51.4711 122.921C51.5852 123.01 51.6505 123.061 51.6505 123.061L51.6595 123.068C52.1796 123.478 52.2684 124.228 51.8607 124.748C51.4566 125.261 50.7155 125.353 50.1973 124.96Z" fill="#0C172F"/>
<path d="M44.0031 114.694C44.0031 114.694 43.9922 114.607 43.9705 114.453C43.9524 114.311 43.9179 114.029 43.898 113.751C43.8473 113.173 43.8255 112.4 43.869 111.63C43.9379 110.08 44.3492 108.578 44.3492 108.578L44.3564 108.549C44.5521 107.839 45.2842 107.42 45.9945 107.616C46.7048 107.81 47.1215 108.542 46.9277 109.252C46.9258 109.258 46.924 109.268 46.9222 109.274C46.9222 109.274 46.5616 110.51 46.4819 111.794C46.4366 112.434 46.4439 113.077 46.4783 113.557C46.4946 113.809 46.5091 113.965 46.529 114.132C46.5471 114.286 46.5562 114.373 46.5562 114.373C46.6396 115.08 46.134 115.719 45.4291 115.801C44.7297 115.882 44.0955 115.388 44.0031 114.694Z" fill="#0C172F"/>
<path d="M47.1045 103.054C47.1045 103.054 47.1643 102.98 47.2676 102.851C47.3745 102.719 47.5303 102.534 47.7242 102.317C47.9199 102.101 48.1518 101.853 48.4109 101.599C48.5414 101.476 48.6755 101.349 48.8114 101.22C48.9564 101.092 49.1049 100.961 49.2535 100.831C50.4313 99.8107 51.8102 99.0732 51.8102 99.0732L51.8374 99.0587C52.5079 98.7018 53.3432 98.9555 53.7002 99.6259C54.0571 100.298 53.8034 101.132 53.133 101.489L53.1258 101.492C53.1258 101.492 51.9914 102.09 51.0184 102.926C50.9006 103.027 50.7828 103.13 50.6651 103.23C50.5491 103.34 50.4331 103.447 50.3208 103.552C50.107 103.763 49.9131 103.966 49.7518 104.141C49.5924 104.321 49.4619 104.473 49.3731 104.58C49.2825 104.692 49.2318 104.756 49.2318 104.756L49.2227 104.765C48.7498 105.348 47.8927 105.439 47.3074 104.964C46.7258 104.491 46.6352 103.638 47.1045 103.054Z" fill="#0C172F"/>
<path d="M57.7864 97.2494C57.7864 97.2494 58.1397 97.2331 58.6688 97.2095C58.8011 97.2023 58.946 97.1969 59.0964 97.1896L59.2124 97.1842L59.4081 97.1824C59.4878 97.1842 59.5694 97.1842 59.6527 97.186C59.9843 97.1896 60.3377 97.1932 60.691 97.1969C62.1062 97.2114 63.5195 97.2259 63.5195 97.2259C64.2969 97.2349 64.9202 97.8709 64.9129 98.6483C64.9039 99.4256 64.2679 100.049 63.4905 100.04H63.4833C63.4833 100.04 62.0681 100.018 60.6548 99.9964C60.3014 99.9891 59.9481 99.9837 59.6165 99.9783C59.5331 99.9783 59.4516 99.9765 59.3719 99.9746H59.3121H59.2831H59.2813C59.2631 99.9746 59.428 99.971 59.3574 99.9728H59.3537H59.3465H59.332L59.216 99.9783C59.0656 99.9837 58.9207 99.9891 58.7884 99.9964C58.2593 100.016 57.906 100.031 57.906 100.031C57.1377 100.062 56.489 99.4637 56.4582 98.6954C56.4274 97.9307 57.0217 97.2838 57.7864 97.2494Z" fill="#0C172F"/>
<path d="M69.176 97.3011L74.833 97.3899C75.6013 97.4025 76.2138 98.0349 76.2011 98.8032C76.1884 99.5679 75.5597 100.18 74.7968 100.171L69.1398 100.113C68.3624 100.106 67.7391 99.4682 67.7481 98.6927C67.7554 97.9153 68.3914 97.292 69.1687 97.3011H69.176Z" fill="#0C172F"/>
<path d="M80.4925 97.4913L86.1495 97.6C86.8997 97.6145 87.4976 98.236 87.4831 98.9862C87.4686 99.7345 86.8508 100.331 86.1042 100.322L80.4472 100.242C79.6879 100.231 79.0791 99.6077 79.09 98.8485C79.1009 98.0874 79.726 97.4804 80.4852 97.4913H80.4925Z" fill="#0C172F"/>
<path d="M91.8057 97.7262L97.4609 97.8657C98.1694 97.8838 98.7293 98.4709 98.7112 99.1794C98.6949 99.8806 98.1169 100.437 97.4193 100.431L91.7622 100.383C91.0284 100.377 90.4376 99.7774 90.4449 99.0435C90.4503 98.3096 91.0501 97.7189 91.784 97.7262C91.7894 97.7262 91.8003 97.7262 91.8057 97.7262Z" fill="#0C172F"/>
<path d="M101.919 97.7669C101.919 97.7669 102.006 97.7524 102.158 97.727C102.323 97.698 102.48 97.6709 102.727 97.6165C103.2 97.515 103.823 97.3429 104.43 97.12C105.651 96.6851 106.751 95.9875 106.751 95.9875C107.306 95.636 108.04 95.8027 108.391 96.3572C108.739 96.9044 108.581 97.6292 108.043 97.9843L108.021 97.9988C108.021 97.9988 106.733 98.8468 105.291 99.3904C104.573 99.6677 103.834 99.8851 103.272 100.014C103.002 100.079 102.723 100.133 102.584 100.159C102.431 100.188 102.345 100.204 102.345 100.204C101.674 100.327 101.029 99.8815 100.906 99.2092C100.783 98.5388 101.227 97.8937 101.899 97.7705C101.904 97.7687 101.915 97.7669 101.919 97.7669Z" fill="#0C172F"/>
<path d="M110.573 92.489C110.573 92.489 110.625 92.4183 110.716 92.2915C110.814 92.1574 110.908 92.0215 111.047 91.8095C111.317 91.4018 111.643 90.8364 111.921 90.2457C112.491 89.0661 112.787 87.7814 112.787 87.7814C112.915 87.2233 113.472 86.8754 114.03 87.0041C114.579 87.1291 114.925 87.6691 114.814 88.2181L114.811 88.238C114.811 88.238 114.508 89.7366 113.881 91.1318C113.575 91.8312 113.211 92.5017 112.908 92.9891C112.763 93.2246 112.609 93.4566 112.528 93.5726C112.441 93.7012 112.39 93.7737 112.39 93.7737C112.042 94.281 111.35 94.4097 110.843 94.0618C110.337 93.7139 110.207 93.0199 110.554 92.5143C110.56 92.5071 110.567 92.4962 110.573 92.489Z" fill="#0C172F"/>
<path d="M112.976 82.5749C112.976 82.5749 112.962 82.4879 112.934 82.3357C112.905 82.1744 112.875 82.0041 112.817 81.754C112.71 81.2702 112.53 80.6342 112.297 80.0163C111.842 78.7697 111.115 77.648 111.115 77.648C110.858 77.253 110.97 76.7257 111.367 76.4684C111.751 76.2184 112.264 76.3199 112.527 76.6913L112.538 76.7076C112.538 76.7076 113.407 77.9416 113.978 79.3423C114.27 80.0363 114.504 80.7556 114.647 81.3028C114.719 81.5674 114.777 81.8283 114.808 81.9715C114.841 82.1237 114.859 82.2088 114.859 82.2088C114.969 82.7271 114.64 83.2362 114.121 83.3468C113.603 83.4573 113.094 83.1275 112.983 82.6093C112.982 82.6002 112.978 82.5857 112.976 82.5749Z" fill="#0C172F"/>
<path d="M107.447 73.8326C107.447 73.8326 107.372 73.7837 107.244 73.6967C107.11 73.6079 106.956 73.5064 106.735 73.3742C106.305 73.1132 105.709 72.8016 105.093 72.5316C103.861 71.9807 102.525 71.7144 102.525 71.7144C102.192 71.6473 101.974 71.323 102.041 70.9896C102.107 70.6652 102.413 70.4514 102.734 70.4985L102.748 70.5003C102.748 70.5003 104.218 70.716 105.607 71.2523C106.303 71.5096 106.974 71.8358 107.461 72.1058C107.702 72.2362 107.923 72.3703 108.048 72.4464C108.18 72.528 108.255 72.5751 108.255 72.5751C108.606 72.7907 108.715 73.2528 108.499 73.6043C108.282 73.9558 107.822 74.0645 107.47 73.8471C107.463 73.8435 107.454 73.8362 107.447 73.8326Z" fill="#0C172F"/>
<path d="M96.9902 71.3394L91.3332 71.1708C91.1538 71.1654 91.0142 71.015 91.0197 70.8356C91.0233 70.6635 91.1646 70.5258 91.3368 70.5222L96.9938 70.3971C97.2548 70.3917 97.4686 70.5983 97.4758 70.8592C97.4813 71.1183 97.2747 71.3339 97.0138 71.3394H96.9902Z" fill="#0C172F"/>
<path d="M85.6783 70.9874L80.9707 70.8062L85.6801 70.6612C85.7707 70.6576 85.845 70.7283 85.8486 70.8189C85.8504 70.9095 85.7797 70.9837 85.6891 70.9874C85.6855 70.9874 85.6819 70.9874 85.6783 70.9874Z" fill="#0C172F"/>
<path d="M89.1342 9.43485C89.1342 9.43485 89.1288 9.40042 89.1198 9.33338C89.1034 9.26814 89.1107 9.16305 89.0654 9.03621C88.9857 8.77891 88.7791 8.41288 88.375 8.02693C87.5506 7.26589 86.0031 6.50485 83.9338 5.9069C81.8609 5.30531 79.2625 4.84326 76.2637 4.5479C73.2648 4.23805 69.8601 4.10577 66.16 3.98256C62.4581 3.90464 58.4481 3.76512 54.2171 3.77418C49.968 3.76874 45.5051 3.84122 40.8881 4.02605C36.2748 4.2308 31.5074 4.57146 26.7419 5.28357C25.5496 5.45209 24.3609 5.65865 23.1777 5.88696C21.9926 6.10259 20.8167 6.36171 19.666 6.67337C18.5154 6.97778 17.3775 7.33294 16.3501 7.80405C15.8536 8.04686 15.3499 8.30598 14.9893 8.6122C14.8099 8.7626 14.6486 8.91843 14.5526 9.06158C14.4674 9.1558 14.5145 9.13587 14.4584 9.16124C14.4348 9.13949 14.4258 9.25727 14.4113 9.32432L14.3696 9.55444C14.3877 9.3225 14.3768 9.5037 14.3823 9.45659L14.3841 9.48015L14.3859 9.52363C14.3877 9.55444 14.3714 9.58524 14.3931 9.62329C14.4276 9.69396 14.4113 9.76825 14.4765 9.85342C14.5526 10.0201 14.7012 10.2068 14.8697 10.3861C15.2103 10.7522 15.6978 11.0747 16.1852 11.3755C17.1963 11.9553 18.3215 12.4228 19.4649 12.8305C21.7698 13.6224 24.1707 14.1732 26.5661 14.5954C31.3661 15.4652 36.1896 15.717 40.8356 15.7388C45.4815 15.7496 49.9825 15.5395 54.2171 15.4036C58.4572 15.2477 62.4671 15.101 66.1672 14.9632C69.8673 14.8201 73.2684 14.6643 76.2691 14.3544C79.2698 14.0536 81.8681 13.5916 83.9411 12.9864C86.0104 12.3848 87.5596 11.6165 88.3823 10.8482C88.7845 10.4622 88.9893 10.0854 89.0618 9.85342C89.1089 9.7302 89.1053 9.59793 89.1198 9.52726C89.1306 9.45115 89.1361 9.4131 89.1361 9.4131L89.1342 9.43485ZM89.4858 9.45659C89.4858 9.45659 89.4821 9.49646 89.4731 9.57075C89.455 9.65047 89.4658 9.75557 89.4133 9.91684C89.3173 10.2647 89.0726 10.6851 88.6359 11.1146C87.7517 11.9571 86.1916 12.7852 84.1313 13.5535C83.1003 13.9413 81.9461 14.329 80.6759 14.7204C79.4038 15.0955 78.0195 15.4724 76.53 15.8475C73.5511 16.5922 70.15 17.279 66.4064 17.7791C62.6628 18.2611 58.5804 18.5329 54.2624 18.5039C49.9372 18.5003 45.4072 18.1451 40.7268 17.6178C36.0537 17.0887 31.2501 16.4545 26.3831 15.6572C25.1654 15.4615 23.9478 15.226 22.7283 14.9687C21.5052 14.7259 20.2857 14.4396 19.0699 14.088C17.8504 13.7456 16.6328 13.3542 15.4368 12.7816C14.8425 12.4772 14.2391 12.1728 13.672 11.6799C13.3911 11.4335 13.1102 11.1562 12.8783 10.783C12.7497 10.6199 12.6699 10.3771 12.5793 10.1651C12.5304 10.06 12.5159 9.93133 12.4924 9.80812L12.4652 9.62148L12.4525 9.52907C12.4525 9.44391 12.438 9.58705 12.4489 9.31526L12.4688 9.08151C12.4779 8.99453 12.467 8.95467 12.5141 8.78978C12.5848 8.53066 12.6917 8.19544 12.8022 8.04324C13.016 7.64279 13.2824 7.33837 13.5524 7.06114C14.0996 6.50848 14.6867 6.14246 15.272 5.78006C16.4516 5.09693 17.6583 4.5932 18.8706 4.14745C21.3005 3.28132 23.7575 2.68336 26.2091 2.20318C31.1106 1.24826 35.9685 0.702848 40.6761 0.356758C45.3818 0.00523186 49.9517 -0.0690594 54.2624 0.0577793C58.5931 0.186432 62.6701 0.467291 66.4137 1.01451C70.1572 1.53637 73.5565 2.24486 76.5355 2.98959C78.0249 3.36648 79.4111 3.74338 80.6831 4.12027C81.9533 4.51347 83.1094 4.90305 84.1404 5.29263C86.2006 6.06635 87.7589 6.89987 88.6414 7.74788C89.0781 8.17914 89.3209 8.6122 89.4115 8.93474C89.464 9.09057 89.4568 9.22466 89.4731 9.30801C89.484 9.39136 89.4876 9.43485 89.4876 9.43485L89.4858 9.45659Z" fill="#0C172F"/>
<path d="M89.3103 73.6054C89.2813 73.6054 89.3936 73.9171 89.1526 74.5042C88.908 75.0695 88.2901 75.7708 87.3533 76.4013C86.422 77.0446 85.2043 77.6752 83.7583 78.2387C82.3178 78.8149 80.6562 79.3658 78.8188 79.8405C76.9851 80.3298 74.981 80.7846 72.8447 81.1506C70.7102 81.5275 68.4524 81.8736 66.1059 82.1254C63.7593 82.3864 61.3295 82.5875 58.8579 82.7143C56.3827 82.852 53.8822 82.9046 51.3508 82.9155C48.8738 82.9064 46.3189 82.8539 43.8618 82.7161C41.3903 82.5929 38.9604 82.3882 36.6139 82.1309C34.2673 81.879 32.0078 81.5347 29.8751 81.156C27.7387 80.7882 25.7329 80.337 23.8991 79.8459C22.0618 79.3694 20.402 78.8204 18.9596 78.2423C17.5137 77.6788 16.296 77.0482 15.3664 76.4032C14.4296 75.7726 13.8099 75.0695 13.5671 74.506C13.3298 73.9298 13.4367 73.5982 13.4095 73.6054C13.4294 73.5964 13.4222 73.9443 13.7447 74.4063C14.0654 74.8702 14.7558 75.354 15.7143 75.7925C17.6441 76.6695 20.6683 77.3164 24.3068 77.8564C26.1333 78.1173 28.1229 78.3311 30.2284 78.5395C32.3358 78.7352 34.5663 78.8711 36.873 79.0052C39.1815 79.1338 41.5697 79.219 43.9959 79.2897C46.4385 79.3458 48.8648 79.3893 51.3689 79.3803C53.8188 79.3911 56.2994 79.3477 58.7238 79.2915C61.1501 79.2262 63.5383 79.1356 65.8468 79.0106C68.1534 78.8747 70.3858 78.7424 72.4932 78.5449C74.5987 78.3347 76.5883 78.1246 78.4129 77.8618C82.0532 77.32 85.0756 76.6713 87.0072 75.7943C87.9658 75.3558 88.6543 74.872 88.9751 74.4063C89.2958 73.9552 89.2922 73.5891 89.3103 73.6054Z" fill="#0C172F"/>
<path d="M22.3658 16.9776C22.3658 16.9776 22.5198 17.8438 22.7155 19.3586C22.913 20.8734 23.1685 23.0388 23.3769 25.6353C23.8462 30.8321 24.1271 37.7576 24.1325 44.6848C24.1307 51.6121 23.8535 58.5375 23.3805 63.7325C23.174 66.3309 22.9148 68.4962 22.7173 70.0111C22.5198 71.5259 22.3658 72.392 22.3658 72.392C22.3658 72.392 22.2118 71.5259 22.0143 70.0111C21.8168 68.4962 21.5577 66.3309 21.3511 63.7325C20.8782 58.5375 20.6009 51.6121 20.5991 44.6848C20.6046 37.7576 20.8854 30.8321 21.3547 25.6353C21.5631 23.0388 21.8186 20.8734 22.0161 19.3586C22.2118 17.8438 22.3658 16.9776 22.3658 16.9776Z" fill="#0C172F"/>
<path d="M39.7328 17.8433C39.7328 17.8433 39.5697 18.1803 39.2925 18.6532C39.1511 18.887 38.9953 19.1697 38.8105 19.4523C38.6238 19.735 38.4263 20.0376 38.2306 20.3402C37.417 21.5289 36.5255 22.636 36.5255 22.636C36.1341 23.1216 35.4238 23.1977 34.94 22.8063C34.4544 22.4168 34.3783 21.7065 34.7697 21.2208C34.8205 21.1592 34.8802 21.0994 34.94 21.0505C34.94 21.0505 36.0472 20.159 37.2358 19.3454C37.5384 19.1497 37.841 18.9522 38.1237 18.7656C38.4064 18.5808 38.6891 18.4249 38.9228 18.2836C39.3957 18.0082 39.7328 17.8433 39.7328 17.8433Z" fill="#0C172F"/>
<path d="M32.7305 26.8421C32.7305 26.8421 31.7302 27.8423 30.6684 28.7791C29.6138 29.725 28.4886 30.602 28.4886 30.602C28.0193 30.968 27.3416 30.8847 26.9738 30.4136C26.6639 30.0149 26.6766 29.4677 26.9738 29.0872C26.9738 29.0872 27.8508 27.9619 28.7966 26.9074C29.7334 25.8455 30.7336 24.8453 30.7336 24.8453C31.2845 24.2945 32.1796 24.2945 32.7305 24.8453C33.2813 25.3962 33.2813 26.2895 32.7305 26.8421Z" fill="#0C172F"/>
<path d="M51.36 19.8417C51.36 19.8417 51.1589 20.1407 50.8454 20.5773C50.5392 21.0213 50.1025 21.5848 49.6785 22.1592C49.2381 22.7191 48.7978 23.279 48.468 23.6994C48.1364 24.118 47.9063 24.388 47.9063 24.388C47.6291 24.7141 47.1398 24.7522 46.8137 24.4749C46.4875 24.1977 46.4495 23.7085 46.7267 23.3841C46.7521 23.3533 46.7847 23.3207 46.8137 23.2953C46.8137 23.2953 47.0837 23.0652 47.5022 22.7336C47.9208 22.4038 48.4825 21.9635 49.0424 21.5232C49.6168 21.0992 50.1804 20.6625 50.6243 20.3563C51.061 20.0428 51.36 19.8417 51.36 19.8417Z" fill="#0C172F"/>
<path d="M44.2131 28.6948C44.2131 28.6948 43.269 29.7512 42.2978 30.7804C41.3338 31.8168 40.3463 32.8297 40.3463 32.8297C39.8081 33.3806 38.9257 33.3933 38.373 32.8551C37.8204 32.3169 37.8095 31.4327 38.3477 30.8818C38.3549 30.8746 38.3658 30.8619 38.373 30.8547C38.373 30.8547 39.3859 29.8671 40.4224 28.9049C41.4516 27.9337 42.508 26.9897 42.508 26.9897C43.0045 26.5439 43.7691 26.5874 44.2131 27.0839C44.628 27.5478 44.619 28.2418 44.2131 28.6948Z" fill="#0C172F"/>
<path d="M36.3345 36.8169C36.3345 36.8169 35.3161 37.799 34.276 38.7594C33.2378 39.7198 32.1777 40.6602 32.1777 40.6602C31.6994 41.0842 30.9655 41.0407 30.5415 40.5623C30.1483 40.1184 30.1574 39.457 30.5415 39.024C30.5415 39.024 31.4819 37.9639 32.4423 36.9257C33.4027 35.8856 34.3848 34.8672 34.3848 34.8672C34.9139 34.32 35.7872 34.3037 36.3345 34.8328C36.8817 35.3619 36.898 36.2335 36.3689 36.7825C36.3598 36.7916 36.3453 36.8061 36.3345 36.8169Z" fill="#0C172F"/>
<path d="M27.8409 44.3243C27.8409 44.3243 27.6071 44.5073 27.2556 44.7827C26.9005 45.0545 26.4438 45.4332 25.96 45.7847C25.4799 46.1417 25.0051 46.5005 24.6337 46.756C24.264 47.0133 24.0176 47.1836 24.0176 47.1836C24.0176 47.1836 24.1879 46.9372 24.4452 46.5675C24.7007 46.1961 25.0613 45.7213 25.4164 45.2411C25.768 44.7573 26.1467 44.3007 26.4185 43.9456C26.6939 43.5959 26.8769 43.3603 26.8769 43.3603C27.1106 43.0631 27.5419 43.0106 27.8409 43.2443C28.1399 43.4781 28.1906 43.9093 27.9569 44.2083C27.9242 44.2518 27.8826 44.2917 27.8409 44.3243Z" fill="#0C172F"/>
<path d="M65.1353 19.7018C65.1353 19.7018 64.2601 20.827 63.3486 21.916C62.4481 23.0159 61.5203 24.0886 61.5203 24.0886C61.3228 24.3169 60.9767 24.3423 60.7484 24.1448C60.5183 23.9455 60.4948 23.5994 60.6923 23.3711C60.7086 23.3511 60.7285 23.3312 60.7484 23.3149C60.7484 23.3149 61.8211 22.3871 62.921 21.4884C64.01 20.577 65.1353 19.7018 65.1353 19.7018Z" fill="#0C172F"/>
<path d="M57.7877 28.355C57.7877 28.355 57.5521 28.6195 57.1988 29.0164C56.84 29.4078 56.3616 29.9296 55.8833 30.4497C54.9265 31.4952 53.9698 32.5389 53.9698 32.5389C53.5277 33.0209 52.7793 33.0535 52.2955 32.6114C51.8135 32.1692 51.7809 31.4191 52.223 30.9371C52.2466 30.9117 52.272 30.8863 52.2955 30.8646C52.2955 30.8646 53.341 29.9079 54.3848 28.9511C54.9066 28.4728 55.4285 27.9944 55.8199 27.6356C56.2167 27.2823 56.4812 27.0467 56.4812 27.0467C56.8617 26.7061 57.447 26.7405 57.7877 27.1228C58.1048 27.478 58.0975 28.0089 57.7877 28.355Z" fill="#0C172F"/>
<path d="M50.0785 36.6464C50.0785 36.6464 49.8339 36.9019 49.4661 37.2842C49.0946 37.6629 48.5999 38.1666 48.1035 38.6722C47.1123 39.6797 46.1211 40.6889 46.1211 40.6889C45.5793 41.2398 44.6951 41.247 44.1442 40.7052C43.5934 40.1653 43.5862 39.2792 44.1261 38.7302C44.1316 38.7247 44.1406 38.7157 44.1442 38.712C44.1442 38.712 45.1535 37.7209 46.1628 36.7297C46.6665 36.2332 47.1703 35.7386 47.549 35.3671C47.9331 34.9993 48.1886 34.7547 48.1886 34.7547C48.7213 34.2437 49.5675 34.2618 50.0785 34.7963C50.575 35.3146 50.5696 36.1318 50.0785 36.6464Z" fill="#0C172F"/>
<path d="M42.1075 44.6768C42.1075 44.6768 41.0982 45.668 40.0889 46.6591C39.0652 47.634 38.0396 48.6088 38.0396 48.6088C37.525 49.0981 36.7114 49.0781 36.2203 48.5635C35.7474 48.0652 35.7528 47.2843 36.2203 46.7896C36.2203 46.7896 37.197 45.7658 38.1719 44.7402C39.163 43.7327 40.1542 42.7235 40.1542 42.7235C40.6887 42.1799 41.5639 42.1726 42.1075 42.7072C42.6511 43.2399 42.6602 44.1151 42.1256 44.6587C42.1202 44.6641 42.1111 44.6732 42.1075 44.6768Z" fill="#0C172F"/>
<path d="M33.9046 52.476C33.9046 52.476 32.8609 53.4327 31.8154 54.3876C30.7554 55.328 29.6954 56.2667 29.6954 56.2667C29.3638 56.562 28.8546 56.5312 28.5592 56.1996C28.2874 55.8916 28.2929 55.4313 28.5592 55.1323C28.5592 55.1323 29.4997 54.0705 30.4401 53.0105C31.3968 51.9668 32.3517 50.9231 32.3517 50.9231C32.7613 50.4755 33.4571 50.4447 33.9046 50.856C34.3522 51.2655 34.383 51.9595 33.9735 52.4071C33.9517 52.4307 33.9282 52.4542 33.9046 52.476Z" fill="#0C172F"/>
<path d="M25.3957 59.9659C25.3957 59.9659 24.6981 60.5421 24.0023 61.1165C23.2938 61.6801 22.5835 62.2436 22.5835 62.2436C22.5835 62.2436 23.1488 61.5351 23.7124 60.8266C24.2868 60.1308 24.863 59.4332 24.863 59.4332C24.9953 59.2719 25.2344 59.2484 25.3957 59.3825C25.557 59.5147 25.5805 59.7539 25.4464 59.9152C25.4319 59.9333 25.4138 59.9514 25.3957 59.9659Z" fill="#0C172F"/>
<path d="M79.6446 18.4736C79.6446 18.4736 78.7349 19.5626 77.8253 20.6534C76.903 21.7297 75.9807 22.8061 75.9807 22.8061C75.8212 22.9909 75.5422 23.0126 75.3574 22.8532C75.1726 22.6955 75.1508 22.4165 75.3085 22.2317C75.3229 22.2154 75.3393 22.1991 75.3538 22.1864C75.3538 22.1864 76.4192 21.2514 77.4847 20.3164C78.5646 19.3959 79.6446 18.4736 79.6446 18.4736Z" fill="#0C172F"/>
<path d="M72.2296 27.0532C72.2296 27.0532 71.282 28.1042 70.3343 29.1569C69.3902 30.2133 68.4263 31.248 68.4263 31.248C68.0476 31.6557 67.4115 31.6792 67.0038 31.3005C66.598 30.9218 66.5744 30.284 66.9531 29.8781C66.9658 29.8636 66.9821 29.8473 66.9966 29.8346C66.9966 29.8346 68.0204 28.8579 69.0677 27.9048C70.1078 26.9445 71.1497 25.9841 71.1497 25.9841C71.4577 25.6996 71.9397 25.7196 72.2242 26.0276C72.4924 26.3193 72.4888 26.7651 72.2296 27.0532Z" fill="#0C172F"/>
<path d="M64.5832 35.4036L60.6856 39.5059C60.1892 40.0296 59.3611 40.0513 58.8374 39.553C58.3137 39.0565 58.292 38.2285 58.7903 37.7048C58.8012 37.6921 58.8157 37.6776 58.8265 37.6667L62.8854 33.7239C63.3583 33.2654 64.1139 33.2763 64.5742 33.7492C65.0217 34.2095 65.0217 34.9415 64.5832 35.4036Z" fill="#0C172F"/>
<path d="M56.7567 43.5767L52.8065 47.6265C52.2611 48.1846 51.366 48.1955 50.8061 47.65C50.248 47.1046 50.2371 46.2095 50.7825 45.6514C50.7843 45.6478 50.7934 45.6405 50.7952 45.6369L54.7997 41.6415C55.3379 41.1051 56.2094 41.1051 56.7458 41.6433C57.2785 42.1778 57.2803 43.0385 56.7567 43.5767Z" fill="#0C172F"/>
<path d="M48.802 51.6223C48.802 51.6223 47.7999 52.6208 46.7997 53.621C45.7977 54.6176 44.7757 55.5979 44.7757 55.5979C44.2539 56.098 43.4258 56.0817 42.9239 55.5598C42.4401 55.0543 42.4419 54.2606 42.9148 53.7569C42.9148 53.7569 43.8824 52.724 44.8681 51.7111C45.8557 50.6982 46.8432 49.6871 46.8432 49.6871C47.3741 49.1417 48.2475 49.1309 48.7911 49.6618C49.3347 50.1927 49.3456 51.0642 48.8146 51.6097C48.8128 51.6115 48.8038 51.6205 48.802 51.6223Z" fill="#0C172F"/>
<path d="M40.7179 59.5395L36.6065 63.4298C36.2024 63.8122 35.5646 63.794 35.1823 63.39C34.8162 63.0022 34.8199 62.4006 35.175 62.0147L39.0183 57.8598C39.4676 57.3741 40.2232 57.3452 40.7089 57.7927C41.1927 58.2421 41.2216 58.9977 40.7741 59.4833C40.756 59.5014 40.736 59.5214 40.7179 59.5395Z" fill="#0C172F"/>
<path d="M32.4509 67.2781C32.4509 67.2781 31.4126 68.2403 30.3526 69.1825C29.298 70.1284 28.2435 71.0742 28.2435 71.0742C28.0641 71.2355 27.7868 71.221 27.6256 71.0398C27.4752 70.8731 27.4788 70.623 27.6219 70.46C27.6219 70.46 28.5569 69.3945 29.4901 68.3291C30.4215 67.26 31.371 66.2108 31.371 66.2108C31.6518 65.8992 32.1338 65.8756 32.4455 66.1565C32.7553 66.4392 32.7807 66.9193 32.498 67.231C32.4835 67.2473 32.4672 67.2636 32.4509 67.2781Z" fill="#0C172F"/>
<path d="M77.7596 34.4209C77.7596 34.4209 76.8862 35.548 75.9748 36.637C75.076 37.7387 74.1483 38.8114 74.1483 38.8114C73.9453 39.0451 73.592 39.0687 73.3601 38.8675C73.1263 38.6646 73.101 38.3113 73.3021 38.0793C73.3202 38.0594 73.342 38.0377 73.3601 38.0213C73.3601 38.0213 74.4346 37.0954 75.5381 36.2003C76.6289 35.2907 77.7596 34.4209 77.7596 34.4209Z" fill="#0C172F"/>
<path d="M70.4146 43.0781C70.4146 43.0781 70.1773 43.3408 69.8221 43.7358C69.4633 44.1272 68.985 44.6491 68.5066 45.1709C67.5481 46.2128 66.5913 47.2547 66.5913 47.2547C66.1419 47.744 65.3827 47.7766 64.8953 47.3272C64.4079 46.8778 64.3752 46.1204 64.8228 45.6312C64.8464 45.6058 64.8735 45.5804 64.8971 45.5587C64.8971 45.5587 65.9426 44.602 66.9863 43.647C67.51 43.1705 68.0337 42.6939 68.4251 42.3352C68.8201 41.9818 69.0846 41.7444 69.0846 41.7444C69.4724 41.3965 70.0685 41.4292 70.4164 41.8169C70.7408 42.1775 70.7317 42.7247 70.4146 43.0781Z" fill="#0C172F"/>
<path d="M62.6934 51.3593C62.6934 51.3593 61.7058 52.3722 60.7183 53.3851C59.7235 54.3907 58.7287 55.3946 58.7287 55.3946C58.1815 55.9472 57.2882 55.9527 56.7356 55.4055C56.1829 54.8564 56.1775 53.9649 56.7265 53.4123C56.7283 53.4105 56.7356 53.4014 56.7374 53.3996L58.7523 51.4136C59.7688 50.4297 60.7835 49.444 60.7835 49.444C61.3199 48.924 62.1752 48.9384 62.6952 49.4748C63.2062 50.0003 63.2026 50.8374 62.6934 51.3593Z" fill="#0C172F"/>
<path d="M54.7065 59.3722C54.7065 59.3722 53.6972 60.3633 52.6698 61.3364C51.6424 62.3076 50.6132 63.2788 50.6132 63.2788C50.1076 63.7572 49.3104 63.7354 48.832 63.2281C48.3717 62.7407 48.379 61.9778 48.8338 61.4958C48.8338 61.4958 49.8087 60.4702 50.7817 59.4428C51.7584 58.419 52.7513 57.4134 52.7513 57.4134C53.2877 56.868 54.1647 56.8625 54.7083 57.3989C55.2537 57.9371 55.2591 58.8123 54.7228 59.3559C54.7192 59.3595 54.7101 59.3685 54.7065 59.3722Z" fill="#0C172F"/>
<path d="M46.4585 67.1244C46.4585 67.1244 46.1975 67.3636 45.8043 67.7205C45.4148 68.0811 44.8875 68.5541 44.3529 69.0197C43.2893 69.9547 42.2257 70.8915 42.2257 70.8915C41.9249 71.1561 41.4646 71.1271 41.2001 70.8263C40.9554 70.5473 40.9627 70.1341 41.2019 69.8641C41.2019 69.8641 42.1405 68.8041 43.0791 67.7423C43.5448 67.2078 44.0195 66.6823 44.3819 66.2945C44.7389 65.9013 44.9781 65.6404 44.9781 65.6404C45.3695 65.2146 46.0327 65.1856 46.4603 65.577C46.8879 65.9665 46.9169 66.6315 46.5255 67.0574C46.5038 67.0809 46.4802 67.1045 46.4585 67.1244Z" fill="#0C172F"/>
<path d="M37.8792 74.5451C37.8792 74.5451 37.4642 74.8785 37.0474 75.2101C36.6289 75.5399 36.2085 75.8697 36.2085 75.8697C36.2085 75.8697 36.5383 75.4511 36.8699 75.0307C37.2033 74.6176 37.5367 74.2027 37.5367 74.2027C37.6219 74.0976 37.7741 74.0794 37.8792 74.1646C37.9842 74.2498 38.0006 74.402 37.9172 74.5071C37.9063 74.5216 37.8918 74.5342 37.8792 74.5451Z" fill="#0C172F"/>
<path d="M77.0863 48.6182C77.0863 48.6182 76.8833 48.9154 76.5662 49.3484C76.2564 49.7888 75.8161 50.3487 75.3884 50.9194C74.9463 51.4775 74.5042 52.0356 74.1726 52.4542C73.8428 52.8746 73.6109 53.1428 73.6109 53.1428C73.3427 53.4562 72.8734 53.4907 72.5617 53.2225C72.2501 52.9543 72.2138 52.4832 72.482 52.1715C72.5055 52.1443 72.5345 52.1172 72.5617 52.0936C72.5617 52.0936 72.8299 51.8617 73.2503 51.5337C73.6688 51.2003 74.2269 50.7582 74.785 50.316C75.3558 49.8884 75.9157 49.4481 76.356 49.1382C76.7891 48.8211 77.0863 48.6182 77.0863 48.6182Z" fill="#0C172F"/>
<path d="M69.9129 57.4473C69.9129 57.4473 68.9652 58.5001 68.003 59.5384C67.0409 60.5748 66.0569 61.5932 66.0569 61.5932C65.5297 62.1386 64.6581 62.1549 64.1109 61.6258C63.5655 61.0985 63.5491 60.2269 64.0782 59.6797C64.0873 59.6707 64.1018 59.6562 64.1109 59.6471C64.1109 59.6471 65.1292 58.6632 66.1657 57.701C67.2039 56.737 68.2567 55.7912 68.2567 55.7912C68.7387 55.3581 69.4798 55.398 69.9129 55.88C70.3169 56.3275 70.3061 57.007 69.9129 57.4473Z" fill="#0C172F"/>
<path d="M62.0733 65.6098C62.0733 65.6098 61.0532 66.5901 60.0348 67.5704C59.0056 68.5434 57.9601 69.4965 57.9601 69.4965C57.4527 69.9586 56.6681 69.9223 56.2061 69.4168C55.7712 68.9402 55.7803 68.2118 56.2061 67.7425C56.2061 67.7425 57.1592 66.697 58.1322 65.6678C59.1125 64.6494 60.0928 63.6293 60.0928 63.6293C60.6291 63.0712 61.5152 63.0549 62.0733 63.5912C62.6314 64.1276 62.6477 65.0136 62.1114 65.5717C62.1005 65.5826 62.0842 65.5989 62.0733 65.6098Z" fill="#0C172F"/>
<path d="M53.697 73.2313C53.697 73.2313 53.4252 73.4596 53.0157 73.8003C52.6116 74.1464 52.059 74.594 51.4991 75.0343C50.9428 75.4782 50.3847 75.9203 49.9534 76.2392C49.5258 76.5618 49.2413 76.7774 49.2413 76.7774C49.1435 76.8517 49.0021 76.8318 48.9279 76.7339C48.8662 76.6506 48.8681 76.54 48.9279 76.4621C48.9279 76.4621 49.1435 76.1776 49.466 75.7518C49.7849 75.3187 50.2271 74.7625 50.671 74.2062C51.1095 73.6445 51.5589 73.0936 51.905 72.6877C52.2456 72.28 52.4739 72.0064 52.4739 72.0064C52.7802 71.6386 53.3292 71.5897 53.697 71.8977C54.0649 72.2057 54.1138 72.753 53.8076 73.1208C53.7749 73.1607 53.7351 73.1987 53.697 73.2313Z" fill="#0C172F"/>
<path d="M76.2394 63.0899C76.2394 63.0899 76.0763 63.427 75.8027 63.9035C75.6596 64.1354 75.5073 64.4199 75.3207 64.7026C75.1359 64.9871 74.9384 65.2897 74.7427 65.5941C73.9327 66.7828 73.0376 67.8899 73.0376 67.8899C72.6444 68.3773 71.9287 68.4552 71.4394 68.0602C70.952 67.6652 70.8759 66.9495 71.2691 66.462C71.3198 66.3986 71.3796 66.3406 71.4394 66.2917C71.4394 66.2917 72.5465 65.3966 73.737 64.5866C74.0396 64.3891 74.3422 64.1934 74.6267 64.0086C74.9094 63.822 75.1939 63.6698 75.4258 63.5266C75.9024 63.253 76.2394 63.0899 76.2394 63.0899Z" fill="#0C172F"/>
<path d="M69.2344 72.0875C69.2344 72.0875 68.2341 73.0878 67.1633 74.0173C66.6323 74.4866 66.0887 74.9432 65.6702 75.2748C65.257 75.61 64.9707 75.8239 64.9707 75.8239C64.5069 76.17 63.8509 76.0739 63.5048 75.61C63.2204 75.2295 63.2348 74.7204 63.5048 74.358C63.5048 74.358 63.7187 74.0717 64.0539 73.6585C64.3855 73.24 64.8421 72.6945 65.3114 72.1636C66.2409 71.0946 67.2412 70.0943 67.2412 70.0943C67.7902 69.5435 68.6835 69.5417 69.2344 70.0925C69.7852 70.6434 69.7852 71.5349 69.2362 72.0857L69.2344 72.0875Z" fill="#0C172F"/>
<path d="M79.6456 16.9776C79.6456 16.9776 79.7996 17.8438 79.9953 19.3586C80.1928 20.8734 80.4483 23.0388 80.6567 25.6353C81.126 30.8321 81.4069 37.7576 81.4123 44.6848C81.4105 51.6121 81.1332 58.5375 80.6603 63.7325C80.4537 66.3309 80.1946 68.4962 79.9971 70.0111C79.7996 71.5259 79.6456 72.392 79.6456 72.392C79.6456 72.392 79.4916 71.5259 79.2941 70.0111C79.0966 68.4962 78.8375 66.3309 78.6309 63.7325C78.158 58.5375 77.8807 51.6121 77.8789 44.6848C77.8843 37.7576 78.1652 30.8321 78.6345 25.6353C78.8429 23.0388 79.0984 20.8734 79.2959 19.3586C79.4916 17.8438 79.6456 16.9776 79.6456 16.9776Z" fill="#0C172F"/>
</svg>
