<svg width="24" height="24" viewBox="0 0 24 24" fill="none" xmlns="http://www.w3.org/2000/svg">
<path d="M15.5949 4.20459H8.40492C6.08492 4.20459 4.20459 6.08526 4.20459 8.40492V15.5949C4.20459 17.9149 6.08526 19.7953 8.40526 19.7953H15.5946C17.9146 19.7953 19.7953 17.9146 19.7953 15.5946V8.40492C19.7953 6.08492 17.9146 4.20459 15.5946 4.20459H15.5949Z" stroke="white" stroke-miterlimit="10"/>
<path d="M12.0001 15.7635C14.0786 15.7635 15.7635 14.0786 15.7635 12.0001C15.7635 9.92172 14.0786 8.23682 12.0001 8.23682C9.92172 8.23682 8.23682 9.92172 8.23682 12.0001C8.23682 14.0786 9.92172 15.7635 12.0001 15.7635Z" stroke="white" stroke-miterlimit="10"/>
<path d="M16.5695 8.23669C17.0148 8.23669 17.3758 7.87568 17.3758 7.43036C17.3758 6.98503 17.0148 6.62402 16.5695 6.62402C16.1242 6.62402 15.7632 6.98503 15.7632 7.43036C15.7632 7.87568 16.1242 8.23669 16.5695 8.23669Z" fill="white"/>
</svg>
