<svg width="83" height="128" viewBox="0 0 83 128" fill="none" xmlns="http://www.w3.org/2000/svg">
<path d="M75.3082 125.456C75.3163 125.435 75.6048 125.71 76.3009 125.916C76.9668 126.119 78.1976 126.132 79.2711 125.195C79.7735 124.727 80.2133 124.015 80.2698 123.168C80.3102 122.288 80.2698 121.261 80.2739 120.187C80.2678 118.024 80.2033 115.536 80.1629 112.752C80.1266 109.967 80.062 106.884 79.9672 103.529C79.8703 100.171 79.7654 96.5413 79.6544 92.6632C79.4284 84.9049 79.1096 76.1519 78.8776 66.6039C78.6254 57.058 78.5467 46.7129 78.4841 35.7727C78.466 33.0387 78.4478 30.2663 78.4297 27.4596C78.4317 24.6529 78.4337 21.8119 78.4337 18.9406C78.4337 18.2223 78.4357 17.502 78.4357 16.7796C78.4337 16.0694 78.4498 15.2905 78.4095 14.7054C78.3469 13.4523 78.1492 12.1933 77.7234 11.0109C76.8941 8.65211 75.3788 6.48909 73.3025 5.21791C72.2755 4.57828 71.0992 4.18078 70.0136 4.05367L69.4507 4.01533L69.1682 3.99717C69.1742 3.99515 68.9563 3.98506 69.146 3.99314L69.0047 3.99111L67.8728 3.98304C67.1181 3.97699 66.3615 3.97094 65.6048 3.96489C62.5742 3.94067 59.5213 3.91645 56.4523 3.89224C50.3103 3.8418 44.0936 3.78934 37.8285 3.73688C31.5634 3.67836 25.2478 3.58353 18.906 3.47053C17.3221 3.43825 15.7341 3.40596 14.1482 3.37368C13.7628 3.36964 13.3249 3.34543 12.9859 3.35956C12.6449 3.38579 12.2979 3.35754 11.9589 3.42009C11.2789 3.50887 10.603 3.66424 9.95527 3.91444C7.33825 4.89305 5.19741 7.15091 4.00694 9.83048C3.40767 11.1683 3.03237 12.6452 2.87902 14.0718L2.80638 15.2623L2.78217 16.4124L2.73979 18.7994C2.68128 21.9773 2.62478 25.1533 2.56829 28.3252C2.536 31.4951 2.50372 34.6589 2.47144 37.8126C2.45933 40.9684 2.44722 44.1141 2.4331 47.2456C2.41292 59.7779 2.58443 72.1104 2.89516 84.0454C3.02631 90.0119 3.15545 95.8795 3.28257 101.624C3.3431 104.495 3.40162 107.336 3.46215 110.143C3.49444 112.95 3.52672 115.722 3.56102 118.456C3.56708 119.824 3.57514 121.182 3.58321 122.532C3.58725 122.942 3.59128 123.01 3.6276 123.192C3.64374 123.27 3.65585 123.351 3.69217 123.42C3.71437 123.496 3.74464 123.567 3.78903 123.634C3.93834 123.906 4.17845 124.14 4.469 124.293C4.7636 124.443 5.09249 124.497 5.39313 124.463C5.46981 124.457 5.54649 124.449 5.61913 124.421L5.7301 124.394C5.74422 124.382 5.76037 124.374 5.77651 124.37C5.79669 124.362 5.80677 124.37 5.84107 124.36L6.05092 124.231L6.15585 124.166C6.14374 124.176 6.32938 124.055 6.15383 124.172L6.35359 124.029C7.42703 123.281 8.49039 122.536 9.54567 121.799C13.7668 118.856 17.8527 116.021 21.8136 113.353C25.7482 110.649 29.5839 108.151 33.2038 105.734C35.0177 104.53 36.7833 103.355 38.5004 102.215C38.5952 102.151 38.7304 102.062 38.8797 101.973C39.023 101.89 39.1723 101.812 39.3236 101.745C39.6243 101.606 39.9451 101.517 40.2639 101.45C40.9076 101.327 41.5674 101.354 42.1868 101.513C42.4955 101.596 42.7921 101.713 43.0726 101.856C43.2078 101.931 43.4076 102.042 43.4862 102.102L43.6658 102.227L43.8151 102.34C44.2086 102.637 44.598 102.932 44.9854 103.222C48.0887 105.551 50.9943 107.732 53.6799 109.745C56.3655 111.761 58.8474 113.591 61.1012 115.228C65.5847 118.535 69.1561 121.063 71.5854 122.796C74.0128 124.532 75.3082 125.456 75.3082 125.456ZM75.0802 125.776C75.0802 125.776 73.7767 124.864 71.3332 123.153C68.8897 121.44 65.3143 118.918 60.7037 115.793C58.4095 114.213 55.8551 112.484 53.0605 110.623C50.2659 108.763 47.2413 106.751 44.0109 104.6C43.6073 104.332 43.1997 104.063 42.7881 103.791L42.6348 103.688C42.6408 103.694 42.544 103.636 42.5056 103.611C42.3805 103.531 42.3523 103.537 42.2716 103.492C42.1041 103.422 41.9306 103.367 41.753 103.331C41.3979 103.264 41.0266 103.273 40.6775 103.363C40.504 103.414 40.3305 103.47 40.1731 103.557C40.0924 103.597 40.0157 103.646 39.9411 103.696L39.6808 103.884C38.0343 105.123 36.3374 106.398 34.5981 107.706C31.1114 110.31 27.4774 113.095 23.6175 115.906C19.7817 118.749 15.7482 121.656 11.5634 124.655C10.5162 125.403 9.46092 126.158 8.39757 126.919L8.19781 127.06L7.88102 127.255L7.67118 127.383C7.55617 127.443 7.4129 127.51 7.28175 127.568L6.87618 127.736L6.51097 127.837C6.26884 127.909 6.01864 127.948 5.76642 127.972C4.75956 128.079 3.73253 127.879 2.84472 127.417C1.96095 126.951 1.20227 126.22 0.711953 125.318C0.5808 125.096 0.477899 124.862 0.395171 124.618C0.298319 124.378 0.241819 124.13 0.191375 123.88C0.0824164 123.406 0.0824212 122.792 0.084439 122.532C0.09251 121.182 0.100575 119.824 0.108646 118.456C0.14093 115.722 0.173214 112.95 0.207516 110.143C0.266031 107.336 0.326564 104.495 0.387097 101.624C0.512197 95.8795 0.643354 90.0119 0.774508 84.0454C1.08322 72.1104 1.25473 59.7779 1.23456 47.2456C1.22245 44.1141 1.21034 40.9684 1.19823 37.8126C1.16595 34.6589 1.13165 31.4951 1.09936 28.3252C1.04287 25.1533 0.986371 21.9773 0.929874 18.7994L0.885485 16.4124L0.869344 15.1795L0.897592 13.985C1.01462 12.2417 1.38387 10.5871 2.02148 8.99311C3.27248 5.82928 5.68168 2.96408 8.99886 1.5456C9.82008 1.19048 10.6917 0.94431 11.5816 0.792978C12.0235 0.698144 12.4775 0.702185 12.9274 0.657794C13.3814 0.623492 13.7386 0.633579 14.1482 0.619455C15.7341 0.587171 17.3221 0.554886 18.906 0.522602C25.2478 0.409608 31.5634 0.314774 37.8285 0.256259C44.0936 0.203798 50.3103 0.151337 56.4523 0.100893C59.5213 0.07668 62.5742 0.0524684 65.6048 0.0282554C66.3615 0.0222022 67.1181 0.0161435 67.8728 0.0100903L69.0047 0.0020237L69.146 7.05638e-06L69.4043 0.0100903L69.6867 0.0242145L70.2497 0.0524628C72.1585 0.215901 73.8816 0.821231 75.4071 1.72518C78.464 3.55326 80.5886 6.48909 81.6802 9.64284C82.2472 11.2227 82.5176 12.8773 82.6003 14.5137C82.6508 15.3773 82.6306 16.0472 82.6367 16.7796C82.6367 17.502 82.6367 18.2223 82.6387 18.9406C82.6387 21.8119 82.6407 24.6529 82.6427 27.4596C82.6246 30.2663 82.6064 33.0387 82.5882 35.7727C82.5257 46.7129 82.447 57.058 82.1948 66.6039C81.9627 76.1519 81.6439 84.9049 81.4179 92.6632C81.307 96.5413 81.202 100.171 81.1052 103.529C81.0104 106.884 80.9458 109.967 80.9075 112.752C80.8671 115.536 80.8045 118.024 80.7985 120.187C80.7803 121.275 80.8086 122.253 80.7541 123.202C80.6734 124.201 80.1548 125.002 79.5737 125.532C78.3368 126.586 76.9426 126.547 76.1899 126.309C75.405 126.065 75.0903 125.754 75.0802 125.776" fill="#231F20"/>
<path d="M1.83398 21.5123C1.83398 21.5123 3.40985 21.3549 4.98369 21.2238C6.55956 21.1047 8.1334 20.9837 8.1334 20.9837C8.42598 20.9615 8.68021 21.1814 8.70241 21.472C8.7246 21.7645 8.50669 22.0188 8.21411 22.041C8.18788 22.043 8.15963 22.043 8.1334 22.041C8.1334 22.041 6.55956 21.9199 4.98369 21.8009C3.40985 21.6697 1.83398 21.5123 1.83398 21.5123Z" fill="#231F20"/>
<path d="M14.4328 20.6092C14.4328 20.6092 16.0087 20.5285 17.5826 20.4498C19.1584 20.3893 20.7323 20.3308 20.7323 20.3308C21.386 20.3066 21.9348 20.815 21.9591 21.4688C21.9833 22.1205 21.4748 22.6693 20.821 22.6936C20.7928 22.6956 20.7605 22.6956 20.7323 22.6936C20.7323 22.6936 19.1584 22.635 17.5826 22.5745C16.0087 22.4958 14.4328 22.4151 14.4328 22.4151C13.9345 22.3909 13.5511 21.9651 13.5753 21.4668C13.5995 21.0007 13.9768 20.6334 14.4328 20.6092Z" fill="#231F20"/>
<path d="M27.0318 20.1338C27.0318 20.1338 28.6077 20.0995 30.1816 20.0652C30.9685 20.047 31.7574 20.0289 32.3466 20.0167C32.9378 20.0087 33.3313 20.0026 33.3313 20.0026C34.1666 19.9905 34.8527 20.6564 34.8648 21.4897C34.8769 22.3251 34.211 23.0111 33.3757 23.0232C33.3636 23.0232 33.3434 23.0232 33.3313 23.0232C33.3313 23.0232 32.9378 23.0171 32.3466 23.0091C31.7574 22.9949 30.9685 22.9788 30.1816 22.9606C28.6077 22.9263 27.0318 22.892 27.0318 22.892C26.2712 22.8739 25.6658 22.2443 25.684 21.4816C25.7001 20.7411 26.2994 20.1519 27.0318 20.1338Z" fill="#231F20"/>
<path d="M39.6314 19.9554C39.6314 19.9554 41.2072 19.9332 42.7811 19.9433C44.3569 19.9534 45.9308 19.9655 45.9308 19.9655C46.7843 19.9716 47.4723 20.6697 47.4663 21.5232C47.4602 22.3707 46.7742 23.0527 45.9308 23.0587C45.9308 23.0587 44.3569 23.0708 42.7811 23.0829C41.2072 23.091 39.6314 23.0688 39.6314 23.0688C38.7718 23.0567 38.0838 22.3505 38.0959 21.4909C38.108 20.6455 38.792 19.9675 39.6314 19.9554Z" fill="#231F20"/>
<path d="M52.2307 20.0263L58.5301 20.1655C59.2746 20.1836 59.8638 20.7991 59.8457 21.5416C59.8295 22.2639 59.2444 22.841 58.5301 22.8592L52.2307 22.9984C51.4094 23.0166 50.7295 22.3669 50.7113 21.5456C50.6931 20.7244 51.3449 20.0444 52.1641 20.0263C52.1843 20.0263 52.2105 20.0263 52.2307 20.0263" fill="#231F20"/>
<path d="M64.8299 20.3865C64.8299 20.3865 66.4058 20.439 67.9796 20.5277C69.5555 20.6085 71.1293 20.6892 71.1293 20.6892C71.5853 20.7114 71.9344 21.0988 71.9102 21.5548C71.89 21.9785 71.545 22.3135 71.1293 22.3356C71.1293 22.3356 69.5555 22.4164 67.9796 22.4971C66.4058 22.5858 64.8299 22.6383 64.8299 22.6383C64.2084 22.6585 63.6878 22.1722 63.6656 21.5507C63.6455 20.9273 64.1317 20.4067 64.7552 20.3865C64.7794 20.3865 64.8057 20.3865 64.8299 20.3865" fill="#231F20"/>
<path d="M77.4286 21.1036C77.4286 21.1036 78.5928 21.1964 79.7591 21.2912C80.9233 21.4022 82.0896 21.5132 82.0896 21.5132C82.0896 21.5132 80.9233 21.6221 79.7591 21.7351C78.5928 21.828 77.4286 21.9208 77.4286 21.9208C77.2026 21.9389 77.0048 21.7715 76.9867 21.5455C76.9685 21.3195 77.138 21.1217 77.364 21.1036C77.3842 21.1016 77.4084 21.1016 77.4286 21.1036Z" fill="#231F20"/>
<path d="M39.2948 89.8794V82.9989C35.344 82.9303 31.2561 81.7035 28.8711 80.0005L30.5055 75.4363C32.9591 77.0707 36.5022 78.3661 40.3158 78.3661C45.1543 78.3661 48.4231 75.5715 48.4231 71.6894C48.4231 67.9424 45.7677 65.626 40.7254 63.5821C33.7762 60.8561 29.4845 57.7225 29.4845 51.7964C29.4845 46.1406 33.5038 41.8489 39.771 40.8279V33.9474H43.9962V40.5555C48.0841 40.6907 50.8767 41.7803 52.8521 42.9384L51.1491 47.436C49.7185 46.6188 46.9259 45.1196 42.5656 45.1196C37.3194 45.1196 35.344 48.2532 35.344 50.9792C35.344 54.5203 37.8642 56.2919 43.7903 58.7455C50.8081 61.6067 54.3513 65.1498 54.3513 71.2112C54.3513 76.5945 50.6043 81.6349 43.5866 82.7931V89.8794H39.2948Z" fill="#231F20"/>
</svg>
