<svg width="96" height="97" viewBox="0 0 96 97" fill="none" xmlns="http://www.w3.org/2000/svg">
<path d="M47.4212 59.6568C47.2018 59.5197 47.3585 59.615 47.3089 59.5824L47.305 59.5746L47.2984 59.5615L47.2854 59.5341L47.2592 59.4779L47.207 59.3669L47.1012 59.1448L46.8909 58.6995L46.4821 57.8061L45.6841 56.0115C45.1655 54.8098 44.6548 53.6069 44.1598 52.3974C43.6583 51.1906 43.1828 49.9746 42.697 48.7612L41.2955 45.1053C40.3773 42.6616 39.5048 40.2021 38.6976 37.7205C37.8865 35.2402 37.0872 32.7559 36.3061 30.2639L37.6841 30.6635C36.9735 31.2226 36.246 31.762 35.5224 32.3092C34.7936 32.85 34.1066 33.4351 33.3934 33.9981C32.6907 34.5701 32.039 35.1919 31.3585 35.794C30.7472 36.451 30.0694 37.0675 29.5391 37.791C29.2609 38.1437 28.9618 38.4846 28.7423 38.8738C28.5099 39.2539 28.2421 39.6183 28.0697 40.0258L27.7889 40.6266L27.5969 41.2497C27.5211 41.456 27.4989 41.6676 27.4754 41.8792L27.4388 42.194C27.4336 42.2985 27.4532 42.4003 27.4584 42.5035L27.4806 42.8092L27.5616 43.0991C27.5969 43.2977 27.7066 43.4648 27.7863 43.6412C28.0018 43.9768 28.2721 44.2159 28.6535 44.5189L30.7773 46.2678C32.1983 47.4302 33.5985 48.6123 34.9425 49.8544C35.6165 50.4722 36.2747 51.107 36.933 51.7417C37.5887 52.3791 38.2457 53.0152 38.8883 53.6657L40.8174 55.617L42.6904 57.5736C43.2834 58.16 44.007 58.6289 44.8063 58.9555C45.6109 59.2755 46.4834 59.4505 47.399 59.4544L47.4212 59.6568ZM47.4186 59.6568C46.5187 59.888 45.5299 59.9089 44.583 59.7026C43.6295 59.5066 42.7126 59.0808 41.9159 58.48L41.6168 58.2436L41.353 58.0229L40.8292 57.5775L39.7817 56.688L37.7167 54.8777C37.0284 54.2743 36.3531 53.6565 35.6778 53.04C35.0039 52.4209 34.3312 51.8018 33.673 51.167C32.3538 49.9001 31.0921 48.5744 29.8486 47.2291L27.9783 45.2164C27.6752 44.9172 27.2925 44.4993 27.0705 44.0252C26.9738 43.7809 26.8563 43.5432 26.8236 43.2846C26.8001 43.1579 26.7727 43.0325 26.7531 42.9058L26.7505 42.527C26.7531 42.4017 26.744 42.2737 26.7583 42.1509L26.821 41.7878C26.8576 41.5448 26.8968 41.3032 26.9869 41.0799L27.2129 40.3968L27.5185 39.7581C27.6974 39.3153 27.9665 38.9339 28.2029 38.529C28.4328 38.1189 28.7227 37.7571 28.9866 37.3731L29.3915 36.8036C29.5299 36.6181 29.6867 36.447 29.829 36.2642L30.7015 35.1775C31.3245 34.497 31.9201 33.7786 32.5654 33.1151C33.2184 32.4621 33.8519 31.779 34.5272 31.1468C35.2103 30.5264 35.8907 29.8981 36.5882 29.2895L37.5077 28.4875L37.9662 29.6879C38.8974 32.1264 39.8091 34.5715 40.7103 37.0217C41.6142 39.4694 42.4553 41.9406 43.2481 44.4275L44.4145 48.1656C44.7854 49.4168 45.1668 50.6668 45.5208 51.9246C45.8826 53.1798 46.2274 54.4415 46.5644 55.7058L47.0503 57.6088L47.2841 58.5623L47.3951 59.043L47.4499 59.282L47.4774 59.4021L47.4904 59.4622L47.4983 59.4923L47.5009 59.5066L47.5035 59.5145C47.4552 59.487 47.6132 59.5876 47.3951 59.4544L47.4186 59.6568Z" fill="#0C172F"/>
<path d="M47.6212 59.6568C47.676 59.2532 47.6421 59.5445 47.6578 59.4544H47.6682H47.6891L47.7322 59.453H47.8184L47.9895 59.4504L48.3291 59.4282C48.5538 59.4047 48.7771 59.3773 48.9965 59.3368C49.4354 59.2545 49.8612 59.1265 50.2674 58.9659C51.0759 58.6354 51.8112 58.1495 52.3977 57.5526L54.285 55.5543L56.2116 53.5598C58.8016 50.9215 61.4191 48.3118 64.141 45.8093L66.1851 43.9494C66.6605 43.5131 66.876 42.9463 66.863 42.2188C66.8486 41.5004 66.5991 40.7037 66.2387 39.9409C65.8834 39.169 65.4132 38.4245 64.9195 37.6865C64.414 36.9538 63.8602 36.2393 63.2894 35.534C62.7056 34.8392 62.1022 34.1522 61.4687 33.4913C60.8418 32.8225 60.1796 32.1851 59.5082 31.5569C58.8277 30.9378 58.1368 30.3304 57.4223 29.7492L57.9213 29.6016C57.4863 30.8477 57.0775 32.1015 56.7092 33.3698C56.333 34.6354 55.9895 35.9115 55.6591 37.1928C54.9995 39.7541 54.3373 42.3154 53.4974 44.8179C53.0808 46.0692 52.6432 47.3153 52.2005 48.5587C51.742 49.7969 51.2992 51.0403 50.8173 52.2707C50.3458 53.5037 49.852 54.7301 49.3466 55.9526C48.8267 57.1713 48.3121 58.3899 47.7309 59.5876L47.6212 59.6568ZM47.5376 59.5236C47.7884 58.2161 48.1058 56.9309 48.4179 55.6444C48.7445 54.3631 49.0827 53.0844 49.4432 51.8135C49.7933 50.5401 50.1838 49.2784 50.556 48.0114C50.9453 46.751 51.341 45.4919 51.7564 44.2393C52.5805 41.7316 53.5823 39.2839 54.588 36.8375C55.0896 35.6137 55.5781 34.3846 56.0339 33.1464C56.4976 31.9095 56.9208 30.6596 57.3178 29.4005L57.4563 28.9655L57.8181 29.2529L60.0006 30.9822C60.732 31.5582 61.4504 32.1499 62.1662 32.7507C62.8819 33.3528 63.5794 33.9797 64.2638 34.6289C64.9378 35.2885 65.6052 35.9637 66.2125 36.7082C66.8264 37.4475 67.3854 38.2468 67.8635 39.1259C68.3337 40.0062 68.7255 40.9884 68.8156 42.1208C68.8574 42.6837 68.8039 43.2885 68.6106 43.8736C68.4186 44.4562 68.0594 45.0113 67.6414 45.4279L65.6522 47.3714C62.9929 49.9379 60.2279 52.3961 57.4354 54.8255L55.326 56.6318C54.6037 57.23 53.9337 57.8126 53.167 58.4238C52.3598 59.0403 51.4429 59.4687 50.4842 59.6764C50.0062 59.7835 49.519 59.8318 49.0383 59.8279C48.798 59.8279 48.5577 59.8122 48.3213 59.7822L47.9686 59.7286L47.7949 59.6934L47.7074 59.6751L47.6643 59.6659L47.6434 59.6607L47.6316 59.6594C47.6395 59.568 47.599 59.8593 47.6473 59.4544L47.5376 59.5236Z" fill="#0C172F"/>
<path d="M29.1325 14.8069C29.22 14.534 29.4002 14.291 29.6392 14.1291C29.8952 13.9593 30.1343 13.8979 30.3785 13.7842C30.8631 13.5753 31.345 13.3584 31.8244 13.1338C32.7792 12.6753 33.7248 12.196 34.6652 11.7036L35.0191 11.5194L35.1067 11.4737C35.1367 11.4593 35.1576 11.445 35.2281 11.4189C35.3431 11.3718 35.4711 11.3457 35.5991 11.334C36.1215 11.2895 36.6544 11.5887 36.8987 12.0889C36.9274 12.1568 36.9535 12.2064 36.9783 12.2913C37.0018 12.3723 37.0214 12.482 37.024 12.4912L37.0332 12.5408L37.0384 12.5904V12.5957L37.041 12.6087L37.0449 12.6322L37.0619 12.7315L37.1272 13.1247L37.2383 13.9122C37.3924 14.9611 37.4642 16.0138 37.5439 17.0665C37.6118 18.1193 37.6732 19.1733 37.698 20.2287C37.7176 20.755 37.7137 21.284 37.7241 21.8104L37.7398 23.3947C37.7424 24.45 37.7529 25.5054 37.7411 26.562C37.7333 27.6187 37.6823 28.6767 37.6275 29.7346L37.6118 30.0677L37.4289 30.2179C36.2652 31.1753 35.1027 32.134 33.9573 33.1109L32.2554 34.5934L30.5849 36.1098L30.3289 36.3423L30.116 36.0458C29.9788 35.8538 29.7881 35.6122 29.6105 35.4019C29.4263 35.1877 29.2435 34.9695 29.0476 34.7632C28.6623 34.3465 28.2743 33.9286 27.8629 33.5315C27.4606 33.1279 27.044 32.7374 26.6273 32.3429C26.4183 32.1444 26.1898 31.8949 25.9938 31.6494C25.7966 31.3973 25.6138 31.1309 25.4583 30.8487C25.1475 30.2845 24.9098 29.6758 24.77 29.0502C24.6316 28.4246 24.5767 27.7885 24.5898 27.1602C24.6067 26.532 24.6877 25.9142 24.8249 25.3121C24.8928 25.0104 24.9803 24.7152 25.0756 24.4213C25.1775 24.1209 25.2807 23.8544 25.427 23.5305L25.4061 23.588C26.0174 22.1212 26.7083 20.6806 27.3744 19.2321C27.697 18.5046 28.0236 17.7784 28.3161 17.0404C28.6113 16.3038 28.8778 15.558 29.1325 14.8069ZM29.3258 14.8722C29.0737 15.6233 28.8334 16.3795 28.6218 17.1436C28.4076 17.909 28.2273 18.6835 28.0431 19.458C27.6944 21.0136 27.3718 22.5784 26.9695 24.1157L26.9473 24.1718C26.882 24.3782 26.8089 24.6551 26.7527 24.9033C26.69 25.158 26.6404 25.4166 26.5947 25.6739C26.5032 26.1898 26.4431 26.7083 26.4209 27.2203C26.3961 27.7336 26.4157 28.2417 26.4771 28.7393C26.545 29.2344 26.6508 29.7242 26.8298 30.1918C26.9225 30.4229 27.0231 30.6528 27.1432 30.8749C27.2686 31.1021 27.3966 31.298 27.5612 31.5318L28.563 32.9333C28.8934 33.4035 29.2435 33.8567 29.5857 34.3191L30.1055 35.0061C30.2831 35.2425 30.4503 35.445 30.6371 35.7232L30.1682 35.6592L31.8126 34.114L33.4257 32.5349C34.4902 31.4704 35.5364 30.3877 36.5839 29.3036L36.384 29.7869C36.243 28.7367 36.1032 27.6866 36.0079 26.6339C35.9073 25.5824 35.8303 24.5297 35.7454 23.477L35.6291 21.8979C35.5952 21.3715 35.5481 20.8464 35.5233 20.3188C35.4593 19.266 35.4332 18.2107 35.4123 17.1553C35.4058 16.1 35.3888 15.0447 35.4541 13.9867L35.4998 13.1926L35.5325 12.7955L35.5403 12.6962L35.5429 12.6701L35.5442 12.6584V12.6518C35.5455 12.6688 35.5416 12.6048 35.5481 12.6884V12.6388C35.5481 12.5826 35.5494 12.6296 35.5586 12.6453C35.569 12.6649 35.5664 12.6558 35.5756 12.6597C35.6121 12.6727 35.6291 12.6362 35.62 12.6061C35.6174 12.5996 35.6121 12.5891 35.603 12.5865C35.6095 12.5787 35.5703 12.5891 35.5377 12.5983L35.441 12.6231L35.0557 12.7224C34.0265 12.9849 33.0025 13.2592 31.9863 13.557C31.4796 13.7098 30.9767 13.8704 30.4765 14.0389C30.2374 14.133 29.9527 14.197 29.7646 14.3158C29.5635 14.4451 29.4054 14.6437 29.3258 14.8722Z" fill="#0C172F"/>
<path d="M65.4746 14.8722C65.3949 14.6437 65.2369 14.4451 65.0358 14.3158C64.8477 14.197 64.5629 14.133 64.3239 14.0389C63.8237 13.8704 63.3195 13.7098 62.8141 13.557C61.7979 13.2605 60.7739 12.9849 59.7447 12.7224L59.3594 12.6231L59.2627 12.5983C59.2301 12.5891 59.1909 12.5787 59.1961 12.5865C59.1869 12.5891 59.183 12.5996 59.1804 12.6061C59.1713 12.6362 59.1883 12.6727 59.2248 12.6597C59.234 12.6558 59.2314 12.6662 59.2418 12.6453C59.2509 12.6296 59.2523 12.5826 59.2523 12.6388V12.6884C59.2588 12.6048 59.2536 12.6688 59.2562 12.6518V12.6584L59.2575 12.6714L59.2588 12.6962L59.2679 12.7955L59.3006 13.1926L59.3463 13.9867C59.4116 15.0447 59.3946 16.1 59.3881 17.1553C59.3672 18.2107 59.3411 19.266 59.2771 20.3188C59.2523 20.8464 59.2052 21.3715 59.1713 21.8979L59.055 23.4783C58.9701 24.5297 58.8931 25.5824 58.7925 26.6352C58.6958 27.6866 58.5574 28.7367 58.4163 29.7869L58.2165 29.3036C59.2627 30.3877 60.3102 31.4704 61.3747 32.5349L62.9878 34.114L64.6322 35.6592L64.1633 35.7232C64.3501 35.445 64.5172 35.2425 64.6949 35.0061L65.2147 34.3191C65.5569 33.8567 65.9069 33.4035 66.2374 32.9333L67.2379 31.5318C67.4038 31.298 67.5318 31.1021 67.6572 30.8749C67.7773 30.6528 67.8779 30.4229 67.9706 30.1918C68.1496 29.7242 68.2541 29.2344 68.3233 28.7393C68.3847 28.2417 68.4043 27.7336 68.3794 27.2203C68.3572 26.7083 68.2972 26.1898 68.2057 25.6739C68.16 25.4166 68.1104 25.158 68.0477 24.9033C67.9915 24.6551 67.9184 24.3782 67.8531 24.1718L67.8309 24.1157C67.4286 22.5784 67.106 21.0136 66.7572 19.458C66.5731 18.6835 66.3928 17.909 66.1786 17.1436C65.967 16.3795 65.7267 15.6233 65.4746 14.8722ZM65.6679 14.8069C65.9226 15.558 66.1891 16.3038 66.4843 17.0404C66.7768 17.7784 67.1034 18.5046 67.426 19.2321C68.0921 20.6806 68.783 22.1212 69.3943 23.588L69.3734 23.5305C69.5197 23.8544 69.6229 24.1209 69.7247 24.4213C69.8188 24.7152 69.9076 25.0104 69.9755 25.3121C70.1127 25.9142 70.1936 26.532 70.2106 27.1602C70.2237 27.7885 70.1688 28.4246 70.0304 29.0502C69.8906 29.6758 69.6529 30.2845 69.3421 30.8487C69.1866 31.1322 69.0038 31.3973 68.8065 31.6494C68.6106 31.8949 68.3807 32.1444 68.1731 32.3429C67.7564 32.7374 67.3398 33.1279 66.9375 33.5315C66.5261 33.9286 66.1381 34.3465 65.7515 34.7632C65.5569 34.9696 65.3741 35.1877 65.1899 35.4019C65.0123 35.6122 64.8216 35.8538 64.6844 36.0458L64.4715 36.3423L64.2155 36.1098L62.545 34.5934L60.8431 33.1109C59.6976 32.134 58.5352 31.1753 57.3714 30.2179L57.1886 30.0677L57.1716 29.7346C57.118 28.6767 57.0671 27.6187 57.0593 26.562C57.0462 25.5054 57.058 24.45 57.0606 23.3947L57.0763 21.8117C57.0867 21.284 57.0828 20.755 57.1024 20.2287C57.1272 19.1733 57.1886 18.1206 57.2565 17.0665C57.3362 16.0138 57.408 14.9611 57.5621 13.9122L57.6732 13.1247L57.7385 12.7315L57.7554 12.6336L57.7594 12.6087L57.762 12.5957V12.5905L57.7659 12.5408L57.7763 12.4925C57.7789 12.482 57.7985 12.3723 57.822 12.2927C57.8469 12.2064 57.873 12.1568 57.9017 12.0902C58.146 11.5887 58.6789 11.2909 59.2013 11.334C59.3293 11.3457 59.4573 11.3718 59.5723 11.4189C59.6428 11.445 59.6637 11.4593 59.6937 11.4737L59.7812 11.5194L60.1352 11.7036C61.0756 12.196 62.0212 12.6767 62.976 13.1338C63.4554 13.3584 63.9373 13.5753 64.4219 13.7842C64.6661 13.8979 64.9052 13.9593 65.1612 14.1291C65.4002 14.291 65.5804 14.534 65.6679 14.8069Z" fill="#0C172F"/>
<path d="M29.2746 14.9312C27.5375 15.9669 25.7703 16.9387 24.0057 17.9183L22.6748 18.6379L22.343 18.8182L22.0387 18.9984C21.8754 19.1134 21.6965 19.2427 21.5358 19.3942C20.8854 19.978 20.4387 20.7669 20.2793 21.6041C20.2375 21.8131 20.2167 22.0247 20.2088 22.2363C20.2062 22.4322 20.2153 22.6856 20.2206 22.9416L20.2532 24.4528L20.3185 27.4752L20.3695 33.5199C20.3708 35.5352 20.3394 37.5493 20.2793 39.5646C20.2153 41.58 20.1265 43.594 20.0377 45.6094C19.9502 47.6247 19.8627 49.6388 19.8222 51.6541C19.7922 52.6611 19.7791 53.6694 19.7739 54.6765C19.7634 55.6835 19.7569 56.6918 19.7687 57.6988C19.7765 59.7142 19.8065 61.7282 19.8705 63.7436L20.0756 69.7883L20.1879 72.8107L20.2389 74.3219L20.2493 74.6993L20.2558 74.8887L20.2584 74.9828C20.2598 75.0272 20.2571 74.9488 20.2584 74.9658L20.2598 74.9893L20.2637 75.0363C20.2846 75.2858 20.2989 75.5588 20.3473 75.7246C20.4922 76.5227 20.8867 77.3377 21.447 77.9568C21.7252 78.2755 22.0596 78.5354 22.4031 78.7718C22.7584 78.9926 23.1398 79.1676 23.5368 79.293C23.9378 79.3961 24.3466 79.4876 24.7646 79.4784C24.8599 79.4837 24.9801 79.485 25.1107 79.481L25.4895 79.4758L26.2444 79.4654L29.2668 79.4223C31.2821 79.3935 33.2962 79.3596 35.3115 79.3661L38.3339 79.3609L41.3562 79.3948C43.3716 79.4144 45.3856 79.4406 47.401 79.4915L46.4384 80.4528C46.4723 78.717 46.5141 76.9785 46.5703 75.2427C46.616 73.5042 46.6813 71.7684 46.7479 70.0312L46.8589 67.4242L46.9856 64.8198C47.0888 63.0827 47.1672 61.3455 47.2991 59.6084H47.5029C47.6348 61.3455 47.7131 63.0827 47.8163 64.8198L47.9443 67.4242L48.054 70.0312C48.1206 71.7684 48.186 73.5042 48.2317 75.2427C48.2878 76.9785 48.3296 78.717 48.3636 80.4528L48.3819 81.3906L47.401 81.4154C45.3856 81.4663 43.3716 81.4925 41.3562 81.5121L38.3339 81.546L35.3115 81.5408C33.2962 81.5473 31.2821 81.5134 29.2668 81.4846L26.2444 81.4415L25.4895 81.4311L25.1107 81.4259C24.9905 81.4259 24.8586 81.4219 24.7032 81.4115C24.1102 81.401 23.5251 81.2652 22.9608 81.0954C20.6921 80.3601 18.9824 78.2938 18.7015 75.9336C18.6519 75.6032 18.6598 75.372 18.6532 75.1186L18.6506 74.9828L18.6532 74.8887L18.6584 74.6993L18.6702 74.3219L18.7211 72.8107L18.8335 69.7883L19.0385 63.7436C19.1025 61.7282 19.1326 59.7142 19.1404 57.6988C19.1522 56.6918 19.1456 55.6835 19.1339 54.6765C19.13 53.6694 19.1169 52.6611 19.0869 51.6541C19.0464 49.6388 18.9589 47.6247 18.8713 45.6094C18.7825 43.594 18.6937 41.58 18.6297 39.5646C18.5696 37.5493 18.5383 35.5352 18.5396 33.5199L18.5905 27.4752L18.6558 24.4528L18.6885 22.9416C18.6911 22.6948 18.7002 22.444 18.7224 22.137C18.7538 21.8458 18.8021 21.5584 18.8779 21.2763C19.1744 20.1504 19.8405 19.1356 20.7495 18.442C20.9742 18.267 21.2158 18.1168 21.4836 17.9692L21.8454 17.7955L22.1928 17.6453L23.5812 17.0445C25.4411 16.2621 27.2984 15.4732 29.1858 14.7483L29.2746 14.9312Z" fill="#0C172F"/>
<path d="M55.6931 64.6566C55.5651 64.1916 55.4724 63.728 55.3784 63.263C55.2987 62.798 55.2112 62.3343 55.1459 61.8694L55.0806 61.4109L55.6931 61.3221C58.0389 60.9812 60.3834 60.8584 62.7292 60.8493C65.075 60.8558 67.4195 60.9773 69.7653 61.3195L70.3792 61.4083L70.3152 61.8694C70.2499 62.3343 70.1611 62.798 70.0827 63.263C69.9873 63.728 69.8946 64.1916 69.7653 64.6566C69.636 64.1916 69.5433 63.728 69.4479 63.263C69.3696 62.798 69.2807 62.3343 69.2154 61.8694L69.7653 62.4192C67.4195 62.7601 65.075 62.8816 62.7292 62.8881C60.3834 62.879 58.0389 62.7562 55.6931 62.4166L56.2404 61.8694C56.1751 62.3343 56.0876 62.798 56.0079 63.263C55.9139 63.728 55.8211 64.1916 55.6931 64.6566Z" fill="#0C172F"/>
<path d="M35.4115 11.9169C37.3406 12.3988 39.2619 12.9004 41.1767 13.4267C41.6391 13.5482 42.1419 13.684 42.603 13.7729C43.0693 13.8734 43.5512 13.9649 44.028 14.0302C44.506 14.102 44.988 14.1529 45.4686 14.1869C45.9506 14.2248 46.4325 14.2404 46.9132 14.2418C47.8758 14.2535 48.8371 14.196 49.788 14.072C50.2634 14.0093 50.7362 13.9283 51.2051 13.8355C51.674 13.7363 52.139 13.6279 52.6014 13.5077C53.0559 13.3784 53.5196 13.2413 53.9989 13.0898L55.4213 12.6509L58.2673 11.7797L58.5077 11.7066L58.7636 11.7836C61.1983 12.5138 63.6446 13.2099 66.0714 13.9675L66.1419 13.9897L66.2033 14.0197C68.0188 14.8974 69.8174 15.8078 71.6146 16.7234L72.9573 17.4222L73.2916 17.5972L73.6508 17.8009C73.9251 17.9747 74.1615 18.1445 74.3796 18.3391C75.2678 19.1084 75.8765 20.1676 76.105 21.2974C76.2317 21.8499 76.22 22.4808 76.1978 22.951L76.1494 24.4635L76.0528 27.4871C75.9783 29.5038 75.9496 31.5191 75.913 33.5358C75.9026 35.5524 75.8765 37.5678 75.8961 39.5844C75.8987 41.6011 75.9339 43.6164 75.964 45.6331L76.2957 57.7304C76.4146 61.7624 76.4864 65.7957 76.5256 69.8277L76.5596 72.8514L76.5765 74.3639L76.5844 75.1201C76.5648 75.4963 76.5883 75.6008 76.5321 75.9782C76.2461 78.4468 74.4593 80.5379 72.1188 81.2602C71.5375 81.4378 70.9302 81.5227 70.3254 81.5358L68.8038 81.5397L65.7801 81.5436C63.7635 81.5502 61.7481 81.5149 59.7315 81.5018C57.7148 81.4875 55.6995 81.4627 53.6828 81.4235L47.6342 81.3085L46.7578 81.2916L46.78 80.453C46.8257 78.7159 46.8492 76.9787 46.9132 75.2416L47.083 70.0302C47.1339 68.293 47.1966 66.5559 47.2802 64.8187C47.3586 63.0816 47.4291 61.3445 47.5323 59.6073H47.7361C47.8392 61.3445 47.9111 63.0816 47.9881 64.8187C48.0717 66.5559 48.1344 68.293 48.1854 70.0302L48.3552 75.2416C48.4192 76.9787 48.4427 78.7159 48.4884 80.453L47.6342 79.5988L53.6828 79.4826C55.6995 79.4434 57.7148 79.4199 59.7315 79.4055C61.7481 79.3925 63.7635 79.3572 65.7801 79.3624L68.8038 79.3663H70.3072C70.7108 79.3585 71.1078 79.2971 71.4944 79.1926C72.2637 78.968 72.973 78.5239 73.5085 77.9126C73.7684 77.6031 74.01 77.2713 74.172 76.8991C74.2582 76.7149 74.33 76.5242 74.3901 76.3309L74.4698 76.037L74.5181 75.768C74.5625 75.6504 74.5599 75.2455 74.5769 75.1201L74.5847 74.3639L74.6017 72.8514L74.6357 69.8277C74.6748 65.7957 74.7467 61.7624 74.8668 57.7304L75.1973 45.6331C75.2273 43.6164 75.2626 41.6011 75.2652 39.5844C75.2848 37.5678 75.26 35.5524 75.2482 33.5358C75.213 31.5191 75.1829 29.5038 75.1085 27.4871L75.0131 24.4635L74.9648 22.951C74.953 22.4155 74.9348 22.0275 74.812 21.5978C74.5886 20.7632 74.0871 20.0148 73.4144 19.5041C73.2485 19.3722 73.0644 19.2625 72.9076 19.1737L72.5994 19.0209L72.2546 18.8667L70.8766 18.2424C69.0467 17.396 67.2182 16.5444 65.4066 15.6602L65.5398 15.7124C63.1026 14.9862 60.685 14.2 58.2569 13.4476L58.7519 13.4516L55.8823 14.2391L54.4469 14.631C53.9754 14.7616 53.483 14.8896 52.9788 15.015C52.4773 15.1286 51.9731 15.2292 51.465 15.3049C50.9556 15.3794 50.4463 15.4395 49.9343 15.48C48.9129 15.5609 47.8863 15.5688 46.8662 15.5035C46.3568 15.4682 45.8474 15.416 45.3432 15.3415C44.8391 15.271 44.3362 15.1822 43.8399 15.0711C43.341 14.9667 42.8525 14.8439 42.3588 14.6937C41.8559 14.5487 41.4118 14.3867 40.9272 14.213C39.0608 13.5351 37.2022 12.8325 35.3501 12.1115L35.4115 11.9169Z" fill="#0C172F"/>
<path d="M35.6761 1.27723C35.6761 1.27723 35.4214 1.30204 35.0387 1.34123C34.656 1.37519 34.1466 1.4209 33.6372 1.46792C32.6171 1.54629 31.5983 1.62596 31.5983 1.62596C31.405 1.64033 31.2379 1.49666 31.2222 1.30466C31.2078 1.11135 31.3515 0.942861 31.5435 0.928494C31.5618 0.927187 31.5814 0.927187 31.5983 0.928494C31.5983 0.928494 32.6171 1.00817 33.6372 1.08653C34.1466 1.13355 34.656 1.17927 35.0387 1.21323C35.4214 1.25241 35.6761 1.27723 35.6761 1.27723Z" fill="#0C172F"/>
<path d="M27.5203 1.89558L25.4815 2.00138C24.4614 2.05232 23.4426 2.10326 23.4426 2.10326C22.9868 2.12677 22.5975 1.77542 22.5753 1.31828C22.5518 0.86244 22.9032 0.474521 23.3603 0.451011C23.3877 0.449705 23.4152 0.449705 23.4426 0.451011C23.4426 0.451011 24.4614 0.50195 25.4815 0.552889C26.5002 0.60644 27.5203 0.658685 27.5203 0.658685C27.8612 0.67697 28.1237 0.968235 28.1068 1.30913C28.0898 1.62783 27.8325 1.8786 27.5203 1.89558Z" fill="#0C172F"/>
<path d="M19.3646 2.26312C19.3646 2.26312 18.3445 2.29969 17.3257 2.33626C16.3056 2.365 15.2869 2.39373 15.2869 2.39373C14.6704 2.41071 14.1571 1.92484 14.1401 1.30835C14.1231 0.691856 14.609 0.17855 15.2242 0.16157C15.2438 0.160264 15.2673 0.160264 15.2869 0.16157C15.2869 0.16157 16.3056 0.188999 17.3257 0.217733C18.3445 0.254305 19.3646 0.290876 19.3646 0.290876C19.9092 0.310468 20.335 0.767611 20.3154 1.31226C20.2958 1.8321 19.8753 2.24353 19.3646 2.26312Z" fill="#0C172F"/>
<path d="M11.2092 2.47938L7.13148 2.53163C6.43923 2.54077 5.86976 1.98567 5.86193 1.29342C5.85279 0.601178 6.40658 0.0317085 7.10013 0.0238717C7.10797 0.0225656 7.12234 0.0225656 7.13148 0.0238717L11.2092 0.0748105C11.8727 0.0839534 12.4043 0.628606 12.3965 1.29212C12.3873 1.94518 11.8583 2.47024 11.2092 2.47938Z" fill="#0C172F"/>
<path d="M4.50464 1.45589L4.48635 5.5336C4.48374 6.22715 3.91949 6.78617 3.22594 6.78356C2.53631 6.77964 1.9799 6.22193 1.97598 5.5336L1.959 1.45589C1.95509 0.753192 2.52325 0.179805 3.22594 0.177193C3.92864 0.174581 4.50203 0.741437 4.50464 1.44413V1.45589Z" fill="#0C172F"/>
<path d="M4.42482 9.61125C4.42482 9.61125 4.40131 10.6313 4.37911 11.6501C4.34907 12.6702 4.31902 13.689 4.31902 13.689C4.30074 14.2898 3.80049 14.7613 3.20098 14.7443C2.62237 14.726 2.16392 14.2584 2.14564 13.689C2.14564 13.689 2.1156 12.6702 2.08556 11.6501C2.06335 10.6313 2.03984 9.61125 2.03984 9.61125C2.02547 8.95296 2.54662 8.407 3.20621 8.39263C3.86449 8.37696 4.41045 8.89941 4.42482 9.55769C4.42482 9.57467 4.42482 9.59557 4.42482 9.61125Z" fill="#0C172F"/>
<path d="M4.15344 17.7672C4.15344 17.7672 4.1221 18.7872 4.05548 19.806C3.99671 20.8261 3.93793 21.8449 3.93793 21.8449C3.91573 22.2354 3.58136 22.5319 3.19083 22.5097C2.82903 22.4888 2.54691 22.1988 2.52601 21.8449C2.52601 21.8449 2.46724 20.8261 2.40846 19.806C2.34185 18.7872 2.3105 17.7672 2.3105 17.7672C2.29483 17.2591 2.6945 16.8333 3.20259 16.8163C3.71197 16.8006 4.13777 17.2003 4.15344 17.7097C4.15344 17.728 4.15344 17.7489 4.15344 17.7672Z" fill="#0C172F"/>
<path d="M3.65614 25.9226C3.65614 25.9226 3.63524 26.1773 3.6039 26.56C3.56994 26.9427 3.52422 27.4521 3.47981 27.9615C3.38839 28.9815 3.27345 30.0003 3.27345 30.0003C3.27083 30.0238 3.24994 30.0408 3.22643 30.0382C3.20683 30.0356 3.19116 30.0199 3.18855 30.0003C3.18855 30.0003 3.07361 28.9815 2.98349 27.9615C2.93908 27.4521 2.89337 26.9427 2.85941 26.56C2.82806 26.1773 2.80716 25.9226 2.80716 25.9226C2.78757 25.6875 2.96259 25.4824 3.19639 25.4628C3.43149 25.4446 3.63655 25.6183 3.65614 25.8534C3.65745 25.8756 3.65745 25.9004 3.65614 25.9226Z" fill="#0C172F"/>
<path d="M35.6761 94.844C35.6761 94.844 35.4214 94.8701 35.0387 94.908C34.656 94.9419 34.1466 94.9876 33.6372 95.0346C32.6171 95.113 31.5983 95.1927 31.5983 95.1927C31.405 95.2084 31.2379 95.0634 31.2222 94.8714C31.2078 94.6781 31.3515 94.5109 31.5435 94.4952C31.5618 94.4939 31.5814 94.4939 31.5983 94.4952C31.5983 94.4952 32.6171 94.5749 33.6372 94.6546C34.1466 94.7003 34.656 94.746 35.0387 94.78C35.4214 94.8191 35.6761 94.844 35.6761 94.844Z" fill="#0C172F"/>
<path d="M27.5203 95.4619L25.4815 95.5677C24.4614 95.6186 23.4426 95.6695 23.4426 95.6695C22.9868 95.6931 22.5975 95.3417 22.5753 94.8846C22.5518 94.4287 22.9032 94.0408 23.3603 94.0173C23.3877 94.016 23.4152 94.016 23.4426 94.0173C23.4426 94.0173 24.4614 94.0682 25.4815 94.1192C26.5002 94.1727 27.5203 94.225 27.5203 94.225C27.8612 94.2433 28.1237 94.5345 28.1068 94.8754C28.0898 95.1941 27.8325 95.4449 27.5203 95.4619Z" fill="#0C172F"/>
<path d="M19.3646 95.8295C19.3646 95.8295 18.3445 95.8661 17.3257 95.9027C16.3056 95.9314 15.2869 95.9601 15.2869 95.9601C14.6704 95.9771 14.1571 95.4912 14.1401 94.8748C14.1231 94.2583 14.609 93.745 15.2242 93.728C15.2438 93.7267 15.2673 93.728 15.2869 93.728C15.2869 93.728 16.3056 93.7554 17.3257 93.7841C18.3445 93.8207 19.3646 93.8573 19.3646 93.8573C19.9092 93.8769 20.335 94.3353 20.3154 94.8787C20.2958 95.3985 19.8753 95.8099 19.3646 95.8295Z" fill="#0C172F"/>
<path d="M11.2092 96.0461L7.13148 96.0983C6.43923 96.1061 5.86976 95.5523 5.86193 94.8601C5.85279 94.1679 6.40658 93.5984 7.10013 93.5905C7.10797 93.5892 7.12234 93.5905 7.13148 93.5905L11.2092 93.6415C11.8727 93.6506 12.4043 94.1953 12.3965 94.8588C12.3873 95.5119 11.8583 96.0369 11.2092 96.0461Z" fill="#0C172F"/>
<path d="M1.95898 94.6654L1.97988 90.5877C1.98249 89.8955 2.54674 89.3378 3.23898 89.3417C3.92601 89.3443 4.48111 89.902 4.48503 90.5877L4.50462 94.6654C4.50854 95.3681 3.94168 95.9415 3.23898 95.9454C2.53498 95.948 1.9629 95.3812 1.95898 94.6785V94.6654Z" fill="#0C172F"/>
<path d="M2.04785 86.5096C2.04785 86.5096 2.07397 85.4895 2.1001 84.4707C2.13275 83.4506 2.1654 82.4319 2.1654 82.4319C2.18369 81.8428 2.6774 81.3804 3.26646 81.3987C3.83071 81.417 4.28001 81.8754 4.2983 82.4319C4.2983 82.4319 4.33095 83.4506 4.36361 84.4707C4.38973 85.4895 4.41585 86.5096 4.41585 86.5096C4.43283 87.1639 3.91561 87.7073 3.26255 87.7243C2.60818 87.7399 2.06483 87.224 2.04785 86.5696C2.04785 86.5514 2.04785 86.5279 2.04785 86.5096Z" fill="#0C172F"/>
<path d="M2.34229 78.3539C2.34229 78.3539 2.35535 78.0992 2.37364 77.7165C2.39715 77.3338 2.42719 76.8244 2.45853 76.315L2.58131 74.2762C2.60351 73.917 2.91176 73.644 3.27094 73.6649C3.6027 73.6858 3.86261 73.9523 3.8809 74.2762L4.00498 76.315C4.03502 76.8244 4.06637 77.3338 4.08988 77.7165C4.10817 78.0992 4.12123 78.3539 4.12123 78.3539C4.14474 78.845 3.76727 79.263 3.27486 79.2878C2.78376 79.3113 2.3671 78.9325 2.34229 78.4414C2.34098 78.4127 2.34098 78.3826 2.34229 78.3539Z" fill="#0C172F"/>
<path d="M2.90479 70.1983L3.05369 68.6296C3.13597 67.8459 3.23132 67.0623 3.23132 67.0623C3.23132 67.0623 3.32536 67.8459 3.40765 68.6296L3.55654 70.1983C3.57483 70.3785 3.4416 70.5379 3.26267 70.5561C3.08242 70.5731 2.92177 70.4412 2.90479 70.261C2.90348 70.2401 2.90348 70.2179 2.90479 70.1983Z" fill="#0C172F"/>
<path d="M58.8066 1.27734C58.8066 1.27734 59.8267 1.17807 60.8455 1.09056C61.8656 1.01219 62.8844 0.933826 62.8844 0.933826C63.0737 0.919459 63.2396 1.06183 63.254 1.25121C63.2684 1.4406 63.126 1.60648 62.9366 1.62085C62.9196 1.62215 62.9013 1.62215 62.8844 1.62085C62.8844 1.62085 61.8656 1.54248 60.8455 1.46411C59.8267 1.3766 58.8066 1.27734 58.8066 1.27734Z" fill="#0C172F"/>
<path d="M66.9626 0.668487C66.9626 0.668487 67.2173 0.654119 67.6 0.630609C67.9827 0.612323 68.4921 0.587507 69.0015 0.562691C70.0216 0.511752 71.0403 0.462119 71.0403 0.462119C71.4909 0.439915 71.8736 0.787344 71.8958 1.23665C71.918 1.68726 71.5706 2.06996 71.12 2.09216C71.0939 2.09347 71.0665 2.09347 71.0403 2.09216C71.0403 2.09216 70.0216 2.04253 69.0015 1.99289C68.4921 1.96808 67.9827 1.94196 67.6 1.92367C67.2173 1.90147 66.9626 1.88579 66.9626 1.88579C66.6269 1.8662 66.3696 1.57755 66.3892 1.24187C66.4075 0.929711 66.6583 0.685466 66.9626 0.668487Z" fill="#0C172F"/>
<path d="M75.1183 0.301949C75.1183 0.301949 76.1384 0.265378 77.1572 0.230112C78.1773 0.200071 79.196 0.170031 79.196 0.170031C79.8073 0.153051 80.3167 0.633704 80.335 1.24497C80.3533 1.85623 79.8713 2.36693 79.26 2.38391C79.2404 2.38521 79.2169 2.38521 79.196 2.38391C79.196 2.38391 78.1773 2.35517 77.1572 2.32513C76.1384 2.28856 75.1183 2.2533 75.1183 2.2533C74.5802 2.2337 74.1583 1.78179 74.1779 1.24236C74.1962 0.729051 74.6115 0.321541 75.1183 0.301949Z" fill="#0C172F"/>
<path d="M83.2744 0.0830638L87.3521 0.0282066C88.0418 0.0190637 88.6086 0.571554 88.6178 1.26119C88.6269 1.95082 88.0744 2.51637 87.3861 2.52551C87.377 2.52551 87.3613 2.52551 87.3521 2.52551L83.2744 2.47196C82.6148 2.46282 82.0872 1.92078 82.0963 1.26119C82.1041 0.613349 82.6305 0.0922067 83.2744 0.0830638Z" fill="#0C172F"/>
<path d="M91.4302 0.00646782L91.8403 0.00516176L93.1177 -6.19888e-05L93.1138 1.27733L93.102 4.94492C93.0994 5.64108 92.5339 6.20402 91.8364 6.20141C91.1428 6.19879 90.5825 5.63716 90.5799 4.94492L90.5682 1.27733L91.8403 2.54949L91.4302 2.54818C90.7288 2.54557 90.1619 1.97479 90.1646 1.27341C90.1659 0.574632 90.7327 0.00908041 91.4302 0.00646782Z" fill="#0C172F"/>
<path d="M93.0449 9.02225C93.0449 9.02225 93.024 10.0423 93.0018 11.0611C92.973 12.0812 92.9443 13.1 92.9443 13.1C92.926 13.7099 92.4179 14.1893 91.8093 14.1723C91.2215 14.1553 90.7539 13.6799 90.7369 13.1C90.7369 13.1 90.7069 12.0812 90.6782 11.0611C90.6573 10.0423 90.6351 9.02225 90.6351 9.02225C90.6207 8.35743 91.1497 7.80625 91.8145 7.79188C92.4806 7.77752 93.0305 8.30649 93.0449 8.97131C93.0449 8.98698 93.0449 9.00658 93.0449 9.02225Z" fill="#0C172F"/>
<path d="M92.7863 17.178C92.7863 17.178 92.7471 18.1981 92.6975 19.2169C92.6387 20.237 92.5799 21.2558 92.5799 21.2558C92.5564 21.6646 92.2064 21.9767 91.7976 21.9532C91.4175 21.931 91.1223 21.6267 91.1001 21.2558C91.1001 21.2558 91.0413 20.237 90.9826 19.2169C90.9329 18.1981 90.8937 17.178 90.8937 17.178C90.8742 16.6556 91.2817 16.2154 91.8041 16.1958C92.3266 16.1762 92.7667 16.5838 92.7863 17.1062C92.7876 17.1297 92.7876 17.1545 92.7863 17.178Z" fill="#0C172F"/>
<path d="M92.3079 25.3338C92.3079 25.3338 92.2374 26.3539 92.1395 27.3727C92.0559 28.3927 91.9449 29.4115 91.9449 29.4115C91.9383 29.4703 91.8874 29.5121 91.8286 29.5056C91.779 29.5003 91.7398 29.4598 91.7346 29.4115C91.7346 29.4115 91.6249 28.3927 91.54 27.3727C91.4433 26.3539 91.3728 25.3338 91.3728 25.3338C91.3545 25.0752 91.5491 24.8518 91.8077 24.8336C92.0663 24.8153 92.2897 25.0099 92.3079 25.2685C92.3093 25.2894 92.3093 25.3129 92.3079 25.3338Z" fill="#0C172F"/>
<path d="M58.8662 94.8439C58.8662 94.8439 59.1209 94.8191 59.5036 94.7812C59.8863 94.7472 60.3957 94.7015 60.9051 94.6571C61.9251 94.5787 62.9439 94.5004 62.9439 94.5004C63.1333 94.486 63.2992 94.6284 63.3135 94.8177C63.3292 95.0071 63.1869 95.173 62.9975 95.1874C62.9792 95.1887 62.9609 95.1887 62.9439 95.1874C62.9439 95.1874 61.9251 95.109 60.9051 95.0306C60.3957 94.9862 59.8863 94.9405 59.5036 94.9066C59.1209 94.8687 58.8662 94.8439 58.8662 94.8439Z" fill="#0C172F"/>
<path d="M67.0225 94.2339C67.0225 94.2339 67.2772 94.2195 67.6599 94.1973C68.0426 94.1777 68.552 94.1529 69.0614 94.1281C70.0815 94.0771 71.1002 94.0275 71.1002 94.0275C71.5508 94.0053 71.9348 94.3527 71.957 94.8033C71.9792 95.2539 71.6318 95.6379 71.1812 95.6602C71.1538 95.6615 71.1264 95.6615 71.1002 95.6602C71.1002 95.6602 70.0815 95.6105 69.0614 95.5596C68.552 95.5348 68.0426 95.5099 67.6599 95.4904C67.2772 95.4682 67.0225 95.4538 67.0225 95.4538C66.6855 95.4342 66.4282 95.1442 66.4478 94.8086C66.4661 94.4951 66.7169 94.2522 67.0225 94.2339Z" fill="#0C172F"/>
<path d="M75.1777 93.8673C75.1777 93.8673 76.1978 93.8308 77.2166 93.7955C78.2367 93.7655 79.2554 93.7367 79.2554 93.7367C79.8667 93.7184 80.3774 94.2004 80.3957 94.8117C80.4127 95.4242 79.9307 95.9336 79.3194 95.9519C79.2998 95.9519 79.275 95.9519 79.2554 95.9519C79.2554 95.9519 78.2367 95.9219 77.2166 95.8931C76.1978 95.8566 75.1777 95.82 75.1777 95.82C74.6383 95.8017 74.2164 95.3485 74.236 94.809C74.2543 94.2944 74.6709 93.8869 75.1777 93.8673Z" fill="#0C172F"/>
<path d="M83.3328 93.6488L87.4106 93.5952C88.1002 93.5861 88.667 94.1373 88.6762 94.8269C88.6853 95.5165 88.1341 96.0834 87.4432 96.0925H87.4106L83.3328 96.039C82.6732 96.0298 82.1456 95.4878 82.1534 94.8282C82.1625 94.1791 82.6876 93.6579 83.3328 93.6488Z" fill="#0C172F"/>
<path d="M91.4886 93.573L91.84 93.5717L90.5678 94.8438L90.5809 91.1175C90.5835 90.4213 91.149 89.8597 91.8439 89.8623C92.5374 89.8649 93.0965 90.4265 93.0991 91.1175L93.1121 94.8438L93.1174 96.1212L91.84 96.116L91.4886 96.1147C90.7872 96.1121 90.2191 95.5413 90.2217 94.8399C90.2243 94.1411 90.7912 93.5756 91.4886 93.573Z" fill="#0C172F"/>
<path d="M90.6445 87.0395C90.6445 87.0395 90.668 86.0194 90.6916 85.0006C90.7229 83.9806 90.7542 82.9618 90.7542 82.9618C90.7738 82.3623 91.2741 81.8908 91.8736 81.909C92.4496 81.9273 92.9067 82.3936 92.9263 82.9618C92.9263 82.9618 92.9577 83.9806 92.989 85.0006C93.0125 86.0194 93.036 87.0395 93.036 87.0395C93.0517 87.7004 92.528 88.2477 91.8684 88.2633C91.2075 88.279 90.6602 87.7552 90.6445 87.0957C90.6445 87.0787 90.6445 87.0565 90.6445 87.0395Z" fill="#0C172F"/>
<path d="M90.9277 78.8838C90.9277 78.8838 90.9669 77.8637 91.0348 76.8449C91.0962 75.8248 91.1576 74.8061 91.1576 74.8061C91.1811 74.4299 91.505 74.1426 91.8812 74.1648C92.2299 74.1857 92.5016 74.4652 92.5225 74.8061C92.5225 74.8061 92.5839 75.8248 92.6453 76.8449C92.7132 77.8637 92.7524 78.8838 92.7524 78.8838C92.772 79.3879 92.3788 79.8111 91.8747 79.8307C91.3705 79.8503 90.9473 79.4572 90.9277 78.953C90.9264 78.9308 90.9264 78.906 90.9277 78.8838Z" fill="#0C172F"/>
<path d="M91.4649 70.7282C91.4649 70.7282 91.5498 69.8113 91.636 68.8957C91.7313 67.9788 91.841 67.0619 91.841 67.0619C91.841 67.0619 91.9495 67.9788 92.0448 68.8957C92.131 69.8113 92.2159 70.7282 92.2159 70.7282C92.2355 70.9359 92.0827 71.12 91.875 71.1383C91.6686 71.1579 91.4845 71.0051 91.4649 70.7987C91.4623 70.7752 91.4636 70.7504 91.4649 70.7282Z" fill="#0C172F"/>
</svg>
