<svg width="96" height="97" viewBox="0 0 96 97" fill="none" xmlns="http://www.w3.org/2000/svg">
<path d="M6.80103 84.5106C6.80103 84.5106 6.04307 84.5674 5.28608 84.6255C4.90565 84.6456 4.52618 84.6671 4.24086 84.6822C3.94 84.686 3.74008 84.6469 3.74008 84.6469L3.72746 84.6444C3.60615 84.6204 3.52269 84.474 3.54113 84.3163C3.5586 84.1598 3.67214 84.0513 3.79249 84.074C3.79637 84.0753 3.80122 84.0765 3.8051 84.0778C3.8051 84.0778 3.97979 84.1245 4.24765 84.1409C4.53006 84.156 4.90856 84.1775 5.28608 84.1989C6.04307 84.257 6.80103 84.3138 6.80103 84.3138C6.84276 84.3163 6.87479 84.363 6.87187 84.4185C6.86993 84.469 6.83888 84.5081 6.80103 84.5106Z" fill="#0C172F"/>
<path d="M1.03116 82.5228C1.03116 82.5228 1.00495 82.4723 0.958369 82.3827C0.906933 82.278 0.837057 82.1354 0.767181 81.9575C0.622577 81.6029 0.470209 81.0981 0.39354 80.5669C0.353749 80.3019 0.330457 80.0318 0.323664 79.7794C0.318811 79.546 0.3159 79.3277 0.312018 79.1409C0.306195 78.7725 0.302313 78.5264 0.302313 78.5264C0.298431 78.2538 0.464386 78.0292 0.674013 78.0242C0.88267 78.0178 1.05542 78.2336 1.06027 78.5062C1.06027 78.5125 1.06027 78.5201 1.06027 78.5264C1.06027 78.5264 1.05639 78.7725 1.05057 79.1409C1.04765 79.3239 1.04474 79.5372 1.04086 79.7656C1.03892 79.9738 1.04863 80.1971 1.07192 80.418C1.11656 80.8596 1.22526 81.2899 1.33492 81.5953C1.38733 81.7505 1.44071 81.8717 1.47467 81.9524C1.51738 82.0445 1.54164 82.0975 1.54164 82.0975C1.62801 82.2843 1.5824 82.5266 1.43877 82.6389C1.29998 82.7474 1.12141 82.6944 1.03116 82.5228Z" fill="#0C172F"/>
<path d="M0.241452 74.5863L0.189045 70.6467C0.184192 70.2934 0.400613 70.0019 0.672353 69.9956C0.944092 69.9893 1.16828 70.2707 1.17313 70.624C1.17313 70.6303 1.17313 70.6404 1.17313 70.6467L1.11975 74.5863C1.11587 74.9018 0.915947 75.1529 0.673323 75.1479C0.435551 75.1428 0.246304 74.8917 0.241452 74.5863Z" fill="#0C172F"/>
<path d="M0.14335 66.7068L0.103559 62.7672C0.0996773 62.352 0.354918 62.0126 0.673241 62.0062C0.991564 62.0012 1.2536 62.3331 1.25748 62.747C1.25845 62.752 1.25845 62.7621 1.25748 62.7672L1.21866 66.7068C1.21478 67.0929 0.970214 67.4021 0.674212 67.397C0.382092 67.392 0.147232 67.0841 0.14335 66.7068Z" fill="#0C172F"/>
<path d="M0.074053 58.8269L0.0439676 54.8872C0.0410561 54.4292 0.323471 54.0557 0.674791 54.0506C1.02611 54.0468 1.31435 54.414 1.31823 54.8708C1.31823 54.8746 1.31823 54.8835 1.31823 54.8872L1.28815 58.8269C1.28426 59.2622 1.01058 59.613 0.674791 59.608C0.343851 59.6042 0.077935 59.2546 0.074053 58.8269Z" fill="#0C172F"/>
<path d="M0.0282449 50.9477L0.0146579 47.0081C0.0127169 46.5286 0.309689 46.1387 0.678478 46.1362C1.04727 46.1336 1.34715 46.521 1.34909 47.0005V47.0081L1.33453 50.9477C1.33356 51.4172 1.0395 51.7957 0.678478 51.7932C0.319394 51.7907 0.0301859 51.4134 0.0282449 50.9477Z" fill="#0C172F"/>
<path d="M0 43.0683L0.00485249 39.1287C0.00582298 38.6429 0.308618 38.2504 0.68226 38.2517C1.0559 38.2517 1.35773 38.6429 1.35676 39.1287L1.36258 43.0683C1.36258 43.5579 1.05881 43.9542 0.68226 43.9554C0.305707 43.9567 0.000970498 43.5605 0 43.0709V43.0683Z" fill="#0C172F"/>
<path d="M0.0146484 35.1887L0.0447339 31.2491C0.0476454 30.7923 0.334913 30.4251 0.686233 30.4302C1.03367 30.4339 1.31317 30.7999 1.31609 31.2491L1.34617 35.1887C1.34908 35.667 1.05405 36.0582 0.687203 36.062C0.319385 36.067 0.0185304 35.6834 0.0146484 35.2051V35.1887Z" fill="#0C172F"/>
<path d="M0.14304 27.1707C0.14304 27.1707 0.152745 27.1101 0.169243 27.0041C0.176037 26.9574 0.188653 26.8842 0.207093 26.7896C0.225532 26.6975 0.244942 26.5953 0.271146 26.4956C0.366254 26.0842 0.545796 25.5567 0.792303 25.0848C1.0359 24.6116 1.3416 24.199 1.59587 23.9314C1.8482 23.6614 2.03551 23.5163 2.03551 23.5163L2.05395 23.5011C2.30919 23.3043 2.63916 23.4128 2.79153 23.7447C2.94001 24.0677 2.86334 24.4841 2.62266 24.6886C2.62266 24.6886 2.48679 24.8034 2.30628 25.0116C2.12383 25.2186 1.9074 25.5328 1.73854 25.8861C1.56967 26.2407 1.4503 26.6281 1.39013 26.9272C1.37266 27.0041 1.36296 27.066 1.35422 27.1202C1.34452 27.172 1.33578 27.2262 1.32899 27.2855C1.3154 27.3915 1.30764 27.4521 1.30764 27.4521C1.25329 27.871 0.948553 28.155 0.625377 28.0843C0.303172 28.0136 0.08481 27.6174 0.139158 27.1985C0.140128 27.1896 0.142069 27.1783 0.14304 27.1707Z" fill="#0C172F"/>
<path d="M5.24554 22.7137L8.27543 22.7856C8.51223 22.792 8.70051 23.0456 8.69565 23.3535C8.69177 23.6526 8.50447 23.8936 8.27543 23.8986L5.24554 23.9718C4.97865 23.9781 4.75835 23.7018 4.75252 23.3535C4.74767 23.0065 4.96118 22.72 5.22807 22.7137C5.23292 22.7137 5.24068 22.7137 5.24554 22.7137Z" fill="#0C172F"/>
<path d="M11.3068 22.8596L14.3367 22.9328C14.5114 22.9366 14.6501 23.1246 14.6463 23.3505C14.6434 23.5726 14.5055 23.7492 14.3367 23.753L11.3068 23.8262C11.101 23.8313 10.9322 23.6193 10.9283 23.3517C10.9244 23.0855 11.0875 22.8646 11.2932 22.8596H11.3068Z" fill="#0C172F"/>
<path d="M17.3659 22.9834L20.3958 23.0225C20.5317 23.025 20.6414 23.1689 20.6394 23.3468C20.6384 23.5209 20.5298 23.661 20.3958 23.6635L17.3659 23.7026C17.2136 23.7039 17.0884 23.5449 17.0864 23.3468C17.0855 23.1487 17.2077 22.9859 17.3601 22.9834H17.3659Z" fill="#0C172F"/>
<path d="M23.4268 23.0385L26.4566 23.0435C26.5838 23.0435 26.6876 23.1785 26.6867 23.3438C26.6867 23.5091 26.5838 23.6429 26.4566 23.6429L23.4268 23.6479C23.2977 23.6479 23.1919 23.5117 23.1919 23.3438C23.1919 23.1747 23.2967 23.0385 23.4258 23.0385H23.4268Z" fill="#0C172F"/>
<path d="M29.4863 23.0323L32.5162 23.0083C32.6589 23.007 32.7753 23.1559 32.7763 23.3414C32.7773 23.5269 32.6618 23.6771 32.5191 23.6783H32.5162L29.4863 23.6544C29.3543 23.6531 29.2476 23.513 29.2485 23.3414C29.2495 23.1711 29.3553 23.0335 29.4863 23.0323Z" fill="#0C172F"/>
<path d="M35.5452 22.9741L38.575 22.9148C38.7565 22.911 38.906 23.1003 38.9089 23.3363C38.9118 23.5722 38.7662 23.7678 38.5847 23.7716H38.575L35.5452 23.7123C35.3879 23.7098 35.2637 23.5419 35.2656 23.3375C35.2676 23.1381 35.3928 22.9766 35.5452 22.9741Z" fill="#0C172F"/>
<path d="M41.6056 22.8566L44.6355 22.7973C44.8675 22.7922 45.0587 23.0333 45.0626 23.3349C45.0655 23.6364 44.8801 23.885 44.6482 23.8888C44.6443 23.8901 44.6394 23.8901 44.6355 23.8888L41.6056 23.8295C41.3989 23.8257 41.2339 23.6049 41.2369 23.3361C41.2398 23.0724 41.4048 22.8604 41.6056 22.8566Z" fill="#0C172F"/>
<path d="M47.6656 22.7288L50.6955 22.6607C50.9847 22.6544 51.2235 22.9547 51.2293 23.3307C51.2342 23.708 51.0032 24.0185 50.714 24.0248C50.7081 24.0248 50.7004 24.0248 50.6955 24.0248L47.6656 23.9566C47.4046 23.9516 47.1969 23.6715 47.2017 23.332C47.2056 23.0001 47.4123 22.7351 47.6656 22.7288Z" fill="#0C172F"/>
<path d="M53.7265 22.5983C53.7265 22.5983 53.9157 22.5958 54.2001 22.5907C54.2709 22.5907 54.3476 22.5895 54.4291 22.5882C54.5349 22.5895 54.596 22.5882 54.7202 22.597C54.9347 22.6134 55.1473 22.65 55.3647 22.7106C55.7965 22.828 56.21 23.0488 56.4982 23.2583C56.7903 23.4652 56.965 23.6431 56.965 23.6431L56.9999 23.6785C57.2639 23.9485 57.3095 24.4444 57.1028 24.7877C56.8961 25.1296 56.5147 25.1902 56.2507 24.9202C56.2478 24.9176 56.242 24.9113 56.2391 24.9088C56.2391 24.9088 56.1168 24.7763 55.911 24.6236C55.7072 24.4672 55.4142 24.3018 55.1055 24.2072C54.9541 24.1593 54.7901 24.1277 54.6504 24.1126C54.597 24.1037 54.4864 24.1012 54.4291 24.0987C54.3476 24.0974 54.2709 24.0962 54.2001 24.0949C53.9157 24.0911 53.7265 24.0886 53.7265 24.0886C53.4101 24.0835 53.1568 23.7466 53.1597 23.334C53.1636 22.9289 53.4159 22.6033 53.7265 22.5983Z" fill="#0C172F"/>
<path d="M58.6838 27.5722C58.6838 27.5722 58.6867 27.634 58.6915 27.7413C58.6935 27.7955 58.6964 27.8599 58.7003 27.9356C58.7012 27.9848 58.7032 28.0378 58.7041 28.0933C58.7051 28.135 58.7051 28.1804 58.7051 28.2258C58.709 28.5956 58.7129 29.0877 58.7168 29.5798C58.7255 30.5654 58.7342 31.5497 58.7342 31.5497C58.7381 32.0355 58.4392 32.433 58.0665 32.4393C57.6929 32.4443 57.3872 32.0557 57.3833 31.5698C57.3833 31.5648 57.3833 31.5547 57.3833 31.5497C57.3833 31.5497 57.392 30.5654 57.3998 29.5798C57.4047 29.0877 57.4085 28.5956 57.4124 28.2258C57.4124 28.1804 57.4124 28.135 57.4134 28.0933V28.0618V28.0542V28.053V28.0517C57.4134 28.0429 57.4153 28.1249 57.4144 28.0896V28.0858L57.4134 28.0706L57.4124 28.0126C57.4105 27.9381 57.4085 27.8725 57.4066 27.8183C57.4037 27.711 57.4027 27.6492 57.4027 27.6492C57.3901 27.1886 57.6667 26.8024 58.0209 26.7873C58.3703 26.7709 58.6634 27.1217 58.6838 27.5722Z" fill="#0C172F"/>
<path d="M58.7558 35.4897L58.7752 39.4293C58.7781 39.9441 58.4588 40.3656 58.0629 40.3681C57.6659 40.3719 57.3428 39.9568 57.3408 39.4419V39.4293L57.3602 35.4897C57.3622 34.9887 57.6766 34.5849 58.0629 34.5887C58.4443 34.5912 58.7529 34.9938 58.7558 35.4897Z" fill="#0C172F"/>
<path d="M58.7954 43.3685L58.8148 47.3081C58.8177 47.852 58.4809 48.2949 58.0636 48.2987C57.6453 48.3012 57.3047 47.8646 57.3018 47.3207V47.3081L57.3212 43.3685C57.3241 42.8398 57.656 42.4133 58.0626 42.4158C58.4664 42.4196 58.7924 42.8448 58.7954 43.3685Z" fill="#0C172F"/>
<path d="M58.8344 51.2487L58.8538 55.1883C58.8567 55.7599 58.5025 56.2268 58.0638 56.2293C57.6242 56.2331 57.2651 55.7738 57.2622 55.2022C57.2622 55.1996 57.2622 55.1908 57.2622 55.1883L57.2816 51.2487C57.2845 50.6909 57.6349 50.2429 58.0629 50.2455C58.4879 50.2493 58.8315 50.6972 58.8344 51.2487Z" fill="#0C172F"/>
<path d="M58.8639 59.1275L58.8659 63.0671C58.8668 63.6476 58.5048 64.1182 58.0584 64.1195C57.612 64.1195 57.25 63.6488 57.249 63.0684V63.0671L57.2519 59.1275C57.2519 58.5483 57.613 58.0801 58.0584 58.0801C58.5039 58.0801 58.8639 58.5483 58.8639 59.1275Z" fill="#0C172F"/>
<path d="M58.8688 67.0076L58.8591 70.9472C58.8581 71.5226 58.498 71.9882 58.0555 71.9857C57.6149 71.9844 57.2577 71.5201 57.2568 70.9472L57.2471 67.0076C57.2461 66.4258 57.6081 65.9514 58.0555 65.9501C58.5029 65.9488 58.8678 66.4195 58.8688 67.0013V67.0076Z" fill="#0C172F"/>
<path d="M58.8442 74.8874L58.8277 78.827C58.8257 79.3797 58.4793 79.8251 58.0542 79.8226C57.632 79.8201 57.2914 79.3747 57.2895 78.827L57.273 74.8874C57.271 74.3233 57.6204 73.864 58.0542 73.8602C58.488 73.8577 58.8422 74.312 58.8442 74.876V74.8874Z" fill="#0C172F"/>
<path d="M57.9014 83.1658C57.9014 83.1658 57.8713 83.2137 57.8189 83.297C57.7966 83.3336 57.7539 83.3967 57.7015 83.4711C57.651 83.5469 57.5937 83.6238 57.5336 83.6995C57.2929 84.015 56.9328 84.386 56.5301 84.6649C56.1293 84.9476 55.6925 85.1331 55.3577 85.2176C55.0239 85.3059 54.7968 85.3211 54.7968 85.3211L54.7686 85.3223C54.3756 85.3476 54.0407 84.9526 54.0213 84.4415C54.0029 83.9393 54.296 83.5103 54.6793 83.4711C54.6793 83.4711 54.8317 83.456 55.0539 83.3904C55.2762 83.3273 55.5635 83.1948 55.8265 82.9992C56.0895 82.8049 56.3243 82.5525 56.4786 82.338C56.5204 82.2837 56.5524 82.2383 56.5767 82.2004C56.6019 82.1626 56.6261 82.1285 56.6543 82.0793C56.7057 81.9947 56.7348 81.9455 56.7348 81.9455C56.9901 81.5228 57.4608 81.4496 57.7859 81.7815C58.111 82.1133 58.1673 82.7254 57.9121 83.1481C57.9091 83.1531 57.9043 83.1607 57.9014 83.1658Z" fill="#0C172F"/>
<path d="M51.7091 85.2922L48.6792 85.2443C48.325 85.2392 48.0425 84.8619 48.0464 84.4013C48.0503 83.9496 48.3327 83.5849 48.6792 83.5786L51.7091 83.5319C52.0827 83.5256 52.3894 83.9155 52.3943 84.4013C52.3991 84.8872 52.0992 85.2859 51.7256 85.2922H51.7091Z" fill="#0C172F"/>
<path d="M45.6495 85.1971L42.6196 85.1492C42.3061 85.1441 42.0557 84.8097 42.0596 84.4034C42.0635 84.0021 42.3129 83.6804 42.6196 83.6753L45.6495 83.6274C45.9833 83.621 46.257 83.9693 46.2609 84.4022C46.2648 84.8362 45.9979 85.1921 45.664 85.1971H45.6495Z" fill="#0C172F"/>
<path d="M39.5897 85.0713L36.5598 84.9931C36.3124 84.988 36.1163 84.7218 36.1212 84.4C36.126 84.087 36.3211 83.8372 36.5598 83.8309L39.5897 83.7526C39.8702 83.7451 40.1012 84.0353 40.107 84.3987C40.1128 84.7634 39.8896 85.0637 39.6101 85.0713C39.6033 85.0713 39.5956 85.0713 39.5897 85.0713Z" fill="#0C172F"/>
<path d="M33.5295 84.9154L30.4996 84.8309C30.321 84.8258 30.1803 84.634 30.1842 84.4018C30.188 84.1772 30.3278 83.9967 30.4996 83.9917L33.5295 83.9072C33.7439 83.9008 33.9206 84.1217 33.9254 84.4006C33.9303 84.6794 33.7604 84.9091 33.546 84.9154C33.5411 84.9154 33.5343 84.9154 33.5295 84.9154Z" fill="#0C172F"/>
<path d="M27.4699 84.7252L24.44 84.6192C24.3517 84.6154 24.2828 84.5208 24.2847 84.406C24.2876 84.2962 24.3565 84.2079 24.44 84.2053L27.4699 84.0993C27.6028 84.0943 27.7135 84.2306 27.7174 84.4034C27.7203 84.5763 27.6154 84.7202 27.4825 84.7252H27.4699Z" fill="#0C172F"/>
<path d="M29.3844 73.2438C29.2213 73.1279 29.3378 73.2085 29.3009 73.1809L29.298 73.1754L29.2932 73.1632L29.2835 73.1401L29.264 73.0937L29.2252 73.001L29.1476 72.8145L28.9923 72.4436L28.6915 71.6964L28.1043 70.1965C27.7219 69.1921 27.3454 68.1866 26.9805 67.1756C26.6117 66.1669 26.2623 65.1503 25.9052 64.136L24.8735 61.0799C24.1981 59.0369 23.5566 56.9807 22.9626 54.9058C22.3667 52.8319 21.7796 50.7547 21.206 48.6709L22.2299 49.0076C21.7078 49.4755 21.172 49.9258 20.6402 50.3828C20.1045 50.8353 19.5998 51.3231 19.0748 51.7933C18.5585 52.2712 18.0781 52.7911 17.5783 53.2944C17.129 53.8429 16.6301 54.3583 16.2409 54.9632C16.0352 55.2578 15.8159 55.5437 15.6538 55.8682C15.484 56.1861 15.286 56.4907 15.1598 56.8306L14.9531 57.3328L14.8124 57.8538C14.7571 58.027 14.7406 58.2036 14.7231 58.3791L14.6969 58.6429C14.693 58.7301 14.7066 58.8151 14.7105 58.9012L14.7279 59.1572L14.7862 59.3978C14.8124 59.5645 14.8939 59.7036 14.9521 59.8504C15.1103 60.1307 15.3083 60.3294 15.5897 60.5832L17.1522 62.0445C18.1965 63.0158 19.2272 64.0025 20.2151 65.0411C20.7111 65.5576 21.1953 66.0885 21.6786 66.6194C22.16 67.1525 22.6433 67.6844 23.1159 68.2286L24.5338 69.8598L25.91 71.4966C26.3448 71.9867 26.8757 72.3796 27.4628 72.6522C28.0538 72.9204 28.6944 73.0683 29.3679 73.0727L29.3844 73.2438ZM29.3824 73.2438C28.7206 73.4381 27.9937 73.4557 27.2968 73.2846C26.5952 73.1213 25.9207 72.7659 25.3335 72.2626L25.1132 72.0651L24.9191 71.8807L24.5348 71.5088L23.7642 70.7649L22.2454 69.2528C21.7388 68.7484 21.2429 68.2319 20.746 67.7165C20.2501 67.1999 19.7551 66.6812 19.2728 66.1503C18.3023 65.0918 17.3755 63.9826 16.4622 62.8568L15.088 61.1737C14.8648 60.9232 14.5833 60.5722 14.4203 60.1748C14.3494 59.9707 14.2631 59.772 14.2388 59.5557C14.2213 59.4497 14.201 59.3438 14.1874 59.2378L14.1854 58.921C14.1874 58.8162 14.1806 58.7091 14.1913 58.6065L14.2369 58.303C14.264 58.0988 14.2922 57.8968 14.3592 57.7103L14.5261 57.1397L14.7503 56.6044C14.8813 56.2346 15.0793 55.9157 15.253 55.5768C15.4228 55.2336 15.6354 54.9311 15.8295 54.61L16.1264 54.1343C16.2293 53.9787 16.3438 53.8363 16.4486 53.6818L17.0892 52.7734C17.5472 52.2039 17.9849 51.6035 18.4595 51.0483C18.9389 50.502 19.4048 49.9303 19.9007 49.4016C20.4034 48.8828 20.9032 48.3564 21.4156 47.8476L22.0989 47.1699L22.4395 48.1842C23.1247 50.2227 23.7963 52.2668 24.4591 54.3153C25.1239 56.3615 25.7411 58.4277 26.3244 60.506L27.1814 63.6327C27.4531 64.6791 27.7326 65.7232 27.9927 66.7761C28.2576 67.8257 28.5109 68.8809 28.7574 69.9382L29.1146 71.5287L29.2854 72.3277L29.3659 72.7284L29.4057 72.9293L29.4261 73.0297L29.4368 73.0794L29.4416 73.1047L29.4436 73.1169L29.4455 73.1235C29.4096 73.1003 29.5271 73.1853 29.365 73.0727L29.3824 73.2438Z" fill="#0C172F"/>
<path d="M29.5318 73.244C29.5726 72.9019 29.5474 73.1491 29.559 73.0729H29.5668H29.5823L29.6143 73.0718L29.6774 73.0707L29.8026 73.0685L30.052 73.0498C30.218 73.0299 30.381 73.0067 30.5431 72.9725C30.8653 72.9041 31.1778 72.797 31.4767 72.6624C32.0707 72.3853 32.6103 71.9781 33.0402 71.4803L34.427 69.8082L35.843 68.1394C37.7461 65.9331 39.6697 63.75 41.6718 61.6595L43.1732 60.1044C43.5216 59.7413 43.6798 59.2711 43.671 58.6641C43.6603 58.0648 43.4769 57.4003 43.212 56.7624C42.9519 56.1178 42.6074 55.4954 42.2444 54.8784C41.8727 54.2658 41.466 53.6687 41.0468 53.0793C40.6178 52.4977 40.1743 51.9238 39.7094 51.3697C39.2485 50.8112 38.7622 50.277 38.2692 49.7517C37.7694 49.234 37.2609 48.7263 36.7358 48.2407L37.1066 48.1149C36.7873 49.1568 36.4864 50.2064 36.2157 51.266C35.9391 52.3244 35.6877 53.3917 35.4451 54.4634C34.9618 56.6057 34.4765 58.7469 33.8593 60.8395C33.5526 61.8858 33.2314 62.9266 32.9053 63.9663C32.5676 65.0016 32.2415 66.0412 31.8872 67.0699C31.5398 68.1008 31.1768 69.1261 30.8042 70.1481C30.4208 71.1657 30.0423 72.1856 29.6134 73.1855L29.5318 73.244ZM29.4697 73.1314C29.6522 72.0377 29.8861 70.9638 30.1141 69.8877C30.3529 68.8149 30.6013 67.7465 30.8663 66.6836C31.1235 65.6185 31.4098 64.5634 31.6834 63.5049C31.9697 62.4498 32.2589 61.3969 32.5646 60.3505C33.1712 58.2546 33.9088 56.2072 34.6493 54.1621C35.019 53.1389 35.3791 52.1125 35.7149 51.0772C36.0555 50.0431 36.3661 48.9978 36.6592 47.946L36.7611 47.5785L37.0299 47.8213L38.6351 49.2671C39.1728 49.7473 39.7007 50.2428 40.2277 50.745C40.7547 51.2472 41.2671 51.7715 41.7708 52.3134C42.2667 52.8652 42.7578 53.4303 43.2052 54.0517C43.6565 54.6698 44.068 55.3386 44.4202 56.0748C44.7657 56.8099 45.0549 57.6321 45.1209 58.5813C45.152 59.0526 45.1122 59.5592 44.9695 60.0503C44.8288 60.5382 44.5639 61.0039 44.2562 61.3527L42.7937 62.9785C40.8381 65.1252 38.8059 67.1792 36.7523 69.21L35.2005 70.7187C34.6687 71.2187 34.1757 71.7055 33.6128 72.2165C33.0179 72.7319 32.3434 73.0895 31.6368 73.2628C31.2855 73.3522 30.9274 73.3919 30.5742 73.3886C30.3966 73.3875 30.2209 73.3743 30.0462 73.35L29.7871 73.3047L29.659 73.2738L29.5959 73.2595L29.5639 73.2517L29.5474 73.2473L29.5396 73.2462C29.5454 73.169 29.5153 73.4151 29.5512 73.0729L29.4697 73.1314Z" fill="#0C172F"/>
<path d="M15.939 35.7445C16.003 35.5161 16.136 35.313 16.3116 35.1772C16.5009 35.0348 16.6766 34.9841 16.8551 34.888C17.2123 34.7137 17.5655 34.5315 17.9178 34.3439C18.6195 33.9609 19.3144 33.5592 20.0063 33.1453L20.2655 32.9919L20.3305 32.9533C20.3518 32.9411 20.3674 32.929 20.4198 32.9069C20.5042 32.8672 20.5993 32.8451 20.6944 32.8352C21.0797 32.7987 21.4737 33.0493 21.6542 33.4709C21.6756 33.5272 21.695 33.5691 21.7134 33.6409C21.7309 33.7082 21.7455 33.8009 21.7474 33.8086L21.7542 33.8495L21.7571 33.8903L21.7581 33.8958L21.76 33.9069L21.7629 33.9267L21.7755 34.0095L21.8241 34.3373L21.9066 34.9962C22.0201 35.8737 22.0725 36.7533 22.1327 37.6341C22.1822 38.5148 22.2278 39.3956 22.2453 40.2774C22.2598 40.7178 22.2569 41.1593 22.2637 41.6008L22.2754 42.9241C22.2763 43.8071 22.2851 44.6889 22.2754 45.573C22.2686 46.456 22.2307 47.3411 22.1899 48.2252L22.1773 48.5067L22.0424 48.6336C21.1865 49.4338 20.3314 50.2339 19.4891 51.0507L18.2371 52.2902L17.0085 53.5572L16.8182 53.7537L16.661 53.5031C16.5601 53.3431 16.4194 53.1411 16.2893 52.9656C16.1535 52.7857 16.0195 52.6047 15.8759 52.4314C15.5915 52.0827 15.3062 51.735 15.0034 51.4028C14.7074 51.065 14.4007 50.7394 14.0941 50.4094C13.9407 50.2439 13.7719 50.0353 13.6282 49.83C13.4826 49.6192 13.3477 49.3962 13.2332 49.16C13.0042 48.6877 12.8295 48.1789 12.7257 47.6546C12.6238 47.1314 12.583 46.5983 12.5927 46.073C12.6053 45.5476 12.6645 45.03 12.7664 44.5267C12.8159 44.2739 12.8809 44.0267 12.9508 43.7806C13.0255 43.53 13.1012 43.3071 13.2099 43.0356L13.1944 43.0842C13.6437 41.8579 14.1533 40.6549 14.6443 39.4441C14.8821 38.836 15.1228 38.229 15.3382 37.612C15.5556 36.9961 15.7517 36.3714 15.939 35.7445ZM16.0826 35.7997C15.8972 36.4277 15.7206 37.059 15.5653 37.6992C15.4081 38.3382 15.2761 38.9872 15.1412 39.6351C14.887 40.9363 14.6511 42.2442 14.3551 43.53L14.3396 43.5775C14.292 43.7497 14.2377 43.9804 14.1969 44.1879C14.1513 44.4009 14.1144 44.6172 14.0814 44.8324C14.0145 45.2629 13.9698 45.6955 13.9533 46.1238C13.9359 46.552 13.9495 46.9758 13.9941 47.3919C14.0446 47.8058 14.1212 48.2142 14.2522 48.6038C14.3202 48.798 14.3939 48.9901 14.4823 49.1755C14.5735 49.3653 14.6676 49.5287 14.7889 49.724L15.5236 50.8973C15.7672 51.2902 16.0234 51.6699 16.2748 52.0562L16.6571 52.6312C16.7872 52.8288 16.9104 52.9987 17.0483 53.2305L16.6998 53.1775L17.9081 51.8851L19.0941 50.564C19.8763 49.6744 20.6449 48.7671 21.4145 47.861L21.266 48.2694C21.1612 47.3919 21.0583 46.5134 20.9875 45.6337C20.9128 44.7541 20.8565 43.8744 20.7934 42.9948L20.708 41.6747C20.6828 41.2343 20.6478 40.794 20.6294 40.3536C20.5828 39.4728 20.5634 38.591 20.5488 37.7091C20.543 36.8261 20.5314 35.9443 20.5809 35.0591L20.6148 34.3947L20.6391 34.0636L20.6449 33.9797L20.6469 33.9587L20.6478 33.9488V33.9433C20.6488 33.9576 20.6459 33.9035 20.6507 33.9742V33.9333C20.6498 33.8848 20.6517 33.9256 20.6585 33.9389C20.6663 33.9565 20.6653 33.9477 20.6711 33.9521C20.6993 33.9653 20.7148 33.9355 20.709 33.9102C20.708 33.9057 20.7051 33.8958 20.6983 33.8936C20.7031 33.887 20.674 33.8958 20.6507 33.9035L20.5799 33.9234L20.2955 34.0062C19.5385 34.2247 18.7854 34.4543 18.0382 34.7015C17.6665 34.8295 17.2957 34.9631 16.9279 35.1044C16.7523 35.1816 16.5426 35.2357 16.4048 35.335C16.2573 35.4432 16.1418 35.6088 16.0826 35.7997Z" fill="#0C172F"/>
<path d="M42.6565 35.7997C42.5973 35.6088 42.4818 35.4432 42.3343 35.335C42.1965 35.2357 41.9869 35.1827 41.8112 35.1044C41.4434 34.9631 41.0727 34.8295 40.701 34.7015C39.9537 34.4543 39.2006 34.2247 38.4426 34.0062L38.1592 33.9234L38.0884 33.9035C38.0651 33.8958 38.035 33.887 38.0408 33.8936C38.034 33.8958 38.0311 33.9057 38.0292 33.9102C38.0243 33.9355 38.0399 33.9653 38.068 33.9521C38.0738 33.9488 38.0728 33.9565 38.0806 33.9389C38.0874 33.9256 38.0884 33.8859 38.0884 33.9333V33.9753C38.0932 33.9035 38.0903 33.9576 38.0913 33.9433V33.9488L38.0923 33.9587L38.0942 33.9797L38.1 34.0636L38.1243 34.3947L38.1583 35.0591C38.2077 35.9443 38.1961 36.8261 38.1903 37.7091C38.1757 38.591 38.1563 39.4728 38.1097 40.3536C38.0913 40.794 38.0563 41.2343 38.0311 41.6747L37.9457 42.9948C37.8826 43.8744 37.8263 44.7552 37.7516 45.6337C37.6808 46.5134 37.5779 47.3919 37.4731 48.2694L37.3246 47.861C38.0942 48.7671 38.8628 49.6744 39.6451 50.564L40.831 51.8851L42.0393 53.1775L41.6909 53.2305C41.8287 52.9987 41.9519 52.8288 42.082 52.6312L42.4644 52.0562C42.7157 51.6699 42.9719 51.2902 43.2155 50.8973L43.9502 49.724C44.0715 49.5287 44.1656 49.3653 44.2569 49.1755C44.3452 48.9901 44.4189 48.798 44.4869 48.6049C44.6179 48.2142 44.6946 47.8058 44.745 47.3919C44.7897 46.9758 44.8032 46.552 44.7858 46.1238C44.7693 45.6955 44.7246 45.2629 44.6577 44.8324C44.6247 44.6172 44.5878 44.4009 44.5422 44.1879C44.5005 43.9815 44.4471 43.7497 44.3995 43.5775L44.384 43.53C44.088 42.2442 43.8522 40.9363 43.5979 39.6351C43.463 38.9872 43.331 38.3382 43.1738 37.6992C43.0185 37.059 42.8419 36.4277 42.6565 35.7997ZM42.8001 35.7445C42.9874 36.3725 43.1835 36.9961 43.4009 37.612C43.6163 38.229 43.857 38.836 44.0948 39.4441C44.5859 40.6549 45.0954 41.8579 45.5447 43.0842L45.5292 43.0356C45.6379 43.3071 45.7136 43.53 45.7883 43.7806C45.8582 44.0267 45.9232 44.2739 45.9727 44.5267C46.0736 45.03 46.1338 45.5476 46.1464 46.073C46.1561 46.5983 46.1154 47.1314 46.0135 47.6546C45.9096 48.1789 45.7349 48.6877 45.5059 49.16C45.3914 49.3962 45.2565 49.6192 45.1109 49.83C44.9673 50.0353 44.7984 50.2439 44.6451 50.4094C44.3384 50.7394 44.0317 51.065 43.7357 51.4028C43.4329 51.735 43.1476 52.0838 42.8632 52.4314C42.7196 52.6047 42.5857 52.7857 42.4498 52.9656C42.3197 53.1411 42.179 53.3442 42.0781 53.5042L41.9199 53.7537L41.7307 53.5572L40.502 52.2902L39.2501 51.0507C38.4077 50.2339 37.5527 49.4338 36.6967 48.6336L36.5618 48.5067L36.5492 48.2252C36.5084 47.3411 36.4706 46.456 36.4638 45.573C36.4541 44.6889 36.4618 43.8071 36.4638 42.9241L36.4754 41.6008C36.4822 41.1593 36.4793 40.7178 36.4938 40.2774C36.5113 39.3956 36.5569 38.5148 36.6064 37.6341C36.6666 36.7544 36.719 35.8737 36.8326 34.9962L36.915 34.3373L36.9636 34.0095L36.9762 33.9267L36.9791 33.9069L36.981 33.8958L36.982 33.8914L36.9849 33.8495L36.9917 33.8086C36.9937 33.8009 37.0082 33.7082 37.0257 33.6409C37.0441 33.5691 37.0635 33.5272 37.0839 33.4709C37.2654 33.0493 37.6594 32.7987 38.0447 32.8352C38.1398 32.8451 38.2349 32.8672 38.3194 32.9069C38.3718 32.929 38.3873 32.9411 38.4086 32.9533L38.4737 32.9919L38.7328 33.1464C39.4248 33.5592 40.1196 33.9609 40.8213 34.3439C41.1736 34.5315 41.5268 34.7137 41.884 34.888C42.0626 34.9841 42.2382 35.0348 42.4275 35.1772C42.6031 35.313 42.7361 35.5161 42.8001 35.7445Z" fill="#0C172F"/>
<path d="M22.209 86.5792C22.209 86.5792 22.1973 86.3629 22.174 85.9567C22.1731 85.7525 22.1323 85.5064 22.0838 85.2172C22.0586 85.0727 22.0391 84.9159 22.0003 84.7548C21.9557 84.5937 21.9091 84.4226 21.8606 84.2427C21.6441 83.5341 21.2996 82.6931 20.7154 81.9028C20.1438 81.1082 19.3703 80.3532 18.4415 79.7616C17.9669 79.4846 17.471 79.2142 16.9324 79.0233C16.7985 78.9747 16.6636 78.925 16.5267 78.8765C16.3879 78.84 16.2472 78.8047 16.1055 78.7683C15.8192 78.6745 15.5504 78.6756 15.2719 78.6182C15.135 78.5928 14.9477 78.5994 14.7866 78.5884L14.5343 78.5785L14.4071 78.5729C14.3654 78.5718 14.446 78.5741 14.4324 78.5741L14.4188 78.5752L14.3897 78.5774L14.3334 78.5829C14.0287 78.6094 13.7191 78.6027 13.4124 78.6745C12.7922 78.7562 12.1818 78.9769 11.5772 79.2418C10.9726 79.5177 10.4097 79.9239 9.8691 80.3819C9.33921 80.8576 8.87337 81.4349 8.45703 82.0662C8.05524 82.7107 7.72915 83.4237 7.46906 84.1787C7.2177 84.9546 7.07504 85.6896 7.00225 86.6035C6.96926 87.386 7.01778 88.2657 7.19635 89.0736C7.3953 89.8837 7.68645 90.6673 8.09115 91.3682C8.50361 92.0602 8.99662 92.6882 9.57116 93.1816C10.1476 93.6683 10.7707 94.0623 11.4209 94.3162C12.0663 94.559 12.7437 94.7345 13.361 94.7632C13.6502 94.8106 14.017 94.7842 14.3528 94.7864H14.4169L14.4489 94.7875H14.4644C14.477 94.7875 14.4139 94.7842 14.4469 94.7853L14.5634 94.7709L14.7953 94.7444C14.9477 94.7246 15.102 94.7257 15.2505 94.6914C16.45 94.4851 17.5292 94.0281 18.4599 93.4277C19.3877 92.824 20.1544 92.0602 20.728 91.2644C21.3103 90.472 21.6558 89.6288 21.8703 88.9191C21.9188 88.7381 21.9654 88.567 22.0091 88.407C22.0469 88.2447 22.0663 88.0891 22.0906 87.9445C22.1381 87.6575 22.1779 87.4114 22.1779 87.2039C22.1983 86.7933 22.209 86.5748 22.209 86.5748V86.5792ZM22.3604 86.5836C22.3604 86.5836 22.3516 86.8022 22.3351 87.2127C22.3342 87.4169 22.3109 87.6719 22.273 87.9721C22.2527 88.1211 22.2439 88.2855 22.2177 88.4566C22.1867 88.6266 22.1527 88.8065 22.1178 88.9963C21.9654 89.7535 21.7383 90.685 21.2705 91.6695C20.8115 92.6518 20.1282 93.7092 19.1335 94.5722C18.1397 95.4232 16.8334 96.0446 15.4 96.1958C15.2214 96.2212 15.0399 96.2124 14.8584 96.2201L14.5857 96.2223L14.4489 96.2234L14.4004 96.2212L14.3848 96.2201L14.3528 96.2168L14.2897 96.2101C13.9471 96.1638 13.624 96.1428 13.2299 96.0369C12.4632 95.8757 11.7761 95.5479 11.0939 95.1539C10.4165 94.7555 9.80408 94.2235 9.22275 93.654C8.65986 93.0558 8.15423 92.3869 7.70683 91.6596C7.49915 91.2843 7.28661 90.9079 7.12259 90.5007C7.02845 90.3031 6.93917 90.1022 6.8722 89.8903C6.80039 89.6806 6.7179 89.4742 6.65578 89.2601C6.53835 88.8286 6.40831 88.3959 6.34425 87.9434C6.30252 87.7193 6.25497 87.4953 6.24041 87.2668C6.21809 87.0273 6.1948 86.8331 6.17442 86.5549C6.17636 86.109 6.13851 85.6985 6.19383 85.2051C6.21615 84.7195 6.30252 84.2659 6.38307 83.8045C6.5927 82.8995 6.9052 82.0187 7.34096 81.2229C7.78544 80.4349 8.31728 79.7164 8.92481 79.1005C9.54204 78.5012 10.2146 77.9814 10.9386 77.605C11.6606 77.2342 12.4157 76.9505 13.1775 76.8423C13.556 76.7607 13.9355 76.7607 14.3091 76.7386L14.38 76.7364L14.4149 76.7342H14.4324L14.4896 76.7364L14.6158 76.7452L14.8672 76.764C15.0399 76.7805 15.1884 76.7772 15.3786 76.8114C15.7513 76.8843 16.1395 76.9362 16.4695 77.0598C16.6393 77.115 16.8082 77.169 16.9751 77.2231C17.1391 77.2893 17.2973 77.3677 17.4555 77.4394C18.0931 77.722 18.6492 78.1348 19.1509 78.5553C20.1457 79.4294 20.8231 80.4967 21.2822 81.4801C21.7499 82.4668 21.978 83.3994 22.1284 84.1588C22.1624 84.3497 22.1954 84.5296 22.2264 84.6996C22.2517 84.8707 22.2604 85.034 22.2798 85.183C22.3157 85.481 22.339 85.736 22.339 85.9435C22.3526 86.3585 22.3604 86.5792 22.3604 86.5792V86.5836Z" fill="#0C172F"/>
<path d="M10.9771 82.6429C10.9771 82.6429 11.143 82.7003 11.407 82.8305C11.6729 82.9586 12.0378 83.1583 12.4444 83.4332C12.853 83.708 13.3043 84.0545 13.7595 84.4607C13.9875 84.6627 14.2166 84.8779 14.4408 85.1075C14.6688 85.3326 14.8872 85.5766 15.1075 85.8183C15.32 86.0677 15.5355 86.3149 15.7335 86.5743C15.9363 86.8282 16.1236 87.0908 16.3031 87.3491C16.6593 87.8656 16.965 88.3789 17.2057 88.8435C17.4474 89.3071 17.623 89.7221 17.7346 90.0256C17.8491 90.3258 17.8986 90.5156 17.8986 90.5156C17.8986 90.5156 17.7327 90.4582 17.4687 90.328C17.2018 90.2011 16.8369 90.0013 16.4293 89.7265C16.0207 89.4528 15.5694 89.1051 15.1153 88.7C14.8882 88.4958 14.6572 88.2828 14.434 88.0522C14.2059 87.827 13.9885 87.582 13.7692 87.3403C13.5566 87.0897 13.3422 86.8414 13.1442 86.582C12.9423 86.3271 12.7531 86.0666 12.5755 85.8072C12.2183 85.2896 11.9136 84.7764 11.6719 84.3117C11.4303 83.8493 11.2546 83.4343 11.142 83.1318C11.0275 82.8316 10.9771 82.6429 10.9771 82.6429Z" fill="#0C172F"/>
<path d="M17.8986 82.6429C17.8986 82.6429 17.8482 82.8316 17.7337 83.1318C17.6211 83.4343 17.4454 83.8493 17.2038 84.3117C16.9621 84.7764 16.6574 85.2896 16.3002 85.8072C16.1226 86.0666 15.9334 86.3271 15.7315 86.582C15.5335 86.8414 15.3191 87.0897 15.1065 87.3403C14.8872 87.582 14.6698 87.827 14.4417 88.0522C14.2185 88.2828 13.9875 88.4958 13.7604 88.7C13.3062 89.1051 12.855 89.4528 12.4464 89.7265C12.0388 90.0013 11.6739 90.2011 11.407 90.328C11.143 90.4582 10.9771 90.5156 10.9771 90.5156C10.9771 90.5156 11.0265 90.3258 11.1411 90.0256C11.2527 89.7221 11.4283 89.3071 11.67 88.8435C11.9107 88.3789 12.2164 87.8656 12.5725 87.3491C12.7521 87.0908 12.9394 86.8282 13.1422 86.5743C13.3402 86.3149 13.5557 86.0677 13.7682 85.8183C13.9885 85.5766 14.2069 85.3326 14.4349 85.1075C14.6591 84.8779 14.8882 84.6627 15.1162 84.4607C15.5714 84.0545 16.0227 83.708 16.4312 83.4332C16.8379 83.1583 17.2028 82.9586 17.4687 82.8305C17.7327 82.7003 17.8986 82.6429 17.8986 82.6429Z" fill="#0C172F"/>
<path d="M71.4751 84.612C71.4751 84.612 71.1053 84.6473 70.4114 84.7135C69.7175 84.7731 68.7004 84.8504 67.4058 84.9331C67.0826 84.9508 66.741 84.9685 66.3838 84.9883C66.0189 84.9983 65.6841 85.0634 65.1804 84.9751C64.2788 84.8183 63.3588 84.1506 62.8425 83.0712C62.5892 82.5425 62.431 81.8858 62.4368 81.2644C62.4281 80.7192 62.4184 80.1596 62.4087 79.5846C62.3912 78.4334 62.3631 77.2238 62.3582 75.9622C62.3485 74.7007 62.3378 73.3851 62.3271 72.0253C62.3378 70.6644 62.3233 69.2572 62.3572 67.8114C62.3728 66.3655 62.4242 64.8799 62.4718 63.3612C62.5193 61.8425 62.5688 60.2918 62.6183 58.7135C62.6435 57.9255 62.6688 57.1297 62.694 56.3284C62.7037 55.9289 62.7134 55.526 62.7221 55.1232C62.728 54.7115 62.8008 54.2303 62.9483 53.8285C63.2423 53.0074 63.8081 52.3109 64.5234 51.9434C64.8796 51.7569 65.2687 51.652 65.6598 51.6355C66.0432 51.6222 66.3916 51.6278 66.7604 51.6233C68.2171 51.6211 69.6845 51.5946 71.1587 51.5615C72.6329 51.513 74.1119 51.4633 75.5919 51.4136L76.7012 51.3717L76.9788 51.3607L77.1302 51.3573C77.1767 51.3573 77.2185 51.3551 77.2815 51.3596C77.5145 51.3717 77.7183 51.4048 77.9328 51.4644C78.3549 51.5814 78.7577 51.7988 79.1109 52.0957C79.2847 52.2414 79.4564 52.4235 79.5933 52.5913L79.9727 53.0482C80.9811 54.2722 81.9817 55.4951 82.9628 56.7191C84.9213 59.1716 86.8487 61.5854 88.714 63.9208C88.979 64.2619 89.0974 64.3921 89.3186 64.5554C89.5283 64.7044 89.7592 64.806 89.996 64.8634C90.1144 64.891 90.2348 64.9075 90.3551 64.9108L90.8384 64.9119C91.1762 64.9119 91.512 64.9108 91.8448 64.9108L92.3446 64.9097C92.6125 64.9197 92.6504 64.9086 92.9376 64.955C93.4015 65.0322 93.779 65.1835 94.1585 65.4141C94.9 65.8755 95.4619 66.6414 95.7579 67.5079C95.9083 67.9405 95.9869 68.4019 95.9957 68.8566C96.0005 68.9791 95.9995 69.0707 95.9986 69.1557L95.9966 69.4217L95.9918 69.9503C95.985 70.6523 95.9782 71.3443 95.9714 72.0253C95.9491 73.3851 95.9268 74.7007 95.9054 75.9622C95.8782 77.2238 95.852 78.4334 95.8268 79.5846C95.8132 80.1596 95.8006 80.7192 95.788 81.2644L95.7831 81.3991L95.7763 81.5006L95.7608 81.7015C95.7356 81.8681 95.7152 82.0536 95.6754 82.2026C95.6055 82.5094 95.5017 82.7997 95.3716 83.0657C94.8524 84.1385 93.9295 84.7897 93.0415 84.9442C92.8202 84.9828 92.5941 84.9938 92.3893 84.9883C92.202 84.9795 92.0195 84.9696 91.841 84.9607C91.4828 84.942 91.1422 84.9243 90.8181 84.9077C89.5234 84.8195 88.5063 84.7499 87.8124 84.7025C87.1195 84.6429 86.7497 84.612 86.7497 84.612V84.4398C86.7497 84.4398 87.1195 84.4089 87.8124 84.3504C88.5063 84.3018 89.5234 84.2323 90.8181 84.144C91.1422 84.1274 91.4828 84.1098 91.841 84.091C92.0195 84.0822 92.202 84.0722 92.3893 84.0634C92.5591 84.0513 92.7144 84.0303 92.8775 83.9884C93.5189 83.8195 94.1391 83.2886 94.4429 82.5248C94.5195 82.335 94.5758 82.133 94.6088 81.9233C94.6302 81.8174 94.6273 81.7357 94.6418 81.6375L94.6438 81.4355L94.6457 81.334C94.6467 81.2953 94.6457 81.356 94.6457 81.3406L94.6447 81.3152L94.6438 81.2644C94.6311 80.7192 94.6176 80.1596 94.604 79.5846C94.5797 78.4334 94.5535 77.2238 94.5263 75.9622C94.505 74.7007 94.4827 73.3851 94.4594 72.0253C94.4526 71.3443 94.4467 70.6523 94.44 69.9503L94.4351 69.4217L94.4322 69.1557C94.4322 69.0619 94.4312 68.9758 94.4254 68.9217C94.4167 68.6645 94.3681 68.4096 94.2788 68.1723C94.1061 67.6955 93.781 67.2849 93.3763 67.031C93.1832 66.9063 92.9289 66.8158 92.7406 66.7827C92.7037 66.7584 92.4077 66.7507 92.3446 66.7496L91.8448 66.7485C91.512 66.7485 91.1762 66.7474 90.8384 66.7474L90.3076 66.743C90.0892 66.7353 89.8708 66.7055 89.6564 66.6525C89.2274 66.5443 88.8169 66.3423 88.4491 66.0642C88.2627 65.9207 88.1016 65.7728 87.9289 65.5808C87.8221 65.4616 87.8056 65.4351 87.7154 65.3203L87.5455 65.0963C85.7346 62.7056 83.8644 60.2344 81.9632 57.7246C81.0151 56.4664 80.0698 55.1883 79.1245 53.9014L78.7722 53.4158C78.6655 53.2679 78.5733 53.1564 78.4559 53.0416C78.2288 52.8198 77.9609 52.6476 77.6707 52.5416C77.529 52.4897 77.367 52.4522 77.2311 52.4335C77.202 52.4279 77.1505 52.4246 77.1049 52.4224L76.9788 52.4147L76.7012 52.4048L75.5919 52.3617C74.1119 52.3121 72.6329 52.2624 71.1587 52.2138C69.6845 52.1807 68.2171 52.1542 66.7604 52.152C66.4013 52.1542 66.0218 52.1377 65.6812 52.1553C65.3483 52.1752 65.0213 52.269 64.7243 52.4313C64.1284 52.7524 63.648 53.344 63.4393 54.0416C63.3297 54.3981 63.2889 54.727 63.2947 55.1232C63.3044 55.526 63.3141 55.9289 63.3229 56.3284C63.3491 57.1297 63.3743 57.9255 63.3995 58.7135C63.449 60.2918 63.4985 61.8425 63.5461 63.3612C63.5927 64.8799 63.6441 66.3655 63.6606 67.8114C63.6936 69.2572 63.68 70.6644 63.6907 72.0253C63.68 73.3851 63.6693 74.7007 63.6596 75.9622C63.6548 77.2238 63.6266 78.4334 63.6092 79.5846C63.5995 80.1596 63.5898 80.7192 63.5801 81.2644C63.5616 81.7346 63.6393 82.1341 63.7916 82.5182C64.0993 83.2765 64.7223 83.7908 65.3502 83.9564C65.6142 84.0447 66.0345 84.0391 66.3838 84.0634C66.741 84.0833 67.0826 84.102 67.4058 84.1186C68.7004 84.2014 69.7175 84.2786 70.4114 84.3382C71.1053 84.4045 71.4751 84.4398 71.4751 84.4398V84.612Z" fill="#0C172F"/>
<path d="M86.8848 86.5792C86.8848 86.5792 86.8732 86.3629 86.8499 85.9567C86.8489 85.7525 86.8082 85.5064 86.7596 85.2172C86.7344 85.0727 86.715 84.9159 86.6762 84.7548C86.6315 84.5937 86.585 84.4226 86.5364 84.2427C86.32 83.5341 85.9755 82.6931 85.3912 81.9028C84.8196 81.1082 84.0461 80.3532 83.1174 79.7616C82.6428 79.4846 82.1469 79.2142 81.6082 79.0233C81.4743 78.9747 81.3394 78.925 81.2026 78.8765C81.0638 78.84 80.9231 78.8047 80.7814 78.7683C80.4951 78.6745 80.2263 78.6756 79.9477 78.6182C79.8109 78.5928 79.6236 78.5994 79.4625 78.5884L79.2101 78.5785L79.083 78.5729C79.0413 78.5718 79.1218 78.5741 79.1082 78.5741L79.0947 78.5752L79.0655 78.5774L79.0093 78.5829C78.7045 78.6094 78.3949 78.6027 78.0882 78.6745C77.4681 78.7562 76.8577 78.9769 76.253 79.2418C75.6484 79.5177 75.0855 79.9239 74.545 80.3819C74.0151 80.8576 73.5492 81.4349 73.1329 82.0662C72.7311 82.7107 72.405 83.4237 72.1449 84.1787C72.0333 84.5628 71.9081 84.9513 71.846 85.3376C71.749 85.6952 71.7295 86.1995 71.6791 86.5792C71.6441 87.4092 71.6946 88.2546 71.8722 89.0736C72.0712 89.8837 72.3623 90.6673 72.767 91.3682C73.1795 92.0602 73.6725 92.6882 74.247 93.1816C74.8235 93.6683 75.4466 94.0623 76.0968 94.3162C76.7422 94.559 77.4196 94.7345 78.0368 94.7632C78.326 94.8106 78.6929 94.7842 79.0287 94.7864H79.0927L79.1247 94.7875H79.1403C79.1529 94.7875 79.0898 94.7842 79.1228 94.7853L79.2393 94.7709L79.4712 94.7444C79.6236 94.7246 79.7779 94.7257 79.9264 94.6914C81.1259 94.4851 82.2051 94.0281 83.1358 93.4277C84.0636 92.824 84.8303 92.0602 85.4039 91.2644C85.9862 90.472 86.3317 89.6288 86.5461 88.9191C86.5956 88.7381 86.6412 88.567 86.6849 88.407C86.7228 88.2447 86.7422 88.0891 86.7664 87.9445C86.814 87.6575 86.8538 87.4114 86.8538 87.2039C86.8742 86.7933 86.8848 86.5748 86.8848 86.5748V86.5792ZM87.0362 86.5836C87.0362 86.5836 87.0275 86.8022 87.011 87.2127C87.01 87.4169 86.9867 87.6719 86.9489 87.9721C86.9285 88.1211 86.9198 88.2855 86.8936 88.4566C86.8625 88.6266 86.8286 88.8065 86.7936 88.9963C86.6412 89.7535 86.4142 90.685 85.9464 91.6695C85.4873 92.6518 84.8041 93.7092 83.8093 94.5722C82.8155 95.4232 81.5093 96.0446 80.0758 96.1958C79.8973 96.2212 79.7158 96.2124 79.5343 96.2201L79.2616 96.2223L79.1247 96.2234L79.0762 96.2212L79.0607 96.2201L79.0287 96.2168L78.9656 96.2101C78.623 96.1638 78.2998 96.1428 77.9058 96.0369C77.1391 95.8757 76.452 95.5479 75.7697 95.1539C75.0923 94.7555 74.4799 94.2235 73.8986 93.654C73.3357 93.0558 72.8301 92.3869 72.3827 91.6596C72.175 91.2843 71.9625 90.9079 71.7985 90.5007C71.7043 90.3031 71.615 90.1022 71.5481 89.8903C71.4762 89.6806 71.3938 89.4742 71.3316 89.2601C71.0696 88.4036 70.9202 87.5008 70.8493 86.5792C70.8522 86.0859 70.8144 85.7084 70.8697 85.2051C70.892 84.7195 70.9794 84.2659 71.0589 83.8045C71.2686 82.8995 71.5811 82.0187 72.0168 81.2229C72.4613 80.4349 72.9931 79.7164 73.6007 79.1005C74.2179 78.5012 74.8905 77.9814 75.6144 77.605C76.3365 77.2342 77.0915 76.9505 77.8534 76.8423C78.2319 76.7607 78.6113 76.7607 78.985 76.7386L79.0558 76.7364L79.0908 76.7342H79.1082L79.1655 76.7364L79.2917 76.7452L79.543 76.764C79.7167 76.7805 79.8643 76.7772 80.0545 76.8114C80.4271 76.8843 80.8153 76.9362 81.1453 77.0598C81.3152 77.115 81.484 77.169 81.6509 77.2231C81.815 77.2893 81.9732 77.3677 82.1313 77.4394C82.769 77.722 83.3251 78.1348 83.8268 78.5553C84.8216 79.4294 85.499 80.4967 85.958 81.4801C86.4258 82.4668 86.6539 83.3994 86.8043 84.1588C86.8383 84.3497 86.8713 84.5296 86.9023 84.6996C86.9275 84.8707 86.9363 85.034 86.9557 85.183C86.9916 85.481 87.0149 85.736 87.0149 85.9435C87.0285 86.3585 87.0362 86.5792 87.0362 86.5792V86.5836Z" fill="#0C172F"/>
<path d="M75.6514 82.6429C75.6514 82.6429 75.8173 82.7003 76.0813 82.8305C76.3472 82.9586 76.7121 83.1583 77.1188 83.4332C77.5273 83.708 77.9786 84.0545 78.4338 84.4607C78.6619 84.6627 78.8909 84.8779 79.1151 85.1075C79.3431 85.3326 79.5615 85.5766 79.7818 85.8183C79.9943 86.0677 80.2098 86.3149 80.4078 86.5743C80.6106 86.8282 80.7979 87.0908 80.9775 87.3491C81.3336 87.8656 81.6393 88.3789 81.88 88.8435C82.1217 89.3071 82.2973 89.7221 82.4089 90.0256C82.5235 90.3258 82.5739 90.5156 82.5739 90.5156C82.5739 90.5156 82.407 90.4582 82.143 90.328C81.8761 90.2011 81.5112 90.0013 81.1036 89.7265C80.695 89.4528 80.2438 89.1051 79.7896 88.7C79.5625 88.4958 79.3315 88.2828 79.1083 88.0522C78.8802 87.827 78.6628 87.582 78.4435 87.3403C78.231 87.0897 78.0165 86.8414 77.8185 86.582C77.6166 86.3271 77.4274 86.0666 77.2498 85.8072C76.8926 85.2896 76.5879 84.7764 76.3462 84.3117C76.1046 83.8493 75.9289 83.4343 75.8164 83.1318C75.7018 82.8316 75.6514 82.6429 75.6514 82.6429Z" fill="#0C172F"/>
<path d="M82.5739 82.6429C82.5739 82.6429 82.5235 82.8316 82.4089 83.1318C82.2964 83.4343 82.1207 83.8493 81.8781 84.3117C81.6374 84.7764 81.3327 85.2896 80.9755 85.8072C80.7979 86.0666 80.6087 86.3271 80.4068 86.582C80.2088 86.8414 79.9943 87.0897 79.7818 87.3403C79.5625 87.582 79.3451 87.827 79.117 88.0522C78.8938 88.2828 78.6628 88.4958 78.4357 88.7C77.9815 89.1051 77.5293 89.4528 77.1217 89.7265C76.7141 90.0013 76.3492 90.2011 76.0823 90.328C75.8183 90.4582 75.6514 90.5156 75.6514 90.5156C75.6514 90.5156 75.7018 90.3258 75.8164 90.0256C75.928 89.7221 76.1036 89.3071 76.3453 88.8435C76.586 88.3789 76.8917 87.8656 77.2478 87.3491C77.4274 87.0908 77.6147 86.8282 77.8175 86.5743C78.0155 86.3149 78.231 86.0677 78.4435 85.8183C78.6638 85.5766 78.8822 85.3326 79.1102 85.1075C79.3344 84.8779 79.5634 84.6627 79.7915 84.4607C80.2467 84.0545 80.698 83.708 81.1065 83.4332C81.5132 83.1583 81.8781 82.9586 82.144 82.8305C82.408 82.7003 82.5739 82.6429 82.5739 82.6429Z" fill="#0C172F"/>
<path d="M63.0098 66.3605C63.0098 66.3605 63.7677 66.2303 64.5247 66.1387C64.9032 66.0857 65.2827 66.0482 65.5661 66.0173C65.8504 65.9864 66.0397 65.9654 66.0397 65.9654C66.2318 65.9445 66.4016 66.1045 66.4201 66.323C66.4385 66.5416 66.2978 66.7347 66.1056 66.7557C66.0843 66.7579 66.061 66.7579 66.0397 66.7557C66.0397 66.7557 65.8504 66.7347 65.5661 66.7038C65.2827 66.6729 64.9032 66.6354 64.5247 66.5824C63.7677 66.4908 63.0098 66.3605 63.0098 66.3605Z" fill="#0C172F"/>
<path d="M69.0692 65.7202C69.0692 65.7202 69.8272 65.675 70.5842 65.6286C71.3422 65.5988 72.0991 65.5679 72.0991 65.5679C72.4844 65.5525 72.8076 65.8946 72.8212 66.3328C72.8348 66.7698 72.5339 67.1385 72.1486 67.1539C72.1331 67.1539 72.1147 67.1539 72.0991 67.1539L70.5842 67.0921C69.8272 67.0469 69.0692 67.0005 69.0692 67.0005C68.7587 66.9829 68.519 66.6804 68.5355 66.3273C68.551 65.9972 68.7859 65.7379 69.0692 65.7202Z" fill="#0C172F"/>
<path d="M75.1306 65.5053C75.1306 65.5053 75.8885 65.5042 76.6455 65.5031C77.4035 65.5042 78.1605 65.5186 78.1605 65.5186C78.57 65.5252 78.8961 65.9093 78.8893 66.375C78.8825 66.8298 78.5584 67.1951 78.1605 67.2028C78.1605 67.2028 77.4035 67.2172 76.6455 67.2183C75.8885 67.2172 75.1306 67.2161 75.1306 67.2161C74.7152 67.215 74.3794 66.832 74.3794 66.3596C74.3804 65.8872 74.7152 65.5042 75.1306 65.5053Z" fill="#0C172F"/>
<path d="M81.1896 65.61C81.1896 65.61 81.3789 65.6178 81.6632 65.631C81.9476 65.6476 82.3261 65.6707 82.7046 65.6939C83.0831 65.7171 83.4625 65.7403 83.7459 65.7579C84.0303 65.7734 84.2195 65.7933 84.2195 65.7933C84.4951 65.822 84.698 66.1001 84.6727 66.4135C84.6494 66.6906 84.4553 66.9036 84.2195 66.9279C84.2195 66.9279 84.0303 66.9477 83.7459 66.9632C83.4625 66.9808 83.0831 67.004 82.7046 67.0272C82.3261 67.0504 81.9476 67.0736 81.6632 67.0912C81.3789 67.1034 81.1896 67.1111 81.1896 67.1111C80.8247 67.1276 80.518 66.8043 80.5044 66.3893C80.4899 65.9754 80.7742 65.6255 81.1391 65.61C81.1556 65.6089 81.1731 65.6089 81.1896 65.61Z" fill="#0C172F"/>
<path d="M87.248 66.086C87.248 66.086 87.7245 66.149 88.2011 66.2119C88.6785 66.2792 89.1551 66.3609 89.1551 66.3609C89.1551 66.3609 88.6785 66.4425 88.2011 66.5099C87.7245 66.5717 87.248 66.6346 87.248 66.6346C87.1151 66.6522 86.9938 66.5441 86.9792 66.3918C86.9637 66.2406 87.0588 66.1037 87.1917 66.086C87.2111 66.0838 87.2306 66.0838 87.248 66.086Z" fill="#0C172F"/>
</svg>
