<svg width="18" height="19" viewBox="0 0 18 19" fill="none" xmlns="http://www.w3.org/2000/svg">
<path d="M13.1235 11.2865C12.8977 11.174 11.7983 10.6363 11.5935 10.562C11.3888 10.4862 11.2387 10.4495 11.0887 10.6745C10.941 10.8958 10.5105 11.3975 10.3807 11.546C10.2495 11.6922 10.119 11.7035 9.89625 11.6023C9.67125 11.4897 8.949 11.2535 8.094 10.4885C7.428 9.89225 6.981 9.161 6.849 8.936C6.7185 8.711 6.83475 8.58725 6.9465 8.47475C7.0485 8.3735 7.17225 8.216 7.28475 8.0825C7.39425 7.94675 7.43025 7.85675 7.5075 7.7105C7.5825 7.553 7.54425 7.42925 7.48875 7.3175C7.4325 7.205 6.98475 6.1025 6.79725 5.663C6.61725 5.225 6.432 5.2805 6.29325 5.2805C6.16425 5.26925 6.015 5.26925 5.865 5.26925C5.715 5.26925 5.47275 5.32475 5.26725 5.5385C5.0625 5.7635 4.4835 6.3035 4.4835 7.39475C4.4835 8.486 5.286 9.5435 5.39775 9.701C5.5095 9.84725 6.9765 12.0972 9.22275 13.0648C9.75825 13.2898 10.1753 13.4248 10.5008 13.5365C11.0363 13.7067 11.5245 13.6827 11.9107 13.6273C12.3412 13.559 13.236 13.0865 13.4227 12.5577C13.614 12.029 13.614 11.5903 13.5577 11.489C13.5022 11.3878 13.3553 11.3315 13.1302 11.2303L13.1235 11.2865ZM9.04575 16.8125H9.03375C7.70625 16.8125 6.39075 16.4525 5.2425 15.7775L4.9725 15.617L2.16 16.3483L2.91375 13.6145L2.7345 13.3333C1.992 12.1512 1.5975 10.79 1.5975 9.38825C1.5975 5.3045 4.93875 1.9745 9.054 1.9745C11.0445 1.9745 12.9128 2.75075 14.3197 4.157C15.726 5.55125 16.5015 7.4195 16.5015 9.3995C16.4985 13.4825 13.1565 16.8132 9.05025 16.8132L9.04575 16.8125ZM15.39 3.08675C13.68 1.43375 11.43 0.5 9.03375 0.5C4.09725 0.5 0.078 4.5005 0.07575 9.41975C0.07575 10.9917 0.4875 12.5247 1.272 13.8785L0 18.5L4.75125 17.261C6.06075 17.9683 7.53375 18.344 9.03375 18.3463H9.03825C13.977 18.3463 17.9977 14.3442 18 9.42425C18 7.04225 17.07 4.8005 15.3787 3.116" fill="#1C1C1C"/>
</svg>
